<svg width="824" height="823" viewBox="0 0 824 823" fill="none" xmlns="http://www.w3.org/2000/svg">
<path fill-rule="evenodd" clip-rule="evenodd" d="M338.501 368.785L206.319 139.883C133.335 195.259 85.5937 277.845 74.1955 368.726H338.501V368.785ZM412.261 326.239L280.138 97.3963C364.401 62.0704 460.181 62.0704 544.444 97.3963L412.321 326.239H412.261ZM486.021 368.785H750.327C738.809 278.203 690.889 195.259 618.144 139.942L486.021 368.785ZM486.021 453.938L618.144 682.84C691.128 627.464 738.869 544.818 750.327 453.938H486.021ZM412.261 496.484L544.384 725.327C460.122 760.653 364.341 760.653 280.138 725.327L412.261 496.484ZM338.501 453.938H74.1955C85.713 544.52 133.633 627.464 206.319 682.781L338.442 453.938H338.501ZM307.112 18.9272C523.796 -39.1338 746.627 89.5195 804.692 306.189C862.757 522.919 734.095 745.675 517.411 803.736C300.726 861.797 77.8955 733.144 19.8305 516.474C-38.2344 299.745 90.4275 76.9883 307.112 18.9272Z" fill="url(#paint0_linear_50_7833)"/>
<path d="M74.1987 373.858H338.505C338.982 373.858 339.4 373.858 339.818 373.679C341.071 373.321 342.205 372.485 342.861 371.292C343.756 369.741 343.756 367.831 342.861 366.22L210.678 137.317C209.962 136.064 208.709 135.169 207.277 134.871C205.844 134.572 204.412 134.93 203.219 135.826C129.519 191.679 80.6437 276.353 69.1262 368.07C68.9472 369.502 69.3649 370.934 70.3794 372.068C71.3342 373.142 72.7068 373.798 74.139 373.798L74.1987 373.858ZM204.83 147.461L329.732 363.773H79.9873C92.1612 278.8 137.396 200.51 204.83 147.461Z" fill="black"/>
<path d="M407.847 328.746C408.742 330.297 410.413 331.252 412.203 331.252C412.68 331.252 413.098 331.252 413.516 331.073C414.769 330.715 415.903 329.88 416.559 328.746L548.682 99.9029C549.399 98.6498 549.578 97.1579 549.1 95.7855C548.623 94.413 547.608 93.2794 546.236 92.7423C475.758 63.2046 396.15 57.834 322.092 77.7048C307.113 81.7028 292.313 86.7751 278.051 92.7423C276.738 93.2794 275.664 94.413 275.186 95.7855C274.709 97.1579 274.888 98.6498 275.604 99.9626L407.727 328.806L407.847 328.746ZM537.105 99.8433L412.263 316.095L287.42 99.8433C366.968 68.0977 457.915 68.2767 537.165 99.8433H537.105Z" fill="black"/>
<path d="M481.606 371.292C482.501 372.843 484.172 373.798 485.962 373.798H750.209C750.686 373.798 751.104 373.798 751.521 373.619C752.476 373.38 753.371 372.843 754.028 372.068C754.983 370.994 755.46 369.561 755.221 368.07C743.525 276.413 694.65 191.798 621.129 135.826C619.995 134.93 618.503 134.572 617.071 134.871C615.758 135.109 614.386 136.064 613.669 137.317L481.546 366.16C480.651 367.712 480.651 369.681 481.546 371.232L481.606 371.292ZM619.577 147.461C686.952 200.57 732.127 278.8 744.48 363.714H494.735L619.577 147.461Z" fill="black"/>
<path d="M750.267 448.866H485.961C484.171 448.866 482.5 449.821 481.605 451.372C480.71 452.924 480.71 454.893 481.605 456.445L613.728 685.347C614.444 686.6 615.697 687.495 617.13 687.794C617.905 687.973 618.681 687.913 619.457 687.734C620.113 687.555 620.651 687.257 621.188 686.899C694.888 631.045 743.763 546.371 755.34 454.595C755.519 453.163 755.101 451.731 754.146 450.597C753.191 449.523 751.819 448.866 750.327 448.866H750.267ZM619.576 675.263L494.734 458.951H744.479C732.305 543.924 687.07 622.154 619.576 675.263Z" fill="black"/>
<path d="M809.527 304.937C750.805 85.8801 524.812 -44.6231 305.74 14.0943C86.6689 72.8117 -43.8429 298.79 14.8785 517.847C73.5998 736.904 299.594 867.407 518.665 808.689C737.736 749.972 868.248 523.993 809.527 304.937ZM516.039 798.903C302.339 856.129 81.8948 728.908 24.6057 515.221C-32.6238 301.535 94.6059 81.1063 308.366 23.8806C522.067 -33.4047 742.51 93.8762 799.74 307.562C856.969 521.248 729.74 741.677 516.039 798.903Z" fill="black"/>
<path d="M342.86 451.432C341.965 449.881 340.294 448.926 338.503 448.866H74.1975C72.7652 448.866 71.3927 449.463 70.3782 450.597C69.4234 451.671 68.9459 453.103 69.125 454.595C80.8215 546.251 129.696 630.866 203.217 686.839C204.351 687.734 205.843 688.092 207.275 687.794C207.395 687.794 207.514 687.794 207.574 687.734C208.887 687.376 209.961 686.54 210.617 685.407L342.74 456.564C343.635 455.012 343.635 453.103 342.74 451.492L342.86 451.432ZM204.829 675.263C137.454 622.154 92.2793 543.924 79.986 459.01H329.731L204.888 675.263H204.829Z" fill="black"/>
<path d="M416.618 493.978C415.723 492.427 414.052 491.472 412.261 491.472C410.471 491.472 408.8 492.486 407.905 493.978L275.782 722.821C275.066 724.074 274.887 725.566 275.364 726.938C275.842 728.311 276.856 729.444 278.229 729.981C348.706 759.519 428.314 764.89 502.372 745.019C517.351 741.021 532.151 735.949 546.413 729.981C547.726 729.444 548.8 728.311 549.278 726.938C549.755 725.566 549.576 724.074 548.86 722.761L416.737 493.918L416.618 493.978ZM287.359 722.88L412.202 506.628L537.044 722.88C457.496 754.626 366.549 754.507 287.299 722.88H287.359Z" fill="black"/>
<path fill-rule="evenodd" clip-rule="evenodd" d="M241.289 365.563C266.592 271.221 363.625 215.189 457.973 240.49C552.321 265.791 608.357 362.818 583.055 457.16C557.752 551.501 460.718 607.534 366.37 582.233C272.022 556.932 215.986 459.905 241.229 365.563H241.289Z" fill="url(#paint1_linear_50_7833)"/>
<path d="M459.167 587.185C428.493 595.42 395.97 595.36 365.117 587.126C268.203 561.168 210.436 461.158 236.455 364.25C253.224 301.654 302.636 252.305 365.296 235.477C395.97 227.243 428.493 227.302 459.346 235.537C506.311 248.128 545.518 278.203 569.806 320.331C594.095 362.46 600.599 411.451 588.008 458.413C571.239 521.009 521.886 570.358 459.167 587.126V587.185ZM367.922 245.264C308.723 261.136 262.056 307.74 246.242 366.876C221.715 458.413 276.2 552.814 367.802 577.339C396.924 585.157 427.658 585.157 456.601 577.399C515.799 561.526 562.466 514.922 578.28 455.787C590.156 411.451 584.069 365.145 561.094 325.344C538.118 285.602 501.059 257.138 456.72 245.264C427.598 237.447 396.865 237.447 367.922 245.264Z" fill="black"/>
<path fill-rule="evenodd" clip-rule="evenodd" d="M398.596 360.55C426.644 353.031 455.527 369.68 463.047 397.786C470.566 425.832 453.916 454.713 425.809 462.232C397.761 469.75 368.877 453.102 361.358 424.996C353.839 396.95 370.489 368.069 398.596 360.55Z" fill="black"/>
<path d="M467.94 396.413C459.705 365.682 428.017 347.422 397.284 355.597C366.55 363.832 348.289 395.518 356.465 426.249C364.7 456.98 396.388 475.24 427.122 467.005C457.855 458.771 476.116 427.084 467.88 396.353L467.94 396.413ZM424.556 457.279C399.193 464.081 373.115 448.984 366.312 423.623C359.509 398.263 374.607 372.186 399.969 365.384C425.331 358.581 451.41 373.678 458.213 399.039C465.016 424.399 449.918 450.476 424.556 457.279Z" fill="black"/>
<defs>
<linearGradient id="paint0_linear_50_7833" x1="412.261" y1="4.99023" x2="412.261" y2="817.673" gradientUnits="userSpaceOnUse">
<stop stop-color="#0047D6"/>
<stop offset="0.331731" stop-color="#78D1FE"/>
<stop offset="0.665865" stop-color="#78D1FE"/>
<stop offset="1" stop-color="#0047D6"/>
</linearGradient>
<linearGradient id="paint1_linear_50_7833" x1="412.154" y1="234.414" x2="412.154" y2="588.308" gradientUnits="userSpaceOnUse">
<stop stop-color="#78D1FE"/>
<stop offset="0.567308" stop-color="#F1F2F2"/>
<stop offset="1" stop-color="#78D1FE"/>
</linearGradient>
</defs>
</svg>
