<svg width="344" height="164" viewBox="0 0 344 164" fill="none" xmlns="http://www.w3.org/2000/svg">
<path d="M22.9943 0H321.006C333.71 0 344 10.288 344 22.9326V141.067C344 153.737 333.684 164 321.006 164H22.9943C10.2902 164 0 153.712 0 141.067V22.9326C0 10.2626 10.3156 0 22.9943 0Z" fill="black"/>
<path d="M22.9939 4.78906H321.005C331.042 4.78906 339.197 12.9232 339.197 22.9325V141.067C339.197 151.076 331.042 159.211 321.005 159.211H22.9939C12.9577 159.211 4.80176 151.076 4.80176 141.067V22.9325C4.80176 12.9232 12.9577 4.78906 22.9939 4.78906Z" fill="url(#paint0_linear_1234_27252)"/>
<path fill-rule="evenodd" clip-rule="evenodd" d="M94.7459 36.869C89.9184 41.6836 82.0927 41.6836 77.2652 36.869C72.4376 32.0545 72.4376 24.2497 77.2652 19.4352C82.0927 14.6206 89.9184 14.6206 94.7459 19.4352C99.5735 24.2497 99.5735 32.0545 94.7459 36.869Z" fill="black"/>
<path fill-rule="evenodd" clip-rule="evenodd" d="M209.692 36.869C204.865 41.6836 197.039 41.6836 192.211 36.869C187.384 32.0545 187.384 24.2497 192.211 19.4352C197.039 14.6206 204.865 14.6206 209.692 19.4352C214.52 24.2497 214.52 32.0545 209.692 36.869Z" fill="black"/>
<path fill-rule="evenodd" clip-rule="evenodd" d="M324.562 36.8446C319.735 41.6592 311.909 41.6592 307.082 36.8446C302.254 32.03 302.254 24.2253 307.082 19.4107C311.909 14.5962 319.735 14.5962 324.562 19.4107C329.39 24.2253 329.39 32.03 324.562 36.8446Z" fill="black"/>
<path fill-rule="evenodd" clip-rule="evenodd" d="M321.387 33.6768C318.312 36.7429 313.307 36.7429 310.233 33.6768C307.158 30.6107 307.158 25.6187 310.233 22.5525C313.307 19.4864 318.312 19.4864 321.387 22.5525C324.461 25.6187 324.461 30.6107 321.387 33.6768Z" fill="#A7A9AC"/>
<path fill-rule="evenodd" clip-rule="evenodd" d="M319.405 31.7C316.915 34.1833 312.85 34.1833 310.36 31.7C307.87 29.2167 307.87 25.1622 310.36 22.6789C312.85 20.1956 316.915 20.1956 319.405 22.6789C321.895 25.1622 321.895 29.2167 319.405 31.7Z" fill="#D1D3D4"/>
<path fill-rule="evenodd" clip-rule="evenodd" d="M324.562 94.1376C319.735 98.9522 311.909 98.9522 307.082 94.1376C302.254 89.323 302.254 81.5183 307.082 76.7037C311.909 71.8891 319.735 71.8891 324.562 76.7037C329.39 81.5183 329.39 89.323 324.562 94.1376Z" fill="black"/>
<path fill-rule="evenodd" clip-rule="evenodd" d="M321.387 90.9951C318.312 94.0613 313.307 94.0613 310.233 90.9951C307.158 87.929 307.158 82.937 310.233 79.8709C313.307 76.8048 318.312 76.8048 321.387 79.8709C324.461 82.937 324.461 87.929 321.387 90.9951Z" fill="#A7A9AC"/>
<path fill-rule="evenodd" clip-rule="evenodd" d="M319.405 89.0192C316.915 91.5025 312.85 91.5025 310.36 89.0192C307.87 86.5359 307.87 82.4815 310.36 79.9982C312.85 77.5149 316.915 77.5149 319.405 79.9982C321.895 82.4815 321.895 86.5359 319.405 89.0192Z" fill="#D1D3D4"/>
<path fill-rule="evenodd" clip-rule="evenodd" d="M37.2733 36.869C32.4458 41.6836 24.6201 41.6836 19.7925 36.869C14.965 32.0545 14.965 24.2497 19.7925 19.4352C24.6201 14.6206 32.4458 14.6206 37.2733 19.4352C42.1008 24.2497 42.1008 32.0545 37.2733 36.869Z" fill="black"/>
<path fill-rule="evenodd" clip-rule="evenodd" d="M34.124 33.7276C37.1984 30.6614 37.1984 25.6694 34.124 22.6033C31.0497 19.5372 26.0442 19.5372 22.9698 22.6033C19.8955 25.6694 19.8955 30.6614 22.9698 33.7276C26.0442 36.7937 31.0497 36.7937 34.124 33.7276Z" fill="#A7A9AC"/>
<path fill-rule="evenodd" clip-rule="evenodd" d="M32.1403 31.7507C34.6303 29.2674 34.6303 25.213 32.1403 22.7297C29.6503 20.2464 25.585 20.2464 23.095 22.7297C20.605 25.213 20.605 29.2674 23.095 31.7507C25.585 34.234 29.6503 34.234 32.1403 31.7507Z" fill="#D1D3D4"/>
<path fill-rule="evenodd" clip-rule="evenodd" d="M91.5957 33.7276C94.6701 30.6614 94.6701 25.6694 91.5957 22.6033C88.5213 19.5372 83.5159 19.5372 80.4415 22.6033C77.3671 25.6694 77.3671 30.6614 80.4415 33.7276C83.5159 36.7937 88.5213 36.7937 91.5957 33.7276Z" fill="#A7A9AC"/>
<path fill-rule="evenodd" clip-rule="evenodd" d="M89.6139 31.7507C92.1039 29.2674 92.1039 25.213 89.6139 22.7297C87.1239 20.2464 83.0587 20.2464 80.5687 22.7297C78.0787 25.213 78.0787 29.2674 80.5687 31.7507C83.0587 34.234 87.1239 34.234 89.6139 31.7507Z" fill="#D1D3D4"/>
<path fill-rule="evenodd" clip-rule="evenodd" d="M152.219 36.869C147.392 41.6836 139.566 41.6836 134.739 36.869C129.911 32.0545 129.911 24.2497 134.739 19.4352C139.566 14.6206 147.392 14.6206 152.219 19.4352C157.047 24.2497 157.047 32.0545 152.219 36.869Z" fill="black"/>
<path fill-rule="evenodd" clip-rule="evenodd" d="M149.044 33.7276C152.118 30.6614 152.118 25.6694 149.044 22.6033C145.969 19.5372 140.964 19.5372 137.89 22.6033C134.815 25.6694 134.815 30.6614 137.89 33.7276C140.964 36.7937 145.969 36.7937 149.044 33.7276Z" fill="#A7A9AC"/>
<path fill-rule="evenodd" clip-rule="evenodd" d="M147.062 31.7507C149.552 29.2674 149.552 25.213 147.062 22.7297C144.572 20.2464 140.507 20.2464 138.017 22.7297C135.527 25.213 135.527 29.2674 138.017 31.7507C140.507 34.234 144.572 34.234 147.062 31.7507Z" fill="#D1D3D4"/>
<path fill-rule="evenodd" clip-rule="evenodd" d="M206.518 33.7276C209.592 30.6614 209.592 25.6694 206.518 22.6033C203.443 19.5372 198.438 19.5372 195.363 22.6033C192.289 25.6694 192.289 30.6614 195.363 33.7276C198.438 36.7937 203.443 36.7937 206.518 33.7276Z" fill="#A7A9AC"/>
<path fill-rule="evenodd" clip-rule="evenodd" d="M204.535 31.7507C207.025 29.2674 207.025 25.213 204.535 22.7297C202.045 20.2464 197.98 20.2464 195.49 22.7297C193 25.213 193 29.2674 195.49 31.7507C197.98 34.234 202.045 34.234 204.535 31.7507Z" fill="#D1D3D4"/>
<path fill-rule="evenodd" clip-rule="evenodd" d="M267.166 36.869C262.338 41.6836 254.513 41.6836 249.685 36.869C244.858 32.0545 244.858 24.2497 249.685 19.4352C254.513 14.6206 262.338 14.6206 267.166 19.4352C271.993 24.2497 271.993 32.0545 267.166 36.869Z" fill="black"/>
<path fill-rule="evenodd" clip-rule="evenodd" d="M263.99 33.7276C267.065 30.6614 267.065 25.6694 263.99 22.6033C260.916 19.5372 255.91 19.5372 252.836 22.6033C249.762 25.6694 249.762 30.6614 252.836 33.7276C255.91 36.7937 260.916 36.7937 263.99 33.7276Z" fill="#A7A9AC"/>
<path fill-rule="evenodd" clip-rule="evenodd" d="M262.007 31.7507C264.497 29.2674 264.497 25.213 262.007 22.7297C259.517 20.2464 255.452 20.2464 252.962 22.7297C250.472 25.213 250.472 29.2674 252.962 31.7507C255.452 34.234 259.517 34.234 262.007 31.7507Z" fill="#D1D3D4"/>
<path fill-rule="evenodd" clip-rule="evenodd" d="M37.2733 94.1376C32.4458 98.9522 24.6201 98.9522 19.7925 94.1376C14.965 89.323 14.965 81.5183 19.7925 76.7037C24.6201 71.8891 32.4458 71.8891 37.2733 76.7037C42.1008 81.5183 42.1008 89.323 37.2733 94.1376Z" fill="black"/>
<path fill-rule="evenodd" clip-rule="evenodd" d="M34.124 90.9951C31.0497 94.0613 26.0442 94.0613 22.9698 90.9951C19.8955 87.929 19.8955 82.937 22.9698 79.8709C26.0442 76.8048 31.0497 76.8048 34.124 79.8709C37.1984 82.937 37.1984 87.929 34.124 90.9951Z" fill="#A7A9AC"/>
<path fill-rule="evenodd" clip-rule="evenodd" d="M32.1403 89.0192C29.6503 91.5025 25.585 91.5025 23.095 89.0192C20.605 86.5359 20.605 82.4815 23.095 79.9982C25.585 77.5149 29.6503 77.5149 32.1403 79.9982C34.6303 82.4815 34.6303 86.5359 32.1403 89.0192Z" fill="#D1D3D4"/>
<path fill-rule="evenodd" clip-rule="evenodd" d="M324.562 149.759C319.735 154.573 311.909 154.573 307.082 149.759C302.254 144.944 302.254 137.139 307.082 132.325C311.909 127.51 319.735 127.51 324.562 132.325C329.39 137.139 329.39 144.944 324.562 149.759Z" fill="black"/>
<path fill-rule="evenodd" clip-rule="evenodd" d="M321.387 146.592C318.312 149.658 313.307 149.658 310.233 146.592C307.158 143.526 307.158 138.534 310.233 135.468C313.307 132.401 318.312 132.401 321.387 135.468C324.461 138.534 324.461 143.526 321.387 146.592Z" fill="#A7A9AC"/>
<path fill-rule="evenodd" clip-rule="evenodd" d="M319.405 144.615C316.915 147.098 312.85 147.098 310.36 144.615C307.87 142.132 307.87 138.077 310.36 135.594C312.85 133.111 316.915 133.111 319.405 135.594C321.895 138.077 321.895 142.132 319.405 144.615Z" fill="#D1D3D4"/>
<path fill-rule="evenodd" clip-rule="evenodd" d="M37.2733 149.759C32.4458 154.573 24.6201 154.573 19.7925 149.759C14.965 144.944 14.965 137.139 19.7925 132.325C24.6201 127.51 32.4458 127.51 37.2733 132.325C42.1008 137.139 42.1008 144.944 37.2733 149.759Z" fill="black"/>
<path fill-rule="evenodd" clip-rule="evenodd" d="M34.124 146.592C37.1984 143.526 37.1984 138.534 34.124 135.468C31.0497 132.401 26.0442 132.401 22.9698 135.468C19.8955 138.534 19.8955 143.526 22.9698 146.592C26.0442 149.658 31.0497 149.658 34.124 146.592Z" fill="#A7A9AC"/>
<path fill-rule="evenodd" clip-rule="evenodd" d="M32.1403 144.615C34.6303 142.132 34.6303 138.077 32.1403 135.594C29.6503 133.111 25.585 133.111 23.095 135.594C20.605 138.077 20.605 142.132 23.095 144.615C25.585 147.098 29.6503 147.098 32.1403 144.615Z" fill="#D1D3D4"/>
<path fill-rule="evenodd" clip-rule="evenodd" d="M94.7459 149.759C89.9184 154.573 82.0927 154.573 77.2652 149.759C72.4376 144.944 72.4376 137.139 77.2652 132.325C82.0927 127.51 89.9184 127.51 94.7459 132.325C99.5735 137.139 99.5735 144.944 94.7459 149.759Z" fill="black"/>
<path fill-rule="evenodd" clip-rule="evenodd" d="M91.5702 146.592C94.6445 143.526 94.6445 138.534 91.5702 135.468C88.4958 132.401 83.4905 132.401 80.4161 135.468C77.3418 138.534 77.3418 143.526 80.4161 146.592C83.4905 149.658 88.4958 149.658 91.5702 146.592Z" fill="#A7A9AC"/>
<path fill-rule="evenodd" clip-rule="evenodd" d="M89.6139 144.615C92.1039 142.132 92.1039 138.077 89.6139 135.594C87.1239 133.111 83.0587 133.111 80.5687 135.594C78.0787 138.077 78.0787 142.132 80.5687 144.615C83.0587 147.098 87.1239 147.098 89.6139 144.615Z" fill="#D1D3D4"/>
<path fill-rule="evenodd" clip-rule="evenodd" d="M152.219 149.759C147.392 154.573 139.566 154.573 134.739 149.759C129.911 144.944 129.911 137.139 134.739 132.325C139.566 127.51 147.392 127.51 152.219 132.325C157.047 137.139 157.047 144.944 152.219 149.759Z" fill="black"/>
<path fill-rule="evenodd" clip-rule="evenodd" d="M149.044 146.592C152.118 143.526 152.118 138.534 149.044 135.468C145.969 132.401 140.964 132.401 137.89 135.468C134.815 138.534 134.815 143.526 137.89 146.592C140.964 149.658 145.969 149.658 149.044 146.592Z" fill="#A7A9AC"/>
<path fill-rule="evenodd" clip-rule="evenodd" d="M147.062 144.615C149.552 142.132 149.552 138.077 147.062 135.594C144.572 133.111 140.507 133.111 138.017 135.594C135.527 138.077 135.527 142.132 138.017 144.615C140.507 147.098 144.572 147.098 147.062 144.615Z" fill="#D1D3D4"/>
<path fill-rule="evenodd" clip-rule="evenodd" d="M209.692 149.759C204.865 154.573 197.039 154.573 192.211 149.759C187.384 144.944 187.384 137.139 192.211 132.325C197.039 127.51 204.865 127.51 209.692 132.325C214.52 137.139 214.52 144.944 209.692 149.759Z" fill="black"/>
<path fill-rule="evenodd" clip-rule="evenodd" d="M206.518 146.592C209.592 143.526 209.592 138.534 206.518 135.468C203.443 132.401 198.438 132.401 195.363 135.468C192.289 138.534 192.289 143.526 195.363 146.592C198.438 149.658 203.443 149.658 206.518 146.592Z" fill="#A7A9AC"/>
<path fill-rule="evenodd" clip-rule="evenodd" d="M204.535 144.615C207.025 142.132 207.025 138.077 204.535 135.594C202.045 133.111 197.98 133.111 195.49 135.594C193 138.077 193 142.132 195.49 144.615C197.98 147.098 202.045 147.098 204.535 144.615Z" fill="#D1D3D4"/>
<path fill-rule="evenodd" clip-rule="evenodd" d="M267.14 149.759C262.313 154.573 254.487 154.573 249.66 149.759C244.832 144.944 244.832 137.139 249.66 132.325C254.487 127.51 262.313 127.51 267.14 132.325C271.968 137.139 271.968 144.944 267.14 149.759Z" fill="black"/>
<path fill-rule="evenodd" clip-rule="evenodd" d="M263.99 146.592C267.065 143.526 267.065 138.534 263.99 135.468C260.916 132.401 255.91 132.401 252.836 135.468C249.762 138.534 249.762 143.526 252.836 146.592C255.91 149.658 260.916 149.658 263.99 146.592Z" fill="#A7A9AC"/>
<path fill-rule="evenodd" clip-rule="evenodd" d="M262.007 144.615C264.497 142.132 264.497 138.077 262.007 135.594C259.517 133.111 255.452 133.111 252.962 135.594C250.472 138.077 250.472 142.132 252.962 144.615C255.452 147.098 259.517 147.098 262.007 144.615Z" fill="#D1D3D4"/>
<path fill-rule="evenodd" clip-rule="evenodd" d="M262.008 31.7507C264.498 29.2673 264.498 25.213 262.008 22.7296C259.518 20.2463 255.453 20.2463 252.963 22.7296C250.473 25.213 250.473 29.2673 252.963 31.7507C255.453 34.234 259.518 34.234 262.008 31.7507ZM319.405 31.7253C316.915 34.2086 312.85 34.2086 310.36 31.7253C307.87 29.242 307.87 25.1876 310.36 22.7043C312.85 20.221 316.915 20.221 319.405 22.7043C321.895 25.1876 321.895 29.242 319.405 31.7253ZM319.405 89.0442C316.915 91.5275 312.85 91.5275 310.36 89.0442C307.87 86.5609 307.87 82.5065 310.36 80.0232C312.85 77.5399 316.915 77.5399 319.405 80.0232C321.895 82.5065 321.895 86.5609 319.405 89.0442ZM319.405 144.64C316.915 147.123 312.85 147.123 310.36 144.64C307.87 142.157 307.87 138.102 310.36 135.619C312.85 133.136 316.915 133.136 319.405 135.619C321.895 138.102 321.895 142.157 319.405 144.64ZM262.008 144.64C264.498 142.157 264.498 138.102 262.008 135.619C259.518 133.136 255.453 133.136 252.963 135.619C250.473 138.102 250.473 142.157 252.963 144.64C255.453 147.123 259.518 147.123 262.008 144.64ZM204.535 144.64C207.025 142.157 207.025 138.102 204.535 135.619C202.045 133.136 197.98 133.136 195.49 135.619C193 138.102 193 142.157 195.49 144.64C197.98 147.123 202.045 147.123 204.535 144.64ZM147.062 144.64C149.552 142.157 149.552 138.102 147.062 135.619C144.572 133.136 140.507 133.136 138.017 135.619C135.527 138.102 135.527 142.157 138.017 144.64C140.507 147.123 144.572 147.123 147.062 144.64ZM89.5889 144.64C92.0789 142.157 92.0789 138.102 89.5889 135.619C87.099 133.136 83.0337 133.136 80.5437 135.619C78.0537 138.102 78.0537 142.157 80.5437 144.64C83.0337 147.123 87.099 147.123 89.5889 144.64ZM32.1159 144.64C34.6059 142.157 34.6059 138.102 32.1159 135.619C29.6259 133.136 25.5606 133.136 23.0706 135.619C20.5806 138.102 20.5806 142.157 23.0706 144.64C25.5606 147.123 29.6259 147.123 32.1159 144.64ZM32.1159 89.0442C29.6259 91.5275 25.5606 91.5275 23.0706 89.0442C20.5806 86.5609 20.5806 82.5065 23.0706 80.0232C25.5606 77.5399 29.6259 77.5399 32.1159 80.0232C34.6059 82.5065 34.6059 86.5609 32.1159 89.0442ZM32.1159 31.776C34.6059 29.2927 34.6059 25.2383 32.1159 22.755C29.6259 20.2717 25.5606 20.2717 23.0706 22.755C20.5806 25.2383 20.5806 29.2927 23.0706 31.776C25.5606 34.2593 29.6259 34.2593 32.1159 31.776ZM89.5889 31.776C92.0789 29.2927 92.0789 25.2383 89.5889 22.755C87.099 20.2717 83.0337 20.2717 80.5437 22.755C78.0537 25.2383 78.0537 29.2927 80.5437 31.776C83.0337 34.2593 87.099 34.2593 89.5889 31.776ZM147.062 31.776C149.552 29.2927 149.552 25.2383 147.062 22.755C144.572 20.2717 140.507 20.2717 138.017 22.755C135.527 25.2383 135.527 29.2927 138.017 31.776C140.507 34.2593 144.572 34.2593 147.062 31.776ZM204.535 31.776C207.025 29.2927 207.025 25.2383 204.535 22.755C202.045 20.2717 197.98 20.2717 195.49 22.755C193 25.2383 193 29.2927 195.49 31.776C197.98 34.2593 202.045 34.2593 204.535 31.776Z" fill="#D1D3D4"/>
<path fill-rule="evenodd" clip-rule="evenodd" d="M200.85 27.6707C202.146 26.3784 202.146 24.2499 200.85 22.9575C199.554 21.6652 197.42 21.6652 196.124 22.9575C194.828 24.2499 194.828 26.3784 196.124 27.6707C197.42 28.9631 199.554 28.9631 200.85 27.6707Z" fill="#F1F2F2"/>
<path fill-rule="evenodd" clip-rule="evenodd" d="M143.378 27.6707C144.674 26.3784 144.674 24.2499 143.378 22.9575C142.083 21.6652 139.948 21.6652 138.653 22.9575C137.357 24.2499 137.357 26.3784 138.653 27.6707C139.948 28.9631 142.083 28.9631 143.378 27.6707Z" fill="#F1F2F2"/>
<path fill-rule="evenodd" clip-rule="evenodd" d="M85.9048 27.6707C87.2006 26.3784 87.2006 24.2499 85.9048 22.9575C84.6089 21.6652 82.4747 21.6652 81.1789 22.9575C79.8831 24.2499 79.8831 26.3784 81.1789 27.6707C82.4747 28.9631 84.6089 28.9631 85.9048 27.6707Z" fill="#F1F2F2"/>
<path fill-rule="evenodd" clip-rule="evenodd" d="M28.4575 27.6707C29.7533 26.3784 29.7533 24.2499 28.4575 22.9575C27.1617 21.6652 25.0274 21.6652 23.7316 22.9575C22.4358 24.2499 22.4358 26.3784 23.7316 27.6707C25.0274 28.9631 27.1617 28.9631 28.4575 27.6707Z" fill="#F1F2F2"/>
<path fill-rule="evenodd" clip-rule="evenodd" d="M28.4311 84.9647C29.7269 83.6724 29.7269 81.5438 28.4311 80.2515C27.1353 78.9591 25.0011 78.9591 23.7053 80.2515C22.4094 81.5438 22.4094 83.6724 23.7053 84.9647C25.0011 86.2571 27.1353 86.2571 28.4311 84.9647Z" fill="#F1F2F2"/>
<path fill-rule="evenodd" clip-rule="evenodd" d="M28.4311 140.56C29.7269 139.268 29.7269 137.14 28.4311 135.847C27.1353 134.555 25.0011 134.555 23.7053 135.847C22.4094 137.14 22.4094 139.268 23.7053 140.56C25.0011 141.853 27.1353 141.853 28.4311 140.56Z" fill="#F1F2F2"/>
<path fill-rule="evenodd" clip-rule="evenodd" d="M85.9048 140.56C87.2006 139.268 87.2006 137.14 85.9048 135.847C84.6089 134.555 82.4747 134.555 81.1789 135.847C79.8831 137.14 79.8831 139.268 81.1789 140.56C82.4747 141.853 84.6089 141.853 85.9048 140.56Z" fill="#F1F2F2"/>
<path fill-rule="evenodd" clip-rule="evenodd" d="M143.378 140.56C144.674 139.268 144.674 137.14 143.378 135.847C142.083 134.555 139.948 134.555 138.653 135.847C137.357 137.14 137.357 139.268 138.653 140.56C139.948 141.853 142.083 141.853 143.378 140.56Z" fill="#F1F2F2"/>
<path fill-rule="evenodd" clip-rule="evenodd" d="M200.85 140.56C202.146 139.268 202.146 137.14 200.85 135.847C199.554 134.555 197.42 134.555 196.124 135.847C194.828 137.14 194.828 139.268 196.124 140.56C197.42 141.853 199.554 141.853 200.85 140.56Z" fill="#F1F2F2"/>
<path fill-rule="evenodd" clip-rule="evenodd" d="M258.324 140.56C259.62 139.268 259.62 137.14 258.324 135.847C257.028 134.555 254.894 134.555 253.598 135.847C252.302 137.14 252.302 139.268 253.598 140.56C254.894 141.853 257.028 141.853 258.324 140.56Z" fill="#F1F2F2"/>
<path fill-rule="evenodd" clip-rule="evenodd" d="M315.72 140.56C317.016 139.243 317.016 137.14 315.72 135.847C314.424 134.555 312.29 134.555 310.994 135.847C309.699 137.14 309.699 139.268 310.994 140.56C312.29 141.853 314.424 141.853 315.72 140.56Z" fill="#F1F2F2"/>
<path fill-rule="evenodd" clip-rule="evenodd" d="M315.72 84.9647C317.016 83.6724 317.016 81.5438 315.72 80.2515C314.424 78.9591 312.29 78.9591 310.994 80.2515C309.699 81.5438 309.699 83.6724 310.994 84.9647C312.29 86.2571 314.424 86.2571 315.72 84.9647Z" fill="#F1F2F2"/>
<path fill-rule="evenodd" clip-rule="evenodd" d="M315.72 27.6454C317.016 26.3277 317.016 24.2245 315.72 22.9321C314.424 21.6398 312.29 21.6398 310.994 22.9321C309.699 24.2245 309.699 26.3531 310.994 27.6454C312.29 28.9377 314.424 28.9377 315.72 27.6454Z" fill="#F1F2F2"/>
<path fill-rule="evenodd" clip-rule="evenodd" d="M258.324 27.6707C259.62 26.3784 259.62 24.2499 258.324 22.9575C257.028 21.6652 254.894 21.6652 253.598 22.9575C252.302 24.2499 252.302 26.3784 253.598 27.6707C254.894 28.9631 257.028 28.9631 258.324 27.6707Z" fill="#F1F2F2"/>
<defs>
<linearGradient id="paint0_linear_1234_27252" x1="4.80176" y1="81.9998" x2="339.197" y2="81.9998" gradientUnits="userSpaceOnUse">
<stop stop-color="#037CB8"/>
<stop offset="0.524038" stop-color="#78D1FE"/>
<stop offset="1" stop-color="#037CB8"/>
</linearGradient>
</defs>
</svg>
