<svg width="366" height="268" viewBox="0 0 366 268" fill="none" xmlns="http://www.w3.org/2000/svg">
<mask id="mask0_1234_26995" style="mask-type:alpha" maskUnits="userSpaceOnUse" x="54" y="78" width="257" height="173">
<rect width="256" height="172" transform="matrix(1 0 0 -1 54.0225 250.999)" fill="#D9D9D9"/>
</mask>
<g mask="url(#mask0_1234_26995)">
<path fill-rule="evenodd" clip-rule="evenodd" d="M179.884 120.227L206.428 153.121C215.274 164.083 224.125 175.052 232.972 186.014C213.666 198.255 191.097 202.415 169.668 198.958C148.245 195.497 127.971 184.431 113.273 166.218C109.356 161.364 105.951 156.126 103.121 150.607C100.285 145.093 98.0186 139.292 96.3557 133.308C110.273 131.128 124.191 128.947 138.12 126.768C152.037 124.587 165.955 122.407 179.877 120.232L179.884 120.227ZM196.162 107.091C201.234 93.9479 206.311 80.8 211.377 67.6509C216.449 54.508 221.52 41.365 226.586 28.2159C232.084 31.1053 237.275 34.546 242.072 38.4779C246.862 42.4148 251.264 46.838 255.186 51.6986C269.884 69.912 276.423 92.0608 275.274 113.737C274.127 135.402 265.293 156.594 249.25 172.878L196.162 107.091ZM176.645 99.5653C181.716 86.4223 186.793 73.2745 191.865 60.1315C196.936 46.9886 202.013 33.8406 207.08 20.6915C184.978 14.9565 162.212 17.916 142.858 27.7705C123.511 37.6201 107.584 54.3487 99.1727 76.1531C96.9218 81.9773 95.2897 88.0023 94.277 94.1159C93.2693 100.236 92.8749 106.449 93.1267 112.658C107.044 110.478 120.968 108.292 134.886 106.112C148.803 103.931 162.727 101.746 176.645 99.5653ZM252.901 198.362L257.11 194.965C256.25 192.768 255.39 190.57 254.524 188.378C253.663 186.18 252.803 183.982 251.943 181.785C254.075 182.804 256.195 183.822 258.327 184.842C260.458 185.861 262.579 186.879 264.71 187.899C265.325 187.24 265.941 186.581 266.556 185.923C267.171 185.264 267.786 184.605 268.401 183.947C267.239 181.891 266.082 179.841 264.927 177.781C263.765 175.725 262.608 173.675 261.453 171.615C263.702 172.326 265.95 173.038 268.199 173.75C270.448 174.462 272.696 175.174 274.945 175.886C275.467 175.15 275.985 174.407 276.501 173.676C277.018 172.934 277.534 172.203 278.056 171.467C276.623 169.59 275.194 167.719 273.761 165.842C272.327 163.965 270.899 162.095 269.459 160.223C271.787 160.617 274.114 161.012 276.437 161.4C278.764 161.795 281.087 162.183 283.414 162.578C283.825 161.779 284.238 160.97 284.649 160.171C285.06 159.373 285.466 158.568 285.883 157.765C284.201 156.109 282.519 154.452 280.838 152.796C279.156 151.139 277.479 149.489 275.804 147.828C278.161 147.894 280.518 147.96 282.875 148.027C285.232 148.093 287.589 148.16 289.946 148.226C290.244 147.376 290.538 146.521 290.83 145.676C291.124 144.82 291.422 143.97 291.716 143.114C289.822 141.71 287.928 140.306 286.035 138.891C284.141 137.487 282.247 136.084 280.348 134.673C282.695 134.413 285.037 134.147 287.384 133.886C289.726 133.62 292.073 133.359 294.42 133.099C294.593 132.219 294.767 131.328 294.939 130.448C295.118 129.563 295.286 128.677 295.465 127.792C293.389 126.666 291.32 125.535 289.251 124.405C287.182 123.274 285.107 122.148 283.037 121.018C285.324 120.431 287.604 119.849 289.89 119.262C292.177 118.675 294.463 118.088 296.743 117.506C296.789 116.607 296.841 115.703 296.886 114.804C296.932 113.905 296.983 113 297.029 112.101C294.821 111.276 292.613 110.439 290.405 109.614C288.196 108.788 285.989 107.952 283.781 107.126C285.96 106.23 288.145 105.329 290.324 104.433C292.509 103.532 294.688 102.636 296.867 101.74C296.789 100.839 296.716 99.9444 296.639 99.0432C296.561 98.1421 296.488 97.2471 296.41 96.3459C294.107 95.8304 291.804 95.3149 289.505 94.8055C287.202 94.29 284.898 93.7745 282.6 93.2652C284.631 92.0726 286.668 90.8751 288.699 89.6825C290.73 88.49 292.768 87.2925 294.804 86.1061C294.6 85.2252 294.402 84.3505 294.198 83.4696C293.995 82.5887 293.796 81.714 293.593 80.8331C291.238 80.6434 288.894 80.4549 286.539 80.2651C284.184 80.0754 281.834 79.8919 279.485 79.6972C281.337 78.2328 283.178 76.7673 285.03 75.303C286.883 73.8387 288.724 72.3732 290.576 70.9089C290.251 70.0655 289.937 69.2233 289.611 68.38C289.286 67.5366 288.971 66.6945 288.646 65.8511C286.295 65.9931 283.939 66.1289 281.588 66.2709C279.236 66.4129 276.874 66.5537 274.523 66.6957C276.149 64.9882 277.774 63.2807 279.4 61.5731C281.025 59.8656 282.651 58.1581 284.283 56.4456C283.85 55.6582 283.413 54.8646 282.974 54.0822C282.542 53.2948 282.104 52.5012 281.672 51.7138C279.359 52.18 277.046 52.6461 274.734 53.1123C272.421 53.5785 270.108 54.0446 267.795 54.5108C269.168 52.591 270.541 50.6712 271.92 48.7575C273.293 46.8377 274.666 44.9179 276.038 43.0092C275.497 42.2889 274.956 41.5686 274.416 40.8482C273.875 40.1279 273.334 39.4075 272.793 38.6872C270.565 39.4711 268.347 40.2562 266.118 41.0402C263.889 41.8242 261.672 42.6094 259.443 43.3933C260.536 41.3033 261.63 39.2133 262.724 37.1233C263.818 35.0333 264.911 32.9432 266.005 30.8532C265.366 30.2122 264.732 29.5773 264.093 28.9363C263.459 28.3015 262.82 27.6605 262.181 27.0195C260.083 28.1038 257.989 29.1942 255.896 30.2847C253.798 31.369 251.711 32.4545 249.613 33.5388C250.407 31.3157 251.194 29.0975 251.987 26.8743C252.781 24.6511 253.568 22.4329 254.362 20.2098C253.639 19.6666 252.923 19.1184 252.205 18.5813C251.489 18.0331 250.772 17.496 250.049 16.9528C248.129 18.32 246.208 19.6872 244.276 21.0532C242.356 22.4204 240.435 23.7876 238.51 25.1486C238.981 22.8405 239.458 20.5274 239.936 18.2144C240.407 15.9063 240.884 13.5932 241.356 11.2851C240.572 10.842 239.782 10.4039 238.992 9.96581C238.202 9.52769 237.419 9.08463 236.629 8.64651C234.912 10.2656 233.199 11.8909 231.488 13.5051C229.771 15.1242 228.059 16.7495 226.348 18.3637C226.498 16.0101 226.648 13.6565 226.788 11.3017C226.938 8.94809 227.084 6.58834 227.234 4.23475C226.393 3.90907 225.552 3.58338 224.71 3.2577C223.869 2.93203 223.028 2.60637 222.187 2.28068C220.721 4.12318 219.244 5.9645 217.772 7.81196C216.3 9.65941 214.829 11.4958 213.357 13.3432C213.175 10.9935 213 8.63884 212.814 6.28298C212.633 3.93326 212.451 1.58355 212.276 -0.771131C211.4 -0.977043 210.523 -1.18292 209.641 -1.38386C208.764 -1.58977 207.882 -1.79072 207.005 -1.99663C205.805 0.0371314 204.6 2.06471 203.4 4.09845C202.2 6.1322 200.995 8.1598 199.795 10.1935C199.289 7.89333 198.783 5.58199 198.276 3.28175C197.77 0.98152 197.264 -1.32982 196.758 -3.63004L194.066 -3.87258C193.17 -3.95138 192.269 -4.03635 191.374 -4.11516C190.467 -1.9322 189.561 0.239639 188.654 2.42258C187.747 4.60553 186.841 6.77737 185.934 8.96031C185.114 6.75021 184.29 4.53398 183.464 2.32883L180.994 -4.30266L178.295 -4.16412L175.596 -4.0256L173.815 2.82013C173.223 5.10408 172.625 7.3819 172.027 9.67082L168.66 3.44889L165.293 -2.77307L162.639 -2.26474L159.985 -1.75646L159.172 5.27137C158.899 7.61192 158.632 9.95863 158.359 12.2992L154.161 6.60611L149.962 0.913046L147.403 1.79094L144.844 2.66878L145.015 9.74545L145.191 16.8171L140.24 11.7624L135.288 6.70764L132.877 7.93265L130.467 9.15765L131.624 16.1376L132.782 23.1175L127.179 18.8018L121.57 14.4799L119.35 16.0284L117.129 17.5769L119.249 24.3283C119.951 26.5821 120.66 28.8309 121.362 31.0847L115.211 27.5864L109.06 24.0882L107.077 25.9317L105.095 27.7751L108.129 34.1637C109.142 36.299 110.156 38.4232 111.164 40.5523C108.971 39.6836 106.779 38.815 104.58 37.9513L98.0022 35.3452L96.2956 37.4428C95.7264 38.1456 95.1521 38.8424 94.589 39.5403C95.8835 41.5092 97.1892 43.4792 98.4837 45.448C99.7782 47.4169 101.084 49.3869 102.378 51.3557C100.085 50.8019 97.7911 50.2481 95.5036 49.6894C93.2099 49.1356 90.9163 48.5819 88.6226 48.0281C88.1585 48.7983 87.6882 49.5735 87.224 50.3438C86.7599 51.1141 86.2957 51.8844 85.8254 52.6596C87.383 54.4263 88.9455 56.1991 90.5031 57.9658C92.0656 59.7387 93.6233 61.5054 95.1808 63.2721C92.8355 63.0441 90.4852 62.8099 88.1399 62.5819C85.7946 62.3539 83.4443 62.1198 81.099 61.8918C80.7461 62.7245 80.3883 63.551 80.0415 64.3788C79.6886 65.2114 79.3308 66.038 78.9778 66.8707C80.7737 68.4045 82.5585 69.9372 84.3482 71.476C86.144 73.0098 87.9288 74.5424 89.7246 76.0763C87.3671 76.1727 85.0096 76.269 82.6509 76.3765C80.2933 76.4729 77.9408 76.5755 75.5833 76.6719C75.3502 77.5398 75.1109 78.4127 74.8777 79.2806C74.6446 80.1486 74.4053 81.0215 74.1722 81.8894C76.1593 83.1573 78.1514 84.4313 80.1385 85.6992C82.1256 86.9671 84.1177 88.2411 86.0987 89.514C83.7795 89.9345 81.4592 90.3662 79.1339 90.7917C76.8086 91.2172 74.4944 91.6439 72.1691 92.0694C72.0569 92.9615 71.9497 93.8597 71.8375 94.7518C71.7253 95.6439 71.6181 96.5421 71.506 97.4342C73.6473 98.4153 75.7997 99.3977 77.941 100.379C80.0823 101.36 82.2285 102.347 84.3759 103.323C82.1346 104.067 79.8982 104.816 77.663 105.554C75.4217 106.298 73.1915 107.042 70.9501 107.786C70.9601 108.691 70.9762 109.591 70.9923 110.491C71.0084 111.391 71.0184 112.296 71.0345 113.197C73.2929 113.87 75.5624 114.545 77.8208 115.218C80.0792 115.892 82.3438 116.561 84.6071 117.24C82.4904 118.289 80.3847 119.339 78.268 120.387C76.1513 121.436 74.0456 122.486 71.9289 123.534C72.0695 124.425 72.2102 125.316 72.3508 126.207C72.4914 127.098 72.6321 127.989 72.7727 128.88C75.1049 129.231 77.4372 129.581 79.7744 129.937C82.1067 130.287 84.439 130.637 86.7762 130.994C84.8308 132.33 82.8805 133.66 80.9352 134.997C78.9849 136.327 77.0396 137.664 75.0954 138.989C75.3568 139.854 75.6243 140.713 75.8857 141.578C76.1471 142.442 76.4146 143.302 76.676 144.167C79.0377 144.189 81.3932 144.216 83.755 144.238C86.1105 144.264 88.4722 144.286 90.834 144.308C89.0919 145.897 87.3499 147.485 85.6067 149.085C83.8646 150.673 82.1226 152.262 80.3794 153.861C80.7639 154.677 81.1422 155.498 81.5156 156.313C81.9001 157.129 82.2785 157.95 82.6518 158.764C84.9925 158.459 87.3269 158.158 89.6675 157.852C92.0081 157.546 94.3426 157.245 96.6832 156.939C95.1752 158.754 93.6783 160.571 92.1753 162.393C90.6673 164.208 89.1704 166.025 87.6673 167.847C88.1589 168.607 88.6455 169.36 89.137 170.121C89.6286 170.881 90.1151 171.634 90.6067 172.394C92.8806 171.767 95.1545 171.139 97.4284 170.512C99.7023 169.884 101.976 169.257 104.25 168.629C103.013 170.642 101.782 172.65 100.54 174.657C99.3028 176.67 98.067 178.672 96.8299 180.685C97.4197 181.365 98.0096 182.046 98.5995 182.727C99.1894 183.407 99.7792 184.088 100.369 184.769C102.536 183.832 104.702 182.895 106.864 181.953C109.03 181.016 111.197 180.079 113.358 179.137C112.414 181.299 111.47 183.461 110.526 185.623C109.582 187.785 108.637 189.947 107.693 192.11C108.372 192.699 109.055 193.294 109.733 193.883C110.411 194.472 111.095 195.067 111.767 195.661C113.779 194.433 115.791 193.205 117.81 191.971C119.822 190.743 121.835 189.515 123.853 188.282C123.218 190.55 122.587 192.824 121.946 195.097C121.31 197.365 120.674 199.644 120.043 201.919C120.794 202.409 121.556 202.9 122.306 203.39C123.062 203.886 123.819 204.371 124.574 204.868C126.397 203.367 128.224 201.871 130.041 200.375C131.863 198.874 133.691 197.379 135.507 195.883C135.195 198.225 134.884 200.556 134.572 202.898C134.26 205.239 133.949 207.57 133.637 209.912C134.455 210.297 135.268 210.676 136.086 211.061C136.9 211.44 137.718 211.825 138.536 212.21C140.13 210.477 141.731 208.738 143.327 206.994C144.922 205.261 146.522 203.522 148.117 201.789C148.134 204.149 148.152 206.51 148.164 208.864C148.181 211.224 148.199 213.584 148.211 215.938C149.075 216.205 149.935 216.465 150.799 216.731C151.664 216.998 152.523 217.258 153.381 217.529C154.723 215.584 156.059 213.643 157.396 211.703C158.732 209.762 160.074 207.816 161.41 205.876C161.75 208.209 162.095 210.548 162.442 212.876C162.782 215.209 163.134 217.543 163.474 219.876C164.362 220.022 165.257 220.162 166.141 220.301C167.029 220.447 167.918 220.592 168.807 220.727C169.864 218.616 170.921 216.505 171.977 214.394C173.034 212.283 174.091 210.172 175.147 208.062C175.815 210.323 176.477 212.589 177.145 214.851C177.813 217.112 178.475 219.378 179.143 221.639C180.046 221.652 180.948 221.675 181.844 221.692C182.747 221.704 183.649 221.727 184.551 221.74C185.302 219.501 186.057 217.268 186.807 215.029C187.557 212.79 188.313 210.557 189.063 208.318C190.035 210.466 191.007 212.614 191.984 214.767C192.956 216.915 193.934 219.069 194.912 221.212C195.81 221.106 196.698 220.998 197.597 220.892C198.49 220.78 199.383 220.679 200.276 220.566C200.709 218.249 201.142 215.931 201.581 213.608C202.014 211.29 202.447 208.972 202.886 206.65C204.15 208.643 205.414 210.637 206.678 212.63C207.942 214.624 209.205 216.618 210.47 218.6L213.083 217.902C213.95 217.669 214.822 217.442 215.696 217.204C215.802 214.846 215.913 212.494 216.019 210.135C216.125 207.777 216.236 205.425 216.342 203.066C217.874 204.864 219.4 206.656 220.932 208.453C222.464 210.251 223.991 212.042 225.517 213.845L228.01 212.797C228.839 212.442 229.668 212.098 230.497 211.743C230.277 209.395 230.056 207.047 229.835 204.698C229.614 202.35 229.394 200.002 229.173 197.653C230.937 199.223 232.702 200.782 234.466 202.352C236.23 203.921 237.995 205.48 239.759 207.05L242.08 205.663C242.854 205.201 243.628 204.739 244.401 204.277C243.855 201.978 243.308 199.691 242.762 197.392C242.221 195.099 241.669 192.805 241.122 190.507C243.089 191.811 245.055 193.116 247.015 194.426C248.982 195.731 250.948 197.036 252.908 198.346L252.901 198.362Z" fill="url(#paint0_linear_1234_26995)"/>
<path d="M208.008 21.0468L177.573 99.9205C177.443 100.249 177.148 100.487 176.799 100.545L93.2873 113.633C93.0076 113.677 92.7236 113.601 92.5021 113.415C92.2855 113.234 92.145 112.972 92.1364 112.685C91.8844 106.425 92.2773 100.122 93.297 93.9416C94.3192 87.7392 95.983 81.6277 98.2424 75.7763C104.046 60.7237 113.737 47.4341 126.249 37.3374C131.239 33.3107 136.675 29.7864 142.411 26.8725C162.553 16.6249 185.606 14.0836 207.336 19.7227C207.609 19.7968 207.847 19.9795 207.972 20.2343C208.102 20.484 208.121 20.7836 208.019 21.048L208.008 21.0468ZM143.31 28.6531C137.698 31.5073 132.383 34.9546 127.497 38.897C115.256 48.7755 105.786 61.7744 100.101 76.5083C97.8897 82.23 96.2623 88.2106 95.2605 94.2748C94.3224 99.9528 93.9287 105.739 94.0836 111.489L175.922 98.666L205.743 21.3832C184.81 16.2278 162.685 18.801 143.31 28.6531Z" fill="#341479"/>
<path d="M180.665 119.598L233.753 185.384C233.932 185.606 234.008 185.889 233.961 186.17C233.914 186.452 233.753 186.704 233.506 186.852C214.532 198.886 191.804 203.54 169.508 199.94C147.047 196.312 126.796 184.558 112.5 166.843C108.563 161.964 105.11 156.654 102.242 151.063C99.3788 145.49 97.0763 139.607 95.4021 133.571C95.3245 133.299 95.3726 133.007 95.5221 132.764C95.5821 132.675 95.6521 132.598 95.7381 132.529C95.8733 132.42 96.0383 132.348 96.2096 132.321L179.726 119.239C180.08 119.187 180.431 119.32 180.654 119.596L180.665 119.598ZM179.472 121.301L97.6403 134.119C99.2457 139.642 101.393 145.032 104.024 150.153C106.832 155.619 110.213 160.815 114.066 165.589C128.054 182.924 147.86 194.428 169.841 197.977C191.282 201.435 213.134 197.103 231.499 185.773L179.477 121.307L179.472 121.301Z" fill="#341479"/>
<path d="M266.88 31.2935L261.495 41.5953L272.453 37.7342C272.862 37.5869 273.319 37.7256 273.579 38.0735L276.828 42.4017C277.089 42.7496 277.099 43.228 276.843 43.5769L270.078 53.0237L281.469 50.7307C281.894 50.6413 282.333 50.8454 282.539 51.2268L285.155 55.9647C285.368 56.3412 285.306 56.8174 285.002 57.1332L276.988 65.5483L288.585 64.855C289.02 64.8285 289.42 65.0845 289.578 65.4945L291.508 70.5523C291.662 70.9561 291.54 71.4092 291.202 71.682L291.196 71.687L282.092 78.9018L293.672 79.8353C294.107 79.8704 294.467 80.1784 294.567 80.6046L295.778 85.8776C295.879 86.3038 295.698 86.7338 295.314 86.9623L285.292 92.8382L296.633 95.3746C297.055 95.4702 297.376 95.8301 297.409 96.2604L297.872 101.65C297.905 102.08 297.658 102.492 297.259 102.651L286.516 107.08L297.394 111.167C297.799 111.317 298.065 111.722 298.041 112.157L297.75 117.556C297.726 117.992 297.423 118.358 297.002 118.465L285.754 121.352L295.953 126.911C296.335 127.12 296.542 127.552 296.451 127.98L295.406 133.287C295.322 133.711 294.967 134.038 294.54 134.088L282.992 135.381L292.326 142.308C292.674 142.564 292.816 143.028 292.671 143.44L290.9 148.551C290.761 148.958 290.367 149.236 289.93 149.223L278.313 148.897L286.589 157.053C286.899 157.361 286.972 157.83 286.779 158.219L284.315 163.038C284.117 163.421 283.69 163.633 283.259 163.565L271.803 161.628L278.864 170.856C279.131 171.199 279.141 171.677 278.884 172.037L275.771 176.467C275.514 176.827 275.066 176.975 274.653 176.841L263.579 173.328L269.281 183.45C269.493 183.826 269.442 184.304 269.139 184.619L265.443 188.565C265.151 188.882 264.676 188.972 264.286 188.779L253.805 183.762L258.051 194.582C258.209 194.992 258.088 195.445 257.75 195.717L253.54 199.114C253.202 199.387 252.723 199.409 252.361 199.163L242.683 192.727L245.383 204.033C245.484 204.459 245.308 204.895 244.93 205.119L240.293 207.897C239.915 208.121 239.443 208.076 239.12 207.789L230.431 200.078L231.526 211.644C231.563 212.08 231.318 212.481 230.923 212.658L225.936 214.764C225.536 214.935 225.071 214.824 224.792 214.491L217.264 205.64L216.737 217.247C216.713 217.682 216.415 218.055 215.998 218.167L210.774 219.552C210.353 219.659 209.911 219.488 209.675 219.12L203.451 209.309L201.315 220.732C201.236 221.162 200.887 221.484 200.454 221.539L195.084 222.189C194.651 222.244 194.238 222.009 194.057 221.608L189.258 211.022L185.554 222.036C185.415 222.443 185.025 222.727 184.589 222.714L179.181 222.614C178.749 222.607 178.364 222.319 178.24 221.901L174.961 210.758L169.758 221.147C169.564 221.536 169.142 221.755 168.712 221.687L163.373 220.83C162.942 220.762 162.608 220.423 162.542 219.989L160.845 208.493L154.247 218.059C153.989 218.418 153.546 218.573 153.132 218.45L147.962 216.86C147.544 216.731 147.258 216.352 147.26 215.914L147.177 204.293L139.316 212.848C139.006 213.18 138.554 213.261 138.158 213.072L133.265 210.781C132.87 210.593 132.638 210.181 132.702 209.744L134.236 198.228L125.254 205.607C124.997 205.917 124.442 205.908 124.074 205.667L119.55 202.713C119.187 202.477 119.017 202.027 119.134 201.607L122.257 190.412L112.339 196.468C111.972 196.692 111.493 196.653 111.164 196.37L107.091 192.819C106.762 192.537 106.66 192.071 106.832 191.668L111.48 181.018L100.817 185.635C100.417 185.806 99.9501 185.705 99.6651 185.377L96.1209 181.287C95.8359 180.959 95.7969 180.483 96.0272 180.115L102.116 170.219L90.9091 173.307C90.4866 173.425 90.0444 173.254 89.8085 172.886L86.8741 168.345C86.6382 167.977 86.6658 167.508 86.9431 167.173L94.3517 158.221L82.8261 159.72C82.3935 159.774 81.9745 159.544 81.7916 159.154L79.5191 154.251C79.3312 153.855 79.4316 153.388 79.7498 153.091L88.3309 145.253L76.7085 145.135C76.2768 145.128 75.8859 144.845 75.7621 144.427L74.1865 139.256C74.0565 138.843 74.2235 138.384 74.5752 138.14L84.1655 131.578L72.6769 129.84C72.2462 129.772 71.9057 129.438 71.8336 129.009L71.0009 123.664C70.935 123.23 71.1589 122.816 71.5453 122.616L81.9579 117.45L70.8178 114.132C70.3992 114.003 70.114 113.625 70.1047 113.186L70.0203 107.775C70.016 107.342 70.2931 106.956 70.7069 106.815L81.7349 103.141L71.1669 98.3064C70.7703 98.1293 70.5403 97.706 70.5916 97.2791L71.2608 91.9094C71.3071 91.4763 71.6473 91.1308 72.0712 91.0525L83.5042 88.9492L73.7169 82.693C73.3546 82.4578 73.1715 82.0171 73.2955 81.5923L74.7016 76.3687C74.8145 75.9427 75.1882 75.6513 75.6234 75.6248L87.2321 75.135L78.4099 67.5724C78.0807 67.2902 78.0276 66.6837 78.1998 66.2809L80.2661 61.4478C80.4321 61.05 80.8454 60.8077 81.2797 60.8429L92.8496 61.9774L85.167 53.2618C84.882 52.9338 84.8319 52.4567 85.0622 52.0883L87.8594 47.4567C88.0847 47.0821 88.5255 46.899 88.9464 47.0057L100.239 49.7334L93.8414 40.032C93.5994 39.6692 93.6282 39.1894 93.9005 38.8479L97.3137 34.6527C97.5922 34.3062 98.0542 34.1871 98.4569 34.3593L109.264 38.6355L104.276 28.1413C104.088 27.745 104.178 27.2772 104.496 26.9799L108.455 23.2979C108.789 23.0079 109.245 22.9443 109.626 23.1646L119.727 28.904L116.251 17.8188C116.124 17.4235 116.26 16.9999 116.573 16.747C116.591 16.7321 116.61 16.7172 116.628 16.7024L121.063 13.6103C121.421 13.3621 121.897 13.3736 122.24 13.6348L131.444 20.7272L129.547 9.26032C129.475 8.83147 129.683 8.41007 130.075 8.20491L134.902 5.76105C135.293 5.567 135.762 5.64515 136.072 5.95337L144.203 14.2564L143.917 2.63585C143.908 2.19688 144.18 1.80479 144.588 1.66863L149.699 -0.0821496C150.113 -0.223263 150.564 -0.0796657 150.824 0.268228L157.72 9.61853L159.055 -1.92995C159.102 -2.36299 159.431 -2.70969 159.861 -2.79293L165.175 -3.81453C165.605 -3.89776 166.033 -3.69486 166.244 -3.3073L171.773 6.91332L174.699 -4.33613C174.811 -4.76207 175.18 -5.05961 175.614 -5.07503L181.017 -5.34595C181.452 -5.37247 181.851 -5.10534 182.004 -4.7015L186.051 6.18643L190.516 -4.53931C190.688 -4.94208 191.097 -5.19044 191.525 -5.15034L196.915 -4.6702C197.343 -4.6301 197.708 -4.31596 197.797 -3.89087L200.291 7.46L206.206 -2.5493C206.425 -2.91897 206.867 -3.11322 207.295 -3.01146L212.565 -1.78594C212.988 -1.69032 213.302 -1.32543 213.329 -0.890205L214.219 10.6994L221.468 1.613C221.745 1.27762 222.197 1.1462 222.607 1.30229L227.649 3.25022C228.053 3.41128 228.314 3.8097 228.285 4.23898L227.557 15.8355L235.997 7.84772C236.309 7.55537 236.782 7.48798 237.169 7.70337L241.891 10.3358C242.266 10.55 242.468 10.9759 242.377 11.4042L240.044 22.7843L249.518 16.0525C249.87 15.7982 250.353 15.8047 250.695 16.0659L255.013 19.3291C255.361 19.5964 255.497 20.0546 255.347 20.4597L251.454 31.4038L261.768 26.0532C262.155 25.8531 262.63 25.9263 262.933 26.2394L266.753 30.067C267.062 30.3753 267.13 30.8485 266.932 31.2316L266.88 31.2935ZM261.986 28.2215L250.067 34.4002C249.704 34.5917 249.261 34.5332 248.953 34.2644C248.645 33.9956 248.533 33.5682 248.665 33.1779L253.166 20.5356L250.017 18.1554L239.079 25.9269C238.745 26.1663 238.301 26.1695 237.959 25.9477C237.618 25.726 237.444 25.3087 237.531 24.9137L240.233 11.7648L236.788 9.84708L227.031 19.0699C226.739 19.3363 226.292 19.4233 225.923 19.2436C225.549 19.0689 225.325 18.6912 225.353 18.273L226.195 4.88054L222.511 3.45958L214.141 13.9479C213.876 14.2734 213.457 14.3578 213.066 14.2374C212.674 14.117 212.395 13.7334 212.36 13.3254L211.334 0.0197853L207.493 -0.878872L200.661 10.6722C200.454 11.0319 200.046 11.2186 199.644 11.1476C199.235 11.0815 198.92 10.7782 198.828 10.3754L195.95 -2.73488L192.017 -3.0819L186.864 9.30543C186.705 9.68717 186.331 9.92803 185.922 9.92362C185.512 9.9192 185.147 9.6556 185.003 9.27515L180.321 -3.30325L176.381 -3.10639L173 9.88012C172.895 10.2789 172.561 10.5689 172.157 10.6212C171.753 10.6735 171.353 10.468 171.162 10.105L164.781 -1.70036L160.906 -0.957442L159.363 12.3714C159.315 12.7761 159.026 13.1103 158.627 13.2193C158.234 13.3234 157.812 13.1772 157.566 12.8477L149.601 2.04679L145.871 3.32182L146.2 16.7439C146.213 17.1495 145.97 17.5279 145.588 17.6837C145.212 17.8456 144.772 17.7538 144.489 17.4652L135.097 7.87639L131.576 9.66231L133.766 22.9013C133.83 23.3067 133.664 23.7045 133.292 23.9232C132.938 24.138 132.498 24.1078 132.171 23.854L121.535 15.6652L118.301 17.9198L122.317 30.7305C122.438 31.1196 122.308 31.5493 121.995 31.8022C121.681 32.0551 121.234 32.0916 120.879 31.8909L109.211 25.2653L106.318 27.955L112.075 40.0812C112.249 40.4479 112.179 40.8897 111.906 41.1918C111.626 41.4988 111.19 41.587 110.807 41.4394L98.3291 36.5019L95.8397 39.5659L103.228 50.7713C103.455 51.1157 103.447 51.5584 103.209 51.8924C102.977 52.2325 102.555 52.3897 102.162 52.2915L89.112 49.1347L87.0717 52.5162L95.9525 62.5783C96.2226 62.8879 96.2763 63.3316 96.0916 63.6937C95.9069 64.0558 95.5132 64.2721 95.1073 64.2344L81.7534 62.9262L80.2086 66.5572L90.3996 75.2879C90.714 75.5517 90.8305 75.9853 90.694 76.3694C90.5575 76.7535 90.2034 77.019 89.7916 77.0368L76.3839 77.5984L75.3591 81.4084L86.6649 88.641C87.0123 88.8578 87.1867 89.2751 87.1107 89.6713C87.0335 90.0786 86.7141 90.387 86.3136 90.4565L73.1111 92.8819L72.6256 96.7944L84.8259 102.382C85.1954 102.55 85.43 102.929 85.4083 103.342C85.3866 103.756 85.1131 104.108 84.7289 104.236L71.9952 108.474L72.0562 112.423L84.9212 116.256C85.3127 116.377 85.5965 116.716 85.6254 117.129C85.6604 117.537 85.4338 117.923 85.077 118.109L73.0572 124.075L73.668 127.975L86.9422 129.977C87.3457 130.037 87.6725 130.341 87.7704 130.739C87.8683 131.137 87.6888 131.556 87.3666 131.785L76.2909 139.374L77.4376 143.146L90.8606 143.282C91.27 143.287 91.6361 143.539 91.7808 143.92C91.9254 144.3 91.8224 144.738 91.5239 145.01L81.6111 154.064L83.2725 157.645L96.5865 155.911C96.9907 155.858 97.3899 156.064 97.5875 156.422C97.7851 156.78 97.7487 157.225 97.4849 157.54L88.9341 167.879L91.0728 171.196L104.015 167.631C104.414 167.522 104.832 167.662 105.077 167.992C105.323 168.321 105.343 168.761 105.131 169.115L98.0983 180.544L100.677 183.526L112.994 178.192C113.371 178.031 113.806 178.116 114.1 178.406C114.389 178.701 114.472 179.131 114.308 179.506L108.934 191.808L111.908 194.4L123.364 187.408C123.712 187.198 124.154 187.218 124.486 187.466C124.814 187.709 124.954 188.134 124.85 188.533L121.239 201.461L124.541 203.616L134.913 195.094C135.233 194.836 135.669 194.798 136.024 194.999C136.385 195.195 136.584 195.592 136.529 196.002L134.753 209.306L138.326 210.979L147.411 201.1C147.703 200.783 148.122 200.699 148.505 200.847C148.888 200.994 149.141 201.358 149.148 201.769L149.241 215.188L153.015 216.343L160.637 205.292C160.875 204.958 161.285 204.8 161.68 204.887C162.08 204.98 162.382 205.305 162.439 205.715L164.4 218.997L168.292 219.62L174.303 207.616C174.483 207.248 174.877 207.032 175.283 207.07C175.688 207.107 176.035 207.386 176.15 207.78L179.935 220.656L183.88 220.729L188.165 208.007C188.297 207.617 188.651 207.352 189.057 207.328C189.464 207.304 189.849 207.541 190.017 207.913L195.561 220.14L199.475 219.671L201.946 206.475C202.017 206.073 202.336 205.764 202.744 205.679C203.146 205.598 203.554 205.776 203.775 206.125L210.964 217.461L214.773 216.447L215.38 203.041C215.402 202.628 215.67 202.269 216.054 202.142C216.445 202.009 216.871 202.122 217.135 202.437L225.83 212.659L229.464 211.126L228.202 197.767C228.167 197.359 228.382 196.972 228.745 196.781C229.113 196.596 229.556 196.654 229.858 196.928L239.89 205.838L243.279 203.814L240.17 190.757C240.072 190.359 240.227 189.96 240.569 189.705C240.908 189.472 241.352 189.469 241.694 189.69L252.872 197.117L255.945 194.637L251.047 182.143C250.897 181.756 250.999 181.329 251.299 181.046C251.59 180.791 252.043 180.699 252.412 180.879L264.517 186.675L267.211 183.79L260.621 172.103C260.424 171.745 260.46 171.3 260.713 170.984C260.972 170.663 261.4 170.541 261.792 170.661L274.583 174.717L276.842 171.493L268.693 160.83C268.442 160.506 268.416 160.059 268.633 159.712C268.839 159.363 269.253 159.172 269.655 159.243L282.887 161.481L284.689 157.968L275.133 148.541C274.839 148.251 274.757 147.81 274.914 147.439C275.072 147.069 275.452 146.823 275.855 146.832L289.269 147.209L290.561 143.478L279.781 135.476C279.453 135.234 279.307 134.814 279.411 134.415C279.516 134.016 279.855 133.732 280.264 133.686L293.598 132.19L294.36 128.318L282.58 121.894C282.219 121.698 282.02 121.301 282.069 120.896C282.124 120.487 282.412 120.152 282.81 120.054L295.807 116.72L296.015 112.778L283.453 108.05C283.07 107.903 282.811 107.544 282.804 107.133C282.797 106.722 283.05 106.356 283.42 106.199L295.826 101.089L295.494 97.1565L282.397 94.2305C281.997 94.1372 281.689 93.8179 281.631 93.4075C281.568 93.0021 281.756 92.6066 282.111 92.3918L293.685 85.598L292.805 81.7529L279.426 80.6779C279.014 80.6452 278.667 80.3667 278.552 79.9726C278.431 79.5834 278.566 79.1598 278.88 78.9069L289.401 70.5687L287.992 66.8862L274.593 67.6845C274.186 67.7085 273.8 67.482 273.627 67.1041C273.453 66.7374 273.529 66.2906 273.807 65.9947L283.061 56.2746L281.156 52.8199L267.997 55.4744C267.595 55.555 267.181 55.3817 266.965 55.0385C266.738 54.6942 266.752 54.2465 266.99 53.9125L274.805 42.9998L272.435 39.8492L259.778 44.3095C259.393 44.448 258.962 44.329 258.692 44.0194C258.422 43.7098 258.368 43.266 258.564 42.9051L264.782 31.0078L261.998 28.2116L261.986 28.2215Z" fill="#341479"/>
<path d="M249.958 173.576C249.755 173.79 249.48 173.89 249.196 173.877C248.911 173.863 248.65 173.728 248.471 173.507L195.383 107.72C195.16 107.444 195.099 107.067 195.23 106.738L225.659 27.8694C225.727 27.7026 225.826 27.5616 225.962 27.4525C226.041 27.388 226.137 27.3309 226.237 27.291C226.501 27.19 226.802 27.2109 227.051 27.3443C232.592 30.2495 237.857 33.7429 242.704 37.7252C247.562 41.7086 252.023 46.2056 255.96 51.0846C270.261 68.8064 277.467 91.0769 276.269 113.798C275.072 136.345 265.734 157.578 249.956 173.587L249.958 173.576ZM241.44 39.2523C236.99 35.5989 232.169 32.3662 227.11 29.6304L197.295 106.908L249.317 171.374C264.277 155.811 273.127 135.367 274.277 113.68C275.456 91.4518 268.401 69.6578 254.408 52.317C250.555 47.5425 246.191 43.1401 241.441 39.2412L241.44 39.2523Z" fill="#341479"/>
<path fill-rule="evenodd" clip-rule="evenodd" d="M157.238 75.5029C175.588 60.6951 202.481 63.5671 217.288 81.9157C232.095 100.264 229.221 127.158 210.871 141.966C192.522 156.773 165.628 153.901 150.821 135.553C136.014 117.204 138.888 90.3106 157.238 75.5029Z" fill="url(#paint1_linear_1234_26995)"/>
<path d="M156.608 74.7221C137.853 89.8571 134.913 117.423 150.042 136.171C165.171 154.919 192.742 157.863 211.491 142.733C230.241 127.603 233.187 100.032 218.058 81.2843C202.929 62.5364 175.357 59.592 156.608 74.7221ZM210.237 141.179C192.342 155.619 166.036 152.81 151.597 134.916C137.157 117.023 139.968 90.7175 157.863 76.2767C175.758 61.836 202.063 64.6452 216.503 82.539C230.943 100.433 228.132 126.738 210.237 141.179Z" fill="#341479"/>
<path fill-rule="evenodd" clip-rule="evenodd" d="M177.245 100.297C181.891 96.5476 188.731 97.2781 192.48 101.924C196.229 106.569 195.492 113.414 190.852 117.158C186.213 120.902 179.366 120.177 175.618 115.531C171.869 110.886 172.6 104.046 177.245 100.297Z" fill="#DDBC06"/>
<path d="M176.622 99.5231C171.546 103.619 170.748 111.081 174.849 116.163C178.95 121.245 186.412 122.042 191.488 117.945C196.564 113.849 197.367 106.382 193.266 101.301C189.166 96.2188 181.704 95.422 176.622 99.5231ZM190.233 116.391C186.011 119.798 179.804 119.135 176.398 114.913C172.991 110.692 173.654 104.485 177.876 101.078C182.098 97.6709 188.305 98.3337 191.712 102.555C195.118 106.777 194.455 112.984 190.233 116.391Z" fill="#341479"/>
<path fill-rule="evenodd" clip-rule="evenodd" d="M187.512 113.018C185.152 114.922 181.671 114.545 179.767 112.186C177.863 109.826 178.23 106.344 180.589 104.44C182.949 102.536 186.431 102.902 188.34 105.268C190.249 107.633 189.878 111.109 187.512 113.018Z" fill="#341479"/>
<path d="M179.964 103.664C177.174 105.915 176.735 110.024 178.986 112.814C181.238 115.603 185.34 116.047 188.136 113.791C190.932 111.534 191.365 107.431 189.114 104.641C186.862 101.851 182.754 101.413 179.964 103.664ZM186.881 112.236C184.946 113.798 182.103 113.495 180.541 111.559C178.979 109.623 179.283 106.781 181.219 105.219C183.154 103.657 185.997 103.96 187.559 105.896C189.121 107.831 188.817 110.674 186.881 112.236Z" fill="#341479"/>
</g>
<path fill-rule="evenodd" clip-rule="evenodd" d="M182.458 180.852C163.303 180.852 145.117 173.304 131.576 159.739C118.051 146.189 110.517 127.954 110.517 108.779C110.517 105.145 110.78 101.495 111.322 97.9092L111.601 96.0506L121.728 101.739L121.647 102.579C121.451 104.65 121.334 106.705 121.334 108.779C121.334 125.074 127.736 140.549 139.243 152.074C150.75 163.585 166.194 169.998 182.46 169.998C198.726 169.998 214.173 163.585 225.678 152.074C237.168 140.547 243.57 125.074 243.57 108.779C243.57 106.707 243.472 104.652 243.257 102.579L243.176 101.739L253.319 96.0506L253.599 97.9092C254.141 101.495 254.403 105.145 254.403 108.779C254.403 127.952 246.87 146.187 233.328 159.739C219.803 173.304 201.601 180.852 182.46 180.852H182.458Z" fill="#011B40"/>
<path fill-rule="evenodd" clip-rule="evenodd" d="M182.462 179.423C162.931 179.423 145.254 171.502 132.456 158.699C119.659 145.896 111.742 128.213 111.742 108.672C111.742 105.04 112.021 101.473 112.547 97.9894L120.316 102.36C120.12 104.431 120.003 106.535 120.003 108.672C120.003 125.929 127.001 141.542 138.304 152.848C149.605 164.155 165.213 171.157 182.46 171.157C199.707 171.157 215.315 164.157 226.616 152.848C237.918 141.542 244.917 125.927 244.917 108.672C244.917 106.535 244.802 104.433 244.604 102.36L252.373 97.9894C252.899 101.473 253.179 105.04 253.179 108.672C253.179 128.213 245.261 145.898 232.464 158.699C219.667 171.502 201.992 179.423 182.458 179.423H182.462Z" fill="#CEA3FE"/>
<path fill-rule="evenodd" clip-rule="evenodd" d="M182.463 267.999C140.124 267.999 99.9043 251.327 69.9588 221.382C40.032 191.421 23.3694 151.176 23.3694 108.813C23.3694 90.071 26.6198 71.5087 33.0871 53.8997L33.8419 51.8636L51.72 61.8833L51.2112 63.3456C46.1553 77.9819 43.6097 93.34 43.6097 108.813C43.6097 145.787 58.154 180.907 84.2738 207.057C110.394 233.192 145.508 247.745 182.461 247.745C219.414 247.745 254.513 233.192 280.647 207.057C306.767 180.907 321.311 145.787 321.311 108.813C321.311 93.34 318.768 77.9798 313.71 63.3456L313.201 61.8833L331.079 51.8636L331.834 53.8997C338.285 71.5087 341.552 90.071 341.552 108.813C341.552 151.176 324.889 191.419 294.946 221.382C265.019 251.327 224.797 267.999 182.458 267.999H182.463Z" fill="#011B40"/>
<path fill-rule="evenodd" clip-rule="evenodd" d="M182.512 266.163C139.071 266.163 99.7534 248.55 71.2905 220.063C42.8109 191.59 25.2067 152.258 25.2067 108.801C25.2067 89.7262 28.6065 71.4397 34.8139 54.5177L49.4479 62.7158C44.4545 77.1568 41.7284 92.6662 41.7284 108.801C41.7284 147.691 57.495 182.899 82.9689 208.38C108.443 233.863 143.639 249.635 182.512 249.635C221.385 249.635 256.583 233.863 282.055 208.38C307.529 182.897 323.279 147.689 323.279 108.801C323.279 92.6683 320.57 77.1589 315.576 62.7158L330.193 54.5177C336.418 71.4397 339.817 89.7262 339.817 108.801C339.817 152.258 322.194 191.59 293.734 220.063C265.271 248.553 225.953 266.163 182.512 266.163Z" fill="#6C37DD"/>
<path fill-rule="evenodd" clip-rule="evenodd" d="M321.42 65.036L320.057 61.0104L315.641 63.4917C320.451 77.7054 323.061 92.9209 323.061 108.762C323.061 147.658 307.318 182.872 281.856 208.356C256.394 233.843 221.215 249.618 182.36 249.618C143.505 249.618 108.324 233.843 82.8639 208.356C57.4019 182.869 41.6427 147.655 41.6427 108.762C41.6427 92.9209 44.2529 77.7054 49.0793 63.4917L44.5323 60.9458L43.3001 65.0381C38.8678 79.1871 36.635 93.9101 36.635 108.764C36.635 147.576 51.9021 184.468 79.3155 211.908C106.731 239.351 143.584 254.631 182.358 254.631C221.132 254.631 257.987 239.349 285.401 211.908C312.816 184.466 328.081 147.576 328.081 108.764C328.081 93.9101 325.848 79.1871 321.416 65.0381L321.42 65.036Z" fill="#CEA3FE"/>
<path fill-rule="evenodd" clip-rule="evenodd" d="M248.337 104.449L248.156 101.578L244.691 103.53C244.823 105.254 244.904 107.008 244.904 108.765C244.904 125.995 237.908 141.582 226.607 152.871C215.308 164.159 199.704 171.15 182.461 171.15C165.218 171.15 149.614 164.161 138.315 152.871C127.016 141.582 120.018 125.992 120.018 108.765C120.018 107.008 120.085 105.254 120.231 103.53L116.733 101.561L116.568 104.449C116.568 104.597 116.551 104.745 116.551 104.893C116.47 106.189 116.437 107.469 116.437 108.765C116.437 126.322 123.351 142.993 135.768 155.415C148.185 167.82 164.888 174.729 182.461 174.729C200.034 174.729 216.72 167.82 229.154 155.415C241.571 142.993 248.485 126.322 248.485 108.765C248.485 107.485 248.452 106.206 248.371 104.924L248.337 104.449Z" fill="#FAF9FA"/>
<path fill-rule="evenodd" clip-rule="evenodd" d="M79.3752 211.818C51.9491 184.409 36.6781 147.565 36.6781 108.801C36.6781 93.9644 38.9118 79.2595 43.3459 65.1278L44.5785 61.0405L38.4363 57.5785L36.7615 63.0936C32.1314 77.8797 29.7976 93.3078 29.7976 108.801C29.7976 149.386 45.7923 187.988 74.5157 216.676C103.222 245.382 141.846 261.366 182.46 261.366C223.073 261.366 261.697 245.382 290.404 216.676C319.127 187.988 335.122 149.388 335.122 108.801C335.122 93.2911 332.79 77.863 328.144 63.0602L328.11 62.9789L326.304 57.6785L320.212 61.1093L321.576 65.1299C326.01 79.2616 328.244 93.9664 328.244 108.803C328.244 147.567 312.971 184.413 285.547 211.82C258.12 239.229 221.253 254.49 182.464 254.49C143.675 254.49 106.805 239.227 79.3815 211.82L79.3752 211.818Z" fill="#AB62FE"/>
<path fill-rule="evenodd" clip-rule="evenodd" d="M214.079 143.282C223.403 133.963 228.098 121.115 226.999 107.989L138.023 107.989C136.923 121.115 141.603 133.963 150.943 143.282C159.02 151.371 170.182 156.359 182.512 156.359C194.842 156.359 206.004 151.371 214.081 143.282H214.079Z" fill="#FAF9FA"/>
<path fill-rule="evenodd" clip-rule="evenodd" d="M208.77 110.206L243.995 78.2741C251.171 71.7663 258.479 65.4066 265.689 58.9802C258.216 65.4066 250.763 71.831 243.355 78.2741C235.966 84.6838 228.575 91.1248 221.219 97.5679C221.138 97.618 221.071 97.6827 221.006 97.7495C226.541 92.8196 232.041 87.873 237.509 82.9577C242.994 78.0278 248.462 73.0979 253.866 68.1659C260.944 61.7395 268.037 55.2984 275.049 48.872C282.043 42.4456 289.024 36.0046 295.954 29.5782C288.63 36.0046 281.322 42.4289 274.047 48.872C266.821 55.2817 259.58 61.7395 252.37 68.1659C242.961 76.6294 233.536 85.1096 224.174 93.5898C225.717 92.1434 227.277 90.697 228.821 89.2505C235.751 82.8241 242.631 76.3998 249.495 69.9567C256.327 63.5469 263.14 57.0892 269.906 50.6795C262.861 57.0892 255.766 63.5303 248.754 69.9567C241.759 76.3831 234.779 82.8241 227.818 89.2505C227.211 89.8412 226.537 90.434 225.897 91.0413C233.221 84.0409 240.495 77.0552 247.722 70.0548C252.681 65.223 257.657 60.4246 262.583 55.576C267.493 50.7776 272.371 45.9291 277.232 41.114C272.043 45.9291 266.838 50.7442 261.68 55.576C256.539 60.3912 251.401 65.223 246.26 70.0548C240.923 75.1329 235.536 80.2277 230.249 85.3058C233.419 82.1667 236.571 79.0275 239.741 75.9051C246.21 69.462 252.665 63.0377 259.069 56.6113C265.457 50.1849 271.828 43.7438 278.118 37.3174C271.468 43.7438 264.784 50.1849 258.183 56.6113C251.582 63.0377 244.996 69.462 238.429 75.9051C233.83 80.4239 229.217 84.9447 224.668 89.4801C228.971 85.0929 233.223 80.7036 237.494 76.333C242.569 71.1067 247.609 65.8804 252.619 60.6541C257.643 55.4278 262.619 50.2016 267.578 44.9753C262.291 50.2016 257.036 55.4278 251.797 60.6541C246.575 65.8804 241.369 71.1067 236.181 76.333C233.899 78.6498 231.599 80.9832 229.284 83.3167C235.261 76.9905 241.221 70.6621 247.15 64.3359C252.569 58.5503 257.956 52.7834 263.292 46.9977C268.613 41.2455 273.933 35.4598 279.188 29.693C273.539 35.4619 267.874 41.2309 262.291 46.9977C256.725 52.7667 251.142 58.5503 245.574 64.3359C240.762 69.3639 235.999 74.394 231.221 79.422C234.243 76.1013 237.215 72.7994 240.187 69.4954C244.621 64.5822 249.038 59.6502 253.407 54.737C257.791 49.8238 262.11 44.9085 266.412 39.9953C261.766 44.9085 257.117 49.8238 252.504 54.737C247.905 59.6335 243.292 64.5822 238.727 69.4954C234.178 74.4253 229.613 79.3552 225.081 84.3019C228.151 80.8351 231.19 77.3662 234.212 73.9161C239.828 67.4729 245.444 61.0486 251.011 54.6222C256.577 48.1958 262.079 41.7548 267.58 35.3283C261.718 41.7548 255.872 48.1791 250.108 54.6222C244.343 61.0319 238.579 67.4729 232.833 73.9161C226.512 81.098 220.189 88.28 213.882 95.4453C220.499 87.656 227.117 79.8645 233.653 72.0585C240.189 64.2691 246.658 56.4464 253.113 48.655C245.755 57.1018 238.416 65.5486 231.173 74.0142C223.932 82.461 216.739 90.9244 209.563 99.3879C216.641 90.8097 223.653 82.2147 230.648 73.6343C235.87 67.1912 241.059 60.7668 246.216 54.3404C251.357 47.914 256.448 41.473 261.505 35.0466C256.087 41.473 250.667 47.8973 245.296 54.3404C239.943 60.7501 234.606 67.1912 229.286 73.6343C225.065 78.7938 220.829 83.9554 216.608 89.1149C220.351 84.3645 224.08 79.6161 227.824 74.849C232.817 68.4059 237.807 61.9983 242.75 55.5551C247.659 49.1454 252.537 42.6877 257.399 36.2613C252.16 42.6877 246.971 49.1287 241.83 55.5551C236.689 61.9816 231.567 68.4059 226.46 74.849C224.424 77.3954 222.437 79.9605 220.399 82.5069C225.999 75.1287 231.467 67.7652 236.969 60.4016C241.747 53.9752 246.46 47.5174 251.157 41.091C255.87 34.6646 260.5 28.2403 265.149 21.8139C260.108 28.2403 255.082 34.6646 250.106 41.091C245.13 47.5174 240.187 53.9752 235.261 60.4016C230.433 66.8113 225.605 73.221 220.777 79.6308C223.257 76.1139 225.786 72.5969 228.281 69.0968C232.862 62.6536 237.411 56.2293 241.926 49.7862C246.425 43.3765 250.858 36.9354 255.292 30.509C250.498 36.9354 245.686 43.3598 240.956 49.7862C236.21 56.2126 231.499 62.6536 226.817 69.0968C225.421 71.0023 224.024 72.9434 222.629 74.8657C228.097 66.8781 233.565 58.8759 238.936 50.8882C243.255 44.4618 247.557 38.0375 251.826 31.5944C256.095 25.1847 260.283 18.7436 264.471 12.3172C259.855 18.7436 255.226 25.168 250.644 31.5944C246.078 38.0208 241.563 44.4618 237.029 50.8882C232.464 57.4294 227.966 63.9707 223.448 70.5265C225.632 67.1411 227.784 63.7724 229.968 60.4037C234.105 53.9773 238.212 47.5195 242.285 41.0931C246.358 34.6667 250.364 28.2424 254.387 21.816C249.97 28.2424 245.553 34.6667 241.217 41.0931C236.898 47.5195 232.596 53.9773 228.31 60.4037C224.203 66.6986 220.066 72.9914 215.993 79.3031C218.883 74.7008 221.774 70.1007 224.631 65.4985C227.488 60.9129 230.345 56.3107 233.138 51.7273C237.063 45.2842 240.954 38.8598 244.781 32.4334C248.608 26.007 252.402 19.566 256.179 13.1395C251.974 19.566 247.739 25.9903 243.601 32.4334C239.463 38.8431 235.39 45.2842 231.252 51.7273C226.754 58.8759 222.253 66.0098 217.786 73.1584C219.427 70.3971 221.038 67.619 222.648 64.8431C226.36 58.4167 230.087 51.9924 233.749 45.5492C237.394 39.1395 240.975 32.6985 244.571 26.2721C240.581 32.6985 236.623 39.1228 232.714 45.5492C228.806 51.9757 224.931 58.4167 221.071 64.8431C219.035 68.2953 216.964 71.7287 214.929 75.1809C218.558 68.7065 222.105 62.2133 225.636 55.7555C229.134 49.3124 232.6 42.8881 236.03 36.4617C239.463 30.0352 242.829 23.5942 246.212 17.1678C242.402 23.5942 238.625 30.0185 234.898 36.4617C231.186 42.8714 227.526 49.3124 223.847 55.7555C220.218 62.1152 216.67 68.5082 213.075 74.8845C214.702 71.8268 216.245 68.7712 217.822 65.7301C220.645 60.1762 223.455 54.6368 226.245 49.0828C229.021 43.5435 231.747 38.0062 234.439 32.4668C231.384 38.0062 228.297 43.5435 225.275 49.0828C222.253 54.6222 219.248 60.1762 216.243 65.7301C213.386 71.1213 210.529 76.5271 207.671 81.9183C209.461 78.2532 211.252 74.6048 213.025 70.9397C216.111 64.5133 219.217 58.0723 222.253 51.6459C225.292 45.2195 228.281 38.7951 231.252 32.3687C227.92 38.7951 224.585 45.2195 221.317 51.6459C218.049 58.0723 214.814 64.5133 211.596 70.9397C210.003 74.1436 208.426 77.3495 206.85 80.5533C209.92 73.8326 212.958 67.1265 215.997 60.4037C218.887 53.9773 221.711 47.5195 224.535 41.0931C227.359 34.6667 230.135 28.2424 232.86 21.816C229.707 28.2424 226.554 34.6667 223.467 41.0931C220.397 47.5195 217.359 53.9773 214.32 60.4037C210.166 69.4432 206.059 78.4807 201.955 87.5036C204.566 81.4236 207.177 75.3249 209.805 69.245C212.497 62.8018 215.125 56.3608 217.753 49.9511C220.397 43.508 222.958 37.0836 225.505 30.6572C222.597 37.0836 219.676 43.5247 216.818 49.9511C213.961 56.3775 211.137 62.8018 208.345 69.245C207.162 71.9896 205.963 74.7175 204.781 77.4622C207.179 71.3655 209.527 65.2668 211.842 59.1702C213.928 53.6809 215.949 48.225 217.968 42.7524C219.988 37.2965 221.926 31.824 223.863 26.3681C221.532 31.824 219.2 37.2798 216.917 42.7524C214.635 48.2083 212.385 53.6809 210.134 59.1702C208.18 63.9039 206.307 68.6522 204.42 73.4026C205.963 69.0634 207.49 64.7408 209.002 60.4037C211.252 53.9773 213.5 47.5362 215.703 41.0931C217.886 34.6834 219.988 28.2424 222.107 21.816C219.578 28.2424 217.05 34.6667 214.604 41.0931C212.157 47.5195 209.742 53.9773 207.346 60.4037C204.718 67.5189 202.141 74.6361 199.563 81.7513C200.499 78.942 201.419 76.1306 202.289 73.3379C204.357 66.8948 206.395 60.4705 208.397 54.044C210.418 47.6176 212.355 41.1766 214.276 34.7502C211.995 41.1766 209.694 47.6009 207.494 54.044C205.294 60.4538 203.094 66.8948 200.925 73.3379C200.318 75.1955 199.678 77.0844 199.035 78.9587C201.448 70.9063 203.782 62.8686 206.063 54.8163C207.92 48.3899 209.692 41.9488 211.434 35.5224C213.192 29.096 214.883 22.6717 216.541 16.2453C214.456 22.6717 212.32 29.096 210.285 35.5224C208.249 41.9488 206.278 48.3899 204.241 54.8163C203.092 58.6129 201.926 62.3928 200.777 66.1893C202.387 60.0593 203.963 53.9293 205.49 47.7992C207.1 41.3561 208.643 34.9318 210.203 28.5053C211.746 22.0789 213.208 15.6379 214.67 9.21149C212.75 15.6379 210.827 22.0789 208.989 28.5053C207.15 34.9151 205.311 41.3561 203.504 47.7992C202.601 51.218 201.632 54.6514 200.681 58.0869C202.143 51.5958 203.605 45.1047 205 38.6115C206.364 32.1684 207.692 25.744 209.006 19.3176C210.337 12.8912 211.567 6.45016 212.783 0.023735C211.075 6.45016 209.334 12.8912 207.676 19.3176C206.018 25.744 204.424 32.1684 202.814 38.6115C200.712 47.1898 198.643 55.7847 196.608 64.3797C196.887 63.0481 197.133 61.7332 197.379 60.4016C198.562 53.9752 199.744 47.5341 200.893 41.091C202.059 34.6813 203.094 28.2403 204.178 21.8139C202.683 28.2403 201.24 34.6646 199.826 41.091C198.43 47.5174 197.033 53.9752 195.705 60.4016C194.209 68.1596 192.716 75.8989 191.237 83.6569C192.238 77.9213 193.208 72.1691 194.176 66.4335C195.146 60.7147 196.097 54.9791 197 49.2435C197.984 42.8171 198.954 36.3761 199.857 29.9497C200.777 23.5233 201.598 17.0822 202.418 10.6558C201.137 17.0822 199.857 23.5233 198.641 29.9497C197.425 36.3761 196.243 42.8171 195.094 49.2435C193.878 56.0644 192.695 62.8832 191.563 69.7041C191.957 66.5984 192.318 63.5094 192.712 60.4016C193.517 53.9752 194.272 47.5341 194.993 41.091C195.732 34.6813 196.357 28.2403 196.998 21.8139C195.947 28.2403 194.929 34.6813 193.928 41.091C192.943 47.5174 191.99 53.9752 191.054 60.4016C190.447 64.889 189.838 69.3911 189.248 73.8785C190.101 65.4651 190.922 57.0329 191.677 48.6195C192.236 42.1764 192.762 35.752 193.271 29.3089C193.763 22.8992 194.174 16.4582 194.568 10.0317C193.715 16.4582 192.86 22.8825 192.055 29.3089C191.25 35.7353 190.495 42.1764 189.74 48.6195C188.952 55.5385 188.245 62.4575 187.523 69.3931C187.704 66.3855 187.884 63.3946 188.065 60.4037C188.409 53.9773 188.772 47.5195 189.066 41.0931C189.379 34.6834 189.592 28.2424 189.838 21.816C188.672 32.711 187.54 43.6082 186.603 54.5032C185.684 65.3983 184.945 76.2954 184.238 87.2072C184.451 79.0234 184.666 70.8542 184.814 62.6704C184.962 54.5032 185.06 46.3173 185.093 38.1502C184.766 44.0507 184.42 49.9657 184.124 55.8829C183.533 64.9224 183.022 73.9766 182.628 83.0328C182.349 73.9766 181.988 64.9224 181.479 55.8829C181.233 49.9657 180.987 44.0507 180.691 38.1502C180.691 46.3173 180.674 54.5032 180.708 62.6704C180.758 70.8542 180.872 79.0234 181.02 87.2072C180.445 76.2954 179.821 65.3983 179.016 54.5032C178.211 43.6082 177.193 32.711 176.159 21.816C176.307 28.2424 176.503 34.6667 176.735 41.0931C176.964 47.5195 177.227 53.9773 177.49 60.4037C177.638 63.3946 177.802 66.3855 177.948 69.3931C177.308 62.4575 176.618 55.5385 175.944 48.6195C175.271 42.1764 174.566 35.7353 173.842 29.3089C173.135 22.8825 172.332 16.4582 171.51 10.0317C171.905 16.4582 172.249 22.8825 172.659 29.3089C173.07 35.7353 173.512 42.1764 173.957 48.6195C174.664 57.0329 175.385 65.4651 176.157 73.8785C175.598 69.3911 175.056 64.889 174.516 60.4016C173.663 53.9752 172.774 47.5174 171.871 41.091C170.951 34.6646 169.95 28.2403 168.981 21.8139C169.556 28.2403 170.146 34.6646 170.803 41.091C171.46 47.5174 172.117 53.9752 172.839 60.4016C173.166 63.5073 173.546 66.5963 173.907 69.7041C172.805 62.8832 171.723 56.0644 170.589 49.2435C169.487 42.8171 168.388 36.3761 167.239 29.9497C166.107 23.5233 164.874 17.0822 163.658 10.6558C164.447 17.0822 165.202 23.5233 166.057 29.9497C166.91 36.3761 167.765 42.8171 168.651 49.2435C169.521 54.9791 170.409 60.7147 171.312 66.4335C172.232 72.1691 173.152 77.9213 174.055 83.6569C172.691 75.8989 171.296 68.1596 169.867 60.4016C168.586 53.9752 167.306 47.5174 165.975 41.091C164.628 34.6646 163.2 28.2403 161.804 21.8139C162.805 28.2403 163.84 34.6646 164.908 41.091C165.975 47.5174 167.06 53.9752 168.192 60.4016C168.405 61.7332 168.651 63.0481 168.866 64.3797C166.976 55.7847 165.022 47.1898 162.987 38.6115C161.477 32.1684 159.9 25.744 158.307 19.3176C156.73 12.8912 155.089 6.45016 153.414 0.023735C154.613 6.45016 155.779 12.8912 157.01 19.3176C158.242 25.744 159.523 32.1684 160.803 38.6115C162.151 45.1026 163.512 51.5937 164.876 58.0869C163.99 54.6514 163.087 51.218 162.167 47.7992C160.442 41.3561 158.718 34.9151 156.945 28.5053C155.172 22.0789 153.333 15.6379 151.443 9.21149C152.872 15.6379 154.267 22.0789 155.729 28.5053C157.191 34.9318 158.684 41.3561 160.196 47.7992C161.692 53.9293 163.152 60.0593 164.664 66.1893C163.579 62.3928 162.447 58.6129 161.345 54.8163C159.473 48.3899 157.487 41.9488 155.516 35.5224C153.546 29.096 151.51 22.6717 149.473 16.2453C151.083 22.6717 152.707 29.096 154.399 35.5224C156.073 41.9488 157.831 48.3899 159.523 54.8163C161.773 62.8686 163.99 70.9063 166.305 78.9587C165.698 77.0844 165.089 75.1955 164.482 73.3379C162.38 66.8948 160.278 60.4538 158.128 54.044C155.992 47.6009 153.76 41.1766 151.558 34.7502C153.414 41.1766 155.285 47.6176 157.224 54.044C159.145 60.4705 161.116 66.8948 163.12 73.3379C163.99 76.1326 164.878 78.942 165.765 81.7513C163.268 74.6361 160.772 67.5189 158.228 60.4037C155.879 53.9773 153.548 47.5195 151.166 41.0931C148.801 34.6667 146.338 28.2424 143.875 21.816C145.91 28.2424 147.996 34.6667 150.115 41.0931C152.217 47.5195 154.367 53.9773 156.52 60.4037C158.046 64.7429 159.508 69.0654 161.018 73.4026C159.162 68.6522 157.306 63.9039 155.435 59.1702C153.268 53.6809 151.051 48.225 148.834 42.7524C146.617 37.2965 144.336 31.824 142.019 26.3681C143.94 31.824 145.863 37.2965 147.8 42.7524C149.737 48.225 151.725 53.6809 153.729 59.1702C155.979 65.2668 158.278 71.3655 160.561 77.4622C159.446 74.7175 158.28 71.9896 157.129 69.245C154.403 62.8018 151.644 56.3608 148.868 49.9511C146.075 43.508 143.235 37.0836 140.378 30.6572C142.841 37.0836 145.354 43.5247 147.898 49.9511C150.428 56.3775 153.022 62.8018 155.633 69.245C158.163 75.3249 160.724 81.4236 163.302 87.5036C159.312 78.4807 155.304 69.4412 151.233 60.4037C148.294 53.9773 145.304 47.5195 142.3 41.0931C139.278 34.6667 136.192 28.2424 133.12 21.816C135.796 28.2424 138.507 34.6667 141.233 41.0931C143.975 47.5195 146.734 53.9773 149.525 60.4037C152.48 67.1244 155.454 73.8305 158.49 80.5533C156.947 77.3495 155.404 74.1436 153.844 70.9397C150.691 64.5133 147.523 58.0723 144.336 51.6459C141.149 45.2195 137.867 38.7951 134.615 32.3687C137.506 38.7951 140.428 45.2362 143.402 51.6459C146.357 58.089 149.379 64.5133 152.417 70.9397C154.159 74.6048 155.881 78.2532 157.623 81.9183C154.847 76.5271 152.088 71.1213 149.231 65.7301C146.307 60.1762 143.368 54.6201 140.413 49.0828C137.458 43.5435 134.436 38.0062 131.397 32.4668C134.058 38.0062 136.734 43.5435 139.443 49.0828C142.169 54.6368 144.912 60.1762 147.687 65.7301C149.231 68.7712 150.757 71.8268 152.303 74.8845C148.805 68.5082 145.308 62.1152 141.76 55.7555C138.165 49.3124 134.551 42.8881 130.905 36.4617C127.26 30.0352 123.547 23.5942 119.804 17.1678C123.122 23.5942 126.405 30.0352 129.773 36.4617C133.155 42.8881 136.555 49.3124 139.954 55.7555C143.452 62.2133 146.918 68.7065 150.447 75.1809C148.476 71.7287 146.471 68.2953 144.436 64.8431C140.659 58.4167 136.849 51.959 133.039 45.5492C129.195 39.1061 125.255 32.6985 121.364 26.2721C124.895 32.6985 128.409 39.1395 132.004 45.5492C135.6 51.9924 139.231 58.4167 142.876 64.8431C144.436 67.6211 146.046 70.3971 147.623 73.1584C143.239 66.0098 138.836 58.8759 134.403 51.7273C130.396 45.2842 126.307 38.8598 122.25 32.4334C118.177 26.007 114.039 19.566 109.868 13.1395C113.612 19.566 117.307 26.007 121.084 32.4334C124.878 38.8598 128.688 45.2842 132.513 51.7273C135.272 56.3128 138.079 60.8983 140.905 65.4985C143.712 70.084 146.522 74.7008 149.345 79.3031C145.339 72.9914 141.299 66.6986 137.26 60.4037C133.039 53.9773 128.803 47.5028 124.55 41.0931C120.281 34.6667 115.946 28.2424 111.61 21.816C115.518 28.2424 119.476 34.6667 123.483 41.0931C127.506 47.5195 131.512 53.9773 135.585 60.4037C137.721 63.7724 139.871 67.1411 141.99 70.5265C137.556 63.9686 133.122 57.4273 128.624 50.8882C124.19 44.4618 119.706 38.0208 115.224 31.5944C110.74 25.168 106.192 18.7436 101.61 12.3172C105.747 18.7436 109.87 25.168 114.073 31.5944C118.261 38.0208 122.448 44.4618 126.717 50.8882C132.054 58.8759 137.374 66.8781 142.761 74.8657C141.383 72.9434 140.019 71.0044 138.655 69.0968C134.04 62.6536 129.393 56.2126 124.73 49.7862C120.067 43.3598 115.32 36.9354 110.575 30.509C114.942 36.9354 119.328 43.3598 123.762 49.7862C128.196 56.2126 132.663 62.6536 137.162 69.0968C139.658 72.5969 142.121 76.1139 144.584 79.6308C139.837 73.221 135.076 66.8113 130.265 60.4016C125.437 53.9752 120.544 47.5174 115.683 41.091C110.79 34.6646 105.797 28.2403 100.855 21.8139C105.403 28.2403 110.002 34.6646 114.615 41.091C119.23 47.5174 123.91 53.9752 128.59 60.4016C134.008 67.7652 139.412 75.1266 144.88 82.5069C142.909 79.9605 140.939 77.3954 138.936 74.849C133.912 68.4059 128.903 61.9816 123.829 55.5551C118.755 49.1287 113.583 42.6877 108.409 36.2613C113.253 42.6877 118.048 49.1287 122.909 55.5551C127.771 61.9816 132.663 68.4059 137.589 74.849C141.268 79.614 144.914 84.3645 148.624 89.1149C144.453 83.9554 140.298 78.7938 136.094 73.6343C130.872 67.1912 125.6 60.7501 120.329 54.3404C115.043 47.8973 109.72 41.473 104.335 35.0466C109.359 41.473 114.336 47.914 119.41 54.3404C124.484 60.7668 129.591 67.1912 134.73 73.6343C141.66 82.2126 148.59 90.8076 155.585 99.3879C148.524 90.9244 141.431 82.461 134.271 74.0142C127.112 65.5507 119.868 57.1038 112.577 48.655C118.965 56.4443 125.353 64.2357 131.806 72.0585C138.259 79.8478 144.763 87.6539 151.297 95.4453C145.091 88.28 138.834 81.098 132.544 73.9161C126.895 67.4729 121.214 61.0319 115.516 54.6222C109.818 48.1791 104.037 41.7548 98.2561 35.3283C103.674 41.7548 109.128 48.1958 114.613 54.6222C120.098 61.0486 125.647 67.4729 131.182 73.9161C134.188 77.3683 137.193 80.8351 140.232 84.3019C135.733 79.3552 131.233 74.4253 126.717 69.4954C122.25 64.5822 117.668 59.6356 113.12 54.737C108.571 49.8238 103.939 44.9085 99.326 39.9953C103.612 44.9085 107.898 49.8238 112.217 54.737C116.536 59.6502 120.903 64.5822 125.255 69.4954C128.227 72.7994 131.185 76.1013 134.123 79.422C129.41 74.394 124.68 69.3639 119.902 64.3359C114.434 58.5503 108.932 52.7834 103.399 46.9977C97.8641 41.2288 92.3145 35.4598 86.7148 29.693C91.937 35.4619 97.1258 41.2455 102.398 46.9977C107.702 52.8001 113.007 58.5503 118.327 64.3359C124.223 70.6621 130.119 76.9905 136.013 83.3167C133.762 80.9832 131.481 78.6498 129.197 76.333C124.09 71.1067 118.951 65.8804 113.76 60.6541C108.588 55.4278 103.399 50.2016 98.1769 44.9753C103.07 50.2016 107.981 55.4278 112.94 60.6541C117.916 65.8804 122.909 71.1067 127.9 76.333C132.088 80.7036 136.34 85.0929 140.578 89.4801C136.046 84.9447 131.514 80.4239 126.98 75.9051C120.477 69.462 113.958 63.021 107.439 56.6113C100.886 50.1682 94.2853 43.7438 87.6846 37.3174C93.9412 43.7438 100.248 50.1849 106.569 56.6113C112.876 63.0377 119.264 69.462 125.652 75.9051C128.772 79.0275 131.908 82.1667 135.078 85.3058C129.775 80.2277 124.486 75.1329 119.182 70.0548C114.092 65.223 109.034 60.3912 103.943 55.576C98.8526 50.7442 93.6805 45.9291 88.5397 41.114C93.3343 45.9291 98.1623 50.7609 103.04 55.576C107.918 60.4079 112.828 65.223 117.72 70.0548C124.897 77.0552 132.09 84.0409 139.297 91.0413C138.657 90.434 138.017 89.8412 137.408 89.2505C130.511 82.8241 123.614 76.3831 116.684 69.9567C109.754 63.5303 102.759 57.0892 95.7472 50.6795C102.463 57.0892 109.197 63.5469 115.946 69.9567C122.744 76.3998 129.575 82.8241 136.407 89.2505C137.917 90.697 139.445 92.1434 141.022 93.5898C131.76 85.1096 122.434 76.6294 113.088 68.1659C105.945 61.7395 98.8026 55.2817 91.6429 48.872C84.45 42.4289 77.1756 36.0046 69.9346 29.5782C76.8148 36.0046 83.7117 42.4456 90.6752 48.872C97.6055 55.2984 104.584 61.7395 111.581 68.1659C116.984 73.0958 122.369 78.0257 127.806 82.9577C133.241 87.8709 138.692 92.8175 144.129 97.7495C144.063 97.6848 144.015 97.618 143.948 97.5679C136.69 91.1248 129.349 84.7005 122.008 78.2741C114.667 71.8477 107.295 65.4066 99.8724 58.9802C107.015 65.4066 114.275 71.7496 121.401 78.2741L156.265 110.206L208.781 110.206H208.77ZM33.0771 51.3537C58.7604 66.1768 70.1891 72.7681 81.8159 79.4888L137.944 111.865H153.018C142.492 103.22 132.048 94.6417 121.554 86.03C111.093 77.435 100.648 68.8568 90.1559 60.2764C96.6252 66.0453 103.08 71.8289 109.533 77.5644C115.971 83.3 122.39 89.0022 128.861 94.7377C118.467 86.4224 108.039 78.0904 97.643 69.8231C87.2654 61.5558 76.821 53.2739 66.4414 45.04C75.5718 52.7813 84.6689 60.5206 93.7827 68.1951C102.947 75.9364 112.108 83.6277 121.255 91.3189C114.753 86.2074 108.267 81.096 101.812 76.0345C95.3739 70.9731 88.8879 65.895 82.4353 60.8483C75.9827 55.8035 69.4779 50.7401 63.0086 45.712C56.5393 40.684 50.0679 35.6706 43.5986 30.6426C50.7582 36.6746 57.9178 42.7065 65.0775 48.705C72.2204 54.7036 79.4301 60.7188 86.5897 66.684C89.9557 69.4933 93.2905 72.2714 96.6399 75.0494C88.4938 68.6898 80.3331 62.3134 72.1223 55.9371C64.5519 50.0367 56.9481 44.1216 49.363 38.2546C41.8092 32.3875 34.1574 26.5038 26.5703 20.6367C33.7466 26.6018 40.9562 32.6004 48.1471 38.5342C55.3234 44.4827 62.5644 50.4332 69.7407 56.3483C79.2486 64.1209 88.7899 71.879 98.2978 79.6203C93.011 75.5107 87.7388 71.4031 82.4833 67.3101C74.8315 61.4431 67.2276 55.6261 59.5925 49.7904C52.0053 43.9734 44.2868 38.1064 36.587 32.2226C43.632 37.9916 50.6435 43.7104 57.6384 49.3959C64.5519 55.0167 71.4487 60.5873 78.2643 66.1267C81.5156 68.7565 84.7502 71.3864 88.0183 73.9996C79.9222 67.8528 71.8429 61.7228 63.8449 55.6908C56.3078 50.02 48.8521 44.3846 41.463 38.8452C34.1386 33.3393 26.783 27.8667 19.5399 22.4755C26.2241 27.85 32.8915 33.2245 39.4922 38.5155C46.0115 43.7418 52.5476 48.9513 58.9835 54.0962C64.896 58.7297 70.7251 63.3153 76.5208 67.8528C82.3185 72.3882 88.1309 76.9091 93.8619 81.361C85.4698 75.0348 77.113 68.6898 68.8022 62.4282C61.676 57.1372 54.5476 51.8776 47.5194 46.7014C40.5412 41.5732 33.5609 36.4784 26.6974 31.4503C32.954 36.397 39.1293 41.2789 45.2711 46.094C51.363 50.8924 57.4236 55.6428 63.4341 60.3265C64.6499 61.2636 65.8971 62.232 67.0796 63.1692C57.9992 56.5466 48.95 49.9887 40.0344 43.5455C33.3836 38.7638 26.7496 34.0134 20.2302 29.3632C13.7609 24.7296 7.32291 20.1441 0.951599 15.64C6.83072 20.2088 12.7265 24.7944 18.5222 29.2797C24.3033 33.7504 30.0009 38.121 35.732 42.4936C41.365 46.8161 46.998 51.1053 52.5643 55.3444C49.1649 52.9441 45.7821 50.5626 42.4641 48.2125C36.1574 43.8085 29.9342 39.4526 23.7923 35.1634C17.6838 30.9223 11.6066 26.7333 5.58145 22.5903C11.0497 26.7146 16.4533 30.8242 21.8549 34.8838C27.1584 38.8619 32.4639 42.8213 37.6861 46.6993C42.6288 50.3811 47.4568 53.9793 52.3495 57.5797C48.802 55.1482 45.4193 52.8147 41.8551 50.3811C35.9426 46.3549 30.1302 42.4101 24.3178 38.4987C18.6035 34.6688 12.9204 30.8576 7.30621 27.109C12.3302 30.8075 17.323 34.4872 22.2657 38.0709C27.1438 41.6379 32.0031 45.1214 36.7664 48.5715C42.7101 52.8126 48.6226 57.035 54.2723 61.0444C52.777 60.0426 51.119 58.9406 49.4777 57.8552C43.8447 54.14 38.3931 50.5585 32.9582 47.0082C27.5713 43.4913 22.2177 40.0391 16.9309 36.637C21.4461 39.8262 25.9946 43.0133 30.4785 46.119C34.929 49.2248 39.2482 52.2157 43.5005 55.1419C45.2899 56.3587 47.2274 57.6883 49.0835 58.9385C43.2545 55.2087 37.5067 51.5603 31.9071 48.0434C26.7183 44.7561 21.7256 41.6504 16.7182 38.5614C11.8256 35.5371 6.93079 32.5461 2.08612 29.6053C6.22382 32.4146 10.3636 35.2094 14.5179 37.9874C18.493 40.6172 22.4993 43.2638 26.4555 45.8769C29.198 47.651 31.759 49.3291 34.2554 50.9383C30.6599 48.7864 27.1292 46.6659 23.565 44.5453C19.4273 42.097 15.4857 39.7949 11.5607 37.5282C7.58566 35.2281 3.90887 33.1577 0.000579834 30.939C4.17163 33.5688 8.09662 36.0171 12.4324 38.697C16.128 40.9804 20.1176 43.414 24.1906 45.879C28.0009 48.1958 30.9561 49.9553 36.2763 53.1111C37.8696 54.0482 41.219 56.0373 33.075 51.3516L33.0771 51.3537ZM331.948 51.3537C306.265 66.1768 294.836 72.7681 283.209 79.4888L227.081 111.865H212.007C222.533 103.22 232.977 94.6417 243.472 86.03C253.933 77.435 264.36 68.8568 274.853 60.2764C268.4 66.0453 261.945 71.8289 255.493 77.5644C249.055 83.3 242.635 89.0022 236.147 94.7377C246.558 86.4224 256.986 78.0904 267.365 69.8231C277.76 61.5558 288.204 53.2739 298.567 45.04C289.453 52.7813 280.356 60.5206 271.242 68.1951C262.079 75.9364 252.917 83.6277 243.77 91.3189C250.272 86.2074 256.758 81.096 263.196 76.0345C269.649 70.9731 276.137 65.895 282.59 60.8483C289.042 55.8035 295.547 50.7401 302.017 45.712C308.486 40.684 314.957 35.6706 321.427 30.6426C314.267 36.6746 307.091 42.7065 299.948 48.705C292.788 54.7036 285.595 60.7188 278.435 66.684C275.069 69.4933 271.735 72.2714 268.385 75.0494C276.531 68.6898 284.692 62.3134 292.886 55.9371C300.457 50.0367 308.075 44.1216 315.662 38.2546C323.216 32.3875 330.851 26.5038 338.455 20.6367C331.262 26.6018 324.069 32.6004 316.878 38.5342C309.685 44.4827 302.461 50.4332 295.284 56.3483C285.76 64.1209 276.235 71.879 266.727 79.6203C272.014 75.5107 277.286 71.4031 282.542 67.3101C290.194 61.4431 297.798 55.6261 305.433 49.7904C313.02 43.9734 320.722 38.1064 328.438 32.2226C321.393 37.9916 314.382 43.7104 307.387 49.3959C300.473 55.0167 293.576 60.5873 286.761 66.1267C283.493 68.7565 280.275 71.3864 277.007 73.9996C285.103 67.8528 293.182 61.7228 301.164 55.6908C308.701 50.02 316.173 44.3846 323.562 38.8452C330.887 33.3393 338.242 27.8667 345.485 22.4755C338.784 27.85 332.134 33.2245 325.533 38.5155C319.014 43.7418 312.461 48.9513 306.025 54.0962C300.129 58.7297 294.283 63.3153 288.502 67.8528C282.705 72.3882 276.892 76.9091 271.161 81.361C279.553 75.0348 287.91 68.6898 296.221 62.4282C303.347 57.1372 310.475 51.8776 317.504 46.7014C324.482 41.5732 331.462 36.4784 338.326 31.4503C332.069 36.397 325.894 41.2789 319.752 46.094C313.66 50.8924 307.583 55.6428 301.572 60.3265C300.373 61.2636 299.126 62.232 297.943 63.1692C307.024 56.5466 316.073 49.9887 324.991 43.5455C331.625 38.7638 338.259 34.0134 344.778 29.3632C351.264 24.7296 357.702 20.1441 364.074 15.64C358.194 20.2088 352.299 24.7944 346.503 29.2797C340.722 33.7504 335.008 38.121 329.293 42.4936C323.66 46.8161 318.027 51.1053 312.444 55.3444C315.844 52.9441 319.226 50.5626 322.559 48.2125C328.866 43.8085 335.072 39.4526 341.231 35.1634C347.339 30.9223 353.4 26.7333 359.425 22.5903C353.973 26.7146 348.57 30.8242 343.168 34.8838C337.865 38.8619 332.559 42.8213 327.337 46.6993C322.394 50.3811 317.566 53.9793 312.674 57.5797C316.204 55.1482 319.587 52.8147 323.166 50.3811C329.078 46.3549 334.891 42.4101 340.689 38.4987C346.403 34.6688 352.101 30.8576 357.717 27.109C352.676 30.8075 347.7 34.4872 342.757 38.0709C337.879 41.6379 333.02 45.1214 328.24 48.5715C322.311 52.8126 316.4 57.035 310.751 61.0444C312.246 60.0426 313.904 58.9406 315.545 57.8552C321.178 54.14 326.63 50.5585 332.065 47.0082C337.452 43.4913 342.805 40.0391 348.092 36.637C343.577 39.8262 339.012 43.0133 334.545 46.119C330.094 49.2248 325.775 52.2157 321.506 55.1419C319.733 56.3587 317.794 57.6883 315.94 58.9385C321.769 55.2087 327.5 51.5603 333.099 48.0434C338.305 44.7561 343.298 41.6504 348.305 38.5614C353.183 35.5371 358.092 32.5461 362.937 29.6053C358.799 32.4146 354.659 35.2094 350.505 37.9874C346.53 40.6172 342.507 43.2638 338.568 45.8769C335.825 47.651 333.264 49.3291 330.768 50.9383C334.363 48.7864 337.894 46.6659 341.458 44.5453C345.596 42.097 349.537 39.7949 353.446 37.5282C357.435 35.2281 361.114 33.1577 365.022 30.939C360.851 33.5688 356.926 36.0171 352.591 38.697C348.878 40.9804 344.905 43.414 340.832 45.879C337.022 48.1958 334.067 49.9553 328.747 53.1111C327.153 54.0482 323.804 56.0373 331.948 51.3516V51.3537ZM53.3401 23.8927L154.561 111.291L155.252 111.867L209.771 111.867L210.445 111.291H210.462L311.683 23.8927L227.079 94.9548L208.983 111.308L155.662 111.16L137.927 94.9381H137.91L53.3401 23.8927Z" fill="url(#paint2_linear_1234_26995)"/>
<path d="M182.41 1.24823C123.656 1.24823 76.0261 48.9008 76.0261 107.683C76.0261 166.466 123.656 214.118 182.41 214.118C241.164 214.118 288.794 166.466 288.794 107.683C288.794 48.9008 241.164 1.24823 182.41 1.24823Z" fill="url(#paint3_radial_1234_26995)"/>
<defs>
<linearGradient id="paint0_linear_1234_26995" x1="255.002" y1="196.666" x2="113.104" y2="20.8251" gradientUnits="userSpaceOnUse">
<stop stop-color="#AB62FE"/>
<stop offset="0.514423" stop-color="#CEA3FE"/>
<stop offset="1" stop-color="#AB62FE"/>
</linearGradient>
<linearGradient id="paint1_linear_1234_26995" x1="210.871" y1="141.966" x2="157.238" y2="75.5029" gradientUnits="userSpaceOnUse">
<stop stop-color="#AB62FE"/>
<stop offset="0.485577" stop-color="#F1F2F2"/>
<stop offset="0.990385" stop-color="#AB62FE"/>
</linearGradient>
<linearGradient id="paint2_linear_1234_26995" x1="182.512" y1="133.225" x2="182.512" y2="52.3346" gradientUnits="userSpaceOnUse">
<stop offset="0.38" stop-color="#FEFEFE"/>
<stop offset="0.87" stop-color="#86ADFC"/>
</linearGradient>
<radialGradient id="paint3_radial_1234_26995" cx="0" cy="0" r="1" gradientUnits="userSpaceOnUse" gradientTransform="translate(182.41 107.683) rotate(180) scale(132.342 132.405)">
<stop offset="0.07" stop-color="white"/>
<stop offset="0.12" stop-color="#FBFDFE" stop-opacity="0.97"/>
<stop offset="0.2" stop-color="#F1FAFD" stop-opacity="0.9"/>
<stop offset="0.29" stop-color="#E1F4FC" stop-opacity="0.78"/>
<stop offset="0.39" stop-color="#CBECFA" stop-opacity="0.61"/>
<stop offset="0.5" stop-color="#AEE2F8" stop-opacity="0.4"/>
<stop offset="0.61" stop-color="#8CD5F5" stop-opacity="0.14"/>
<stop offset="0.67" stop-color="#7ACFF4" stop-opacity="0"/>
</radialGradient>
</defs>
</svg>
