<svg width="344" height="355" viewBox="0 0 344 355" fill="none" xmlns="http://www.w3.org/2000/svg">
<g opacity="0.4">
<path fill-rule="evenodd" clip-rule="evenodd" d="M56.1533 93.1935L-37.7876 4.98636C-62.8662 41.376 -72.4373 86.8847 -64.2335 131.065L56.1445 93.1656L56.1533 93.1935ZM83.4762 62.6988L-10.4287 -25.489C22.742 -54.1095 66.3651 -67.8437 109.949 -63.3884L83.5034 62.6902L83.4762 62.6988ZM123.341 72.0403L243.719 34.1408C225.122 -6.61397 191.072 -38.5732 149.787 -54.0384L123.341 72.0403ZM135.892 111.905L229.805 200.12C254.884 163.731 264.446 118.194 256.27 74.0051L135.892 111.905ZM108.569 142.399L202.474 230.587C169.303 259.208 125.68 272.942 82.123 268.478L108.569 142.399ZM68.704 133.058L-51.674 170.957C-33.0772 211.712 0.973173 243.671 42.2309 259.145L68.6769 133.066L68.704 133.058ZM-9.70927 -66.0922C80.4218 -124.345 200.872 -96.0675 259.253 -2.95917C317.643 90.1771 291.877 212.91 201.746 271.162C111.614 329.415 -8.83621 301.138 -67.2172 208.029C-125.607 114.893 -99.8403 -7.83995 -9.70927 -66.0922Z" fill="url(#paint0_linear_1613_48258)"/>
<path d="M-63.4764 133.467L56.9016 95.5678C57.119 95.4994 57.3093 95.4395 57.4732 95.2958C57.9912 94.9484 58.3844 94.3948 58.5075 93.7419C58.6865 92.8873 58.4051 91.9933 57.7599 91.3674L-36.181 3.16025C-36.6919 2.67629 -37.3946 2.43694 -38.0908 2.50263C-38.7871 2.56833 -39.3867 2.94132 -39.7983 3.5315C-65.1327 40.2473 -74.9124 86.8962 -66.6398 131.485C-66.5103 132.181 -66.1089 132.792 -65.4798 133.177C-64.8866 133.543 -64.1647 133.653 -63.5124 133.448L-63.4764 133.467ZM-37.3494 8.74786L51.4198 92.1046L-62.3264 127.916C-69.3061 86.3901 -60.2433 43.2522 -37.3494 8.74786Z" fill="black"/>
<path d="M81.8349 64.5053C82.4713 65.1033 83.3731 65.3107 84.1885 65.054C84.4059 64.9855 84.5961 64.9256 84.76 64.7819C85.278 64.4346 85.6713 63.8809 85.8032 63.256L112.249 -62.8227C112.391 -63.5121 112.252 -64.2361 111.832 -64.8102C111.413 -65.3843 110.784 -65.7695 110.079 -65.8241C73.6267 -69.5463 36.5776 -60.6454 5.77667 -40.7234C-0.456104 -36.7039 -6.44901 -32.2072 -12.0654 -27.3684C-12.5842 -26.9288 -12.9063 -26.244 -12.9215 -25.533C-12.9366 -24.8221 -12.6352 -24.1493 -12.1155 -23.6374L81.7894 64.5504L81.8349 64.5053ZM106.967 -61.1905L81.9816 57.9497L-6.75159 -25.3876C24.7996 -51.656 66.2476 -64.6132 106.995 -61.1991L106.967 -61.1905Z" fill="black"/>
<path d="M121.699 73.8469C122.335 74.4449 123.237 74.6522 124.053 74.3955L244.403 36.5046C244.621 36.4362 244.811 36.3763 244.975 36.2326C245.375 35.9839 245.703 35.6042 245.888 35.1469C246.164 34.5071 246.171 33.7682 245.842 33.104C227.006 -8.12795 192.274 -40.7324 150.539 -56.3937C149.891 -56.6501 149.158 -56.6038 148.55 -56.2588C147.987 -55.9588 147.503 -55.315 147.361 -54.6256L120.915 71.453C120.736 72.3077 121.027 73.2296 121.663 73.8275L121.699 73.8469ZM151.547 -50.7238C190.061 -35.522 222.166 -5.37615 240.308 32.605L126.562 68.4165L151.547 -50.7238Z" fill="black"/>
<path d="M255.495 71.6394L135.117 109.539C134.301 109.796 133.681 110.482 133.502 111.337C133.323 112.191 133.613 113.113 134.249 113.711L228.163 201.927C228.674 202.411 229.377 202.65 230.073 202.585C230.453 202.557 230.797 202.418 231.124 202.223C231.397 202.045 231.597 201.828 231.789 201.584C257.124 164.868 266.903 118.219 258.649 73.5938C258.52 72.8977 258.118 72.2872 257.516 71.8933C256.923 71.5274 256.201 71.4169 255.522 71.6308L255.495 71.6394ZM229.34 196.367L140.598 113.002L254.345 77.1905C261.324 118.717 252.253 161.827 229.34 196.367Z" fill="black"/>
<path d="M261.271 -4.23883C202.239 -98.3704 80.0749 -127.06 -11.0465 -68.1581C-102.168 -9.25627 -128.302 115.25 -69.2705 209.382C-10.2388 303.514 111.925 332.203 203.047 273.301C294.168 214.399 320.302 89.8928 261.271 -4.23883ZM200.408 269.096C111.513 326.53 -7.63937 298.581 -65.2272 206.758C-122.788 114.927 -97.3306 -6.51127 -8.40822 -63.9531C80.4782 -121.414 199.639 -93.4376 257.2 -1.60628C314.761 90.225 289.303 211.663 200.408 269.096Z" fill="black"/>
<path d="M70.3189 131.26C69.6825 130.662 68.7808 130.455 67.9566 130.683L-52.4214 168.583C-53.0737 168.788 -53.6109 169.264 -53.9058 169.941C-54.1824 170.58 -54.1887 171.319 -53.8873 171.992C-35.0507 213.224 -0.319143 245.828 41.4159 261.49C42.0642 261.746 42.7965 261.7 43.4048 261.355C43.4592 261.338 43.5135 261.321 43.5319 261.284C44.0771 260.928 44.4432 260.383 44.575 259.758L71.021 133.679C71.2 132.825 70.9185 131.931 70.2734 131.305L70.3189 131.26ZM40.4435 255.839C1.93009 240.637 -30.1753 210.491 -48.2898 172.502L65.4564 136.69L40.4706 255.831L40.4435 255.839Z" fill="black"/>
<path d="M110.184 140.601C109.547 140.003 108.645 139.796 107.83 140.053C107.015 140.309 106.403 141.024 106.215 141.851L79.7694 267.929C79.628 268.619 79.7663 269.343 80.186 269.917C80.6058 270.491 81.2349 270.876 81.9392 270.931C118.392 274.653 155.441 265.752 186.242 245.83C192.475 241.81 198.467 237.314 204.084 232.475C204.603 232.035 204.925 231.351 204.94 230.64C204.955 229.929 204.654 229.256 204.134 228.744L110.229 140.556L110.184 140.601ZM85.051 266.297L110.037 147.157L198.77 230.494C167.219 256.763 125.78 269.748 85.0239 266.306L85.051 266.297Z" fill="black"/>
<path fill-rule="evenodd" clip-rule="evenodd" d="M11.4031 105.624C9.02205 57.8294 44.9572 17.6839 91.6572 15.9998C138.357 14.3158 178.18 51.704 180.561 99.4985C182.942 147.293 147.007 187.438 100.307 189.123C53.6067 190.807 13.7842 153.418 11.376 105.632L11.4031 105.624Z" fill="url(#paint1_linear_1613_48258)"/>
<path d="M143.3 178.135C130.544 186.389 115.722 191.024 100.456 191.593C52.491 193.338 11.4406 154.801 9.00746 105.703C7.41875 73.9936 22.6498 43.8055 48.708 26.9427C61.4645 18.6892 76.2861 14.0535 91.5517 13.4846C114.798 12.6446 137.087 21.1021 154.359 37.342C171.63 53.5818 181.814 75.5843 183.001 99.3752C184.589 131.084 169.386 161.264 143.291 178.107L143.3 178.135ZM51.3463 31.1477C26.7237 47.0672 12.3384 75.5766 13.8519 105.529C16.1729 151.899 54.9018 188.28 100.237 186.627C114.653 186.11 128.65 181.704 140.689 173.922C165.312 158.002 179.697 129.493 178.183 99.5408C177.057 77.0818 167.46 56.2765 151.129 40.9379C134.808 25.6272 113.734 17.6159 91.7894 18.4147C77.3736 18.931 63.3762 23.3379 51.3463 31.1477Z" fill="black"/>
<path fill-rule="evenodd" clip-rule="evenodd" d="M82.3087 80.721C93.9749 73.1793 109.584 76.8318 117.151 88.9113C124.709 100.963 121.383 116.871 109.69 124.421C98.0234 131.963 82.4146 128.311 74.8475 116.231C67.2891 104.18 70.6153 88.2713 82.3087 80.721Z" fill="black"/>
<path d="M119.178 87.5669C110.898 74.3609 93.774 70.3564 80.9815 78.5905C68.1978 86.8526 64.5511 104.305 72.8042 117.519C81.0845 130.725 98.2081 134.73 110.992 126.468C123.776 118.206 127.422 100.753 119.142 87.5475L119.178 87.5669ZM108.39 122.282C97.8409 129.104 83.7382 125.775 76.9018 114.878C70.0654 103.981 73.0983 89.6084 83.647 82.7869C94.1956 75.9655 108.298 79.2937 115.135 90.1909C121.971 101.088 118.938 115.461 108.39 122.282Z" fill="black"/>
</g>
<defs>
<linearGradient id="paint0_linear_1613_48258" x1="36.1268" y1="-87.6945" x2="155.909" y2="292.765" gradientUnits="userSpaceOnUse">
<stop stop-color="#0047D6"/>
<stop offset="0.331731" stop-color="#78D1FE"/>
<stop offset="0.665865" stop-color="#78D1FE"/>
<stop offset="1" stop-color="#0047D6"/>
</linearGradient>
<linearGradient id="paint1_linear_1613_48258" x1="69.8934" y1="19.7256" x2="122.054" y2="185.402" gradientUnits="userSpaceOnUse">
<stop stop-color="#78D1FE"/>
<stop offset="0.567308" stop-color="#F1F2F2"/>
<stop offset="1" stop-color="#78D1FE"/>
</linearGradient>
</defs>
</svg>
