<svg width="558" height="558" viewBox="0 0 558 558" fill="none" xmlns="http://www.w3.org/2000/svg">
<g opacity="0.7" filter="url(#filter0_f_1330_20410)">
<path fill-rule="evenodd" clip-rule="evenodd" d="M319.54 255.003H466.045C459.72 204.639 433.283 158.811 392.763 128.139L319.54 255.003ZM319.54 302.203L392.823 429.066C433.164 398.395 459.66 352.447 466.105 302.203H319.6H319.54ZM278.662 325.774L351.885 452.637C305.158 472.209 252.106 472.209 205.38 452.637L278.662 325.774ZM237.784 302.203H91.2787C97.664 352.567 124.101 398.395 164.561 429.066L237.843 302.203H237.784ZM237.784 255.003L164.561 128.139C124.22 158.751 97.664 204.759 91.2787 255.003H237.784ZM278.662 231.432L205.38 104.569C252.106 84.9963 305.158 84.9963 351.885 104.569L278.662 231.432ZM496.182 336.932C464.016 457.052 340.487 528.361 220.358 496.198C100.23 464.034 28.9171 340.513 61.0825 220.393C93.248 100.272 216.778 28.9641 336.906 61.1274C457.034 93.2907 528.347 216.812 496.182 336.932Z" fill="url(#paint0_linear_1330_20410)"/>
<path d="M91.2819 260.314H237.787C239.697 260.314 241.487 259.299 242.442 257.628C243.397 255.958 243.397 253.929 242.442 252.258L169.219 125.395C168.443 124.082 167.13 123.127 165.638 122.829C164.147 122.53 162.595 122.829 161.342 123.784C120.046 155.171 92.5947 202.73 86.0303 254.227C85.8513 255.779 86.3287 257.27 87.3432 258.464C88.3577 259.598 89.7899 260.254 91.3415 260.254L91.2819 260.314ZM163.013 136.136L228.537 249.573H97.4882C104.649 205.236 128.221 164.48 163.013 136.136Z" fill="black"/>
<path d="M274.01 234.058C274.964 235.729 276.755 236.744 278.664 236.744C280.574 236.744 282.364 235.729 283.319 234.058L356.542 107.195C357.318 105.882 357.497 104.271 356.96 102.779C356.482 101.347 355.408 100.154 353.976 99.557C306.175 79.5072 251.154 79.5668 203.353 99.557C201.921 100.154 200.847 101.347 200.369 102.779C199.892 104.271 200.011 105.823 200.787 107.195L274.069 234.058H274.01ZM344.129 107.195L278.605 220.692L213.08 107.255C254.913 91.3223 302.296 91.3223 344.129 107.255V107.195Z" fill="black"/>
<path d="M242.381 299.518C241.426 297.848 239.636 296.833 237.726 296.833H91.2209C89.6693 296.833 88.2371 297.49 87.2226 298.623C86.2081 299.757 85.7307 301.308 85.9097 302.86C92.4144 354.417 119.865 401.975 161.221 433.303C162.176 434.019 163.31 434.378 164.444 434.378C164.802 434.378 165.16 434.377 165.518 434.258C167.01 433.96 168.322 433.005 169.098 431.692L242.381 304.829C243.336 303.158 243.336 301.129 242.381 299.459V299.518ZM162.952 421.071C128.101 392.726 104.529 351.97 97.4272 307.574H228.476L162.952 421.071Z" fill="black"/>
<path d="M283.259 323.148C282.304 321.477 280.514 320.463 278.604 320.463C276.695 320.463 274.905 321.477 273.95 323.148L200.667 450.011C199.892 451.324 199.713 452.935 200.25 454.367C200.727 455.799 201.861 456.993 203.233 457.589C227.164 467.614 252.526 472.687 278.604 472.687C304.683 472.687 330.045 467.614 353.916 457.589C355.348 456.993 356.422 455.799 356.9 454.367C357.377 452.935 357.258 451.324 356.482 450.011L283.259 323.148ZM213.08 450.011L278.604 336.515L344.129 450.011C302.356 465.944 254.913 465.944 213.08 450.011Z" fill="black"/>
<path d="M395.988 123.843C394.794 122.888 393.183 122.59 391.691 122.888C390.199 123.187 388.886 124.141 388.11 125.454L314.888 252.317C313.933 253.988 313.933 256.017 314.888 257.688C315.843 259.359 317.633 260.373 319.542 260.373H466.048C467.599 260.373 469.031 259.717 470.046 258.583C471.06 257.449 471.538 255.898 471.359 254.346C464.914 202.789 437.403 155.231 396.047 123.903L395.988 123.843ZM328.792 249.632L394.317 136.136C429.168 164.48 452.74 205.236 459.841 249.632H328.792Z" fill="black"/>
<path d="M478.341 163.346C447.548 109.999 397.837 71.8688 338.34 55.9363C318.766 50.6852 298.656 48 278.545 48C174.469 48 82.9261 118.294 55.9524 218.961C40.0189 278.454 48.1945 340.573 78.9874 393.92C109.78 447.267 159.491 485.397 218.988 501.33C238.562 506.581 258.732 509.206 278.783 509.206C382.859 509.206 474.402 438.913 501.376 338.246C517.309 278.752 509.133 216.633 478.341 163.287V163.346ZM491.052 335.501C465.331 431.513 378.085 498.525 278.783 498.525C259.627 498.525 240.471 495.959 221.793 491.006C165.1 475.79 117.658 439.45 88.2969 388.549C58.9362 337.708 51.1187 278.454 66.3361 221.706C92.0566 125.753 179.363 58.6812 278.604 58.6812C297.76 58.6812 316.976 61.2472 335.655 66.1999C392.347 81.4164 439.79 117.757 469.15 168.657C498.511 219.498 506.329 278.752 491.111 335.501H491.052Z" fill="black"/>
<path d="M466.048 296.833H319.542C317.633 296.833 315.843 297.848 314.888 299.518C313.933 301.189 313.933 303.218 314.888 304.889L388.17 431.752C388.946 433.065 390.259 434.019 391.751 434.318C392.109 434.377 392.467 434.437 392.825 434.437C393.959 434.437 395.093 434.079 396.047 433.363C437.343 401.916 464.854 354.417 471.359 302.92C471.538 301.368 471.06 299.876 470.046 298.683C469.031 297.549 467.539 296.893 466.048 296.893V296.833ZM394.317 421.011L328.792 307.514H459.841C452.68 351.851 429.108 392.607 394.317 421.011Z" fill="black"/>
<path fill-rule="evenodd" clip-rule="evenodd" d="M348.004 209.235C386.316 247.545 386.316 309.663 348.004 347.973C309.692 386.283 247.569 386.283 209.317 347.973C171.004 309.663 171.004 247.545 209.317 209.235C247.629 170.926 309.752 170.926 348.004 209.235Z" fill="url(#paint1_linear_1330_20410)"/>
<path d="M278.661 382.047C251.031 382.047 225.072 371.306 205.498 351.733C165.157 311.395 165.157 245.815 205.498 205.477C225.012 185.964 250.971 175.223 278.661 175.223C306.351 175.223 332.25 185.964 351.764 205.477C392.105 245.815 392.105 311.454 351.764 351.733C332.25 371.246 306.291 382.047 278.661 382.047ZM278.661 185.904C253.895 185.904 230.621 195.571 213.077 213.055C176.913 249.216 176.913 308.053 213.077 344.214C230.562 361.698 253.895 371.365 278.661 371.365C303.426 371.365 326.7 361.698 344.245 344.214C380.409 308.053 380.409 249.216 344.245 213.055C326.76 195.571 303.426 185.904 278.661 185.904Z" fill="black"/>
<path fill-rule="evenodd" clip-rule="evenodd" d="M286.176 250.407C270.601 246.23 254.608 255.48 250.43 271.054C246.253 286.629 255.503 302.621 271.078 306.798C286.654 310.975 302.647 301.726 306.824 286.151C311.002 270.577 301.752 254.585 286.176 250.407Z" fill="black"/>
<path d="M278.658 313.124C275.674 313.124 272.63 312.706 269.706 311.93C251.326 306.977 240.346 288.002 245.299 269.623C249.297 254.585 263.022 244.023 278.658 244.023C281.641 244.023 284.685 244.441 287.609 245.217C305.989 250.17 316.97 269.145 312.017 287.524C307.959 302.621 294.233 313.124 278.658 313.124ZM278.658 254.764C267.916 254.764 258.427 262.044 255.682 272.427C252.281 285.137 259.8 298.206 272.511 301.607C285.043 304.889 298.351 297.132 301.693 284.779C305.094 272.069 297.515 259.001 284.864 255.6C282.835 255.063 280.746 254.764 278.717 254.764H278.658Z" fill="black"/>
</g>
<defs>
<filter id="filter0_f_1330_20410" x="0" y="0" width="557.328" height="557.206" filterUnits="userSpaceOnUse" color-interpolation-filters="sRGB">
<feFlood flood-opacity="0" result="BackgroundImageFix"/>
<feBlend mode="normal" in="SourceGraphic" in2="BackgroundImageFix" result="shape"/>
<feGaussianBlur stdDeviation="6" result="effect1_foregroundBlur_1330_20410"/>
</filter>
<linearGradient id="paint0_linear_1330_20410" x1="278.632" y1="53.4102" x2="278.632" y2="503.915" gradientUnits="userSpaceOnUse">
<stop stop-color="#4B019F"/>
<stop offset="0.156466" stop-color="#AB62FE"/>
<stop offset="0.531438" stop-color="#CEA3FE"/>
<stop offset="0.875" stop-color="#AB62FE"/>
<stop offset="1" stop-color="#4B019F"/>
</linearGradient>
<linearGradient id="paint1_linear_1330_20410" x1="278.66" y1="180.503" x2="278.66" y2="376.705" gradientUnits="userSpaceOnUse">
<stop stop-color="#CEA3FE"/>
<stop offset="0.495192" stop-color="#F1F2F2"/>
<stop offset="1" stop-color="#CEA3FE"/>
</linearGradient>
</defs>
</svg>
