<svg width="199" height="318" viewBox="0 0 199 318" fill="none" xmlns="http://www.w3.org/2000/svg">
<g opacity="0.5">
<path fill-rule="evenodd" clip-rule="evenodd" d="M28.5913 160.495L1.47916 128.641C-7.55653 118.025 -16.5973 107.404 -25.633 96.7877C-40.976 113.223 -49.0721 134.326 -49.5789 155.743C-50.0799 177.154 -43.0017 198.866 -27.9895 216.504C-23.9883 221.205 -19.5232 225.48 -14.682 229.25C-9.8468 233.026 -4.63044 236.303 0.871629 239.029C5.49129 225.943 10.111 212.858 14.7315 199.762C19.3511 186.676 23.9708 173.591 28.5854 160.5L28.5913 160.495ZM44.2581 147.16C57.9135 144.69 71.5747 142.216 85.2352 139.752C98.8905 137.283 112.546 134.813 126.206 132.35C124.395 126.483 121.994 120.81 119.045 115.428C116.09 110.052 112.594 104.962 108.588 100.255C93.5759 82.6176 73.2794 72.1561 52.0573 69.2345C30.8462 66.3138 8.70955 70.9331 -9.96615 83.4529L44.2581 147.16ZM48.0405 167.48C61.6959 165.011 75.3571 162.536 89.0125 160.067C102.668 157.597 116.329 155.123 129.99 152.659C131.571 175.151 124.603 196.669 111.565 213.595C98.532 230.516 79.446 242.841 56.7918 246.937C50.7399 248.034 44.6047 248.495 38.4951 248.339C32.3805 248.176 26.2855 247.402 20.3107 246.002C24.9304 232.917 29.556 219.827 34.1756 206.741C38.7953 193.656 43.4209 180.566 48.0405 167.48ZM-34.0169 75.1709L-29.9656 71.7227C-27.9899 72.9655 -26.0141 74.2084 -24.0443 75.4563C-22.0685 76.6992 -20.0927 77.942 -18.117 79.1849C-18.7215 76.9288 -19.327 74.6838 -19.9315 72.4278C-20.5361 70.1717 -21.1415 67.9267 -21.7461 65.6706C-20.9967 65.197 -20.2474 64.7234 -19.4981 64.2498C-18.7487 63.7762 -17.9994 63.3025 -17.25 62.8289C-15.4661 64.3377 -13.6872 65.8405 -11.8974 67.3442C-10.1135 68.853 -8.33458 70.3558 -6.54474 71.8595C-6.83003 69.5472 -7.11536 67.2349 -7.40065 64.9226C-7.68595 62.6103 -7.97124 60.298 -8.25654 57.9857C-7.44896 57.6165 -6.63629 57.2531 -5.83463 56.8889C-5.02199 56.5256 -4.22034 56.1614 -3.41277 55.7921C-1.85106 57.5311 -0.294425 59.2641 1.26728 61.003C2.82897 62.742 4.3856 64.475 5.94139 66.219C5.97789 63.8893 6.01439 61.5597 6.05594 59.236C6.09244 56.9063 6.134 54.5826 6.1705 52.253C7.01855 52.0032 7.8776 51.7543 8.72567 51.5045C9.57373 51.2547 10.4269 51.0109 11.2808 50.756C12.584 52.6945 13.8872 54.6329 15.1904 56.5714C16.4936 58.5099 17.7917 60.4424 19.1008 62.3759C19.4607 60.0787 19.8207 57.7816 20.1806 55.4845C20.5406 53.1874 20.9005 50.8903 21.2605 48.5932C22.138 48.4619 23.0207 48.3366 23.8923 48.2104C24.775 48.0851 25.6526 47.9538 26.5352 47.8285C27.5554 49.9258 28.5755 52.0231 29.6067 54.1212C30.6269 56.2185 31.647 58.3158 32.6723 60.419C33.3472 58.1924 34.0272 55.9717 34.7022 53.7451C35.3822 51.5245 36.0572 49.2979 36.7321 47.0713C37.6164 47.0678 38.5116 47.0651 39.3959 47.0616C40.2861 47.053 41.1754 47.0554 42.0656 47.0468C42.7834 49.268 43.5071 51.4842 44.2307 53.7005C44.9544 55.9167 45.6722 58.138 46.3958 60.3542C47.3765 58.2471 48.3512 56.145 49.3318 54.0379C50.3124 51.9308 51.2931 49.8237 52.2678 47.7217C53.1478 47.8449 54.0337 47.9631 54.9137 48.0863C55.7937 48.2095 56.6796 48.3277 57.5596 48.4509C57.9623 50.7454 58.376 53.0408 58.7787 55.3352C59.1814 57.6297 59.5951 59.925 59.9978 62.2195C61.2587 60.274 62.5256 58.3234 63.7866 56.3779C65.0534 54.4274 66.3144 52.4819 67.5754 50.5364C68.435 50.7795 69.2896 51.0167 70.1493 51.2599C71.009 51.503 71.8636 51.7402 72.7233 51.9833C72.8084 54.312 72.8935 56.6408 72.9736 58.9636C73.0587 61.2923 73.1438 63.6211 73.2239 65.9439C74.7457 64.1971 76.2735 62.4452 77.7954 60.6983C79.3172 58.9515 80.845 57.1996 82.3617 55.4469C83.1791 55.8081 83.9915 56.1633 84.8089 56.5245C85.6263 56.8857 86.4386 57.241 87.256 57.6022C87.0159 59.9204 86.7767 62.2276 86.5367 64.5458C86.2967 66.864 86.0516 69.1762 85.8175 71.4893C87.5706 69.9663 89.3229 68.4543 91.0761 66.9314C92.8293 65.4084 94.5816 63.8963 96.3347 62.3734C97.0938 62.8458 97.8537 63.3072 98.6128 63.7796C99.3719 64.2521 100.132 64.7135 100.891 65.1859C100.33 67.4386 99.774 69.6973 99.2131 71.9499C98.6522 74.2026 98.0904 76.4663 97.5294 78.719C99.4776 77.461 101.426 76.2031 103.374 74.9451C105.322 73.6872 107.27 72.4292 109.224 71.1662C109.91 71.732 110.6 72.3037 111.28 72.8745C111.966 73.4403 112.656 74.012 113.342 74.5778C112.473 76.733 111.605 78.8882 110.737 81.0433C109.868 83.1985 109 85.3537 108.132 87.5088C110.24 86.5351 112.349 85.5614 114.452 84.5817C116.561 83.608 118.669 82.6343 120.767 81.6596C121.368 82.3179 121.969 82.9761 122.57 83.6343C123.171 84.2926 123.772 84.9508 124.373 85.609C123.212 87.6236 122.051 89.6273 120.89 91.6419C119.728 93.6565 118.568 95.6602 117.407 97.6748C119.63 97.0036 121.853 96.3324 124.076 95.6613C126.3 94.9901 128.523 94.3189 130.746 93.6477C131.252 94.3865 131.754 95.1193 132.26 95.8581C132.762 96.5909 133.268 97.3297 133.774 98.0685C132.345 99.9004 130.911 101.726 129.477 103.552C128.048 105.384 126.62 107.205 125.191 109.037C127.489 108.682 129.782 108.332 132.08 107.976C134.378 107.621 136.671 107.271 138.969 106.915C139.365 107.717 139.768 108.513 140.16 109.309C140.562 110.105 140.954 110.901 141.35 111.702C139.679 113.309 138.008 114.917 136.335 116.535C134.664 118.142 132.993 119.749 131.327 121.362C133.649 121.335 135.978 121.303 138.306 121.271C140.629 121.244 142.957 121.211 145.28 121.184C145.568 122.026 145.851 122.874 146.134 123.721C146.416 124.568 146.705 125.41 146.987 126.257C145.108 127.621 143.224 128.978 141.351 130.336C139.472 131.699 137.588 133.057 135.715 134.415C138.024 134.707 140.333 134.999 142.641 135.303C144.95 135.595 147.264 135.893 149.573 136.185C149.737 137.062 149.902 137.938 150.066 138.814C150.23 139.69 150.395 140.566 150.559 141.442C148.509 142.52 146.458 143.609 144.401 144.692C142.345 145.775 140.3 146.859 138.244 147.942C140.489 148.555 142.741 149.163 144.991 149.783C147.237 150.396 149.482 151.009 151.734 151.617C151.775 152.505 151.817 153.393 151.853 154.286C151.895 155.174 151.931 156.066 151.973 156.954C149.785 157.739 147.602 158.53 145.415 159.314C143.227 160.099 141.044 160.89 138.856 161.674C140.995 162.594 143.145 163.514 145.284 164.433C147.423 165.353 149.573 166.273 151.712 167.192L151.462 169.847C151.377 170.729 151.297 171.618 151.213 172.501C148.933 172.974 146.664 173.448 144.384 173.921C142.105 174.394 139.836 174.868 137.556 175.341C139.551 176.547 141.552 177.759 143.541 178.969L149.526 182.598L148.906 185.188L148.285 187.779L141.328 188.231C139.007 188.38 136.691 188.535 134.364 188.689L139.79 193.111L145.216 197.533L144.245 200.011L143.275 202.49L136.315 201.969C133.997 201.798 131.673 201.62 129.355 201.449L134.119 206.578L138.882 211.708L137.571 214.025L136.259 216.342L129.428 214.86L122.604 213.373L126.613 219.113L130.623 224.854L129.001 226.963L127.379 229.072L120.82 226.65L114.262 224.229L117.437 230.464L120.618 236.705L118.716 238.569L116.815 240.434L110.651 237.122C108.593 236.022 106.54 234.916 104.481 233.815L106.766 240.429L109.05 247.043L106.906 248.622L104.761 250.201L99.1139 246.07C97.226 244.691 95.3491 243.312 93.4663 241.939C93.9138 244.226 94.3613 246.513 94.8028 248.806L96.1452 255.667L93.8044 256.931C93.0204 257.352 92.2415 257.779 91.4635 258.195C89.7877 256.573 88.1128 254.941 86.437 253.32C84.7612 251.698 83.0863 250.066 81.4105 248.445C81.5345 250.771 81.6585 253.098 81.7884 255.419C81.9124 257.746 82.0363 260.072 82.1603 262.399C81.3299 262.705 80.4937 263.017 79.6633 263.323C78.833 263.63 78.0026 263.936 77.1664 264.248C75.7339 262.409 74.2964 260.565 72.864 258.726C71.4265 256.881 69.994 255.042 68.5616 253.204C68.3604 255.52 68.1643 257.841 67.9631 260.157C67.7619 262.473 67.5658 264.795 67.3646 267.111C66.4938 267.298 65.628 267.491 64.7631 267.673C63.8922 267.86 63.0265 268.053 62.1556 268.24C60.9918 266.214 59.8272 264.199 58.6575 262.177C57.4937 260.151 56.3291 258.136 55.1653 256.109C54.6475 258.377 54.1296 260.644 53.6007 262.911C53.0829 265.178 52.5599 267.439 52.042 269.707C51.1586 269.771 50.2692 269.841 49.3857 269.905C48.5023 269.969 47.6129 270.039 46.7295 270.103C45.858 267.941 44.9814 265.773 44.1099 263.611C43.2384 261.448 42.3619 259.28 41.4844 257.123C40.6592 259.293 39.8229 261.462 38.9918 263.637C38.1606 265.811 37.3303 267.975 36.4991 270.15C35.614 270.093 34.7239 270.03 33.8388 269.972C32.9537 269.915 32.0635 269.852 31.1784 269.794C30.6127 267.536 30.0478 265.267 29.4821 263.008C28.9164 260.75 28.3456 258.486 27.7858 256.223C26.6616 258.257 25.5324 260.285 24.4141 262.315C23.2899 264.349 22.1666 266.372 21.0424 268.406C20.1667 268.228 19.2968 268.045 18.427 267.862C17.5572 267.679 16.6814 267.501 15.8116 267.317C15.5652 265.003 15.3195 262.677 15.0731 260.363C14.8267 258.048 14.5861 255.729 14.3346 253.408C12.9369 255.265 11.54 257.11 10.1422 258.967C8.74451 260.824 7.34761 262.67 5.94986 264.526C5.11133 264.224 4.27279 263.922 3.43426 263.62C2.59573 263.318 1.75719 263.015 0.918662 262.713C0.999071 260.387 1.07948 258.061 1.15483 255.729C1.23524 253.403 1.31565 251.077 1.39099 248.745C-0.254955 250.382 -1.89585 252.025 -3.5418 253.662C-5.1827 255.305 -6.82864 256.942 -8.46361 258.58C-9.2548 258.166 -10.0401 257.746 -10.8313 257.332C-11.6224 256.918 -12.4077 256.498 -13.1989 256.084C-12.795 253.791 -12.3971 251.502 -11.9932 249.209C-11.5952 246.92 -11.1914 244.627 -10.7875 242.334C-12.6411 243.727 -14.4947 245.12 -16.3593 246.512C-18.2129 247.905 -20.0665 249.298 -21.9311 250.69C-22.653 250.165 -23.3808 249.646 -24.1036 249.132C-24.8255 248.607 -25.5532 248.088 -26.276 247.574C-25.558 245.362 -24.8458 243.155 -24.1278 240.943C-23.4098 238.731 -22.6977 236.525 -21.9797 234.313C-24.0114 235.436 -26.0423 236.549 -28.079 237.667C-30.1107 238.791 -32.1416 239.904 -34.1783 241.022C-34.8267 240.404 -35.47 239.792 -36.1184 239.174C-36.7667 238.556 -37.41 237.944 -38.0584 237.326C-37.0406 235.239 -36.0228 233.151 -35.005 231.064C-33.9872 228.976 -32.9695 226.889 -31.9517 224.802C-34.126 225.626 -36.2944 226.446 -38.4636 227.276C-40.6379 228.1 -42.8012 228.926 -44.9755 229.75C-45.5293 229.052 -46.083 228.353 -46.6367 227.655C-47.1905 226.956 -47.7442 226.258 -48.2979 225.559C-46.9998 223.634 -45.7017 221.708 -44.3985 219.788C-43.1004 217.862 -41.8023 215.936 -40.4991 214.016C-42.7653 214.529 -45.0316 215.042 -47.2978 215.555C-49.564 216.068 -51.8302 216.58 -54.0965 217.093C-54.5454 216.326 -54.9995 215.553 -55.4485 214.786C-55.8974 214.019 -56.3515 213.246 -56.8064 212.484C-55.2533 210.761 -53.7002 209.039 -52.1412 207.312C-50.5881 205.59 -49.035 203.868 -47.476 202.141C-49.7894 202.335 -52.1079 202.522 -54.4272 202.721C-56.7405 202.915 -59.0649 203.108 -61.3833 203.296C-61.7233 202.477 -62.0625 201.647 -62.4025 200.828C-62.7476 200.003 -63.0817 199.18 -63.4267 198.355C-61.6432 196.867 -59.8647 195.374 -58.087 193.892C-56.3035 192.405 -54.525 190.911 -52.7474 189.429C-55.0741 189.296 -57.3899 189.163 -59.7166 189.03C-62.0434 188.896 -64.3592 188.764 -66.6859 188.63C-66.9119 187.766 -67.1328 186.907 -67.3587 186.042C-67.5796 185.184 -67.8056 184.319 -68.0316 183.455C-66.064 182.231 -64.0906 181.003 -62.112 179.781C-60.1445 178.558 -58.171 177.329 -56.2034 176.106C-58.4887 175.65 -60.7739 175.194 -63.054 174.744C-65.3393 174.288 -67.6245 173.832 -69.9047 173.381C-70.0073 172.494 -70.1049 171.612 -70.2075 170.725C-70.3102 169.837 -70.4078 168.956 -70.5163 168.074C-68.3884 167.135 -66.2664 166.201 -64.1445 165.267C-62.0225 164.333 -59.8946 163.394 -57.7726 162.46C-59.9732 161.696 -62.1789 160.926 -64.3736 160.157C-66.5743 159.392 -68.7741 158.617 -70.9747 157.853C-70.9557 156.965 -70.9308 156.071 -70.9068 155.189C-70.8878 154.301 -70.8688 153.412 -70.8389 152.525C-68.6022 151.893 -66.3655 151.262 -64.1287 150.631C-61.892 149.999 -59.6553 149.368 -57.4186 148.737C-59.4907 147.668 -61.5688 146.605 -63.6409 145.536C-65.713 144.468 -67.791 143.404 -69.8632 142.336C-69.7124 141.458 -69.5727 140.58 -69.4279 139.708C-69.2772 138.83 -69.1374 137.952 -68.9867 137.075C-66.6809 136.764 -64.3801 136.448 -62.0743 136.137C-59.7685 135.827 -57.4677 135.51 -55.1619 135.2C-57.0692 133.858 -58.9765 132.515 -60.8889 131.167C-62.7962 129.825 -64.7085 128.477 -66.6099 127.13C-66.3452 126.279 -66.0813 125.438 -65.8166 124.587C-65.5468 123.742 -65.288 122.895 -65.0182 122.05C-62.6931 122.062 -60.368 122.073 -58.037 122.08C-55.7119 122.092 -53.3867 122.104 -51.0557 122.11C-52.761 120.514 -54.4664 118.918 -56.1717 117.322C-57.8771 115.726 -59.5824 114.129 -61.2768 112.534L-60.1296 110.131C-59.7475 109.334 -59.3705 108.531 -58.9825 107.729C-56.677 108.065 -54.3765 108.395 -52.0709 108.731C-49.7654 109.068 -47.4649 109.398 -45.1594 109.734C-46.6264 107.915 -48.0885 106.101 -49.5555 104.282C-51.0226 102.462 -52.4846 100.648 -53.9576 98.834L-52.493 96.6126C-51.9994 95.8744 -51.5169 95.1353 -51.0233 94.3971C-48.7863 95.0481 -46.5493 95.6992 -44.3123 96.3503C-42.0753 97.0014 -39.8383 97.6525 -37.6013 98.3036C-38.8056 96.3015 -39.999 94.3004 -41.2033 92.2983C-42.4077 90.2962 -43.601 88.295 -44.8053 86.2929L-43.0435 84.3008C-42.4563 83.6368 -41.869 82.9727 -41.2817 82.3087C-39.1513 83.266 -37.0318 84.2223 -34.9013 85.1796C-32.776 86.131 -30.6514 87.0932 -28.521 88.0505C-29.4322 85.9016 -30.3434 83.7526 -31.2605 81.6087C-32.1717 79.4597 -33.0829 77.3107 -34 75.1668L-34.0169 75.1709Z" fill="url(#paint0_linear_1613_48261)"/>
<path d="M129.81 151.693L47.8611 166.514C47.519 166.58 47.2351 166.821 47.1159 167.149L19.392 245.666C19.2998 245.929 19.3216 246.218 19.4626 246.468C19.5984 246.711 19.8272 246.896 20.1042 246.958C26.128 248.367 32.3099 249.16 38.4854 249.322C44.6829 249.485 50.9076 249.01 56.9873 247.909C72.6259 245.085 87.2553 238.165 99.2967 227.916C104.099 223.828 108.495 219.214 112.352 214.197C125.914 196.579 132.528 174.705 130.973 152.592C130.95 152.314 130.816 152.048 130.591 151.88C130.373 151.707 130.085 151.633 129.811 151.682L129.81 151.693ZM110.788 212.994C107.01 217.902 102.711 222.413 98.0094 226.415C86.2282 236.443 71.9207 243.202 56.6124 245.971C50.6669 247.05 44.5756 247.514 38.5158 247.356C32.842 247.209 27.1609 246.513 21.6142 245.293L48.78 168.349L129.076 153.826C130.306 175.078 123.828 196.046 110.788 212.994Z" fill="#776503"/>
<path d="M29.3421 159.855L-24.8821 96.1485C-25.0645 95.9343 -25.3254 95.8075 -25.6067 95.8006C-25.8879 95.7937 -26.1616 95.9035 -26.3492 96.1145C-41.4328 112.267 -50.0365 133.433 -50.5606 155.716C-51.0865 178.164 -43.337 199.982 -28.735 217.138C-24.7135 221.863 -20.1868 226.198 -15.2832 230.018C-10.3956 233.832 -5.10577 237.159 0.444427 239.905C0.694365 240.031 0.986587 240.039 1.24845 239.939C1.3456 239.897 1.43261 239.844 1.5154 239.773C1.64552 239.663 1.74525 239.516 1.80191 239.355L29.5207 160.832C29.6349 160.499 29.5692 160.134 29.3413 159.866L29.3421 159.855ZM27.4761 160.695L0.316194 237.634C-4.74929 235.049 -9.5882 231.964 -14.0798 228.461C-18.8737 224.722 -23.3025 220.477 -27.2378 215.853C-41.5258 199.067 -49.1134 177.727 -48.597 155.758C-48.0893 134.331 -39.9555 113.955 -25.6643 98.2611L27.471 160.689L27.4761 160.695Z" fill="#776503"/>
<path d="M130.475 92.7185L119.518 96.0213L125.234 86.1176C125.451 85.7487 125.398 85.28 125.108 84.9628L121.497 81.0075C121.206 80.6903 120.744 80.5909 120.36 80.7744L109.983 85.5739L114.257 74.9582C114.42 74.5628 114.301 74.0996 113.969 73.8286L109.846 70.411C109.519 70.135 109.046 70.1066 108.686 70.3418L99.0843 76.5438L101.844 65.4313C101.948 65.0144 101.772 64.5796 101.403 64.3497L96.8469 61.5372C96.483 61.3133 96.0218 61.3467 95.6965 61.6235L95.6906 61.6286L87.0566 69.1108L88.2364 57.7117C88.2805 57.2842 88.0468 56.8778 87.6516 56.701L82.7574 54.5457C82.3622 54.3689 81.9128 54.4641 81.6221 54.7936L74.121 63.4152L73.7038 51.9491C73.6871 51.522 73.3959 51.1439 72.9846 51.0322L67.8426 49.5803C67.4313 49.4686 66.9879 49.6305 66.7614 49.9875L60.5335 59.5777L58.5292 48.272C58.4568 47.8514 58.1123 47.5186 57.6858 47.4609L52.3991 46.7376C51.9726 46.6799 51.5629 46.9055 51.3837 47.294L46.56 57.6593L43.0066 46.7384C42.8725 46.3292 42.4908 46.0485 42.0593 46.0567L36.7257 46.0813C36.3001 46.0845 35.919 46.3677 35.7938 46.7719L32.4606 57.7259L27.4255 47.3888C27.2399 47.0029 26.8152 46.7795 26.3903 46.8435L21.1156 47.6082C20.6967 47.6672 20.3562 47.9981 20.2901 48.4237L18.514 59.7454L12.0969 50.205C11.8538 49.8475 11.413 49.6891 11.0008 49.8039L5.88541 51.295C5.47827 51.4158 5.19517 51.7901 5.18399 52.2204L4.99907 63.686L-2.67603 55.1239C-2.96052 54.8017 -3.42247 54.7023 -3.81782 54.8849L-8.67255 57.0776C-9.06788 57.2602 -9.29274 57.667 -9.23718 58.0918L-7.82498 69.4807L-16.6112 62.0696C-16.938 61.7936 -17.4101 61.7542 -17.7708 61.9894L-22.2618 64.8371C-22.6217 65.0614 -22.7942 65.5058 -22.677 65.9191L-19.7005 77.0129L-29.4256 70.8833C-29.7946 70.6535 -30.2558 70.6869 -30.581 70.9637L-34.6323 74.412C-34.9576 74.6888 -35.065 75.1497 -34.8912 75.5456L-30.3943 86.1253L-40.8692 81.4034C-41.2644 81.2267 -41.7188 81.3159 -42.0036 81.6403L-45.5323 85.6187C-45.817 85.9431 -45.8586 86.4095 -45.6384 86.7762L-39.7264 96.6337L-50.7433 93.4199C-51.1597 93.3022 -51.5922 93.4651 -51.8347 93.8152L-54.7749 98.2572C-55.0124 98.6133 -54.9882 99.0852 -54.7155 99.4175L-47.4899 108.362L-58.8377 106.713C-59.2642 106.655 -59.679 106.875 -59.8632 107.257L-62.1466 112.064C-62.3258 112.452 -62.2398 112.913 -61.9258 113.21L-53.5333 121.069L-64.9933 121.013C-65.4241 121.01 -65.7992 121.288 -65.9303 121.698L-67.5279 126.782C-67.659 127.191 -67.5055 127.635 -67.1492 127.886L-57.7494 134.508L-69.0953 136.049C-69.5142 136.108 -69.8598 136.432 -69.9259 136.858L-70.8023 142.119C-70.8734 142.539 -70.6633 142.965 -70.2808 143.163L-60.068 148.416L-71.0767 151.527C-71.4889 151.641 -71.7771 152.01 -71.7882 152.44L-71.9189 157.774C-71.9301 158.205 -71.6617 158.592 -71.253 158.737L-60.4128 162.521L-70.8749 167.137C-71.2703 167.32 -71.5002 167.721 -71.4556 168.144L-70.8439 173.452C-70.7943 173.882 -70.4786 174.229 -70.0538 174.309L-58.8016 176.553L-68.511 182.58C-68.8886 182.819 -69.0484 183.242 -68.9371 183.661L-67.5965 188.831C-67.4852 189.249 -67.1272 189.55 -66.6923 189.569L-55.2511 190.226L-64.0227 197.559C-64.3691 197.751 -64.4605 198.291 -64.2926 198.692L-62.2433 203.627C-62.0805 204.022 -61.6744 204.272 -61.2461 204.236L-49.8304 203.293L-57.4869 211.78C-57.7708 212.093 -57.8183 212.565 -57.6039 212.937L-54.894 217.546C-54.6797 217.918 -54.2465 218.103 -53.825 218.011L-42.6628 215.489L-49.0587 224.965C-49.2962 225.321 -49.2829 225.792 -49.0162 226.13L-45.6887 230.327C-45.4219 230.664 -44.9676 230.79 -44.5689 230.636L-33.879 226.575L-38.8902 236.864C-39.0804 237.252 -38.9944 237.712 -38.6804 238.009L-34.8054 241.699C-34.4913 241.996 -34.0319 242.057 -33.6568 241.85L-23.6445 236.335L-27.172 247.229C-27.3031 247.638 -27.1555 248.087 -26.8102 248.337L-22.4653 251.452C-22.1149 251.708 -21.6445 251.698 -21.299 251.445L-12.1551 244.585L-14.133 255.874C-14.2041 256.293 -13.9999 256.725 -13.6174 256.923L-8.88718 259.413C-8.51058 259.615 -8.03506 259.539 -7.73595 259.243L0.352731 251.168L-0.0306621 262.628C-0.0418367 263.059 0.220649 263.451 0.623442 263.601L5.65548 265.403C6.0642 265.547 6.50596 265.407 6.76962 265.07L13.6527 255.938L14.8639 267.354C14.9135 267.784 15.2293 268.131 15.6532 268.222L20.884 269.311C21.3029 269.396 21.727 269.199 21.9383 268.824L27.4856 258.818L30.2704 269.962C30.3707 270.379 30.7396 270.681 31.1628 270.711L36.4893 271.061C36.9175 271.097 37.3138 270.832 37.466 270.435L41.5635 259.744L45.867 270.396C46.0298 270.791 46.4241 271.051 46.8582 271.01L52.1759 270.619C52.6091 270.589 52.9589 270.281 53.063 269.864L55.6278 258.702L61.3716 268.661C61.586 269.033 62.1644 269.197 62.5859 269.106L67.6437 268.002C68.0593 267.915 68.3686 267.56 68.4127 267.132L69.3957 255.706L76.4625 264.775C76.7293 265.112 77.1827 265.25 77.5814 265.095L82.5754 263.246C82.9792 263.097 83.2361 262.704 83.2084 262.276L82.5969 250.821L90.8508 258.829C91.1589 259.131 91.6293 259.193 92.0095 258.992L96.6913 256.464C97.0773 256.259 97.276 255.833 97.1816 255.411L94.9813 244.139L104.258 250.927C104.608 251.183 105.078 251.184 105.423 250.93L109.706 247.778C110.047 247.508 110.191 247.078 110.046 246.668L106.3 235.808L116.421 241.241C116.782 241.437 117.217 241.385 117.518 241.128C117.536 241.113 117.554 241.098 117.572 241.083L121.368 237.359C121.673 237.058 121.748 236.595 121.556 236.214L116.337 225.972L127.113 229.945C127.516 230.095 127.961 229.972 128.231 229.629L131.469 225.406C131.728 225.062 131.737 224.593 131.494 224.236L124.907 214.809L136.122 217.248C136.546 217.339 136.975 217.148 137.181 216.778L139.798 212.149C140.01 211.774 139.952 211.311 139.661 210.993L131.837 202.568L143.274 203.424C143.703 203.459 144.098 203.205 144.256 202.804L146.203 197.842C146.361 197.441 146.242 196.988 145.904 196.712L136.99 189.45L148.423 188.708C148.857 188.678 149.212 188.375 149.305 187.958L150.54 182.771C150.644 182.354 150.457 181.918 150.093 181.694L140.265 175.744L151.468 173.412C151.89 173.32 152.204 172.971 152.242 172.548L152.747 167.234C152.785 166.812 152.546 166.399 152.15 166.234L141.594 161.704L152.363 157.833C152.761 157.689 153.029 157.297 153.007 156.864L152.768 151.526C152.751 151.099 152.454 150.726 152.037 150.619L140.961 147.6L151.076 142.264C151.451 142.058 151.659 141.644 151.582 141.218L150.601 135.967C150.518 135.546 150.178 135.219 149.757 135.167L138.383 133.714L147.646 127.02C147.986 126.772 148.137 126.326 147.997 125.911L146.295 120.843C146.155 120.439 145.779 120.164 145.347 120.173L133.894 120.316L142.126 112.386C142.436 112.091 142.516 111.623 142.325 111.242L139.939 106.449C139.742 106.062 139.322 105.845 138.903 105.915L127.591 107.651L134.636 98.6489C134.899 98.3116 134.914 97.8374 134.665 97.4849L131.641 93.0702C131.398 92.7127 130.952 92.5593 130.544 92.6801L130.475 92.7185ZM132.573 98.0344L124.436 108.438C124.185 108.754 124.162 109.195 124.367 109.544C124.573 109.892 124.967 110.08 125.369 110.025L138.436 108.015L140.177 111.51L130.673 120.667C130.381 120.946 130.298 121.376 130.452 121.748C130.605 122.12 130.978 122.367 131.377 122.356L144.611 122.184L145.851 125.881L135.152 133.622C134.841 133.855 134.676 134.273 134.784 134.663C134.886 135.059 135.212 135.346 135.623 135.397L148.759 137.074L149.473 140.909L137.798 147.07C137.434 147.267 137.277 147.657 137.323 148.059C137.37 148.461 137.691 148.803 138.08 148.912L150.796 152.384L150.976 156.274L138.547 160.748C138.161 160.881 137.906 161.241 137.903 161.645C137.893 162.053 138.13 162.415 138.504 162.579L150.697 167.809L150.325 171.686L137.388 174.376C136.989 174.459 136.688 174.777 136.619 175.174C136.549 175.572 136.739 175.975 137.082 176.186L148.434 183.065L147.534 186.848L134.335 187.708C133.929 187.735 133.588 188.005 133.464 188.387C133.341 188.77 133.468 189.195 133.786 189.448L144.083 197.831L142.665 201.449L129.464 200.463C129.063 200.435 128.687 200.653 128.51 201.019C128.338 201.381 128.404 201.817 128.679 202.117L137.717 211.848L135.809 215.227L122.855 212.41C122.464 212.322 122.054 212.486 121.834 212.827C121.609 213.162 121.619 213.605 121.848 213.934L129.454 224.823L127.088 227.903L114.647 223.316C114.265 223.179 113.85 223.266 113.571 223.585C113.299 223.889 113.249 224.321 113.436 224.685L119.461 236.52L116.692 239.235L104.995 232.957C104.64 232.767 104.2 232.814 103.898 233.07C103.597 233.327 103.481 233.754 103.611 234.135L107.934 246.679L104.806 248.983L94.0857 241.145C93.7615 240.908 93.3206 240.893 92.9785 241.102C92.6304 241.317 92.4664 241.723 92.5405 242.122L95.0812 255.136L91.6624 256.979L82.1287 247.731C81.8357 247.447 81.405 247.372 81.0384 247.54C80.6667 247.703 80.4385 248.082 80.4628 248.482L81.1741 261.719L77.5283 263.068L69.3718 252.586C69.1202 252.266 68.6997 252.132 68.3153 252.243C67.931 252.355 67.6505 252.696 67.614 253.097L66.4781 266.285L62.6797 267.107L56.0498 255.603C55.8506 255.249 55.4512 255.055 55.0542 255.116C54.6572 255.177 54.3362 255.471 54.2448 255.867L51.2865 268.759L47.4081 269.043L42.4313 256.738C42.2837 256.361 41.9105 256.114 41.5127 256.114C41.1039 256.113 40.7474 256.365 40.6079 256.74L35.8796 269.087L31.9989 268.829L28.7782 255.963C28.6813 255.573 28.3562 255.275 27.9517 255.219C27.5472 255.163 27.1561 255.363 26.9633 255.712L20.5614 267.266L16.7443 266.472L15.3439 253.288C15.2976 252.886 15.0199 252.548 14.6247 252.443C14.2354 252.333 13.8206 252.481 13.5756 252.792L5.62768 263.333L1.95604 262.015L2.40525 248.775C2.41978 248.372 2.18346 247.999 1.81531 247.83C1.44714 247.661 1.00877 247.757 0.728252 248.027L-8.62278 257.351L-12.0738 255.537L-9.78938 242.5C-9.71995 242.102 -9.89882 241.7 -10.2416 241.489C-10.5844 241.278 -11.0278 241.296 -11.3447 241.535L-21.9079 249.459L-25.0799 247.182L-21.0019 234.599C-20.8784 234.217 -21.0058 233.791 -21.3173 233.533C-21.6288 233.275 -22.0671 233.227 -22.4194 233.425L-33.9836 239.789L-36.8143 237.098L-31.028 225.216C-30.8504 224.849 -30.911 224.419 -31.1863 224.119C-31.4615 223.82 -31.8845 223.718 -32.2655 223.858L-44.6119 228.548L-47.0387 225.493L-39.6506 214.546C-39.4258 214.211 -39.4307 213.774 -39.6586 213.434C-39.8924 213.1 -40.2943 212.939 -40.6879 213.028L-53.5825 215.948L-55.5599 212.582L-46.7188 202.779C-46.4526 202.481 -46.3916 202.049 -46.573 201.68C-46.7494 201.317 -47.1361 201.102 -47.5415 201.129L-60.7258 202.223L-62.2209 198.621L-52.0907 190.153C-51.7831 189.891 -51.6681 189.475 -51.7988 189.094C-51.9237 188.707 -52.2732 188.441 -52.6803 188.418L-65.8984 187.662L-66.8773 183.888L-55.6642 176.92C-55.3043 176.695 -55.147 176.305 -55.2212 175.906C-55.2953 175.508 -55.6026 175.195 -55.9995 175.112L-68.993 172.523L-69.4339 168.65L-57.3474 163.319C-56.9807 163.151 -56.7534 162.783 -56.7667 162.384C-56.7851 161.979 -57.0451 161.625 -57.4327 161.493L-69.9567 157.12L-69.8604 153.231L-57.1403 149.639C-56.751 149.533 -56.4704 149.192 -56.4339 148.791C-56.3974 148.391 -56.605 148.003 -56.9664 147.818L-68.7684 141.753L-68.1291 137.915L-55.0238 136.129C-54.6218 136.074 -54.3007 135.78 -54.2043 135.39C-54.1078 135 -54.2689 134.583 -54.5991 134.351L-65.4553 126.701L-64.2957 122.995L-51.057 123.055C-50.6542 123.061 -50.2976 122.809 -50.1412 122.43C-49.9907 122.055 -50.0902 121.627 -50.389 121.348L-60.085 112.269L-58.4163 108.765L-45.3093 110.672C-44.9048 110.728 -44.5086 110.535 -44.3159 110.186C-44.1172 109.832 -44.15 109.398 -44.4074 109.084L-52.7524 98.7522L-50.6125 95.5147L-37.8881 99.2249C-37.4988 99.3348 -37.0848 99.198 -36.8339 98.8817C-36.588 98.5595 -36.565 98.1193 -36.776 97.7755L-43.6087 86.3928L-41.0357 83.4845L-28.9369 88.9279C-28.5688 89.0968 -28.1541 89.0209 -27.8448 88.7371C-27.5575 88.4516 -27.4746 88.0218 -27.6281 87.6497L-32.8161 75.4314L-29.8589 72.9145L-18.6266 79.988C-18.2788 80.205 -17.8463 80.1858 -17.5185 79.9479C-17.2186 79.7131 -17.0478 79.2907 -17.1558 78.9003L-20.596 66.0873L-17.3139 64.012L-7.16925 72.5757C-6.85772 72.8338 -6.41942 72.8815 -6.06799 72.6953C-5.71065 72.504 -5.51454 72.1113 -5.56081 71.7095L-7.19014 58.5557L-3.65823 56.9656L5.21306 66.8491C5.48234 67.1535 5.9105 67.2611 6.2864 67.1156C6.66146 66.9811 6.92174 66.6159 6.92531 66.2126L7.1372 52.9693L10.8682 51.8768L18.2871 62.8939C18.515 63.2335 18.928 63.3951 19.3157 63.3114C19.7034 63.2277 20.0101 62.905 20.0736 62.5124L22.1232 49.4391L25.973 48.8816L31.7903 60.8207C31.9667 61.1837 32.3475 61.4034 32.7529 61.3765C33.1583 61.3495 33.4945 61.0736 33.6129 60.6854L37.4639 48.0389L41.3549 48.0211L45.4624 60.6355C45.5872 61.0218 45.9368 61.2887 46.3379 61.3167C46.745 61.3396 47.1209 61.1222 47.2875 60.7547L52.8602 48.7771L56.7197 49.3094L59.0416 62.3663C59.1157 62.7649 59.4171 63.083 59.814 63.1659C60.211 63.2488 60.6113 63.0722 60.8302 62.7422L68.0182 51.6679L71.7711 52.7219L72.25 65.962C72.2684 66.3671 72.5225 66.7255 72.9101 66.8574C73.2918 66.9943 73.7091 66.8854 73.9811 66.5819L82.6517 56.6263L86.221 58.1957L84.8546 71.3647C84.8122 71.7702 85.0198 72.1579 85.3812 72.3429C85.7367 72.5328 86.1717 72.4807 86.4733 72.224L96.4516 63.5771L99.7682 65.6283L96.5819 78.4685C96.4854 78.8585 96.6356 79.2745 96.9707 79.5126C97.295 79.7497 97.7417 79.7593 98.0788 79.5443L109.169 72.3831L112.175 74.8729L107.232 87.1352C107.082 87.5096 107.175 87.9431 107.469 88.2163C107.762 88.5006 108.199 88.5702 108.565 88.4018L120.552 82.8578L123.18 85.7416L116.577 97.1799C116.374 97.5277 116.412 97.9675 116.663 98.287C116.915 98.6065 117.335 98.7411 117.72 98.6185L130.375 94.8051L132.584 98.0244L132.573 98.0344Z" fill="#776503"/>
<path d="M-10.5164 82.6384C-10.7605 82.7949 -10.9067 83.0425 -10.9449 83.3212C-10.983 83.6 -10.8995 83.8778 -10.7172 84.092L43.5071 147.799C43.735 148.067 44.0897 148.196 44.4317 148.13L126.375 133.314C126.549 133.279 126.703 133.209 126.834 133.098C126.91 133.033 126.983 132.95 127.04 132.861C127.185 132.625 127.219 132.329 127.135 132.062C125.316 126.15 122.876 120.397 119.888 114.957C116.901 109.506 113.344 104.345 109.322 99.6198C94.7154 82.4583 74.4209 71.3281 52.1769 68.2604C30.1019 65.2234 7.83409 70.3236 -10.5273 82.6375L-10.5164 82.6384ZM118.18 115.898C120.921 120.891 123.187 126.166 124.929 131.579L44.6387 146.097L-8.49659 83.6694C9.28515 72.0644 30.6989 67.2908 51.932 70.2134C73.6954 73.2078 93.5551 84.1027 107.848 100.895C111.783 105.519 115.266 110.569 118.191 115.899L118.18 115.898Z" fill="#776503"/>
<path fill-rule="evenodd" clip-rule="evenodd" d="M67.8755 190.772C85.5354 175.741 87.5927 149.136 72.469 131.368C57.3454 113.599 30.754 111.379 13.0941 126.41C-4.56584 141.442 -6.62307 168.046 8.50057 185.815C23.6242 203.583 50.2156 205.803 67.8755 190.772Z" fill="url(#paint1_linear_1613_48261)"/>
<path d="M68.5186 191.528C50.4683 206.891 23.2132 204.61 7.76032 186.455C-7.69254 168.3 -5.58349 141.025 12.4609 125.667C30.5052 110.308 57.7663 112.584 73.2192 130.739C88.672 148.895 86.563 176.169 68.5186 191.528ZM13.7423 127.172C-3.48 141.831 -5.49222 167.853 9.25662 185.181C24.0055 202.509 50.0149 204.681 67.2372 190.022C84.4595 175.363 86.4717 149.341 71.7229 132.013C56.974 114.685 30.9646 112.513 13.7423 127.172Z" fill="#776503"/>
<path fill-rule="evenodd" clip-rule="evenodd" d="M47.4385 166.761C51.9097 162.955 52.4329 156.189 48.6039 151.69C44.7749 147.192 38.0058 146.632 33.5406 150.433C29.0753 154.233 28.5462 161.005 32.3752 165.503C36.2043 170.002 42.9674 170.567 47.4385 166.761Z" fill="#DDBC06"/>
<path d="M48.0767 167.511C43.1915 171.669 35.8136 171.053 31.6249 166.132C27.4363 161.211 28.0071 153.829 32.8922 149.671C37.7774 145.513 45.1613 146.124 49.3499 151.045C53.5385 155.966 52.9677 163.348 48.0767 167.511ZM34.1736 151.177C30.1106 154.635 29.6357 160.775 33.1153 164.863C36.5948 168.951 42.7322 169.464 46.7952 166.005C50.8583 162.547 51.3332 156.407 47.8536 152.319C44.3741 148.231 38.2367 147.718 34.1736 151.177Z" fill="#776503"/>
<path fill-rule="evenodd" clip-rule="evenodd" d="M36.9542 154.444C34.6832 156.377 34.4224 159.821 36.3673 162.106C38.3122 164.391 41.7537 164.684 44.0248 162.751C46.2958 160.817 46.5676 157.374 44.6176 155.083C42.6677 152.792 39.2312 152.505 36.9542 154.444Z" fill="#776503"/>
<path d="M44.6631 163.5C41.978 165.786 37.9158 165.446 35.6163 162.745C33.3169 160.043 33.6252 155.984 36.3162 153.694C39.0072 151.403 43.0635 151.747 45.363 154.449C47.6624 157.15 47.3481 161.215 44.6631 163.5ZM37.5976 155.199C35.7346 156.785 35.5172 159.597 37.1126 161.471C38.708 163.346 41.5187 163.58 43.3817 161.995C45.2447 160.409 45.4621 157.597 43.8667 155.722C42.2713 153.848 39.4606 153.613 37.5976 155.199Z" fill="#776503"/>
</g>
<defs>
<linearGradient id="paint0_linear_1613_48261" x1="-31.9942" y1="73.4493" x2="112.941" y2="243.731" gradientUnits="userSpaceOnUse">
<stop stop-color="#DDBC06"/>
<stop offset="0.514423" stop-color="#FCEEA3"/>
<stop offset="1" stop-color="#FBD921"/>
</linearGradient>
<linearGradient id="paint1_linear_1613_48261" x1="13.0941" y1="126.41" x2="67.8755" y2="190.772" gradientUnits="userSpaceOnUse">
<stop stop-color="#FBD921"/>
<stop offset="0.485577" stop-color="#F1F2F2"/>
<stop offset="0.990385" stop-color="#FBD921"/>
</linearGradient>
</defs>
</svg>
