<svg width="324" height="311" viewBox="0 0 324 311" fill="none" xmlns="http://www.w3.org/2000/svg">
<g opacity="0.4">
<path fill-rule="evenodd" clip-rule="evenodd" d="M121.033 91.1677L184.811 200.86C238.285 160.692 257.599 89.1845 231.508 27.8254L120.994 91.1677H121.033ZM89.184 109.404L153.001 219.096C91.2212 244.993 19.1385 225.823 -21.2903 172.746L89.2232 109.404H89.184ZM102.66 59.5549L38.8438 -50.1372C100.623 -76.034 172.706 -56.864 213.174 -3.78719L102.66 59.5549ZM70.8108 77.7916L6.99432 -31.9006C-46.4799 8.26672 -65.7933 79.7746 -39.7025 141.134L70.8108 77.7916ZM226.102 266.807C220.069 270.268 214.036 273.728 208.003 277.189C201.97 280.65 195.937 284.111 189.904 287.571C182.343 279.328 172.862 268.985 160.561 255.608L157.858 252.653C157.858 252.653 157.545 252.809 157.388 252.848L157.231 256.853C156.487 274.934 155.9 288.893 155.429 300.014C148.574 301.219 141.718 302.425 134.862 303.63C128.007 304.836 121.112 306.041 114.256 307.247C109.986 296.942 104.619 283.994 97.6852 267.235L96.1573 263.541C96.1573 263.541 95.8047 263.541 95.648 263.541L94.1201 267.274C87.1861 283.994 81.8191 296.942 77.549 307.247C70.6934 306.041 63.8377 304.836 56.982 303.669C50.1263 302.464 43.2707 301.258 36.415 300.053C35.9841 288.932 35.3963 274.934 34.6128 256.853L34.4562 252.848L33.9861 252.692L31.2438 255.686C18.982 269.062 9.5016 279.405 1.9016 287.61C-4.1314 284.149 -10.1252 280.689 -16.1974 277.228C-22.2304 273.767 -28.2633 270.307 -34.2963 266.846C-30.8881 256.231 -26.618 242.894 -21.0943 225.629L-19.8798 221.857C-19.8798 221.857 -20.1542 221.624 -20.2717 221.507L-23.8366 223.374C-39.9768 231.773 -52.4738 238.266 -62.3852 243.438C-66.8511 238.15 -71.3171 232.823 -75.8222 227.534C-80.2882 222.246 -84.7934 216.919 -89.2593 211.631C-82.4037 202.804 -73.7852 191.722 -62.6594 177.413L-60.1914 174.224C-60.1914 174.224 -60.2696 174.069 -60.3088 174.03C-60.3479 173.952 -60.3873 173.913 -60.4656 173.835L-64.5005 174.38C-82.5603 176.79 -96.5068 178.657 -107.633 180.135C-110.022 173.641 -112.373 167.147 -114.762 160.654C-117.152 154.16 -119.503 147.666 -121.892 141.173C-112.412 135.184 -100.503 127.719 -85.1068 118.037L-81.6985 115.937C-81.6985 115.937 -81.7768 115.587 -81.8159 115.431L-85.7335 114.576C-103.519 110.726 -117.27 107.694 -128.239 105.322V63.8321C-117.27 61.4601 -103.48 58.466 -85.6553 54.5776L-81.6985 53.7223L-81.6201 53.2557L-85.0675 51.0782C-100.463 41.3961 -112.373 33.8914 -121.853 27.9421C-119.463 21.4485 -117.074 14.9548 -114.723 8.46117C-112.334 1.96751 -109.944 -4.52617 -107.593 -11.0198C-96.4676 -9.54221 -82.4819 -7.67561 -64.4221 -5.2648L-60.4264 -4.7206C-60.4264 -4.7206 -60.2697 -5.03162 -60.1914 -5.14827L-62.6594 -8.33679C-73.7852 -22.6461 -82.4037 -33.7281 -89.2593 -42.5547C-84.7934 -47.843 -80.2882 -53.1313 -75.8222 -58.4585C-71.3563 -63.7467 -66.8511 -69.0737 -62.3852 -74.3619C-52.4738 -69.1903 -39.9768 -62.6968 -23.7974 -54.2978L-20.2717 -52.4701C-20.2717 -52.4701 -19.9974 -52.7035 -19.8798 -52.7813L-21.0943 -56.6308C-26.618 -73.8564 -30.8881 -87.1938 -34.2963 -97.8091C-28.2633 -101.27 -22.2304 -104.73 -16.1974 -108.191C-10.1644 -111.652 -4.1314 -115.112 1.9016 -118.573C9.46242 -110.33 18.9428 -99.9866 31.2438 -86.6105L33.9469 -83.6553C33.9469 -83.6553 34.2603 -83.7718 34.417 -83.8107L34.5736 -87.8159C35.318 -105.897 35.9057 -119.856 36.3758 -130.977C43.2314 -132.183 50.0871 -133.388 56.9428 -134.593C63.7985 -135.799 70.6541 -137.004 77.5098 -138.21C81.7799 -127.905 87.1469 -114.957 94.0809 -98.1979L95.6088 -94.5038C95.6088 -94.5038 95.9614 -94.5038 96.1181 -94.5038L97.646 -98.2368C104.58 -114.957 109.947 -127.905 114.217 -138.21C121.073 -137.004 127.928 -135.799 134.784 -134.632C141.64 -133.427 148.495 -132.221 155.39 -131.016C155.86 -119.895 156.448 -105.897 157.192 -87.8159L157.349 -83.8107L157.819 -83.6553L160.561 -86.6494C172.823 -100.026 182.343 -110.369 189.864 -118.573C195.897 -115.112 201.93 -111.652 207.963 -108.191C213.996 -104.73 220.029 -101.27 226.062 -97.8091C222.654 -87.1938 218.384 -73.8175 212.86 -56.5919L211.646 -52.8202C211.646 -52.8202 211.92 -52.5868 212.038 -52.4701L215.603 -54.3365C231.743 -62.7355 244.24 -69.2292 254.151 -74.4008C258.617 -69.1126 263.122 -63.8243 267.588 -58.4971C272.054 -53.2089 276.559 -47.8819 281.025 -42.5937C274.17 -33.767 265.551 -22.6851 254.425 -8.37572L251.957 -5.18719C251.957 -5.18719 252.036 -5.03171 252.075 -4.99281C252.075 -4.91505 252.153 -4.8371 252.192 -4.7982L256.227 -5.34264C274.287 -7.75346 288.234 -9.61981 299.359 -11.0974C301.749 -4.60378 304.139 1.88968 306.489 8.38332C308.879 14.877 311.268 21.3707 313.658 27.8643C304.178 33.8136 292.269 41.3182 276.834 51.0004L273.465 53.1389C273.465 53.1389 273.504 53.4889 273.543 53.6445L277.46 54.5C295.246 58.3496 309.036 61.3825 320.005 63.7545C320.005 70.637 320.005 77.5582 320.005 84.4795C320.005 91.4009 320.005 98.3224 320.005 105.244C309.036 107.616 295.246 110.61 277.46 114.498L273.504 115.354L273.425 115.82L276.873 117.998C292.269 127.68 304.178 135.146 313.658 141.134C311.268 147.627 308.879 154.121 306.529 160.615C304.139 167.108 301.749 173.602 299.359 180.096C288.234 178.618 274.248 176.752 256.188 174.341L252.192 173.835C252.192 173.835 252.036 174.146 251.918 174.263L254.386 177.452C265.512 191.761 274.13 202.843 280.986 211.669C276.52 216.958 272.054 222.246 267.549 227.573C263.083 232.861 258.578 238.188 254.112 243.477C244.161 238.305 231.704 231.812 215.524 223.413L211.999 221.546C211.999 221.546 211.724 221.74 211.607 221.896L212.821 225.707C218.345 242.932 222.615 256.27 226.023 266.885L226.102 266.807Z" fill="url(#paint0_linear_1613_38004)"/>
<path d="M74.4936 78.8023C74.7678 77.8302 74.6112 76.7804 74.1019 75.9249L10.2852 -33.7672C9.73679 -34.7004 8.79672 -35.3616 7.73899 -35.5949C6.68126 -35.8282 5.54506 -35.5946 4.6832 -34.8947C-32.7292 -6.82042 -55.0591 37.8962 -55.0591 84.6349C-55.0591 104.66 -51.1023 124.18 -43.2281 142.611C-42.7971 143.622 -41.9744 144.4 -40.9166 144.711C-39.8981 145.061 -38.7229 144.944 -37.7827 144.4L72.7306 81.0574C73.5925 80.5519 74.2585 79.7355 74.4936 78.7634V78.8023ZM-37.8219 135.69C-44.2074 119.358 -47.4199 102.211 -47.4199 84.6739C-47.4199 41.7069 -27.5581 0.606403 5.89763 -26.1847L65.6009 76.4302L-37.7827 135.69H-37.8219Z" fill="black"/>
<path d="M99.3306 61.4602C99.8399 62.3157 100.662 62.9767 101.642 63.21C102.621 63.4822 103.679 63.3266 104.541 62.8211L215.054 -0.521049C215.994 -1.06543 216.661 -1.99874 216.896 -3.04861C217.091 -4.09848 216.896 -5.226 216.19 -6.08145C174.508 -60.7525 100.976 -80.3111 37.3553 -53.6366C36.3367 -53.2089 35.5533 -52.3925 35.2007 -51.3426C35.0832 -50.9538 35.0049 -50.526 35.0049 -50.1372C35.0049 -49.4762 35.1614 -48.8152 35.5139 -48.2319L99.3306 61.4602ZM207.415 -4.87605L104.032 54.3833L44.3284 -48.2319C102.464 -70.5903 168.357 -53.0535 207.415 -4.87605Z" fill="black"/>
<path d="M232.761 24.248C231.704 23.898 230.568 24.0148 229.627 24.5591L119.114 87.9012C117.899 88.6012 117.194 89.8845 117.194 91.2065C117.194 91.8676 117.351 92.4897 117.704 93.1118L181.481 202.804C182.029 203.737 182.97 204.398 184.027 204.631C185.085 204.865 186.221 204.631 187.083 203.932C224.495 175.818 246.825 131.141 246.825 84.4018C246.825 64.3765 242.829 44.8566 234.994 26.4255C234.563 25.4145 233.741 24.6369 232.683 24.2869L232.761 24.248ZM185.947 195.183L126.244 92.5674L229.627 33.3081C236.013 49.6394 239.225 66.7873 239.225 84.3629C239.225 127.33 219.363 168.43 185.908 195.221L185.947 195.183Z" fill="black"/>
<path d="M323.922 63.7547C323.922 61.966 322.668 60.4495 320.905 60.0606L282.827 51.7783L315.734 31.0919C317.262 30.1198 317.889 28.2535 317.301 26.5815L303.002 -12.4194C302.375 -14.0914 300.691 -15.1024 298.928 -14.8691L260.301 -9.73636L284.12 -40.3381C285.216 -41.738 285.177 -43.7212 284.041 -45.0821L257.167 -76.8503C256.031 -78.2113 254.072 -78.6001 252.466 -77.7835L217.953 -59.8191L229.784 -96.6811C230.293 -98.3532 229.588 -100.22 228.06 -101.114L191.862 -121.839C190.295 -122.734 188.336 -122.423 187.122 -121.1L160.874 -92.5205L159.268 -131.171C159.19 -132.96 157.897 -134.438 156.134 -134.749L114.961 -141.942C113.198 -142.253 111.435 -141.281 110.769 -139.648L95.9609 -103.875L81.1525 -139.648C80.4866 -141.281 78.7236 -142.253 76.9608 -141.942L35.7875 -134.749C34.0246 -134.438 32.6927 -132.96 32.6535 -131.171L31.0475 -92.5205L4.79997 -121.1C3.58554 -122.423 1.62669 -122.734 0.0596771 -121.839L-36.1382 -101.075C-37.7052 -100.181 -38.4104 -98.3531 -37.862 -96.6422L-26.0309 -59.8191L-60.5051 -77.7446C-62.1113 -78.5612 -64.0701 -78.1724 -65.2062 -76.8114L-92.0804 -45.0043C-93.2556 -43.6433 -93.2949 -41.6601 -92.1588 -40.2603L-68.3402 -9.65852L-106.967 -14.7913C-108.73 -15.0246 -110.454 -14.0135 -111.041 -12.3415L-125.34 26.6591C-125.967 28.3311 -125.34 30.1977 -123.813 31.1698L-90.9052 51.8561L-128.984 60.0995C-130.747 60.4884 -132 62.0047 -132 63.7934V105.283C-132 107.072 -130.747 108.588 -128.984 108.977L-90.9444 117.259L-123.852 137.945C-125.38 138.917 -126.006 140.745 -125.379 142.456L-111.081 181.418C-110.454 183.09 -108.769 184.14 -107.006 183.867L-68.3794 178.735L-92.198 209.337C-93.2949 210.737 -93.2557 212.72 -92.1196 214.08L-65.2454 245.849C-64.1093 247.21 -62.1505 247.598 -60.5443 246.782L-26.0309 228.817L-37.862 265.68C-38.3712 267.391 -37.6661 269.218 -36.1382 270.112L0.0596771 290.877C1.62669 291.771 3.93799 291.071 5.15242 289.749L31.0475 261.519L32.6535 300.17C32.7319 301.959 34.0247 303.436 35.8267 303.747L76.9608 310.941C78.7236 311.252 80.4866 310.319 81.1525 308.647L95.9609 272.873L110.769 308.647C111.435 310.28 113.198 311.252 114.961 310.941L156.134 303.747C157.897 303.436 159.229 301.959 159.268 300.17L160.874 261.558L187.122 290.138C188.336 291.46 190.295 291.771 191.862 290.877L228.06 270.112C229.627 269.218 230.293 267.391 229.784 265.68L217.992 228.817C232.212 236.205 243.416 242.038 252.505 246.743C254.111 247.56 256.031 247.21 257.206 245.849L284.08 214.042C285.256 212.681 285.295 210.698 284.198 209.298L260.379 178.657L299.006 183.829C300.769 184.062 302.493 183.051 303.081 181.379L317.379 142.378C318.006 140.706 317.379 138.84 315.851 137.868L282.905 117.181L320.984 108.899C322.747 108.51 323.961 106.994 324 105.205V98.2838V91.3623V63.7157L323.922 63.7547ZM316.283 98.3224V102.172L272.759 111.621C271.231 111.932 269.977 113.643 269.742 115.159C269.507 116.637 270.173 118.192 271.466 119.009L309.074 142.65L296.891 175.896L252.779 170.025C251.291 169.83 249.528 170.997 248.744 172.28C247.922 173.602 248.039 175.313 249.018 176.557L276.206 211.514L253.289 238.616C243.808 233.678 232.134 227.612 217.443 219.991L213.918 218.124C212.468 217.347 210.313 217.93 209.099 219.058C208.041 220.069 207.65 221.585 208.081 222.985L221.557 265.057L190.687 282.75L160.717 250.087C159.699 248.96 157.584 248.726 156.134 249.232C154.645 249.737 153.627 251.098 153.548 252.653L151.746 296.787L116.645 302.931L99.7216 262.064C99.1339 260.703 97.3319 259.769 95.8433 259.691C94.2371 259.614 92.7484 260.547 92.1216 262.064L75.1978 302.931L40.0969 296.787L38.2948 252.614C38.2164 251.059 36.7669 249.543 35.3174 249.037C33.8679 248.532 32.2618 248.921 31.2041 250.048L1.19592 282.75L-29.6742 265.057L-16.1979 222.985C-15.767 221.546 -16.5897 219.641 -17.6866 218.669C-18.8618 217.619 -20.5857 217.424 -21.996 218.163L-61.4063 238.655L-84.3238 211.553L-57.1361 176.557C-56.1959 175.313 -56.196 173.408 -56.9795 172.086L-60.3093 173.991L-57.4496 171.463C-58.2723 170.414 -59.6043 169.908 -60.9362 170.064L-105.047 175.935L-117.231 142.689L-79.6619 119.048C-78.3691 118.231 -77.7424 116.17 -78.0558 114.693C-78.33 113.176 -79.4661 111.971 -80.994 111.621L-124.439 102.172V66.7875L-80.9155 57.3387C-79.4269 57.0276 -78.1732 55.3555 -77.899 53.878C-77.5856 52.3226 -78.2907 50.8061 -79.6227 49.9895L-117.27 26.3482L-105.087 -6.8979L-60.9752 -1.02637C-59.369 -0.83194 -57.5278 -2.07629 -56.8226 -3.515C-56.1567 -4.79819 -56.3135 -6.35342 -57.2145 -7.51994L-84.4022 -42.5156L-61.4845 -69.618L-22.0742 -49.126C-20.8206 -48.4649 -18.8618 -48.8928 -17.6866 -49.7093C-16.3155 -50.6814 -15.7278 -52.3922 -16.2371 -53.9476L-29.7526 -96.0591L1.11749 -113.751L31.0867 -81.0886C32.1444 -79.9609 34.2207 -79.7278 35.7093 -80.2332C37.1588 -80.7776 38.138 -82.0997 38.2164 -83.6551L40.0577 -127.788L75.1588 -133.932L92.0824 -93.0649C92.67 -91.6262 94.5897 -90.6931 96.1175 -90.6931C97.6454 -90.6931 99.0558 -91.6262 99.6434 -93.0649L116.567 -133.932L151.668 -127.788L153.47 -83.6161C153.549 -82.0608 154.998 -80.5833 156.448 -80.0389C157.897 -79.5334 159.503 -79.9223 160.561 -81.0499L190.569 -113.712L221.439 -96.0202L207.963 -53.9476C207.493 -52.47 208.355 -50.5257 209.569 -49.5536C210.744 -48.5815 212.429 -48.3871 213.8 -49.0871L253.21 -69.579L276.128 -42.4767L248.94 -7.48102C248.118 -6.43115 248.157 -4.56468 248.666 -3.32039C249.332 -1.72615 250.977 -0.754135 252.74 -0.987442L296.852 -6.85898L309.035 26.3869L271.466 49.9895C270.173 50.8061 269.585 52.8281 269.821 54.3445C270.095 55.861 271.231 57.0665 272.759 57.3776L316.204 66.8264V84.5186V98.3614L316.283 98.3224Z" fill="black"/>
<path d="M92.474 107.538C91.9648 106.682 91.142 106.021 90.1626 105.788C89.1832 105.516 88.1255 105.671 87.2636 106.177L-23.2499 169.519C-24.1901 170.063 -24.856 170.997 -25.091 172.047C-25.1302 172.28 -25.1694 172.552 -25.1694 172.785C-25.1694 173.602 -24.8952 174.419 -24.3859 175.08C17.2574 229.751 90.8287 249.309 154.449 222.635C155.468 222.207 156.251 221.39 156.604 220.341C156.957 219.291 156.839 218.163 156.29 217.23L92.474 107.538ZM-15.6107 173.874L87.7729 114.615L147.476 217.269C89.3791 239.627 23.4471 222.09 -15.6107 173.874Z" fill="black"/>
<path fill-rule="evenodd" clip-rule="evenodd" d="M192.139 216.452L162.875 233.211L193.236 266.263L205.811 259.069L192.139 216.491V216.452ZM28.8959 -64.2134L-1.46498 -97.2648L-14.0401 -90.0324L-0.367958 -47.4154L28.8959 -64.1744V-64.2134ZM210.043 201.482L249.962 222.246L259.325 211.203L231.824 175.779L210.081 201.482H210.043ZM243.459 155.676L288.158 161.626L293.133 148.094L255.016 124.141L243.459 155.676ZM259.09 101.277L303.123 91.712V77.2859L259.129 67.7204V101.277H259.09ZM255.055 44.8178L293.133 20.904L288.158 7.33347L243.733 13.2437L255.094 44.8178H255.055ZM231.941 -6.97585L259.325 -42.2048L250.001 -53.248L210.081 -32.5227L231.941 -6.97585ZM192.139 -47.4543L205.811 -90.0711L193.236 -97.3038L162.875 -64.2523L192.179 -47.4932L192.139 -47.4543ZM140.859 -72.1456L139.018 -116.862L124.719 -119.351L107.599 -77.9782L140.898 -72.1456H140.859ZM84.1723 -78.0172L67.0528 -119.39L52.7537 -116.901L50.9126 -72.2235L84.2116 -78.0561L84.1723 -78.0172ZM-18.3103 -32.5616L-58.1907 -53.2869L-67.5144 -42.2437L-40.0133 -6.8204L-18.2711 -32.5227L-18.3103 -32.5616ZM-51.6875 13.2437L-96.3866 7.29455L-101.362 20.8651L-63.2442 44.8178L-51.6875 13.2826V13.2437ZM-67.3186 67.6427L-111.352 77.2081V91.6342L-67.3576 101.2V67.6427H-67.3186ZM-63.2834 124.063L-101.323 147.977L-96.3474 161.509L-51.9225 155.599L-63.2834 124.063ZM-40.131 175.896L-67.5144 211.125L-58.1907 222.168L-18.2711 201.404L-40.131 175.896ZM-0.328743 216.374L-14.0009 258.991L-1.42577 266.185L28.9351 233.133L-0.367958 216.374H-0.328743ZM50.9516 241.027L52.7929 285.743L67.0917 288.271L84.2505 246.859L50.9516 241.027ZM107.638 246.898L124.758 288.271L139.057 285.743L140.898 241.066L107.599 246.898H107.638Z" fill="#FCEEA3"/>
<path d="M-115.151 91.7121V77.286C-115.151 75.4973 -113.898 73.9808 -112.135 73.5919L-68.1018 64.0264C-66.9658 63.7931 -65.7905 64.0264 -64.8894 64.7652C-63.9884 65.4651 -63.4792 66.5539 -63.4792 67.7204V101.277C-63.4792 102.444 -63.9884 103.494 -64.8894 104.233C-65.7905 104.933 -66.9658 105.244 -68.1018 104.971L-112.096 95.4059C-113.859 95.017 -115.112 93.5007 -115.112 91.7121H-115.151ZM-107.512 80.3188V88.6401L-71.1184 96.5336V72.3865L-107.512 80.2801V80.3188ZM-105.123 20.904C-105.123 20.4763 -105.044 20.0485 -104.887 19.6208L-99.9121 6.05028C-99.2853 4.37827 -97.6008 3.36726 -95.7988 3.60057L-51.1391 9.54994C-50.003 9.70549 -48.9844 10.3664 -48.3576 11.3385C-47.77 12.3106 -47.6132 13.5161 -48.0441 14.6048L-59.6009 46.1398C-59.9926 47.2285 -60.8544 48.0452 -61.9513 48.434C-63.0482 48.8229 -64.2627 48.6672 -65.2421 48.0451L-103.36 24.0926C-104.496 23.3927 -105.123 22.1483 -105.123 20.904ZM-93.8008 11.4942L-96.6608 19.3097L-65.1637 39.1018L-56.8586 16.3934L-93.8008 11.4552V11.4942ZM-105.123 148.055C-105.123 146.772 -104.496 145.566 -103.36 144.867L-65.3205 120.953C-64.3412 120.331 -63.1266 120.175 -62.0297 120.564C-60.9328 120.953 -60.071 121.769 -59.6793 122.858L-48.3184 154.393C-47.9266 155.482 -48.0443 156.648 -48.6711 157.659C-49.2587 158.631 -50.2773 159.293 -51.4134 159.448L-95.838 165.359C-97.6009 165.592 -99.3245 164.581 -99.9513 162.909L-104.927 149.377C-105.083 148.949 -105.162 148.522 -105.162 148.094L-105.123 148.055ZM-65.2421 129.857L-96.6608 149.61L-93.8008 157.426L-57.0936 152.527L-65.2813 129.857H-65.2421ZM-71.3142 211.164C-71.3142 210.347 -71.04 209.531 -70.5307 208.831L-43.1472 173.602C-42.4421 172.708 -41.3451 172.163 -40.2091 172.124C-39.073 172.124 -37.9371 172.591 -37.1927 173.446L-15.3329 198.954C-14.5885 199.849 -14.275 201.015 -14.5101 202.143C-14.7451 203.27 -15.4503 204.242 -16.4689 204.787L-56.3493 225.551C-57.9554 226.368 -59.9142 225.979 -61.0503 224.618L-70.3741 213.575C-70.9617 212.875 -71.275 212.019 -71.275 211.125L-71.3142 211.164ZM-39.974 181.962L-62.6174 211.086L-57.2112 217.463L-24.2647 200.315L-39.974 181.962ZM-71.3142 -42.2048C-71.3142 -43.0602 -71.0009 -43.9546 -70.4133 -44.6545L-61.0895 -55.6977C-59.9535 -57.0586 -57.9947 -57.4474 -56.3885 -56.6309L-16.5081 -35.9056C-15.4895 -35.3612 -14.7452 -34.428 -14.5493 -33.3004C-14.3534 -32.1728 -14.6277 -31.0062 -15.3721 -30.1119L-37.1143 -4.40955C-37.8586 -3.51521 -38.9556 -3.0487 -40.1309 -3.0487C-41.267 -3.0487 -42.3639 -3.63174 -43.069 -4.52608L-70.5699 -39.9497C-71.1183 -40.6496 -71.3534 -41.466 -71.3534 -42.2826L-71.3142 -42.2048ZM-57.2112 -48.4653L-62.6174 -42.0882L-39.8958 -12.8084L-24.2647 -31.2784L-57.2504 -48.4264L-57.2112 -48.4653ZM-17.8009 -90.0324C-17.8009 -89.6436 -17.7618 -89.2546 -17.6051 -88.9046L-3.93272 -46.2878C-3.58015 -45.199 -2.75764 -44.3045 -1.66074 -43.9157C-0.563828 -43.488 0.611534 -43.6046 1.6301 -44.1879L30.8939 -60.9469C31.9125 -61.5302 32.5786 -62.5023 32.7745 -63.6299C32.9704 -64.7576 32.6176 -65.9241 31.8341 -66.7795L1.47324 -99.831C0.258804 -101.153 -1.69981 -101.464 -3.26682 -100.57L-15.8422 -93.3764C-17.0566 -92.6765 -17.7617 -91.432 -17.7617 -90.0711L-17.8009 -90.0324ZM-2.13081 -92.4432L22.9415 -65.1465L1.86514 -53.0925L-9.41736 -88.2826L-2.17003 -92.4432H-2.13081ZM-17.8009 259.03C-17.8009 260.352 -17.0958 261.635 -15.8814 262.297L-3.30603 269.49C-1.73901 270.384 0.219833 270.073 1.43427 268.751L31.7951 235.7C32.5786 234.844 32.9311 233.717 32.7353 232.55C32.5394 231.422 31.8732 230.45 30.8547 229.867L1.55167 213.108C0.533112 212.525 -0.642014 212.447 -1.73892 212.875C-2.79665 213.302 -3.65858 214.158 -4.01115 215.247L-17.6833 257.864C-17.8008 258.253 -17.8791 258.641 -17.8791 259.03H-17.8009ZM1.90435 222.051L22.9807 234.106L-2.13081 261.441L-9.37814 257.28L1.90435 222.09V222.051ZM47.1517 -72.1456C47.1517 -72.1456 47.1517 -72.2624 47.1517 -72.3013L48.9929 -116.979C49.0712 -118.768 50.3642 -120.245 52.1271 -120.556L66.4259 -123.045C68.1888 -123.356 69.9517 -122.384 70.6177 -120.751L87.7373 -79.3779C88.1682 -78.3281 88.0899 -77.1228 87.5414 -76.1118C86.993 -75.1008 86.0136 -74.401 84.8775 -74.2065L51.5786 -68.3739C50.4425 -68.1795 49.2672 -68.4905 48.4054 -69.2293C47.5827 -69.9681 47.1125 -70.9792 47.1125 -72.068L47.1517 -72.1456ZM56.5147 -113.635L54.9868 -76.6949L78.9228 -80.8945L64.7806 -115.074L56.5147 -113.635ZM47.1517 241.105C47.1517 240.016 47.6219 238.966 48.4446 238.266C49.3064 237.488 50.4817 237.177 51.6178 237.372L84.9167 243.204C86.0528 243.399 87.0322 244.099 87.5806 245.11C88.1291 246.121 88.2074 247.326 87.7765 248.376L70.6177 289.788C69.9517 291.421 68.1888 292.393 66.4259 292.082L52.1271 289.554C50.3642 289.243 49.032 287.765 48.9929 285.977L47.1517 241.26C47.1517 241.26 47.1517 241.144 47.1517 241.105ZM78.9228 249.854L54.9868 245.654L56.5147 282.633L64.7806 284.072L78.962 249.854H78.9228ZM103.799 -77.9393C103.799 -78.4059 103.877 -78.9113 104.073 -79.3779L121.193 -120.751C121.859 -122.384 123.622 -123.356 125.385 -123.045L139.684 -120.556C141.447 -120.245 142.779 -118.768 142.818 -116.979L144.659 -72.2623C144.737 -71.0958 144.228 -70.0069 143.366 -69.2293C142.504 -68.4905 141.329 -68.1406 140.193 -68.3739L106.894 -74.2065C105.758 -74.401 104.779 -75.1008 104.23 -76.1118C103.917 -76.6951 103.76 -77.3171 103.76 -77.9393H103.799ZM127.108 -115.074L112.927 -80.8556L136.863 -76.6563L135.335 -113.635L127.069 -115.074H127.108ZM103.799 246.976C103.799 246.354 103.956 245.732 104.269 245.148C104.818 244.138 105.797 243.438 106.933 243.243L140.232 237.411C141.368 237.216 142.544 237.527 143.405 238.305C144.267 239.044 144.777 240.21 144.698 241.299L142.857 285.977C142.779 287.765 141.486 289.243 139.723 289.554L125.424 292.082C123.661 292.393 121.898 291.46 121.232 289.788L104.112 248.415C103.917 247.948 103.838 247.482 103.838 246.976H103.799ZM136.902 245.693L112.966 249.892L127.108 284.072L135.375 282.633L136.902 245.693ZM159.076 -64.1744C159.076 -65.1076 159.428 -66.0407 160.055 -66.7406L190.416 -99.7921C191.63 -101.114 193.589 -101.425 195.156 -100.531L207.731 -93.3374C209.298 -92.4431 209.964 -90.5766 209.455 -88.9046L195.783 -46.2878C195.43 -45.199 194.607 -44.3045 193.51 -43.9157C192.453 -43.488 191.238 -43.6046 190.22 -44.1879L160.917 -60.9469C159.898 -61.5302 159.232 -62.5023 159.036 -63.6689C159.036 -63.8633 158.997 -64.0578 158.997 -64.2522L159.076 -64.1744ZM194.02 -92.4432L168.909 -65.1076L189.985 -53.0536L201.267 -88.2826L194.02 -92.4432ZM159.115 233.211C159.115 233.211 159.115 232.822 159.154 232.628C159.31 231.5 160.016 230.489 161.034 229.906L190.298 213.147C191.317 212.564 192.531 212.486 193.589 212.914C194.647 213.341 195.509 214.197 195.861 215.286L209.533 257.864C210.043 259.575 209.337 261.402 207.81 262.297L195.234 269.49C193.667 270.384 191.708 270.073 190.494 268.751L160.133 235.7C159.506 235 159.154 234.067 159.154 233.133L159.115 233.211ZM189.985 222.09L168.948 234.144L194.02 261.441L201.267 257.28L189.985 222.09ZM206.282 201.482C206.282 201.715 206.282 201.948 206.36 202.221C206.595 203.348 207.3 204.32 208.319 204.826L248.238 225.59C249.845 226.406 251.764 226.018 252.939 224.657L262.302 213.614C263.478 212.253 263.517 210.269 262.42 208.87L234.919 173.446C234.214 172.552 233.117 172.008 231.981 171.969C230.805 171.969 229.708 172.435 228.964 173.33L207.222 199.032C206.634 199.732 206.321 200.587 206.321 201.482H206.282ZM231.706 181.845L254.428 211.125L249.022 217.502L216.036 200.354L231.667 181.884L231.706 181.845ZM206.282 -32.4837C206.282 -31.5894 206.595 -30.7339 207.183 -30.034L229.042 -4.52608C229.787 -3.63174 230.884 -3.16526 232.059 -3.20415C233.195 -3.20415 234.292 -3.78743 234.997 -4.68176L262.381 -39.9107C263.478 -41.3494 263.438 -43.2935 262.302 -44.6545L252.979 -55.6977C251.842 -57.0586 249.884 -57.4474 248.277 -56.6309L208.358 -35.9056C207.34 -35.3612 206.595 -34.3891 206.399 -33.2615C206.36 -33.0282 206.321 -32.7949 206.321 -32.5227L206.282 -32.4837ZM249.061 -48.4653L254.428 -42.0882L231.785 -12.9641L216.075 -31.3173L249.061 -48.4653ZM239.698 155.676C239.698 155.248 239.777 154.821 239.933 154.393L251.49 122.858C251.882 121.769 252.744 120.953 253.84 120.564C254.937 120.214 256.152 120.331 257.131 120.953L295.249 144.905C296.777 145.839 297.403 147.705 296.776 149.416L291.801 162.947C291.175 164.62 289.49 165.63 287.727 165.397L243.028 159.448C241.892 159.293 240.873 158.631 240.286 157.659C239.933 157.076 239.737 156.376 239.737 155.676H239.698ZM257.053 129.857L248.748 152.527L285.69 157.465L288.55 149.649L257.053 129.857ZM239.933 13.2827C239.933 12.5827 240.129 11.9217 240.482 11.2995C241.069 10.3274 242.088 9.66656 243.224 9.51103L287.649 3.60057C289.412 3.36726 291.135 4.37827 291.723 6.05028L296.698 19.6208C297.325 21.2928 296.698 23.1594 295.17 24.1315L257.092 48.0451C256.112 48.6672 254.898 48.8229 253.801 48.434C252.704 48.0452 251.843 47.1897 251.451 46.1398L240.09 14.5659C239.933 14.1382 239.855 13.7104 239.855 13.2827H239.933ZM285.651 11.5328L248.944 16.4323L257.092 39.1018L288.51 19.3486L285.651 11.5328ZM255.29 101.277V67.7204C255.29 66.5539 255.838 65.4651 256.739 64.7652C257.64 64.0653 258.816 63.7542 259.952 64.0264L303.946 73.5919C305.708 73.9808 306.962 75.4973 306.962 77.286V91.7121C306.962 93.5007 305.708 95.017 303.946 95.4059L259.913 104.971C258.777 105.205 257.601 104.971 256.7 104.233C255.799 103.494 255.29 102.444 255.29 101.277ZM262.968 72.4255V96.5726L299.362 88.6401V80.3188L262.968 72.4255Z" fill="black"/>
<path fill-rule="evenodd" clip-rule="evenodd" d="M117.979 122.431C96.8632 134.524 69.8714 127.331 57.6879 106.411C45.5044 85.4524 52.7518 58.6612 73.8281 46.6071C94.9436 34.5142 121.935 41.6688 134.119 62.6274C146.302 83.5859 139.055 110.377 117.979 122.47V122.431Z" fill="#FCEEA3"/>
<path d="M47.9731 84.5579C47.9731 67.5655 57.1793 51.7787 71.9484 43.3019C83.035 36.9249 95.9627 35.2528 108.342 38.519C120.722 41.8242 131.064 49.6788 137.449 60.683C141.641 67.9154 143.874 76.1199 143.874 84.4411C143.874 101.395 134.668 117.221 119.899 125.697C96.9813 138.801 67.5998 130.985 54.3977 108.277C50.206 101.045 47.9731 92.8402 47.9731 84.519V84.5579ZM136.235 84.4801C136.235 77.5198 134.354 70.5984 130.829 64.5325C125.462 55.2781 116.765 48.6679 106.344 45.9071C95.9627 43.1463 85.072 44.5852 75.7483 49.9123C63.3297 57.0281 55.5732 70.3264 55.5732 84.5968C55.5732 91.5571 57.4533 98.4785 60.9791 104.544C72.1049 123.636 96.7853 130.208 116.06 119.204C128.478 112.088 136.235 98.7894 136.235 84.519V84.4801Z" fill="black"/>
<path fill-rule="evenodd" clip-rule="evenodd" d="M105.481 100.966C96.3137 106.216 84.6003 103.066 79.3116 94.006C74.0621 84.9071 77.1961 73.2808 86.3239 68.0315C95.4909 62.7821 107.204 65.893 112.493 74.953C117.782 84.0518 114.648 95.6779 105.481 100.966Z" fill="black"/>
<path d="M72.9263 84.5186C72.9263 76.3918 77.3139 68.8093 84.4046 64.7654C95.3737 58.4662 109.477 62.1991 115.784 73.0866C117.782 76.5473 118.879 80.5135 118.879 84.4797C118.879 92.6064 114.491 100.189 107.4 104.272C96.4314 110.571 82.3282 106.799 76.021 95.9116C74.0231 92.4509 72.9652 88.5236 72.9652 84.5186H72.9263ZM111.24 84.4797C111.24 81.8355 110.535 79.1916 109.163 76.8585C104.932 69.5872 95.5303 67.0986 88.2045 71.2981C81.1529 75.3421 78.489 85.0241 82.5632 92.101C86.7942 99.3723 96.1964 101.861 103.522 97.7003C108.262 94.9785 111.2 89.9234 111.2 84.4797H111.24Z" fill="black"/>
</g>
<defs>
<linearGradient id="paint0_linear_1613_38004" x1="95.883" y1="-138.21" x2="95.883" y2="307.247" gradientUnits="userSpaceOnUse">
<stop stop-color="#FBD921"/>
<stop offset="0.528914" stop-color="#958114"/>
<stop offset="1" stop-color="#FBD921"/>
</linearGradient>
</defs>
</svg>
