<svg width="88" height="89" viewBox="0 0 88 89" fill="none" xmlns="http://www.w3.org/2000/svg">
<g filter="url(#filter0_d_1613_48272)">
<path fill-rule="evenodd" clip-rule="evenodd" d="M38.6429 1.57666L40.7529 1.34314L44.0662 8.89858C44.9894 8.89858 45.9125 8.93195 46.8356 9.01535L50.8084 1.79349L52.8854 2.22715L53.7261 10.4497C54.6163 10.7332 55.4735 11.0668 56.3142 11.4338L62.298 5.81299L64.1443 6.88044L62.4299 14.9529C63.1717 15.5033 63.897 16.087 64.5894 16.7041L72.0074 13.2183L73.4415 14.8028L69.3534 21.9412C69.8974 22.6918 70.4084 23.4756 70.8699 24.2762L78.9638 23.2922L79.8375 25.2603L73.7547 30.7642C74.035 31.6481 74.2822 32.5488 74.48 33.4661L82.4915 35.0673L82.7223 37.2021L75.2548 40.5378C75.2548 41.4718 75.2218 42.4058 75.1229 43.3398L82.2607 47.3594L81.8321 49.4609L73.7218 50.3115C73.4415 51.1955 73.1118 52.0794 72.7492 52.93L78.3044 58.9843L77.2494 60.8523L69.2545 59.1178C68.7105 59.8683 68.1335 60.6021 67.5236 61.3027L70.9689 68.808L69.4028 70.259L62.3475 66.1061C61.6057 66.6565 60.8309 67.1735 60.0397 67.6572L61.0122 75.8464L59.0836 76.7303L53.6272 70.5759C52.7535 70.8595 51.8634 71.1097 50.9567 71.3098L49.3742 79.4156L47.2642 79.6491L43.9673 72.0937C43.0442 72.0937 42.1211 72.0437 41.1979 71.977L37.2252 79.1987L35.1317 78.7652L34.291 70.5592C33.4008 70.2757 32.5436 69.9422 31.7029 69.5753L25.719 75.1959L23.8728 74.1285L25.5872 66.0394C24.8454 65.489 24.12 64.9052 23.4277 64.2881L16.0097 67.7573L14.5756 66.1728L18.6637 59.0344C18.1197 58.2839 17.6087 57.4999 17.1306 56.6993L9.03677 57.6834L8.1631 55.7321L14.2459 50.2115C13.9656 49.3275 13.7184 48.4268 13.5205 47.5094L5.5091 45.9084L5.27832 43.7734L12.7458 40.421C12.7458 39.487 12.7952 38.553 12.8777 37.619L5.75636 33.5996L6.18497 31.498L14.2953 30.6474C14.5756 29.7635 14.9052 28.8795 15.2679 28.0289L9.71264 21.9745L10.7676 20.1065L18.7626 21.8412C19.3066 21.0906 19.8835 20.3568 20.4935 19.6563L17.0482 12.1509L18.6142 10.6999L25.6696 14.8362C26.4114 14.2858 27.1862 13.7687 27.9774 13.2851L27.0048 5.09582L28.9335 4.21191L34.3734 10.3663C35.247 10.0828 36.1372 9.83259 37.0439 9.63245L38.6264 1.52668L38.6429 1.57666Z" fill="url(#paint0_linear_1613_48272)"/>
<path d="M47.2804 81C46.7694 81 46.3078 80.6998 46.0935 80.2162L43.1263 73.428C42.7307 73.428 42.3186 73.3946 41.923 73.3779L38.3623 79.8659C38.0821 80.3662 37.5216 80.6331 36.9776 80.5164L34.9006 80.0827C34.3566 79.966 33.928 79.4989 33.8786 78.9319L33.1203 71.5433C32.7411 71.4098 32.3785 71.2597 31.9993 71.1096L26.6254 76.1633C26.2133 76.5469 25.6034 76.6302 25.1088 76.3467L23.2626 75.2793C22.768 74.9957 22.5208 74.4287 22.6362 73.8616L24.1857 66.6064C23.8725 66.3562 23.5593 66.106 23.2626 65.8558L16.6028 68.9748C16.0918 69.2083 15.4819 69.0915 15.1028 68.6745L13.6686 67.0901C13.2895 66.6732 13.2235 66.0393 13.5038 65.5556L17.1798 59.1344C16.949 58.8008 16.7347 58.4673 16.5204 58.117L9.23429 59.0009C8.6903 59.0677 8.12984 58.7675 7.89905 58.2338L7.02538 56.2823C6.7946 55.7653 6.92648 55.1482 7.33859 54.7646L12.7949 49.811C12.6795 49.4274 12.5806 49.0439 12.4817 48.6436L5.27803 47.2092C4.71756 47.0924 4.30544 46.6421 4.2395 46.0751L4.00872 43.9402C3.94279 43.3732 4.256 42.8394 4.76702 42.6059L11.4762 39.6038C11.4762 39.2035 11.5091 38.8032 11.5256 38.3862L5.11318 34.7837C4.61865 34.5002 4.35489 33.9331 4.47029 33.3827L4.8989 31.2812C5.01429 30.7141 5.47586 30.2971 6.03633 30.2471L13.3225 29.4798C13.4543 29.0962 13.6027 28.7126 13.751 28.3457L8.75625 22.9085C8.37711 22.4915 8.29469 21.8744 8.57492 21.3741L9.62993 19.5061C9.91016 19.0057 10.4871 18.7555 11.0146 18.8723L18.2018 20.4234C18.4491 20.1065 18.6964 19.7896 18.9436 19.4894L15.861 12.7513C15.6138 12.2342 15.7457 11.6171 16.1578 11.2335L17.7238 9.78245C18.1359 9.39884 18.7458 9.33217 19.2404 9.6157L25.5869 13.335C25.9166 13.1015 26.2463 12.8847 26.5924 12.6679L25.7187 5.29591C25.6528 4.72884 25.9495 4.17845 26.4606 3.94495L28.3892 3.06103C28.9003 2.82753 29.5102 2.96097 29.8893 3.37793L34.7852 8.89854C35.1643 8.78179 35.5435 8.68171 35.9391 8.58164L37.3568 1.29311C37.4722 0.726037 37.9172 0.309064 38.4777 0.24235L40.5877 0.00882561C41.1482 -0.0578887 41.6757 0.259041 41.9065 0.776077L44.8737 7.56427C45.2693 7.56427 45.6814 7.59757 46.0606 7.61425L49.6212 1.12626C49.9014 0.625905 50.4454 0.359125 51.0059 0.475875L53.0994 0.909432C53.6434 1.02618 54.072 1.49319 54.1215 2.06026L54.8797 9.44896C55.2589 9.58239 55.6215 9.73241 56.0007 9.88252L61.3746 4.82896C61.7867 4.44535 62.3966 4.37866 62.8912 4.64552L64.7375 5.71287C65.232 5.99641 65.4792 6.56354 65.3638 7.13061L63.8143 14.3858C64.1275 14.6359 64.4407 14.8861 64.7375 15.1363L71.3972 12.0007C71.9082 11.7672 72.5181 11.884 72.8973 12.3009L74.3314 13.8854C74.7105 14.3024 74.7765 14.9195 74.4962 15.4198L70.8202 21.8411C71.051 22.1747 71.2653 22.5082 71.4796 22.8585L78.7657 21.9579C79.3262 21.8912 79.8537 22.1913 80.101 22.725L80.9746 24.6931C81.2054 25.2101 81.0735 25.8273 80.6614 26.2109L75.2051 31.1644C75.3205 31.548 75.4194 31.9316 75.5183 32.3319L82.722 33.7663C83.266 33.883 83.6946 34.3333 83.7605 34.9004L83.9913 37.0353C84.0572 37.6024 83.744 38.1361 83.233 38.3696L76.5238 41.3717C76.5238 41.772 76.4909 42.1723 76.4744 42.5726L82.8868 46.1751C83.3814 46.4587 83.6451 47.0258 83.5297 47.5762L83.1011 49.6777C82.9857 50.2281 82.5242 50.6617 81.9637 50.7117L74.6776 51.4789C74.5457 51.8625 74.3973 52.2461 74.249 52.613L79.2438 58.0503C79.6229 58.4672 79.7053 59.0844 79.4251 59.5848L78.3701 61.4528C78.0898 61.9531 77.5129 62.2033 76.9854 62.0865L69.7982 60.5188C69.5509 60.8357 69.3036 61.1526 69.0564 61.4694L72.139 68.2076C72.3697 68.7246 72.2544 69.3417 71.8422 69.7253L70.2762 71.1763C69.8641 71.5599 69.2542 71.6267 68.7596 71.3431L62.4131 67.6237C62.0835 67.8572 61.7538 68.0741 61.4076 68.2909L62.2813 75.6628C62.3472 76.2299 62.0505 76.7803 61.5395 77.0138L59.6108 77.8978C59.0998 78.1313 58.4898 78.0146 58.1107 77.5809L53.2148 72.0603C52.8357 72.1771 52.4565 72.2771 52.0609 72.3772L50.6432 79.6657C50.5279 80.2328 50.0828 80.6498 49.5223 80.7165L47.4123 80.95C47.4123 80.95 47.3134 80.95 47.2639 80.95L47.2804 81ZM41.2141 70.7093C41.2141 70.7093 41.2965 70.7093 41.3295 70.7093C42.2032 70.7927 43.0934 70.8261 43.9835 70.8261C44.4945 70.8261 44.9561 71.1263 45.1704 71.5933L48.0882 78.2814L48.3189 78.2481L49.7036 71.0762C49.8025 70.5759 50.1817 70.1756 50.6762 70.0589C51.5499 69.8587 52.4071 69.6252 53.2313 69.3584C53.7093 69.1916 54.2533 69.3583 54.583 69.7253L59.3965 75.1625L59.6108 75.0624L58.7536 67.824C58.6877 67.3069 58.9349 66.8066 59.3635 66.5397C60.1218 66.0727 60.8636 65.589 61.5889 65.0553C62.001 64.7551 62.545 64.7217 62.9901 64.9886L69.2377 68.6579L69.419 68.4911L66.3859 61.8697C66.1716 61.4027 66.254 60.8523 66.5837 60.4687C67.1607 59.8015 67.7211 59.101 68.2486 58.3672C68.5453 57.9502 69.0729 57.7501 69.5509 57.8668L76.6227 59.4012L76.7381 59.2011L71.8258 53.8473C71.4796 53.4637 71.3807 52.9133 71.5785 52.4463C71.9247 51.629 72.2379 50.7784 72.5181 49.9278C72.6829 49.4441 73.1116 49.0939 73.6226 49.0272L80.7933 48.2766L80.8427 48.0431L74.5457 44.4906C74.1006 44.2404 73.8369 43.7401 73.8863 43.2231C73.9687 42.3391 74.0017 41.4384 74.0017 40.5378C74.0017 40.0207 74.2984 39.5538 74.7765 39.3369L81.3703 36.3848L81.3373 36.1513L74.249 34.7503C73.7544 34.6503 73.3588 34.2666 73.2434 33.7496C73.0456 32.8656 72.8148 31.9983 72.5511 31.1644C72.4027 30.664 72.5511 30.1303 72.9137 29.7967L78.2877 24.9266L78.1887 24.7098L71.0345 25.5938C70.54 25.6438 70.0289 25.4103 69.7652 24.96C69.3036 24.1928 68.8256 23.4422 68.2981 22.725C68.0014 22.3081 67.9684 21.741 68.2321 21.3074L71.8587 14.9862L71.6939 14.8194L65.1496 17.8883C64.688 18.1051 64.144 18.0218 63.7649 17.6882C63.089 17.1044 62.4131 16.5374 61.6878 16.0203C61.2757 15.7201 61.0779 15.1863 61.1933 14.686L62.7099 7.54758L62.512 7.43081L57.2205 12.401C56.8579 12.7512 56.2974 12.8514 55.8358 12.6512C55.0281 12.301 54.2039 11.9841 53.3467 11.7005C52.8686 11.5337 52.5225 11.1001 52.4565 10.5998L51.7147 3.34454L51.4839 3.29456L47.9727 9.66569C47.7255 10.116 47.2474 10.3829 46.7364 10.3329C45.8627 10.2495 44.9726 10.2161 44.0824 10.2161C43.5714 10.2161 43.1099 9.91594 42.8956 9.43226L39.9778 2.76083L39.747 2.79412L38.3623 9.96599C38.2634 10.4663 37.8843 10.8833 37.3733 10.9834C36.4996 11.1835 35.6424 11.417 34.8182 11.6838C34.3401 11.8339 33.7961 11.6839 33.4665 11.317L28.653 5.87972L28.4387 5.97979L29.2959 13.2182C29.3618 13.7353 29.1146 14.2357 28.6695 14.5025C27.9112 14.9695 27.1694 15.4532 26.4606 15.9869C26.0485 16.2871 25.5045 16.3205 25.0594 16.0536L18.8118 12.3843L18.6469 12.5511L21.6801 19.1725C21.8944 19.6395 21.8119 20.1899 21.4823 20.5735C20.9053 21.2407 20.3448 21.9412 19.8338 22.6751C19.5371 23.092 19.0096 23.2921 18.515 23.1754L11.4432 21.641L11.3278 21.8411L16.2402 27.1949C16.5864 27.5785 16.6853 28.1289 16.471 28.5959C16.1248 29.4132 15.8116 30.2638 15.5314 31.1144C15.3665 31.5981 14.9379 31.9483 14.4434 32.015L7.27266 32.7656L7.22321 32.9991L13.5203 36.5516C13.9653 36.8018 14.2291 37.3022 14.1796 37.8025C14.0972 38.6865 14.0642 39.5871 14.0642 40.4878C14.0642 41.0048 13.7675 41.4718 13.2895 41.6886L6.6957 44.6407L6.72867 44.8742L13.817 46.2752C14.3115 46.3753 14.7071 46.7589 14.8225 47.276C15.0203 48.1599 15.2511 49.0272 15.5149 49.8611C15.6632 50.3448 15.5149 50.8952 15.1522 51.2288L9.77828 56.0989L9.87718 56.3157L17.0479 55.4484C17.5425 55.3817 18.0535 55.6319 18.3172 56.0822C18.7623 56.8494 19.2569 57.6 19.7844 58.3172C20.0811 58.7341 20.114 59.3012 19.8503 59.7348L16.2237 66.0561L16.3886 66.2228L22.9329 63.1539C23.3945 62.9371 23.9384 63.0205 24.3176 63.354C24.977 63.9378 25.6693 64.5049 26.3946 65.0219C26.8067 65.3221 27.0045 65.8392 26.8891 66.3563L25.3726 73.4946L25.5704 73.6114L30.8619 68.6412C31.2246 68.291 31.7685 68.1909 32.2466 68.391C33.0543 68.7412 33.8785 69.0582 34.7357 69.3417C35.2138 69.5085 35.56 69.9421 35.6259 70.4591L36.3677 77.7144L36.5985 77.7644L40.1097 71.3931C40.3405 70.9762 40.769 70.726 41.2306 70.726L41.2141 70.7093Z" fill="#923844"/>
<path fill-rule="evenodd" clip-rule="evenodd" d="M23.8887 40.521C23.8887 51.7623 32.9057 60.8689 44.0162 60.8689C55.1267 60.8689 64.1272 51.7457 64.1272 40.5044C64.1272 29.263 55.1103 20.1565 43.9997 20.1565C32.8892 20.1565 23.8722 29.2796 23.8887 40.521Z" fill="#FCACB6"/>
<path d="M44.0168 62.1865C32.214 62.1865 22.6035 52.4628 22.6035 40.5376C22.6035 28.5958 32.1975 18.8555 44.0168 18.8555C55.8362 18.8555 65.4301 28.5625 65.4466 40.5043C65.4466 52.4462 55.8527 62.1865 44.0498 62.1865H44.0168ZM44.0168 21.4573C33.6316 21.4573 25.1751 30.0134 25.1916 40.5209C25.1916 51.0118 33.6481 59.5679 44.0168 59.5679C54.402 59.5679 62.8586 51.0118 62.8421 40.5043C62.8421 30.0135 54.3855 21.4573 44.0168 21.4573Z" fill="#923844"/>
<path fill-rule="evenodd" clip-rule="evenodd" d="M29.4766 40.5211C29.4766 48.6436 35.9879 55.215 44.0158 55.215C52.0438 55.215 58.5386 48.627 58.5386 40.5045C58.5386 32.382 52.0273 25.8107 43.9994 25.8107C35.9714 25.8107 29.4766 32.3986 29.4766 40.5211Z" fill="#F85F73"/>
<path d="M44.0165 56.5158C35.2962 56.5158 28.2079 49.344 28.1914 40.521C28.1914 31.6981 35.2797 24.5096 44 24.5096C52.7203 24.5096 59.8251 31.6815 59.8251 40.5044C59.8251 44.7742 58.1766 48.7937 55.1929 51.8292C52.2093 54.848 48.2365 56.5158 44 56.5158H44.0165ZM44.0165 27.1115C36.7139 27.1115 30.7795 33.1324 30.7795 40.521C30.7795 47.9096 36.7304 53.914 44.0165 53.914C47.5606 53.914 50.8905 52.513 53.3797 49.9779C55.8688 47.4427 57.2535 44.0737 57.2535 40.5044C57.2535 33.1158 51.3191 27.1115 44.0165 27.1115Z" fill="#923844"/>
<path fill-rule="evenodd" clip-rule="evenodd" d="M40.7344 40.5045C40.7344 42.3392 42.2015 43.8236 44.0148 43.8236C45.8281 43.8236 47.2952 42.3392 47.2952 40.5045C47.2952 38.6699 45.8281 37.1854 44.0148 37.1854C42.2015 37.1854 40.7344 38.6699 40.7344 40.5045Z" fill="#FCACB6"/>
<path d="M44.0154 45.1244C41.4933 45.1244 39.4492 43.0563 39.4492 40.5045C39.4492 39.2703 39.9273 38.1194 40.7845 37.2355C41.6416 36.3682 42.7956 35.8845 44.0154 35.8845C46.5375 35.8845 48.5816 37.9527 48.5816 40.5045C48.5816 43.0563 46.5375 45.1244 44.0154 45.1244ZM44.0154 38.5031C43.4879 38.5031 42.9769 38.7032 42.5978 39.0868C42.2186 39.4704 42.0208 39.9708 42.0208 40.5045C42.0208 41.6053 42.911 42.5059 43.9989 42.5059C45.0869 42.5059 45.9935 41.6053 45.9935 40.5045C45.9935 39.4037 45.1034 38.5031 44.0154 38.5031Z" fill="#923844"/>
</g>
<defs>
<filter id="filter0_d_1613_48272" x="0" y="0" width="88" height="89" filterUnits="userSpaceOnUse" color-interpolation-filters="sRGB">
<feFlood flood-opacity="0" result="BackgroundImageFix"/>
<feColorMatrix in="SourceAlpha" type="matrix" values="0 0 0 0 0 0 0 0 0 0 0 0 0 0 0 0 0 0 127 0" result="hardAlpha"/>
<feOffset dy="4"/>
<feGaussianBlur stdDeviation="2"/>
<feComposite in2="hardAlpha" operator="out"/>
<feColorMatrix type="matrix" values="0 0 0 0 0 0 0 0 0 0 0 0 0 0 0 0 0 0 0.25 0"/>
<feBlend mode="normal" in2="BackgroundImageFix" result="effect1_dropShadow_1613_48272"/>
<feBlend mode="normal" in="SourceGraphic" in2="effect1_dropShadow_1613_48272" result="shape"/>
</filter>
<linearGradient id="paint0_linear_1613_48272" x1="44.0003" y1="1.34314" x2="44.0003" y2="79.6491" gradientUnits="userSpaceOnUse">
<stop stop-color="#923844"/>
<stop offset="0.49045" stop-color="#F85F73"/>
<stop offset="1" stop-color="#923844"/>
</linearGradient>
</defs>
</svg>
