<svg width="418" height="409" viewBox="0 0 418 409" fill="none" xmlns="http://www.w3.org/2000/svg">
<g opacity="0.5">
<path fill-rule="evenodd" clip-rule="evenodd" d="M223.998 17.5176L232.392 1.05828L250.934 3.94153L253.732 22.1525L264.664 7.18942L282.497 12.8463L282.348 31.2397L295.517 18.1379L312.232 26.4589L309.135 44.5968L324.245 33.6483L339.429 44.4509L333.46 61.8957L350.137 53.3923L363.418 66.3845L354.725 82.6977L372.559 76.8586L383.602 91.7121L372.409 106.493L390.952 103.463L399.458 119.813L386.064 132.696L404.867 132.514L410.65 149.958L395.354 160.651L413.933 163.388L416.881 181.526L400.055 189.738L418 195.285V213.642L400.055 219.189L416.881 227.401L413.933 245.539L395.354 248.276L410.65 258.969L404.867 276.413L386.064 276.268L399.495 289.15L390.989 305.5L372.447 302.471L383.639 317.251L372.633 332.105L354.8 326.266L363.493 342.579L350.211 355.571L333.534 347.068L339.504 364.513L324.319 375.315L309.21 364.366L312.306 382.505L295.592 390.825L282.422 377.724L282.572 396.117L264.738 401.774L253.807 386.811L251.009 405.022L232.467 407.905L224.072 391.446L218.439 409H199.673L194.002 391.446L185.608 407.905L167.066 405.022L164.268 386.811L153.336 401.774L135.503 396.117L135.652 377.724L122.482 390.862L105.768 382.541L108.865 364.403L93.7553 375.351L78.5709 364.549L84.5402 347.104L67.8634 355.608L54.5818 342.615L63.2745 326.302L45.4412 332.141L34.3981 317.288L45.5905 302.507L27.0484 305.536L18.5421 289.187L31.9357 276.304L13.1324 276.45L7.3497 259.005L22.646 248.312L4.06657 245.612L1.1192 227.474L17.9452 219.262L0 213.715V195.358L17.9452 189.811L1.1192 181.599L4.06657 163.461L22.6833 160.724L7.38693 150.031L13.1698 132.587L31.9731 132.732L18.5794 119.85L27.0857 103.5L45.6277 106.529L34.4353 91.7486L45.4786 76.8951L63.3119 82.7342L54.619 66.421L67.9007 53.4288L84.5774 61.932L78.6082 44.4875L93.7925 33.6849L108.902 44.6334L105.806 26.4954L122.52 18.1745L135.69 31.2763L135.503 12.8826L153.336 7.22595L164.268 22.189L167.066 3.97784L185.57 1.09481L193.965 17.5541L199.636 0H218.402L224.035 17.5541L223.998 17.5176ZM208.963 230.211L89.8752 297.471C101.702 311.887 116.215 324.04 132.593 333.309C197.733 370.096 281.378 354.44 328.087 297.471L208.963 230.211ZM232.28 190.723L351.368 257.983C358.195 240.758 361.739 222.364 361.739 203.861C361.739 129.922 306.374 67.2239 232.28 56.1659V190.723ZM185.682 190.723V56.1659C111.588 67.2604 56.2233 129.922 56.2233 203.861C56.2233 222.364 59.7676 240.758 66.595 257.983L185.682 190.723Z" fill="black"/>
<path fill-rule="evenodd" clip-rule="evenodd" d="M190.831 193.679V50.3994C112.149 59.1948 51.0006 124.557 51.0006 203.898C51.0006 225.065 55.4403 245.976 64.0212 265.319L190.869 193.679H190.831ZM227.058 193.679L353.905 265.319C362.449 246.013 366.926 225.065 366.926 203.898C366.926 124.557 305.778 59.1948 227.095 50.3994V193.679H227.058ZM208.926 224.371L335.773 296.011C288.653 358.199 200.084 377.322 129.982 337.725C111.253 327.141 94.9496 312.908 82.1157 296.011L208.963 224.371H208.926ZM203.33 5.03613H214.485L220.902 24.9988C222.506 25.1083 224.11 25.2179 225.715 25.3639L235.265 6.64192L246.271 8.35708L249.442 29.0134C251.009 29.3784 252.614 29.7433 254.143 30.1082L266.53 13.1014L277.125 16.4591L276.938 37.3342C278.431 37.9181 279.923 38.5385 281.415 39.1589L296.376 24.2689L306.337 29.2324L302.793 49.8519C304.173 50.6548 305.554 51.4942 306.897 52.3336L324.096 39.8889L333.125 46.312L326.334 66.1653C327.566 67.1872 328.797 68.1724 329.991 69.2308L348.98 59.5597L356.89 67.2967L347.003 85.8725C348.048 87.0404 349.092 88.2449 350.137 89.4492L370.433 82.8071L376.999 91.6388L364.277 108.463C365.135 109.777 365.993 111.127 366.814 112.478L387.893 109.01L392.967 118.755L377.745 133.389C378.379 134.849 379.013 136.309 379.61 137.769L400.951 137.586L404.383 147.987L386.997 160.104C387.408 161.636 387.781 163.169 388.117 164.702L409.233 167.804L410.987 178.57L391.847 187.913C391.997 189.482 392.109 191.051 392.221 192.621L412.628 198.934V209.846L392.221 216.123C392.109 217.693 391.997 219.262 391.847 220.831L410.987 230.174L409.233 240.94L388.117 244.042C387.744 245.575 387.37 247.108 386.997 248.641L404.383 260.793L400.951 271.158L379.573 270.976C378.976 272.435 378.342 273.895 377.708 275.355L392.929 289.99L387.855 299.734L366.776 296.267C365.956 297.617 365.098 298.967 364.24 300.281L376.962 317.105L370.395 325.937L350.1 319.295C349.055 320.499 348.048 321.704 346.966 322.871L356.852 341.447L348.943 349.184L329.953 339.513C328.759 340.535 327.528 341.557 326.297 342.579L333.087 362.432L324.059 368.855L306.86 356.41C305.517 357.25 304.136 358.089 302.756 358.892L306.3 379.548L296.376 384.512L281.415 369.622C279.923 370.242 278.431 370.862 276.938 371.446L277.125 392.322L266.53 395.679L254.106 378.672C252.539 379.074 250.972 379.439 249.405 379.767L246.234 400.46L235.228 402.175L225.677 383.453C224.073 383.599 222.469 383.709 220.864 383.818L214.41 403.781H203.255L196.838 383.818C195.234 383.709 193.63 383.599 192.025 383.453L182.474 402.175L171.431 400.46L168.26 379.767C166.693 379.402 165.126 379.037 163.559 378.672L151.136 395.679L140.54 392.322L140.727 371.446C139.234 370.862 137.742 370.242 136.25 369.622L121.289 384.512L111.365 379.548L114.909 358.928C113.529 358.126 112.149 357.286 110.805 356.447L93.6065 368.892L84.5779 362.469L91.368 342.615C90.1368 341.593 88.9057 340.608 87.7119 339.55L68.722 349.221L60.8127 341.521L70.6993 322.944C69.6546 321.777 68.61 320.572 67.5654 319.368L47.2698 326.01L40.7036 317.178L53.4257 300.354C52.5676 299.04 51.7095 297.69 50.8887 296.34L29.7723 299.806L24.6984 290.099L39.9574 275.464C39.3232 274.005 38.689 272.545 38.092 271.085L16.7518 271.268L13.3195 260.903L30.705 248.75C30.2946 247.217 29.9216 245.684 29.5858 244.152L8.43216 241.05L6.67867 230.283L25.8176 220.941C25.6684 219.371 25.5566 217.802 25.4446 216.233L5.03711 209.956V199.044L25.4446 192.73C25.5566 191.161 25.6684 189.592 25.8176 188.022L6.67867 178.68L8.43216 167.914L29.5484 164.811C29.9215 163.279 30.2947 161.746 30.6678 160.213L13.2822 148.097L16.7144 137.732L38.0547 137.915C38.6516 136.455 39.2859 134.995 39.9201 133.535L24.6611 118.901L29.7351 109.156L50.8141 112.623C51.6349 111.273 52.4929 109.923 53.351 108.609L40.629 91.7847L47.1952 82.953L67.4908 89.5951C68.5355 88.3908 69.5428 87.1865 70.6247 86.0187L60.7381 67.4426L68.6474 59.7056L87.6372 69.3769C88.831 68.3551 90.0623 67.3331 91.2934 66.3112L84.5033 46.4579L93.5319 40.0348L110.731 52.4797C112.074 51.6403 113.454 50.8009 114.835 49.9981L111.291 29.3783L121.252 24.415L136.212 39.305C137.705 38.6846 139.197 38.0642 140.689 37.4803L140.503 16.605L151.098 13.2475L163.485 30.2541C165.052 29.8527 166.618 29.4878 168.185 29.1593L171.357 8.50321L182.363 6.78782L191.913 25.5098C193.518 25.3638 195.122 25.2544 196.726 25.1449L203.18 5.18203L203.33 5.03613Z" fill="url(#paint0_linear_1613_38009)"/>
<path fill-rule="evenodd" clip-rule="evenodd" d="M147.927 204.409C147.927 237.364 175.274 264.078 209 264.078C242.689 264.078 269.999 237.328 269.999 204.336C269.999 171.381 242.652 144.667 208.926 144.667C175.236 144.667 147.927 171.418 147.927 204.409Z" fill="url(#paint1_linear_1613_38009)"/>
<path d="M208.999 267.911C173.221 267.911 144.083 239.408 144.046 204.409C144.046 169.374 173.146 140.871 208.962 140.835C244.778 140.835 273.915 169.301 273.953 204.336C273.953 239.371 244.852 267.874 209.037 267.911H208.999ZM208.999 148.535C177.474 148.535 151.881 173.607 151.881 204.446C151.881 235.248 177.511 260.283 208.999 260.283C240.525 260.283 266.118 235.211 266.118 204.373C266.118 173.571 240.487 148.535 208.999 148.535Z" fill="black"/>
<path fill-rule="evenodd" clip-rule="evenodd" d="M164.901 204.409C164.901 228.204 184.637 247.51 209 247.51C233.325 247.51 253.061 228.204 253.023 204.373C253.023 180.578 233.287 161.272 208.925 161.308C184.6 161.308 164.864 180.614 164.901 204.446V204.409Z" fill="#A7A9AC"/>
<path d="M208.999 251.342C182.547 251.342 161.058 230.284 161.021 204.446C161.021 178.571 182.51 157.513 208.961 157.476C235.413 157.476 256.94 178.534 256.94 204.373C256.94 216.89 251.978 228.678 242.912 237.546C233.846 246.415 221.795 251.305 208.999 251.305V251.342ZM208.999 165.14C186.875 165.14 168.855 182.768 168.855 204.409C168.855 226.051 186.875 243.641 208.999 243.641C219.743 243.641 229.817 239.554 237.39 232.109C244.964 224.7 249.142 214.81 249.142 204.336C249.142 182.694 231.122 165.067 208.999 165.067V165.14Z" fill="black"/>
<path fill-rule="evenodd" clip-rule="evenodd" d="M199.04 204.409C199.04 209.773 203.48 214.116 208.964 214.116C214.449 214.116 218.888 209.773 218.888 204.409C218.888 199.044 214.411 194.701 208.927 194.701C203.443 194.701 199.003 199.044 199.003 204.409H199.04Z" fill="url(#paint2_linear_1613_38009)"/>
<path d="M208.963 217.948C201.353 217.948 195.122 211.89 195.122 204.409C195.122 200.796 196.54 197.402 199.151 194.847C201.763 192.292 205.233 190.869 208.926 190.869C216.574 190.869 222.767 196.927 222.767 204.409C222.767 211.89 216.574 217.948 208.926 217.948H208.963ZM208.963 198.533C207.359 198.533 205.83 199.153 204.71 200.248C203.591 201.343 202.957 202.839 202.957 204.409C202.957 207.657 205.643 210.284 208.963 210.284C212.284 210.284 215.007 207.657 215.007 204.409C215.007 201.161 212.321 198.533 209.001 198.533H208.963Z" fill="black"/>
</g>
<defs>
<linearGradient id="paint0_linear_1613_38009" x1="208.833" y1="5.03613" x2="208.833" y2="403.781" gradientUnits="userSpaceOnUse">
<stop stop-color="#5F4E84"/>
<stop offset="0.51449" stop-color="#A98BEA"/>
<stop offset="1" stop-color="#5F4E84"/>
</linearGradient>
<linearGradient id="paint1_linear_1613_38009" x1="208.963" y1="144.667" x2="208.963" y2="264.078" gradientUnits="userSpaceOnUse">
<stop stop-color="#5F4E84"/>
<stop offset="0.51449" stop-color="#A98BEA"/>
<stop offset="1" stop-color="#5F4E84"/>
</linearGradient>
<linearGradient id="paint2_linear_1613_38009" x1="208.946" y1="194.701" x2="208.946" y2="214.116" gradientUnits="userSpaceOnUse">
<stop stop-color="#5F4E84"/>
<stop offset="0.51449" stop-color="#A98BEA"/>
<stop offset="1" stop-color="#5F4E84"/>
</linearGradient>
</defs>
</svg>
