<svg width="1504" height="815" viewBox="0 0 1504 815" fill="none" xmlns="http://www.w3.org/2000/svg">
<g opacity="0.5" filter="url(#filter0_f_1330_20428)">
<path d="M1246.83 80.5415L1418.95 249.777V565.005L1246.83 734.24H257.154L85.0312 565.005V249.777L257.154 80.5415H1246.83ZM1269.93 32H234.074L218.346 47.4754L46.2233 216.71L32 230.695V584.129L46.2233 598.114L218.346 767.349L234.074 782.824H1269.93L1285.65 767.349L1457.78 598.114L1472 584.129V230.695L1457.78 216.71L1285.65 47.4754L1269.93 32Z" fill="#D6EEFF"/>
<path d="M1428.74 242.309V562.407L1254.31 734.255H251.337L76.9038 562.407V242.309L251.337 70.4473H1254.31L1428.74 242.309Z" fill="#9AC8ED"/>
<path d="M1418.94 249.791V565.02L1246.82 734.255H257.169L253.71 730.848L230.723 708.259L196.088 674.214L103.551 583.221L85.0464 565.02V249.791L257.169 80.542H1246.82L1323.61 156.059L1358.76 190.602L1384.35 215.774L1418.94 249.791Z" fill="#1799BD"/>
<path d="M511.064 568.484C499.385 565.105 490.931 555.067 491.024 543.255C491.102 531.442 499.695 521.405 511.405 518.04L511.452 510.87C495.491 514.42 483.564 527.566 483.455 543.269C483.347 558.971 495.088 572.133 511.002 575.682L511.049 568.498L511.064 568.484Z" fill="#57FFFF"/>
<path d="M529.646 511.083L529.6 518.323C540.798 521.944 548.802 531.754 548.74 543.254C548.662 554.769 540.535 564.579 529.274 568.199L529.227 575.454C544.738 571.607 556.2 558.644 556.293 543.254C556.387 527.864 545.095 514.916 529.646 511.068V511.083Z" fill="#57FFFF"/>
<path d="M535.059 543.254C535.013 550.935 528.172 557.168 519.781 557.168C511.39 557.168 504.643 550.935 504.689 543.254C504.736 535.574 511.591 529.341 519.967 529.341C528.343 529.341 535.106 535.574 535.059 543.254Z" fill="#57FFFF"/>
<path d="M613.451 520.24C624.075 514.661 637.864 515.796 647.31 523.861C656.741 531.925 658.974 544.504 653.732 554.684L659.455 559.582C667.428 546.435 664.946 529.497 652.413 518.778C639.881 508.059 621.345 507.036 607.696 515.328L613.435 520.24H613.451Z" fill="#57FFFF"/>
<path d="M646.954 571.664L641.168 566.723C630.667 571.806 617.359 570.543 608.177 562.691C598.979 554.84 596.621 542.701 601.337 532.678L595.551 527.723C588.137 540.756 590.758 557.268 603.058 567.774C615.358 578.28 633.413 579.444 646.969 571.664H646.954Z" fill="#57FFFF"/>
<path d="M617.437 553.491C611.295 548.252 610.938 539.421 616.615 533.77C622.307 528.12 631.893 527.807 638.019 533.046C644.146 538.285 644.518 547.116 638.826 552.767C633.134 558.403 623.563 558.73 617.421 553.491H617.437Z" fill="#57FFFF"/>
<path d="M1133.09 218.826C1122.08 215.646 1114.12 206.176 1114.2 195.031C1114.28 183.886 1122.37 174.43 1133.42 171.25L1133.46 164.478C1118.42 167.828 1107.17 180.223 1107.06 195.017C1106.96 209.825 1118.03 222.233 1133.04 225.584L1133.09 218.812V218.826Z" fill="#57FFFF"/>
<path d="M1150.62 164.691L1150.57 171.52C1161.13 174.928 1168.69 184.185 1168.61 195.032C1168.53 205.893 1160.87 215.135 1150.26 218.557L1150.21 225.4C1164.83 221.766 1175.65 209.556 1175.75 195.032C1175.84 180.522 1165.18 168.312 1150.63 164.691H1150.62Z" fill="#57FFFF"/>
<path d="M1155.72 195.03C1155.67 202.27 1149.22 208.148 1141.31 208.148C1133.4 208.148 1127.03 202.27 1127.09 195.03C1127.13 187.789 1133.59 181.911 1141.5 181.911C1149.41 181.911 1155.78 187.789 1155.72 195.03Z" fill="#57FFFF"/>
<path d="M1229.64 173.323C1239.66 168.07 1252.66 169.135 1261.57 176.745C1270.47 184.355 1272.56 196.21 1267.63 205.807L1273.03 210.421C1280.54 198.027 1278.21 182.055 1266.39 171.946C1254.57 161.837 1237.11 160.872 1224.23 168.695L1229.64 173.323Z" fill="#57FFFF"/>
<path d="M1261.22 221.821L1255.76 217.164C1245.87 221.963 1233.32 220.77 1224.65 213.359C1215.98 205.948 1213.75 194.519 1218.2 185.064L1212.74 180.393C1205.74 192.688 1208.22 208.248 1219.81 218.158C1231.4 228.054 1248.43 229.161 1261.21 221.835L1261.22 221.821Z" fill="#57FFFF"/>
<path d="M1233.4 204.685C1227.61 199.744 1227.27 191.41 1232.62 186.1C1237.99 180.776 1247.02 180.478 1252.8 185.419C1258.59 190.359 1258.93 198.693 1253.56 204.003C1248.2 209.327 1239.17 209.626 1233.38 204.685H1233.4Z" fill="#57FFFF"/>
<path d="M408.616 491.448H268.073L268.12 483.866H408.647L408.616 491.448Z" fill="#57FFFF"/>
<path d="M408.539 509.522H267.965L268.011 501.94H408.57L408.539 509.522Z" fill="#57FFFF"/>
<path d="M408.476 527.609H267.856L267.903 520.014H408.507L408.476 527.609Z" fill="#57FFFF"/>
<path d="M928.07 607.158H720.319L720.397 597.973H928.117L928.07 607.158Z" fill="#57FFFF"/>
<path d="M927.961 629.023H720.164L720.226 619.837H928.008L927.961 629.023Z" fill="#57FFFF"/>
<path d="M927.853 650.902H720.009L720.071 641.716H927.899L927.853 650.902Z" fill="#57FFFF"/>
<path d="M662.588 402.968H475.87L475.932 391.639H662.635L662.588 402.968Z" fill="#57FFFF"/>
<path d="M662.495 429.973H475.731L475.793 418.629H662.542L662.495 429.973Z" fill="#57FFFF"/>
<path d="M603.446 456.977H475.591L475.622 445.633H603.461L603.446 456.977Z" fill="#57FFFF"/>
<path d="M672.825 249.706H475.762L475.839 238.362H672.872L672.825 249.706Z" fill="#57FFFF"/>
<path d="M672.701 276.695H475.591L475.653 265.352H672.763L672.701 276.695Z" fill="#57FFFF"/>
<path d="M428.299 585.039H191.466L191.543 573.709H428.361L428.299 585.039Z" fill="#57FFFF"/>
<path d="M428.19 612.028H191.28L191.357 600.698H428.237L428.19 612.028Z" fill="#57FFFF"/>
<path d="M1306.42 477.349H1066.92L1067 468.178H1306.48L1306.42 477.349Z" fill="#57FFFF"/>
<path d="M1186.68 499.228H1066.74L1066.78 490.028H1186.7L1186.68 499.228Z" fill="#57FFFF"/>
<path d="M1306.19 521.107H1066.56L1066.63 511.907H1306.24L1306.19 521.107Z" fill="#57FFFF"/>
<path d="M952.654 468.177H903.625C900.926 468.177 898.708 466.161 898.708 463.676V461.49C898.677 459.005 900.864 456.989 903.578 456.989H952.592C955.291 456.989 957.509 459.005 957.525 461.49V463.676C957.556 466.161 955.369 468.177 952.67 468.177H952.654Z" fill="#57FFFF"/>
<path d="M894.024 418.102C830.523 418.102 778.671 370.697 778.454 312.487C778.236 254.376 829.592 207.141 892.938 207.141C956.284 207.141 1008.12 254.362 1008.51 312.487C1008.9 370.682 957.54 418.102 894.039 418.102H894.024ZM892.938 209.426C830.973 209.426 780.718 255.625 780.935 312.487C781.152 369.419 831.872 415.802 893.993 415.802C956.113 415.802 1006.35 369.419 1005.98 312.487C1005.61 255.625 954.888 209.426 892.923 209.426H892.938Z" fill="#57FFFF"/>
<path d="M793.328 300.945C792.692 305.787 792.491 310.727 792.723 315.753C793.949 341.494 806.745 364.309 826.32 380.139L891.511 312.147L793.328 300.945Z" fill="#57FFFF"/>
<path d="M959.65 381.119C979.348 365.573 992.315 342.956 993.711 317.23C994.735 298.632 989.554 281.027 979.845 266.119L894.939 312.162L959.634 381.119H959.65Z" fill="#5CFFDE"/>
<path d="M893.186 313.681L828.863 382.383C846.561 396.367 869.672 404.73 894.815 404.46C918.577 404.204 940.23 396.282 957.059 383.306L893.202 313.695L893.186 313.681Z" fill="#2BCEFF"/>
<path d="M997.372 252.872C988.608 239.74 976.898 228.239 962.829 219.267L893.745 310.614L997.372 252.858V252.872Z" fill="#57FFFF"/>
<path d="M238.045 298.688C207.954 313.908 196.817 348.706 213.243 376.277C224.457 395.089 245.645 405.752 267.546 405.78C268.911 405.78 267.065 398 267.065 398C248.328 397.801 230.274 388.615 220.673 372.515C206.48 348.692 216.097 318.635 242.093 305.488C268.089 292.341 300.77 301.002 314.993 324.797C324.858 341.323 323.261 360.873 312.651 375.695C312.651 375.695 318.406 381.729 318.995 380.948C331.916 363.684 334.072 340.542 322.423 321.035C305.966 293.506 268.135 283.482 238.045 298.688Z" fill="#57FFFF"/>
<path d="M309.751 330.66C306.711 324.499 302.228 319.345 296.861 315.384L291.479 321.404C295.884 324.655 299.545 328.871 302.042 333.897C310.573 351.162 302.197 371.663 283.336 379.585C264.475 387.507 242.202 379.898 233.671 362.619C230.646 356.486 229.746 349.941 230.708 343.708L222.425 342.047C221.091 349.884 222.146 358.147 225.946 365.87C236.401 387.053 263.715 396.381 286.826 386.67C309.937 376.959 320.221 351.843 309.751 330.675V330.66Z" fill="#57FFFF"/>
<path d="M259.977 366.709C256.022 365.388 252.439 363.046 249.724 359.738C242.217 350.58 244.265 337.504 254.253 330.576C264.258 323.647 278.497 325.45 285.988 334.594C288.827 338.058 290.3 342.076 290.502 346.122L298.986 346.633C298.909 340.784 296.877 334.906 292.767 329.894C282.467 317.329 262.908 314.859 249.181 324.371C235.439 333.884 232.647 351.858 242.946 364.423C246.7 368.994 251.663 372.231 257.138 374.035L259.977 366.694V366.709Z" fill="#57FFFF"/>
<path d="M275.224 346.705C275.208 350.439 271.905 353.449 267.841 353.449C263.777 353.449 260.504 350.425 260.52 346.705C260.535 342.971 263.855 339.961 267.903 339.961C271.951 339.961 275.24 342.985 275.224 346.705Z" fill="#57FFFF"/>
<path d="M311.782 341.564L309.533 339.619L342.431 307.845H412.912V310.67H343.75L311.782 341.564Z" fill="#57FFFF"/>
<path d="M942.898 330.405L941.332 327.963L1047.27 271.301H1135.36V274.14H1048.11L942.898 330.405Z" fill="#57FFFF"/>
<path d="M412.912 407.199H312.775L266.6 347.527L269.128 345.88L314.373 404.374H412.912V407.199Z" fill="#57FFFF"/>
<path d="M860.955 272.18L790.722 225.797H709.803V222.957H791.715L792.118 223.227L862.754 269.894L860.955 272.18Z" fill="#57FFFF"/>
<path d="M383.767 462.315H295.077L258.193 402.345L260.876 400.953L296.892 459.49H383.767V462.315Z" fill="#57FFFF"/>
<path d="M285.399 297.282L283.413 295.11L328.363 260.737H412.912V263.577H329.48L285.399 297.282Z" fill="#57FFFF"/>
<path d="M358.19 383.844H415.999L415.937 375.099H358.128L358.19 383.844Z" fill="#57FFFF"/>
<path d="M358.066 365.316H415.859L415.797 356.585H358.02L358.066 365.316Z" fill="#57FFFF"/>
<path d="M357.958 346.803H415.735L415.673 338.071H357.896L357.958 346.803Z" fill="#57FFFF"/>
<path d="M360.719 297.196H415.735L415.673 288.891H360.657L360.719 297.196Z" fill="#57FFFF"/>
<path d="M383.923 450.928H313.845L313.892 440.337H383.969L383.923 450.928Z" fill="#57FFFF"/>
<path d="M1218.15 409.628H1132.53L1132.44 399.292H1218.06L1218.15 409.628Z" fill="#57FFFF"/>
<path d="M1218 393.514H1132.38L1132.28 383.178H1217.89L1218 393.514Z" fill="#57FFFF"/>
<path d="M1217.83 377.399H1132.24L1132.13 367.077H1217.72L1217.83 377.399Z" fill="#57FFFF"/>
<path d="M1217.66 361.299H1132.08L1131.97 350.978H1217.56L1217.66 361.299Z" fill="#57FFFF"/>
<path d="M1217.5 345.199H1131.93L1131.83 334.877H1217.39L1217.5 345.199Z" fill="#57FFFF"/>
<path d="M1217.33 329.098H1131.77L1131.68 318.776H1217.22L1217.33 329.098Z" fill="#57FFFF"/>
<path d="M780.594 214.708H710.718L710.687 204.174H780.548L780.594 214.708Z" fill="#57FFFF"/>
<path d="M1033.5 425.941H957.897L912.761 374.304L915.165 372.529L959.386 423.115H1033.5V425.941Z" fill="#57FFFF"/>
<path d="M1033.36 404.332H978.542L978.619 414.923H1033.43L1033.36 404.332Z" fill="#57FFFF"/>
<path d="M403.59 239.384H224.069L224.131 228.821H403.621L403.59 239.384Z" fill="#57FFFF"/>
<path d="M968.336 235.962L966.351 233.804L1011.3 199.432H1078.71V202.257H1012.42L968.336 235.962Z" fill="#57FFFF"/>
<path d="M988.438 168.566H808.917L808.979 158.003H988.469L988.438 168.566Z" fill="#57FFFF"/>
<path d="M988.438 139.703H808.917L808.979 129.14H988.469L988.438 139.703Z" fill="#57FFFF"/>
<path d="M586.85 640.182H449.75L449.797 629.562H586.881L586.85 640.182Z" fill="#57FFFF"/>
<path d="M209.07 504.027V527.595L234.647 527.936V504.368L209.07 504.027Z" fill="#57FFFF"/>
<path d="M209.07 468.49V492.058L234.647 492.399V468.845L209.07 468.49Z" fill="#57FFFF"/>
<path d="M1125.2 652.378H974.524V650.035H1125.18L1125.2 652.378Z" fill="#57FFFF"/>
<path d="M1056.36 646.5H1042.49L1042.23 576.108H1056.08L1056.36 646.5Z" fill="#57FFFF"/>
<path d="M987.554 646.5H974.509L974.354 595.53H987.383L987.554 646.5Z" fill="#57FFFF"/>
<path d="M1021.96 646.5H1008.91L1008.79 611.929H1021.83L1021.96 646.5Z" fill="#57FFFF"/>
<path d="M1073.14 646.5H1060.11L1059.97 611.929H1073L1073.14 646.5Z" fill="#57FFFF"/>
<path d="M1038.74 646.5H1025.69L1025.62 623.301H1038.66L1038.74 646.5Z" fill="#57FFFF"/>
<path d="M1125.16 646.5H1112.14L1112.07 635.014H1125.12L1125.16 646.5Z" fill="#57FFFF"/>
<path d="M1005.17 646.499H991.291L991.028 563.784H1004.89L1005.17 646.499Z" fill="#57FFFF"/>
<path d="M1090.76 646.5H1076.9L1076.66 589.639H1090.53L1090.76 646.5Z" fill="#57FFFF"/>
<path d="M1108.38 646.5H1094.52L1094.31 600.528H1108.18L1108.38 646.5Z" fill="#57FFFF"/>
<path d="M653.891 368.274H467.918V366.244H653.876L653.891 368.274Z" fill="#57FFFF"/>
<path d="M568.924 363.206H551.8L551.474 302.597H568.582L568.924 363.206Z" fill="#57FFFF"/>
<path d="M484.002 363.207H467.902L467.701 319.322H483.801L484.002 363.207Z" fill="#57FFFF"/>
<path d="M526.455 363.207H510.371L510.216 333.435H526.316L526.455 363.207Z" fill="#57FFFF"/>
<path d="M589.646 363.207H573.546L573.375 333.435H589.475L589.646 363.207Z" fill="#57FFFF"/>
<path d="M547.178 363.206H531.077L530.984 343.23H547.069L547.178 363.206Z" fill="#57FFFF"/>
<path d="M653.86 363.207H637.76L637.698 353.325H653.783L653.86 363.207Z" fill="#57FFFF"/>
<path d="M505.748 363.207H488.625L488.283 291.992H505.392L505.748 363.207Z" fill="#57FFFF"/>
<path d="M611.392 363.208H594.268L593.973 314.24H611.097L611.392 363.208Z" fill="#57FFFF"/>
<path d="M633.138 363.207H616.014L615.766 323.624H632.89L633.138 363.207Z" fill="#57FFFF"/>
<path d="M1264.34 325.961C1249.3 325.961 1237.07 337.149 1237.03 350.963C1236.98 364.777 1249.14 375.979 1264.19 375.979C1279.23 375.979 1291.47 364.777 1291.5 350.963C1291.55 337.149 1279.39 325.961 1264.34 325.961ZM1264.22 367.901C1254.03 367.901 1245.81 360.319 1245.84 350.963C1245.87 341.607 1254.15 334.039 1264.33 334.039C1274.5 334.039 1282.74 341.621 1282.71 350.963C1282.68 360.319 1274.39 367.901 1264.22 367.901Z" fill="#57FFFF"/>
<path d="M751.341 384.611C736.295 384.611 724.073 395.799 724.026 409.613C723.98 423.427 736.14 434.629 751.186 434.629C766.231 434.629 778.469 423.427 778.5 409.613C778.531 395.799 766.386 384.611 751.341 384.611ZM751.217 426.551C741.026 426.551 732.805 418.969 732.836 409.613C732.867 400.257 741.15 392.69 751.325 392.69C761.5 392.69 769.736 400.271 769.705 409.613C769.674 418.969 761.392 426.551 751.217 426.551Z" fill="#57FFFF"/>
<path d="M227.171 420.814C217.353 420.814 209.38 428.112 209.349 437.127C209.318 446.143 217.26 453.455 227.078 453.455C236.896 453.455 244.885 446.143 244.9 437.127C244.931 428.112 236.99 420.814 227.171 420.814ZM227.078 448.187C220.424 448.187 215.057 443.232 215.073 437.142C215.088 431.037 220.502 426.096 227.14 426.096C233.779 426.096 239.161 431.037 239.146 437.142C239.13 443.247 233.732 448.187 227.078 448.187Z" fill="#57FFFF"/>
<path d="M857.016 540.671H787.047V551.234H857.016V540.671Z" fill="#57FFFF"/>
<path d="M857 524.059H787.047V534.622H857V524.059Z" fill="#57FFFF"/>
<path d="M843.211 507.448H800.851V518.011H843.211V507.448Z" fill="#57FFFF"/>
<path d="M1239.04 576.106H1155.67V629.205H1239.04V576.106Z" fill="#57FFFF"/>
<path d="M555.084 138.241H511.917V177.753H555.084V138.241Z" fill="#57FFFF"/>
<path d="M635.507 138.241H592.34V177.753H635.507V138.241Z" fill="#57FFFF"/>
<path d="M715.945 138.241H672.779V177.753H715.945V138.241Z" fill="#57FFFF"/>
<path d="M930.164 577.997H713.883V488.154H930.164V577.997ZM718.008 574.22H926.038V491.917H718.008V574.22Z" fill="#57FFFF"/>
<path d="M1326.29 426.182H1110.01V295.664H1326.29V426.182ZM1114.14 422.406H1322.17V299.441H1114.14V422.406Z" fill="#57FFFF"/>
<path d="M443.624 553.704H177.692V196.72H443.639V553.689L443.624 553.704ZM181.803 549.927H439.498V200.496H181.818V549.927H181.803Z" fill="#57FFFF"/>
<path d="M861.855 234.884L891.511 294.159L898.693 230.979C898.693 230.979 878.203 227.302 861.855 234.884Z" fill="#57FFFF"/>
<path d="M276.542 158.004C276.542 162.164 272.85 165.543 268.306 165.543C263.761 165.543 260.07 162.164 260.07 158.004C260.07 153.844 263.761 150.465 268.306 150.465C272.85 150.465 276.542 153.844 276.542 158.004Z" fill="#57FFFF"/>
<path d="M316.839 158.004C316.839 162.164 313.147 165.543 308.603 165.543C304.058 165.543 300.366 162.164 300.366 158.004C300.366 153.844 304.058 150.465 308.603 150.465C313.147 150.465 316.839 153.844 316.839 158.004Z" fill="#57FFFF"/>
<path d="M397.432 158.004C397.432 162.164 393.741 165.543 389.196 165.543C384.652 165.543 380.96 162.164 380.96 158.004C380.96 153.844 384.652 150.465 389.196 150.465C393.741 150.465 397.432 153.844 397.432 158.004Z" fill="#57FFFF"/>
<path d="M437.729 158.004C437.729 162.164 434.038 165.543 429.493 165.543C424.948 165.543 421.257 162.164 421.257 158.004C421.257 153.844 424.948 150.465 429.493 150.465C434.038 150.465 437.729 153.844 437.729 158.004Z" fill="#57FFFF"/>
<path d="M357.135 158.004C357.135 162.164 353.444 165.543 348.899 165.543C344.355 165.543 340.663 162.164 340.663 158.004C340.663 153.844 344.355 150.465 348.899 150.465C353.444 150.465 357.135 153.844 357.135 158.004Z" fill="#57FFFF"/>
<path d="M221.463 56.5483C205.053 69.3403 191.062 84.8867 176.358 99.3114C162.057 113.353 147.71 127.38 133.347 141.365C118.969 155.363 104.637 169.391 90.3667 183.46C75.9728 197.644 59.9657 211.401 48.5033 227.7C46.7351 230.213 50.3491 233.734 53.1255 231.931C70.3734 220.729 84.6123 205.523 99.3009 191.638C114.129 177.625 128.849 163.513 143.46 149.301C158.071 135.089 172.651 120.863 187.2 106.595C201.811 92.2694 217.415 78.441 230.01 62.5681C233.856 57.7267 225.868 53.1267 221.479 56.5483H221.463Z" fill="#EBF7FF"/>
<path d="M54.9715 499.668C54.6923 479.294 54.4907 458.921 54.3511 438.533C54.0564 397.473 54.5062 356.386 54.0254 315.326C53.7617 292.17 54.1029 268.787 51.7763 245.73C51.4971 242.933 47.4178 242.99 47.061 245.73C44.3932 266.245 44.0209 287.13 43.447 307.802C42.8887 328.175 42.718 348.549 42.6405 368.936C42.5009 410.01 42.6405 451.069 43.0438 492.143C43.1523 503.43 43.2919 514.717 43.4315 526.004C43.5866 537.816 43.5711 549.203 46.1614 560.817C46.9214 564.181 53.0792 564.309 53.7307 560.817C57.4377 540.812 55.2197 519.913 54.9405 499.682L54.9715 499.668Z" fill="#EBF7FF"/>
<path d="M977.425 42.5485C954.423 38.6867 931.064 39.3398 907.782 39.2688C884.144 39.1978 860.521 39.1552 836.882 39.1268C789.962 39.0701 743.043 39.0843 696.123 39.1694C602.283 39.3398 508.427 39.6096 414.603 40.6176C388.235 40.9015 361.867 41.1997 335.498 41.5404C322.485 41.6966 309.471 41.9522 296.458 42.3355C283.119 42.7188 269.81 42.9318 256.704 45.4448C254.207 45.9275 254.129 49.704 256.704 50.13C279.319 53.9207 303.329 52.6003 326.254 52.4442C349.877 52.2738 373.515 52.1176 397.153 51.9898C444.073 51.7201 490.993 51.3794 537.913 51.138C631.753 50.6411 725.593 50.4423 819.448 50.5275C845.817 50.5559 872.2 50.5985 898.569 50.6695C924.844 50.7405 951.46 52.0466 977.456 47.9151C980.357 47.4608 980.326 43.0738 977.456 42.5911L977.425 42.5485Z" fill="#EBF7FF"/>
<path d="M1206.25 40.2354C1198.38 38.1626 1188.9 39.5114 1180.76 39.5965C1171.85 39.6959 1162.96 39.8521 1154.06 40.0225C1135.91 40.349 1117.78 40.633 1099.63 40.7465C1081.83 40.8601 1064.04 40.7749 1046.23 40.6188C1037.33 40.5336 1028.44 40.5478 1019.54 40.4484C1011.04 40.3632 1001.53 39.2132 993.37 41.6978C991.493 42.2657 991.71 44.3669 993.37 45.0058C1001.05 47.9447 1010.29 47.4336 1018.5 47.7743C1027.39 48.1577 1036.29 48.541 1045.19 48.7824C1063.32 49.2793 1081.49 49.4497 1099.62 49.5206C1117.42 49.6058 1135.22 49.5064 1153.02 49.1373C1161.93 48.9527 1170.81 48.6972 1179.72 48.2855C1188.11 47.8879 1198.31 48.6972 1206.24 45.9712C1209.14 44.9774 1209.51 41.0731 1206.24 40.2212L1206.25 40.2354Z" fill="#EBF7FF"/>
<path d="M1440.59 568.072C1432.82 572.317 1426.6 578.549 1420.27 584.427C1414.05 590.206 1407.86 596.041 1401.66 601.848C1389.02 613.688 1376.39 625.543 1363.86 637.469C1351.33 649.409 1338.79 661.335 1326.26 673.276C1320.12 679.125 1313.96 684.989 1307.82 690.838C1301.66 696.702 1294.26 702.807 1290.12 710.076C1288.76 712.475 1291.55 715.286 1294.25 713.852C1302.02 709.749 1308.32 702.778 1314.44 696.9C1320.57 691.023 1326.68 685.145 1332.81 679.267C1345.28 667.284 1357.76 655.301 1370.25 643.305C1382.74 631.322 1395.11 619.254 1407.49 607.172C1413.56 601.237 1419.65 595.331 1425.7 589.382C1431.86 583.334 1438.45 577.328 1442.75 570.017C1443.48 568.781 1441.99 567.291 1440.61 568.057L1440.59 568.072Z" fill="#EBF7FF"/>
<path d="M229.188 736.227C224.41 728.092 217.182 721.533 210.358 714.818C203.362 707.932 196.351 701.046 189.356 694.174C175.815 680.871 162.181 667.653 148.563 654.435C134.929 641.217 121.404 627.914 107.537 614.909C100.371 608.18 93.2051 601.45 85.8996 594.834C78.9198 588.516 72.1726 582.155 63.7658 577.413C62.4784 576.689 61.1445 578.095 61.7804 579.231C66.3871 587.309 72.9171 593.954 79.3696 600.825C86.0702 607.981 92.9104 615.009 99.7352 622.051C112.935 635.652 126.476 648.969 139.908 662.357C153.34 675.746 166.773 689.148 180.313 702.451C187.309 709.337 194.32 716.223 201.315 723.095C208.14 729.796 214.732 736.71 223.247 741.665C227.063 743.88 231.173 739.578 229.188 736.227Z" fill="#EBF7FF"/>
</g>
<defs>
<filter id="filter0_f_1330_20428" x="0" y="0" width="1504" height="814.824" filterUnits="userSpaceOnUse" color-interpolation-filters="sRGB">
<feFlood flood-opacity="0" result="BackgroundImageFix"/>
<feBlend mode="normal" in="SourceGraphic" in2="BackgroundImageFix" result="shape"/>
<feGaussianBlur stdDeviation="16" result="effect1_foregroundBlur_1330_20428"/>
</filter>
</defs>
</svg>
