<svg width="267" height="264" viewBox="0 0 267 264" fill="none" xmlns="http://www.w3.org/2000/svg">
<path fill-rule="evenodd" clip-rule="evenodd" d="M129.634 111.067L142.403 63.0495C110.544 58.6007 79.7126 76.0415 67.8448 105.204L116.937 118.259C115.069 120.476 113.656 123.122 112.863 126.107C112.069 129.091 111.98 132.089 112.501 134.942L63.4085 121.887C59.2234 153.093 77.3425 183.531 107.18 195.508L119.949 147.49C122.23 149.347 124.943 150.762 127.994 151.573C131.045 152.385 134.103 152.505 137.005 152.025L124.237 200.043C156.095 204.492 186.927 187.051 198.794 157.889L149.702 144.834C151.571 142.617 152.983 139.97 153.776 136.986C154.57 134.002 154.659 131.003 154.138 128.151L203.231 141.205C207.416 110 189.297 79.5616 159.459 67.5851L146.691 115.603C144.41 113.745 141.696 112.331 138.645 111.519C135.594 110.708 132.536 110.588 129.634 111.067ZM150.677 27.2721L170.067 32.4284C169.864 37.7063 169.584 44.311 169.252 52.8847L169.184 54.772C169.184 54.772 169.344 54.834 169.413 54.8715L170.816 53.5894C177.193 47.8164 182.124 43.3338 186.06 39.7801C188.806 41.6652 191.552 43.5503 194.298 45.4354C197.044 47.3205 199.789 49.2056 202.554 51.0955C200.512 55.9615 197.965 62.0598 194.664 69.9594L193.929 71.6888C193.929 71.6888 194.034 71.8128 194.098 71.8683L195.887 71.1316C203.921 67.859 210.142 65.3362 215.086 63.3209C217.008 66.0073 218.949 68.6985 220.891 71.3898C222.813 74.0762 224.754 76.7674 226.695 79.4587C223.088 83.3308 218.531 88.1824 212.67 94.4582L211.353 95.8595L211.457 96.0604L213.406 95.9821C222.126 95.606 228.868 95.3392 234.242 95.1128C235.133 98.2755 236.019 101.456 236.891 104.614C237.782 107.777 238.668 110.957 239.559 114.12C234.809 116.514 228.828 119.543 221.097 123.455L219.412 124.315C219.412 124.315 219.429 124.474 219.423 124.569L221.279 125.139C229.624 127.724 236.077 129.729 241.226 131.31C240.951 134.566 240.693 137.828 240.436 141.09C240.16 144.346 239.903 147.608 239.646 150.87C234.314 151.531 227.622 152.35 218.955 153.414L217.041 153.655C217.041 153.655 217.022 153.727 217.013 153.763C217.003 153.799 216.993 153.835 216.984 153.871L218.544 155.036C225.518 160.26 230.92 164.295 235.219 167.517C233.841 170.48 232.444 173.439 231.047 176.397C229.669 179.361 228.272 182.319 226.87 185.296C221.612 184.129 215.001 182.64 206.474 180.739L204.599 180.317C204.599 180.317 204.505 180.446 204.468 180.513L205.516 182.12C210.284 189.355 213.957 194.932 216.903 199.392C214.559 201.694 212.234 204.002 209.871 206.299C207.527 208.602 205.178 210.922 202.853 213.23C198.301 210.364 192.587 206.766 185.201 202.126L183.566 201.095L183.376 201.217L183.818 203.106C185.788 211.464 187.315 217.933 188.541 223.091C185.538 224.467 182.516 225.839 179.495 227.21C176.473 228.582 173.47 229.959 170.449 231.33C167.159 227.125 163.013 221.846 157.666 215.015L156.492 213.51C156.492 213.51 156.344 213.547 156.256 213.582L156.031 215.466C154.972 223.962 154.153 230.519 153.513 235.739C150.194 236.011 146.874 236.283 143.55 236.573C140.23 236.846 136.911 237.118 133.573 237.385C131.94 232.351 129.868 226.006 127.207 217.81L126.62 216.018C126.62 216.018 126.45 215.992 126.372 215.991L125.49 217.681C121.542 225.274 118.486 231.141 116.041 235.822L96.6501 230.666C96.8531 225.388 97.1199 218.76 97.4651 210.21L97.534 208.322C97.534 208.322 97.3733 208.26 97.3046 208.223L95.9009 209.505C89.5247 215.278 84.5936 219.76 80.6573 223.314C77.9115 221.429 75.1656 219.544 72.4198 217.659C69.6739 215.774 66.9281 213.889 64.1687 211.981C66.2104 207.115 68.757 201.016 72.0581 193.117L72.7934 191.388C72.7934 191.388 72.6655 191.277 72.6247 191.208L70.8348 191.945C62.8012 195.217 56.5991 197.745 51.6366 199.755C49.6955 197.064 47.7728 194.378 45.8318 191.687C43.909 189 41.9679 186.309 40.0269 183.618C43.6345 179.746 48.1914 174.894 54.052 168.618L55.3692 167.217L55.2652 167.016L53.3158 167.094C44.6009 167.452 37.8539 167.737 32.4802 167.964C31.5894 164.801 30.6986 161.638 29.8079 158.475C28.9171 155.313 28.031 152.132 27.1402 148.969C31.8947 146.557 37.8711 143.546 45.6022 139.635L47.2874 138.774C47.2874 138.774 47.2705 138.616 47.2529 138.534L45.3973 137.963C37.0517 135.378 30.5986 133.374 25.4497 131.793C25.7253 128.536 25.9826 125.274 26.2398 122.013C26.5154 118.756 26.7727 115.495 27.03 112.233C32.3618 111.572 39.0541 110.753 47.7205 109.689L49.6346 109.447C49.6346 109.447 49.6538 109.375 49.6633 109.339C49.6729 109.303 49.6824 109.267 49.692 109.231L48.1324 108.066C41.1575 102.843 35.7559 98.8079 31.4567 95.5858C32.8351 92.6223 34.2319 89.6637 35.6287 86.7051C37.0255 83.7465 38.4039 80.7831 39.8055 77.8065C45.0596 78.9919 51.6746 80.4622 60.2017 82.3639L62.0772 82.7857C62.0772 82.7857 62.1754 82.6386 62.2265 82.5944L61.1731 81.0054C56.4059 73.7706 52.7145 68.1886 49.7862 63.7334C52.1303 61.4309 54.4607 59.1056 56.8231 56.808C59.1672 54.5055 61.516 52.185 63.8417 49.8777C68.3932 52.7434 74.1077 56.3418 81.5119 60.9863L83.1466 62.0177L83.3366 61.8949L82.8894 60.0244C80.9201 51.6665 79.3934 45.1972 78.1671 40.0397C81.1886 38.6681 84.1917 37.2915 87.2131 35.9199C90.2346 34.5482 93.2377 33.1717 96.2592 31.8001C99.5493 36.005 103.695 41.2844 109.042 48.1151L110.216 49.6207C110.216 49.6207 110.382 49.5879 110.452 49.5486L110.677 47.6644C111.736 39.1686 112.536 32.6059 113.195 27.3914C116.514 27.1192 119.834 26.8469 123.153 26.5747C126.473 26.3025 129.811 26.0352 133.13 25.763C134.763 30.7976 136.835 37.1423 139.496 45.3379L140.083 47.1299C140.083 47.1299 140.253 47.1559 140.331 47.1575L141.214 45.4673C145.161 37.8743 148.217 32.0076 150.662 27.326L150.677 27.2721Z" fill="url(#paint0_linear_678_5506)"/>
<path d="M236.265 166.101L221.327 154.93L239.841 152.654C240.694 152.553 241.345 151.88 241.414 151.032L243.017 131.459C243.085 130.61 242.544 129.831 241.722 129.594L223.846 124.07L240.373 115.722C241.146 115.331 241.509 114.484 241.291 113.676L235.969 94.6865C235.733 93.873 234.955 93.3197 234.121 93.3481L215.451 94.1389L228.015 80.7141C228.592 80.0977 228.642 79.1679 228.156 78.4804L216.546 62.3426C216.042 61.6501 215.128 61.3878 214.332 61.7152L197.141 68.7123L204.21 51.8246C204.535 51.0449 204.263 50.1448 203.563 49.6699L187.074 38.3365C186.378 37.8436 185.42 37.8966 184.792 38.4804L171.152 50.8489L171.886 32.5462C171.913 31.7063 171.349 30.9404 170.522 30.7205L151.131 25.5642C150.304 25.3442 149.439 25.7109 149.04 26.471L140.586 42.721L134.891 25.2109C134.631 24.4104 133.826 23.8882 132.982 23.9526L113.042 25.599C112.198 25.6634 111.496 26.3044 111.41 27.1476L109.157 45.3159L97.7118 30.7041C97.184 30.0248 96.2603 29.7984 95.4783 30.1487L77.3862 38.3883C76.6227 38.7435 76.2047 39.5755 76.3994 40.3972L80.6168 58.2843L64.8195 48.3474C64.1097 47.9085 63.1461 47.9795 62.5506 48.5911L48.4998 62.4288C47.8906 63.0175 47.7986 63.9555 48.2618 64.6561L58.4593 80.1104L40.2006 76.0251C39.364 75.8411 38.5078 76.2486 38.1504 77.0005L29.82 94.7847C29.4626 95.5366 29.6933 96.4449 30.384 96.9558L45.3218 108.127L26.8082 110.403C25.955 110.503 25.3036 111.177 25.2355 112.025L23.632 131.598C23.5639 132.446 24.1046 133.225 24.927 133.463L42.8031 138.987L26.2715 147.352C25.5215 147.731 25.1355 148.59 25.3718 149.404L30.6934 168.393C30.9297 169.206 31.7075 169.76 32.5416 169.731L51.1881 168.954L38.6431 182.383C38.0659 183 38.0154 183.93 38.5017 184.617L50.1115 200.755C50.6161 201.447 51.5303 201.71 52.3259 201.382L69.5168 194.385L62.4481 211.273C62.1227 212.053 62.395 212.953 63.0952 213.428L79.5839 224.761C80.2842 225.236 81.2381 225.201 81.8656 224.617L95.5061 212.249L94.7718 230.551C94.7452 231.391 95.3091 232.157 96.1362 232.377L115.527 237.533C116.354 237.753 117.219 237.387 117.618 236.626L126.072 220.376L131.767 237.887C132.026 238.687 132.832 239.209 133.676 239.145L153.616 237.499C154.464 237.416 155.161 236.793 155.248 235.95L157.501 217.782L168.946 232.393C169.46 233.05 170.398 233.299 171.161 232.944L189.253 224.704C190.017 224.349 190.435 223.517 190.24 222.695L186.023 204.808L201.82 214.745C202.525 215.202 203.605 214.989 204.214 214.4L218.158 200.669C218.767 200.08 218.859 199.142 218.378 198.437L208.18 182.982L226.439 187.068C227.275 187.251 228.132 186.844 228.489 186.092L236.819 168.308C237.177 167.556 236.946 166.648 236.26 166.119L236.265 166.101ZM225.785 183.236L204.943 178.58C204.235 178.43 203.346 178.886 202.935 179.47C202.501 180.067 202.484 180.871 202.892 181.48L214.534 199.127L202.534 210.95L184.479 199.586C183.875 199.194 182.892 199.337 182.276 199.731C181.654 200.143 181.357 200.892 181.539 201.614L186.372 222.071L170.94 229.112L157.88 212.435C157.425 211.852 156.432 211.665 155.711 211.858C154.991 212.052 154.46 212.642 154.388 213.354L151.825 234.096L134.803 235.499L128.293 215.501C128.065 214.805 127.218 214.291 126.449 214.221C125.717 214.161 125.027 214.536 124.68 215.175L115.025 233.723L98.4829 229.325L99.3159 208.43C99.3458 207.726 98.7084 206.941 98.0618 206.634C97.3648 206.295 96.5668 206.41 96.0183 206.918L80.4353 221.041L66.3583 211.37L74.4312 192.112C74.7048 191.453 74.3821 190.52 73.8712 189.999C73.365 189.461 72.542 189.299 71.8575 189.579L52.2383 197.567L42.3425 183.791L56.6934 168.454C57.2099 167.918 57.2012 166.915 56.8667 166.248C56.5459 165.605 55.8585 165.229 55.1442 165.251L33.8293 166.147L29.2871 149.925L48.1565 140.391C48.8138 140.065 49.1638 139.119 49.1018 138.39C49.0349 137.679 48.5295 137.064 47.8174 136.855L27.4151 130.545L28.7834 113.854L49.9398 111.261C50.6732 111.167 51.3206 110.434 51.507 109.733C51.6935 109.032 51.4196 108.286 50.8297 107.84L33.7743 95.0855L40.877 79.9199L61.7191 84.5767C62.4271 84.7265 63.2977 84.2651 63.7271 83.6863C64.1613 83.0895 64.1967 82.2905 63.7743 81.6585L52.1331 64.0109L64.1328 52.1878L82.1875 63.5526C82.7965 63.9263 83.7744 63.8014 84.3909 63.4071C84.9938 62.99 85.2865 62.2594 85.123 61.5422L80.2853 41.1033L95.7353 34.0667L108.796 50.7443C109.264 51.3501 110.299 51.529 111.024 51.3177C111.708 51.1145 112.197 50.5324 112.282 49.8428L114.846 29.1008L131.868 27.6986L138.377 47.6965C138.592 48.3696 139.439 48.8836 140.166 48.9615C140.912 49.0442 141.639 48.6793 141.972 48.0172L151.628 29.469L168.169 33.8677L167.336 54.762C167.297 55.5022 167.971 56.2974 168.682 56.5828C169.352 56.8764 170.113 56.7516 170.657 56.261L186.217 42.1509L200.294 51.8227L192.221 71.0806C191.952 71.7213 192.257 72.6491 192.749 73.1651C193.269 73.7268 194.092 73.8879 194.795 73.6128L214.414 65.6252L224.31 79.4017L209.954 94.756C209.438 95.2923 209.446 96.2956 209.781 96.962C210.102 97.6055 210.784 97.9988 211.503 97.959L232.818 97.0632L237.36 113.285L218.491 122.819C217.834 123.145 217.465 124.086 217.546 124.82C217.631 125.536 218.118 126.146 218.83 126.355L239.232 132.666L237.864 149.356L216.726 151.954C215.993 152.048 215.327 152.776 215.141 153.477C214.954 154.178 215.228 154.925 215.818 155.37L232.873 168.125L225.77 183.29L225.785 183.236Z" fill="black"/>
<path d="M204.253 142.69C204.684 142.4 204.978 141.959 205.039 141.436C209.353 109.302 190.866 78.2467 160.12 65.9131C159.62 65.7223 159.085 65.7341 158.632 65.96C158.16 66.1809 157.833 66.5946 157.699 67.098L145.6 112.599C141.607 110.074 136.792 108.794 132.072 109.002L144.172 63.5008C144.306 62.9974 144.209 62.4713 143.909 62.0451C143.628 61.6237 143.151 61.3431 142.641 61.2651C109.83 56.6977 78.3594 74.469 66.1423 104.501C65.9581 104.972 65.9713 105.514 66.2017 105.98C66.4322 106.445 66.8759 106.775 67.3721 106.907L113.892 119.277C112.629 121.213 111.692 123.331 111.085 125.614C110.477 127.898 110.244 130.184 110.373 132.509L63.8537 120.139C63.339 120.002 62.8038 120.09 62.3726 120.38C61.9413 120.669 61.6468 121.111 61.5913 121.616C57.2775 153.75 75.7638 184.805 106.51 197.139C106.992 197.325 107.545 197.318 107.998 197.092C108.47 196.871 108.82 196.444 108.949 195.959L121.049 150.458C125.041 152.982 129.857 154.263 134.576 154.055L122.477 199.556C122.343 200.059 122.439 200.585 122.721 201.007C122.98 201.364 123.341 201.634 123.782 201.751C123.856 201.771 123.929 201.79 124.003 201.81C156.814 206.377 188.284 188.606 200.501 158.573C200.686 158.103 200.672 157.56 200.437 157.113C200.207 156.647 199.768 156.3 199.272 156.168L152.752 143.797C154.015 141.862 154.952 139.743 155.559 137.46C156.166 135.177 156.4 132.891 156.271 130.566L202.79 142.936C203.305 143.073 203.84 142.984 204.266 142.713L204.253 142.69ZM154.602 126.407C153.995 126.246 153.363 126.405 152.903 126.802C152.438 127.218 152.239 127.819 152.353 128.427C152.833 131.134 152.724 133.838 152.017 136.499C151.309 139.16 150.06 141.561 148.299 143.672C147.898 144.143 147.786 144.787 147.969 145.355C148.166 145.946 148.641 146.381 149.248 146.542L196.318 159.059C184.46 185.818 156.251 201.761 126.536 198.499L138.779 152.459C138.937 151.865 138.768 151.243 138.358 150.787C137.947 150.332 137.314 150.125 136.695 150.23C131.2 151.136 125.429 149.601 121.128 146.09C120.643 145.692 119.986 145.575 119.408 145.748C118.807 145.935 118.37 146.396 118.212 146.989L105.969 193.03C78.559 181.102 61.995 153.253 64.9944 124.138L112.065 136.655C112.672 136.816 113.304 136.657 113.764 136.259C114.229 135.844 114.428 135.243 114.314 134.635C113.829 131.946 113.943 129.223 114.65 126.563C115.358 123.902 116.606 121.501 118.368 119.39C118.769 118.919 118.876 118.293 118.698 117.707C118.501 117.115 118.026 116.681 117.419 116.52L70.3485 104.003C82.2069 77.2438 110.398 61.2953 140.131 64.5628L127.888 110.603C127.73 111.196 127.899 111.819 128.309 112.274C128.719 112.73 129.353 112.937 129.972 112.832C135.462 111.944 141.233 113.478 145.539 116.971C146.005 117.365 146.681 117.487 147.259 117.313C147.86 117.127 148.297 116.665 148.455 116.072L160.698 70.0319C188.108 81.9596 204.672 109.809 201.673 138.924L154.602 126.407Z" fill="black"/>
<path fill-rule="evenodd" clip-rule="evenodd" d="M141.092 102.315C157.579 106.699 167.484 123.326 163.191 139.47C158.898 155.614 142.061 165.13 125.556 160.741C109.051 156.352 99.1687 139.712 103.457 123.586C107.745 107.46 124.606 97.9305 141.092 102.315ZM138.176 113.281C127.884 110.544 117.369 116.487 114.692 126.554C112.015 136.622 118.189 147.002 128.481 149.739C138.774 152.476 149.289 146.533 151.966 136.466C154.643 126.399 148.469 116.018 138.176 113.281Z" fill="url(#paint1_linear_678_5506)"/>
<path d="M138.629 111.573C127.381 108.582 115.847 115.101 112.921 126.103C109.996 137.105 116.768 148.492 128.017 151.483C139.265 154.474 150.799 147.955 153.725 136.953C156.65 125.951 149.878 114.564 138.629 111.573ZM128.935 148.031C119.634 145.558 114.031 136.138 116.45 127.041C118.869 117.945 128.411 112.551 137.712 115.025C147.012 117.498 152.615 126.918 150.196 136.015C147.777 145.111 138.235 150.504 128.935 148.031Z" fill="black"/>
<path d="M141.551 100.589C124.108 95.9503 106.228 106.056 101.692 123.116C97.155 140.177 107.654 157.829 125.096 162.467C142.539 167.105 160.418 157 164.955 139.939C169.492 122.879 158.993 105.227 141.551 100.589ZM126.019 158.997C110.525 154.877 101.195 139.192 105.225 124.037C109.255 108.882 125.139 99.9201 140.633 104.04C156.127 108.16 165.456 123.846 161.431 138.983C157.406 154.12 141.513 163.118 126.019 158.997Z" fill="black"/>
<defs>
<linearGradient id="paint0_linear_678_5506" x1="160.381" y1="29.8527" x2="106.3" y2="233.232" gradientUnits="userSpaceOnUse">
<stop stop-color="#CEA3FE"/>
<stop offset="0.447115" stop-color="#F85F73"/>
<stop offset="1" stop-color="#CEA3FE"/>
</linearGradient>
<linearGradient id="paint1_linear_678_5506" x1="141.092" y1="102.315" x2="125.556" y2="160.741" gradientUnits="userSpaceOnUse">
<stop stop-color="#CEA3FE"/>
<stop offset="1" stop-color="#F85F73"/>
</linearGradient>
</defs>
</svg>
