<svg width="681" height="232" viewBox="0 0 681 232" fill="none" xmlns="http://www.w3.org/2000/svg">
<path d="M45.5205 0.00506514L635.478 0.000308926C660.627 0.000106171 680.998 14.5533 680.998 32.4404L681 199.554C681 217.477 660.579 231.995 635.479 231.995L45.5224 232C20.3729 232 0.00175567 217.447 0.00161125 199.559L0.000261932 32.4459C0.000117218 14.523 20.4213 0.00526749 45.5205 0.00506514Z" fill="black"/>
<path d="M45.5196 6.77974L635.477 6.77498C655.345 6.77482 671.491 18.2812 671.491 32.4404L671.492 199.554C671.492 213.713 655.346 225.22 635.478 225.22L45.5213 225.225C25.6532 225.225 9.50729 213.718 9.50717 199.559L9.50582 32.4457C9.50571 18.2866 25.6515 6.7799 45.5196 6.77974Z" fill="#FCEEA3"/>
<path fill-rule="evenodd" clip-rule="evenodd" d="M187.564 52.1596C178.007 58.9704 162.515 58.9705 152.958 52.1599C143.402 45.3492 143.401 34.3087 152.958 27.4979C162.515 20.6871 178.007 20.687 187.564 27.4976C197.121 34.3082 197.121 45.3488 187.564 52.1596Z" fill="black"/>
<path fill-rule="evenodd" clip-rule="evenodd" d="M415.118 52.1578C405.561 58.9686 390.069 58.9687 380.512 52.158C370.955 45.3474 370.955 34.3068 380.512 27.496C390.068 20.6852 405.561 20.6851 415.117 27.4958C424.674 34.3064 424.674 45.347 415.118 52.1578Z" fill="black"/>
<path fill-rule="evenodd" clip-rule="evenodd" d="M642.519 52.1203C632.963 58.9311 617.471 58.9312 607.914 52.1206C598.357 45.3099 598.357 34.2694 607.914 27.4586C617.47 20.6478 632.962 20.6476 642.519 27.4583C652.076 34.2689 652.076 45.3095 642.519 52.1203Z" fill="black"/>
<path fill-rule="evenodd" clip-rule="evenodd" d="M636.232 47.6396C630.146 51.977 620.237 51.9771 614.15 47.6398C608.064 43.3025 608.064 36.2408 614.15 31.9034C620.236 27.566 630.145 27.5659 636.232 31.9032C642.318 36.2405 642.318 43.3022 636.232 47.6396Z" fill="#A7A9AC"/>
<path fill-rule="evenodd" clip-rule="evenodd" d="M632.308 44.8435C627.379 48.3564 619.331 48.3565 614.402 44.8436C609.472 41.3308 609.472 35.5953 614.402 32.0824C619.331 28.5695 627.379 28.5694 632.308 32.0823C637.237 35.5951 637.237 41.3306 632.308 44.8435Z" fill="#D1D3D4"/>
<path fill-rule="evenodd" clip-rule="evenodd" d="M642.52 133.168C632.963 139.979 617.471 139.979 607.914 133.168C598.358 126.357 598.357 115.317 607.914 108.506C617.471 101.695 632.963 101.695 642.52 108.506C652.077 115.316 652.077 126.357 642.52 133.168Z" fill="black"/>
<path fill-rule="evenodd" clip-rule="evenodd" d="M636.233 128.723C630.146 133.06 620.237 133.06 614.151 128.723C608.065 124.386 608.065 117.324 614.151 112.986C620.237 108.649 630.146 108.649 636.232 112.986C642.319 117.324 642.319 124.385 636.233 128.723Z" fill="#A7A9AC"/>
<path fill-rule="evenodd" clip-rule="evenodd" d="M632.309 125.927C627.38 129.44 619.332 129.44 614.402 125.927C609.473 122.414 609.473 116.679 614.402 113.166C619.332 109.653 627.379 109.653 632.309 113.166C637.238 116.679 637.238 122.414 632.309 125.927Z" fill="#D1D3D4"/>
<path fill-rule="evenodd" clip-rule="evenodd" d="M73.789 52.1605C64.2322 58.9713 48.7401 58.9714 39.1832 52.1608C29.6264 45.3501 29.6263 34.3096 39.183 27.4988C48.7398 20.688 64.2319 20.6879 73.7888 27.4985C83.3456 34.3092 83.3457 45.3497 73.789 52.1605Z" fill="black"/>
<path fill-rule="evenodd" clip-rule="evenodd" d="M67.5529 47.7157C73.639 43.3783 73.6389 36.3166 67.5527 31.9793C61.4665 27.642 51.5575 27.6421 45.4714 31.9795C39.3853 36.3169 39.3853 43.3786 45.4715 47.7159C51.5577 52.0532 61.4667 52.0531 67.5529 47.7157Z" fill="#A7A9AC"/>
<path fill-rule="evenodd" clip-rule="evenodd" d="M63.6276 44.9198C68.5569 41.4069 68.5568 35.6715 63.6275 32.1587C58.6981 28.6458 50.6503 28.6459 45.721 32.1588C40.7918 35.6718 40.7918 41.4071 45.7211 44.9199C50.6505 48.4328 58.6983 48.4327 63.6276 44.9198Z" fill="#D1D3D4"/>
<path fill-rule="evenodd" clip-rule="evenodd" d="M181.328 47.7148C187.414 43.3774 187.414 36.3157 181.328 31.9784C175.242 27.6411 165.333 27.6412 159.247 31.9786C153.16 36.316 153.16 43.3777 159.247 47.715C165.333 52.0523 175.242 52.0522 181.328 47.7148Z" fill="#A7A9AC"/>
<path fill-rule="evenodd" clip-rule="evenodd" d="M177.404 44.9189C182.334 41.4059 182.334 35.6706 177.404 32.1578C172.475 28.6449 164.427 28.645 159.498 32.1579C154.569 35.6708 154.569 41.4062 159.498 44.919C164.427 48.4319 172.475 48.4318 177.404 44.9189Z" fill="#D1D3D4"/>
<path fill-rule="evenodd" clip-rule="evenodd" d="M301.341 52.1587C291.784 58.9695 276.292 58.9696 266.735 52.159C257.178 45.3483 257.178 34.3078 266.735 27.497C276.292 20.6862 291.784 20.686 301.34 27.4967C310.897 34.3073 310.897 45.3479 301.341 52.1587Z" fill="black"/>
<path fill-rule="evenodd" clip-rule="evenodd" d="M295.055 47.7139C301.141 43.3765 301.141 36.3148 295.054 31.9775C288.968 27.6402 279.059 27.6402 272.973 31.9776C266.887 36.3151 266.887 43.3767 272.973 47.7141C279.06 52.0514 288.968 52.0513 295.055 47.7139Z" fill="#A7A9AC"/>
<path fill-rule="evenodd" clip-rule="evenodd" d="M291.131 44.918C296.06 41.405 296.06 35.6697 291.131 32.1568C286.202 28.644 278.154 28.644 273.225 32.157C268.295 35.6699 268.295 41.4053 273.225 44.9181C278.154 48.431 286.202 48.4309 291.131 44.918Z" fill="#D1D3D4"/>
<path fill-rule="evenodd" clip-rule="evenodd" d="M408.832 47.713C414.918 43.3756 414.918 36.3139 408.832 31.9766C402.745 27.6393 392.836 27.6393 386.75 31.9767C380.664 36.3141 380.664 43.3758 386.75 47.7131C392.837 52.0504 402.746 52.0504 408.832 47.713Z" fill="#A7A9AC"/>
<path fill-rule="evenodd" clip-rule="evenodd" d="M404.906 44.9171C409.836 41.4041 409.835 35.6688 404.906 32.1559C399.977 28.6431 391.929 28.6431 387 32.1561C382.07 35.669 382.071 41.4043 387 44.9172C391.929 48.4301 399.977 48.43 404.906 44.9171Z" fill="#D1D3D4"/>
<path fill-rule="evenodd" clip-rule="evenodd" d="M528.894 52.1568C519.338 58.9676 503.846 58.9678 494.289 52.1571C484.732 45.3465 484.732 34.3059 494.289 27.4951C503.845 20.6843 519.337 20.6842 528.894 27.4948C538.451 34.3055 538.451 45.346 528.894 52.1568Z" fill="black"/>
<path fill-rule="evenodd" clip-rule="evenodd" d="M522.607 47.712C528.693 43.3746 528.693 36.3129 522.607 31.9756C516.52 27.6383 506.611 27.6384 500.525 31.9758C494.439 36.3132 494.439 43.3749 500.525 47.7122C506.612 52.0495 516.521 52.0494 522.607 47.712Z" fill="#A7A9AC"/>
<path fill-rule="evenodd" clip-rule="evenodd" d="M518.683 44.9161C523.612 41.4032 523.612 35.6679 518.683 32.155C513.753 28.6421 505.706 28.6422 500.776 32.1552C495.847 35.6681 495.847 41.4034 500.776 44.9163C505.706 48.4291 513.754 48.4291 518.683 44.9161Z" fill="#D1D3D4"/>
<path fill-rule="evenodd" clip-rule="evenodd" d="M73.7897 133.172C64.2329 139.983 48.7408 139.983 39.184 133.173C29.6271 126.362 29.627 115.321 39.1838 108.511C48.7405 101.7 64.2326 101.7 73.7895 108.51C83.3463 115.321 83.3464 126.362 73.7897 133.172Z" fill="black"/>
<path fill-rule="evenodd" clip-rule="evenodd" d="M67.5536 128.727C61.4674 133.065 51.5585 133.065 45.4723 128.727C39.386 124.39 39.386 117.328 45.4721 112.991C51.5583 108.654 61.4672 108.654 67.5535 112.991C73.6397 117.328 73.6397 124.39 67.5536 128.727Z" fill="#A7A9AC"/>
<path fill-rule="evenodd" clip-rule="evenodd" d="M63.6282 125.932C58.6989 129.445 50.6511 129.445 45.7218 125.932C40.7924 122.419 40.7924 116.684 45.7217 113.171C50.6509 109.658 58.6988 109.658 63.6281 113.171C68.5574 116.683 68.5575 122.419 63.6282 125.932Z" fill="#D1D3D4"/>
<path fill-rule="evenodd" clip-rule="evenodd" d="M642.521 211.85C632.964 218.66 617.472 218.66 607.915 211.85C598.358 205.039 598.358 193.999 607.915 187.188C617.472 180.377 632.964 180.377 642.521 187.188C652.078 193.998 652.078 205.039 642.521 211.85Z" fill="black"/>
<path fill-rule="evenodd" clip-rule="evenodd" d="M636.233 207.369C630.147 211.706 620.238 211.706 614.152 207.369C608.066 203.032 608.066 195.97 614.152 191.632C620.238 187.295 630.147 187.295 636.233 191.632C642.319 195.97 642.319 203.031 636.233 207.369Z" fill="#A7A9AC"/>
<path fill-rule="evenodd" clip-rule="evenodd" d="M632.31 204.573C627.38 208.086 619.332 208.086 614.403 204.573C609.474 201.06 609.474 195.325 614.403 191.812C619.332 188.299 627.38 188.299 632.31 191.812C637.239 195.325 637.239 201.06 632.31 204.573Z" fill="#D1D3D4"/>
<path fill-rule="evenodd" clip-rule="evenodd" d="M73.7903 211.854C64.2335 218.665 48.7414 218.665 39.1846 211.854C29.6277 205.044 29.6276 194.003 39.1844 187.192C48.7411 180.382 64.2332 180.381 73.7901 187.192C83.347 194.003 83.347 205.043 73.7903 211.854Z" fill="black"/>
<path fill-rule="evenodd" clip-rule="evenodd" d="M67.5542 207.373C73.6403 203.036 73.6403 195.974 67.5541 191.637C61.4679 187.3 51.5589 187.3 45.4727 191.637C39.3866 195.975 39.3867 203.036 45.4729 207.374C51.5591 211.711 61.4681 211.711 67.5542 207.373Z" fill="#A7A9AC"/>
<path fill-rule="evenodd" clip-rule="evenodd" d="M63.6289 204.578C68.5582 201.065 68.5581 195.329 63.6288 191.817C58.6995 188.304 50.6517 188.304 45.7224 191.817C40.7931 195.33 40.7932 201.065 45.7225 204.578C50.6518 208.091 58.6996 208.091 63.6289 204.578Z" fill="#D1D3D4"/>
<path fill-rule="evenodd" clip-rule="evenodd" d="M187.565 211.853C178.009 218.664 162.516 218.664 152.96 211.853C143.403 205.043 143.403 194.002 152.959 187.191C162.516 180.381 178.008 180.381 187.565 187.191C197.122 194.002 197.122 205.042 187.565 211.853Z" fill="black"/>
<path fill-rule="evenodd" clip-rule="evenodd" d="M181.279 207.372C187.365 203.035 187.365 195.973 181.279 191.636C175.193 187.299 165.284 187.299 159.198 191.636C153.112 195.974 153.112 203.035 159.198 207.373C165.284 211.71 175.193 211.71 181.279 207.372Z" fill="#A7A9AC"/>
<path fill-rule="evenodd" clip-rule="evenodd" d="M177.406 204.577C182.335 201.064 182.335 195.329 177.405 191.816C172.476 188.303 164.428 188.303 159.499 191.816C154.57 195.329 154.57 201.064 159.499 204.577C164.428 208.09 172.476 208.09 177.406 204.577Z" fill="#D1D3D4"/>
<path fill-rule="evenodd" clip-rule="evenodd" d="M301.342 211.852C291.785 218.663 276.293 218.663 266.736 211.853C257.18 205.042 257.179 194.001 266.736 187.191C276.293 180.38 291.785 180.38 301.342 187.19C310.899 194.001 310.899 205.041 301.342 211.852Z" fill="black"/>
<path fill-rule="evenodd" clip-rule="evenodd" d="M295.056 207.372C301.142 203.034 301.142 195.972 295.056 191.635C288.969 187.298 279.061 187.298 272.975 191.635C266.888 195.973 266.888 203.034 272.975 207.372C279.061 211.709 288.97 211.709 295.056 207.372Z" fill="#A7A9AC"/>
<path fill-rule="evenodd" clip-rule="evenodd" d="M291.132 204.576C296.062 201.063 296.062 195.328 291.132 191.815C286.203 188.302 278.155 188.302 273.226 191.815C268.297 195.328 268.297 201.063 273.226 204.576C278.155 208.089 286.203 208.089 291.132 204.576Z" fill="#D1D3D4"/>
<path fill-rule="evenodd" clip-rule="evenodd" d="M415.119 211.851C405.562 218.662 390.07 218.662 380.513 211.852C370.956 205.041 370.956 194 380.513 187.19C390.07 180.379 405.562 180.379 415.119 187.189C424.675 194 424.676 205.041 415.119 211.851Z" fill="black"/>
<path fill-rule="evenodd" clip-rule="evenodd" d="M408.833 207.371C414.919 203.033 414.919 195.971 408.833 191.634C402.747 187.297 392.838 187.297 386.751 191.634C380.665 195.972 380.665 203.033 386.752 207.371C392.838 211.708 402.747 211.708 408.833 207.371Z" fill="#A7A9AC"/>
<path fill-rule="evenodd" clip-rule="evenodd" d="M404.907 204.575C409.837 201.062 409.837 195.327 404.907 191.814C399.978 188.301 391.93 188.301 387.001 191.814C382.072 195.327 382.072 201.062 387.001 204.575C391.93 208.088 399.978 208.088 404.907 204.575Z" fill="#D1D3D4"/>
<path fill-rule="evenodd" clip-rule="evenodd" d="M528.846 211.85C519.289 218.661 503.797 218.661 494.24 211.851C484.683 205.04 484.683 193.999 494.24 187.189C503.796 180.378 519.289 180.378 528.845 187.188C538.402 193.999 538.402 205.04 528.846 211.85Z" fill="black"/>
<path fill-rule="evenodd" clip-rule="evenodd" d="M522.608 207.37C528.694 203.032 528.694 195.971 522.608 191.633C516.522 187.296 506.613 187.296 500.527 191.633C494.44 195.971 494.44 203.033 500.527 207.37C506.613 211.707 516.522 211.707 522.608 207.37Z" fill="#A7A9AC"/>
<path fill-rule="evenodd" clip-rule="evenodd" d="M518.684 204.574C523.614 201.061 523.614 195.326 518.684 191.813C513.755 188.3 505.707 188.3 500.778 191.813C495.849 195.326 495.849 201.061 500.778 204.574C505.707 208.087 513.755 208.087 518.684 204.574Z" fill="#D1D3D4"/>
<path fill-rule="evenodd" clip-rule="evenodd" d="M518.683 44.9161C523.612 41.4032 523.612 35.6679 518.683 32.155C513.753 28.6421 505.705 28.6422 500.776 32.1551C495.847 35.6681 495.847 41.4034 500.776 44.9163C505.706 48.4291 513.753 48.4291 518.683 44.9161ZM632.308 44.8793C627.379 48.3923 619.331 48.3923 614.402 44.8795C609.473 41.3666 609.472 35.6313 614.402 32.1183C619.331 28.6054 627.379 28.6053 632.308 32.1182C637.237 35.6311 637.238 41.3664 632.308 44.8793ZM632.309 125.963C627.38 129.476 619.332 129.476 614.403 125.963C609.473 122.45 609.473 116.715 614.402 113.202C619.332 109.689 627.379 109.689 632.309 113.202C637.238 116.714 637.238 122.45 632.309 125.963ZM632.31 204.609C627.38 208.122 619.332 208.122 614.403 204.609C609.474 201.096 609.474 195.361 614.403 191.848C619.332 188.335 627.38 188.335 632.309 191.847C637.239 195.36 637.239 201.096 632.31 204.609ZM518.684 204.61C523.613 201.097 523.613 195.361 518.684 191.848C513.755 188.336 505.707 188.336 500.777 191.849C495.848 195.361 495.848 201.097 500.778 204.61C505.707 208.123 513.755 208.122 518.684 204.61ZM404.908 204.61C409.837 201.098 409.837 195.362 404.908 191.849C399.978 188.336 391.931 188.337 387.001 191.849C382.072 195.362 382.072 201.098 387.001 204.611C391.931 208.123 399.978 208.123 404.908 204.61ZM291.131 204.611C296.061 201.098 296.061 195.363 291.131 191.85C286.202 188.337 278.154 188.337 273.225 191.85C268.296 195.363 268.296 201.099 273.225 204.612C278.154 208.124 286.202 208.124 291.131 204.611ZM177.355 204.612C182.284 201.099 182.284 195.364 177.355 191.851C172.426 188.338 164.378 188.338 159.449 191.851C154.519 195.364 154.519 201.1 159.449 204.612C164.378 208.125 172.426 208.125 177.355 204.612ZM63.5789 204.613C68.5082 201.1 68.5082 195.365 63.5788 191.852C58.6495 188.339 50.6017 188.339 45.6724 191.852C40.7431 195.365 40.7432 201.101 45.6725 204.613C50.6018 208.126 58.6497 208.126 63.5789 204.613ZM63.5783 125.967C58.649 129.48 50.6012 129.48 45.6719 125.967C40.7425 122.455 40.7425 116.719 45.6718 113.206C50.601 109.693 58.6489 109.693 63.5782 113.206C68.5075 116.719 68.5076 122.454 63.5783 125.967ZM63.5776 44.9557C68.5069 41.4427 68.5069 35.7074 63.5775 32.1945C58.6482 28.6817 50.6004 28.6817 45.6711 32.1947C40.7418 35.7076 40.7419 41.443 45.6712 44.9558C50.6005 48.4687 58.6484 48.4686 63.5776 44.9557ZM177.354 44.9548C182.283 41.4418 182.283 35.7065 177.354 32.1936C172.424 28.6808 164.377 28.6808 159.447 32.1938C154.518 35.7067 154.518 41.442 159.447 44.9549C164.377 48.4678 172.425 48.4677 177.354 44.9548ZM291.13 44.9538C296.059 41.4409 296.059 35.7056 291.13 32.1927C286.201 28.6798 278.153 28.6799 273.224 32.1929C268.294 35.7058 268.294 41.4411 273.224 44.954C278.153 48.4668 286.201 48.4668 291.13 44.9538ZM404.906 44.9529C409.836 41.44 409.836 35.7046 404.906 32.1918C399.977 28.6789 391.929 28.679 387 32.1919C382.071 35.7049 382.071 41.4402 387 44.9531C391.929 48.4659 399.977 48.4659 404.906 44.9529Z" fill="#D1D3D4"/>
<path fill-rule="evenodd" clip-rule="evenodd" d="M397.613 39.146C400.179 37.3178 400.178 34.3068 397.613 32.4787C395.048 30.6506 390.823 30.6506 388.258 32.4788C385.692 34.3069 385.692 37.3179 388.258 39.146C390.823 40.9742 395.048 40.9741 397.613 39.146Z" fill="#F1F2F2"/>
<path fill-rule="evenodd" clip-rule="evenodd" d="M283.838 39.1469C286.403 37.3187 286.403 34.3077 283.838 32.4796C281.273 30.6515 277.048 30.6515 274.483 32.4797C271.917 34.3078 271.917 37.3188 274.483 39.147C277.048 40.9751 281.273 40.975 283.838 39.1469Z" fill="#F1F2F2"/>
<path fill-rule="evenodd" clip-rule="evenodd" d="M170.061 39.1478C172.627 37.3196 172.626 34.3086 170.061 32.4805C167.496 30.6524 163.271 30.6524 160.706 32.4806C158.14 34.3087 158.14 37.3198 160.706 39.1479C163.271 40.976 167.496 40.976 170.061 39.1478Z" fill="#F1F2F2"/>
<path fill-rule="evenodd" clip-rule="evenodd" d="M56.3362 39.1487C58.9014 37.3205 58.9014 34.3095 56.3361 32.4814C53.7709 30.6533 49.5458 30.6533 46.9806 32.4815C44.4154 34.3097 44.4154 37.3207 46.9806 39.1488C49.5459 40.9769 53.7709 40.9769 56.3362 39.1487Z" fill="#F1F2F2"/>
<path fill-rule="evenodd" clip-rule="evenodd" d="M56.2853 120.196C58.8505 118.368 58.8505 115.357 56.2852 113.529C53.72 111.701 49.4949 111.701 46.9297 113.529C44.3645 115.357 44.3645 118.368 46.9297 120.196C49.495 122.025 53.72 122.025 56.2853 120.196Z" fill="#F1F2F2"/>
<path fill-rule="evenodd" clip-rule="evenodd" d="M56.2859 198.842C58.8511 197.014 58.8511 194.003 56.2858 192.175C53.7206 190.347 49.4955 190.347 46.9303 192.175C44.3651 194.003 44.3651 197.014 46.9303 198.842C49.4956 200.67 53.7207 200.67 56.2859 198.842Z" fill="#F1F2F2"/>
<path fill-rule="evenodd" clip-rule="evenodd" d="M170.063 198.841C172.628 197.013 172.628 194.002 170.062 192.174C167.497 190.346 163.272 190.346 160.707 192.174C158.142 194.002 158.142 197.013 160.707 198.841C163.272 200.669 167.497 200.669 170.063 198.841Z" fill="#F1F2F2"/>
<path fill-rule="evenodd" clip-rule="evenodd" d="M283.839 198.84C286.405 197.012 286.405 194.001 283.839 192.173C281.274 190.345 277.049 190.345 274.484 192.173C271.919 194.001 271.919 197.012 274.484 198.84C277.049 200.668 281.274 200.668 283.839 198.84Z" fill="#F1F2F2"/>
<path fill-rule="evenodd" clip-rule="evenodd" d="M397.614 198.839C400.18 197.011 400.18 194 397.614 192.172C395.049 190.344 390.824 190.344 388.259 192.172C385.694 194 385.694 197.011 388.259 198.839C390.824 200.668 395.049 200.667 397.614 198.839Z" fill="#F1F2F2"/>
<path fill-rule="evenodd" clip-rule="evenodd" d="M511.391 198.838C513.957 197.01 513.957 193.999 511.391 192.171C508.826 190.343 504.601 190.343 502.036 192.171C499.471 193.999 499.471 197.01 502.036 198.839C504.601 200.667 508.826 200.667 511.391 198.838Z" fill="#F1F2F2"/>
<path fill-rule="evenodd" clip-rule="evenodd" d="M625.016 198.837C627.582 196.973 627.582 193.998 625.016 192.17C622.451 190.342 618.226 190.342 615.661 192.17C613.096 193.998 613.096 197.009 615.661 198.838C618.226 200.666 622.451 200.666 625.016 198.837Z" fill="#F1F2F2"/>
<path fill-rule="evenodd" clip-rule="evenodd" d="M625.016 120.192C627.581 118.364 627.581 115.352 625.016 113.524C622.451 111.696 618.226 111.696 615.66 113.524C613.095 115.353 613.095 118.364 615.66 120.192C618.226 122.02 622.451 122.02 625.016 120.192Z" fill="#F1F2F2"/>
<path fill-rule="evenodd" clip-rule="evenodd" d="M625.015 39.1083C627.58 37.2443 627.58 34.269 625.015 32.4409C622.45 30.6128 618.225 30.6128 615.66 32.441C613.094 34.2691 613.094 37.2802 615.66 39.1084C618.225 40.9365 622.45 40.9365 625.015 39.1083Z" fill="#F1F2F2"/>
<path fill-rule="evenodd" clip-rule="evenodd" d="M511.39 39.145C513.955 37.3169 513.955 34.3059 511.39 32.4778C508.825 30.6496 504.6 30.6497 502.034 32.4778C499.469 34.306 499.469 37.317 502.034 39.1451C504.6 40.9732 508.825 40.9732 511.39 39.145Z" fill="#F1F2F2"/>
</svg>
