<svg width="670" height="669" viewBox="0 0 670 669" fill="none" xmlns="http://www.w3.org/2000/svg">
<path fill-rule="evenodd" clip-rule="evenodd" d="M359.239 28.8223L372.666 1.91005L402.326 6.62439L406.801 36.4008L424.286 11.9349L452.812 21.1844L452.573 51.2591L473.639 29.8366L500.374 43.442L495.42 73.0989L519.589 55.1973L543.877 72.8604L534.329 101.384L561.005 87.4801L582.249 108.723L568.345 135.397L596.87 125.849L614.534 150.136L596.631 174.303L626.29 169.35L639.897 196.084L618.473 217.148L648.549 216.849L657.799 245.373L633.332 262.857L663.051 267.332L667.765 296.989L640.851 310.415L669.556 319.486V349.501L640.851 358.571L667.765 371.997L663.051 401.654L633.332 406.129L657.799 423.614L648.549 452.137L618.473 451.898L639.956 472.962L626.35 499.696L596.691 494.743L614.594 518.91L596.989 543.197L568.464 533.649L582.369 560.323L561.124 581.566L534.449 567.662L543.997 596.186L519.709 613.848L495.54 595.947L500.493 625.604L473.758 639.209L452.692 617.787L452.931 647.862L424.406 657.111L406.921 632.645L402.445 662.422L372.786 667.136L359.359 640.224L350.347 668.926H320.33L311.26 640.224L297.832 667.136L268.173 662.422L263.698 632.645L246.213 657.111L217.687 647.862L217.926 617.787L196.86 639.269L170.125 625.664L175.078 596.006L150.91 613.908L126.621 596.245L136.17 567.722L109.494 581.626L88.2497 560.382L102.154 533.709L73.6289 543.256L55.9648 518.97L73.8677 494.803L44.2086 499.755L30.6024 473.022L52.0262 451.958L21.9493 452.197L12.6996 423.673L37.1669 406.189L7.44804 401.774L2.73357 372.117L29.6476 358.69L0.943359 349.62V319.605L29.6476 310.535L2.73357 297.109L7.44804 267.451L37.2264 262.976L12.7591 245.492L22.0091 216.969L52.0859 217.207L30.662 196.143L44.2683 169.41L73.9272 174.363L56.0244 150.196L73.6887 125.909L102.214 135.456L88.3092 108.783L109.554 87.5399L136.229 101.443L126.681 72.9201L150.969 55.257L175.138 73.1587L170.185 43.5018L196.92 29.8963L217.986 51.3188L217.687 21.2438L246.213 11.9947L263.698 36.4605L268.173 6.68375L297.773 1.96978L311.2 28.882L320.271 0.179688H350.288L359.299 28.882L359.239 28.8223ZM335.19 376.592L144.703 486.568C163.621 510.138 186.835 530.009 213.033 545.166C317.227 605.316 451.021 579.716 525.736 486.568L335.19 376.592ZM372.487 312.027L562.974 422.003C573.895 393.837 579.564 363.762 579.564 333.509C579.564 212.613 491.004 110.096 372.487 92.0153V312.027ZM297.952 312.027V92.0153C179.435 110.156 90.8754 212.613 90.8754 333.509C90.8754 363.762 96.5447 393.837 107.465 422.003L297.952 312.027Z" fill="black"/>
<path fill-rule="evenodd" clip-rule="evenodd" d="M306.187 316.86V82.5866C180.33 96.9676 82.5209 203.84 82.5209 333.568C82.5209 368.178 89.6225 402.37 103.348 433.996L306.247 316.86H306.187ZM364.133 316.86L567.032 433.996C580.698 402.43 587.859 368.178 587.859 333.568C587.859 203.84 490.05 96.9676 364.193 82.5866V316.86H364.133ZM335.13 367.044L538.029 484.18C462.658 585.862 320.987 617.13 208.856 552.386C178.898 535.081 152.82 511.809 132.291 484.18L335.19 367.044H335.13ZM326.179 8.41406H344.022L354.286 41.0546C356.853 41.2336 359.419 41.4128 361.985 41.6515L377.262 11.0397L394.866 13.8441L399.939 47.6187C402.445 48.2155 405.011 48.8121 407.458 49.4088L427.27 21.6014L444.219 27.0915L443.92 61.2238C446.307 62.1786 448.694 63.193 451.081 64.2074L475.011 39.8611L490.945 47.9768L485.276 81.6913C487.484 83.0041 489.692 84.3765 491.84 85.749L519.351 65.4009L533.793 75.9033L522.931 108.365C524.901 110.036 526.87 111.647 528.78 113.377L559.155 97.5643L571.806 110.215L555.992 140.588C557.663 142.497 559.334 144.467 561.005 146.436L593.469 135.576L603.972 150.016L583.622 177.525C584.995 179.673 586.367 181.881 587.68 184.089L621.397 178.42L629.513 194.352L605.165 218.281C606.18 220.668 607.194 223.055 608.149 225.442L642.284 225.144L647.774 242.15L619.965 261.961C620.621 264.467 621.218 266.974 621.755 269.48L655.532 274.552L658.337 292.155L627.723 307.431C627.962 309.997 628.141 312.563 628.32 315.129L660.963 325.452V343.294L628.32 353.558C628.141 356.124 627.962 358.69 627.723 361.256L658.337 376.532L655.532 394.135L621.755 399.207C621.158 401.713 620.562 404.22 619.965 406.726L647.774 426.597L642.284 443.544L608.089 443.245C607.135 445.632 606.12 448.019 605.106 450.406L629.453 474.335L621.337 490.267L587.62 484.598C586.308 486.806 584.935 489.014 583.562 491.162L603.912 518.671L593.409 533.112L560.945 522.251C559.274 524.22 557.663 526.19 555.932 528.099L571.747 558.472L559.095 571.123L528.72 555.31C526.81 556.98 524.841 558.651 522.872 560.322L533.733 592.784L519.291 603.286L491.78 582.938C489.632 584.31 487.424 585.683 485.216 586.995L490.885 620.77L475.011 628.885L451.081 604.539C448.694 605.554 446.307 606.568 443.92 607.523L444.219 641.655L427.27 647.145L407.398 619.338C404.892 619.994 402.386 620.591 399.879 621.128L394.807 654.962L377.202 657.767L361.925 627.155C359.359 627.394 356.793 627.573 354.227 627.752L343.903 660.393H326.06L315.795 627.752C313.229 627.573 310.663 627.394 308.097 627.155L292.82 657.767L275.156 654.962L270.083 621.128C267.577 620.531 265.071 619.935 262.564 619.338L242.692 647.145L225.744 641.655L226.042 607.523C223.655 606.568 221.268 605.554 218.881 604.539L194.951 628.885L179.077 620.77L184.746 587.055C182.538 585.742 180.33 584.37 178.182 582.998L150.671 603.346L136.23 592.844L147.091 560.382C145.121 558.711 143.152 557.1 141.242 555.369L110.867 571.183L98.2158 558.592L114.03 528.219C112.359 526.309 110.688 524.34 109.017 522.371L76.5533 533.231L66.0504 518.79L86.4 491.281C85.0275 489.133 83.6548 486.925 82.3419 484.718L48.5652 490.386L40.4493 474.514L64.8568 450.585C63.8423 448.198 62.8278 445.811 61.873 443.424L27.7382 443.723L22.2481 426.776L50.0571 406.905C49.4006 404.399 48.8039 401.892 48.2669 399.386L14.4306 394.314L11.6258 376.711L42.2395 361.435C42.0008 358.869 41.8219 356.303 41.6429 353.737L9 343.473V325.631L41.6429 315.308C41.8219 312.742 42.0008 310.176 42.2395 307.611L11.6258 292.334L14.4306 274.731L48.2071 269.659C48.8039 267.153 49.4008 264.646 49.9975 262.14L22.1884 242.329L27.6785 225.382L61.8133 225.68C62.7681 223.293 63.7826 220.907 64.7971 218.52L40.3896 194.591L48.5056 178.659L82.2226 184.328C83.5355 182.12 84.908 179.912 86.2806 177.764L65.931 150.255L76.434 135.814L108.898 146.674C110.569 144.705 112.18 142.736 113.911 140.827L98.0965 110.453L110.748 97.8029L141.123 113.616C143.033 111.945 145.002 110.274 146.971 108.604L136.11 76.1419L150.552 65.6395L178.063 85.9879C180.211 84.6155 182.419 83.243 184.627 81.9303L178.958 48.2153L194.891 40.1L218.822 64.4463C221.209 63.4319 223.596 62.4175 225.983 61.4627L225.684 27.33L242.632 21.8403L262.445 49.6474C264.951 48.991 267.458 48.3943 269.964 47.8573L275.036 14.083L292.641 11.2782L307.918 41.8901C310.484 41.6514 313.05 41.4725 315.616 41.2935L325.94 8.65262L326.179 8.41406Z" fill="url(#paint0_linear_196_8009)"/>
<path fill-rule="evenodd" clip-rule="evenodd" d="M237.559 334.404C237.559 388.288 281.301 431.968 335.249 431.968C389.136 431.968 432.819 388.228 432.819 334.285C432.819 280.401 389.077 236.721 335.129 236.721C281.242 236.721 237.559 280.46 237.559 334.404Z" fill="url(#paint1_linear_196_8009)"/>
<path d="M335.248 438.234C278.018 438.234 231.411 391.63 231.352 334.404C231.352 277.119 277.899 230.515 335.188 230.455C392.477 230.455 439.084 277 439.144 334.285C439.144 391.57 392.597 438.174 335.308 438.234H335.248ZM335.248 243.046C284.821 243.046 243.884 284.041 243.884 334.464C243.884 384.827 284.881 425.762 335.248 425.762C385.674 425.762 426.612 384.768 426.612 334.345C426.612 283.981 385.615 243.046 335.248 243.046Z" fill="black"/>
<path fill-rule="evenodd" clip-rule="evenodd" d="M264.709 334.404C264.709 373.31 296.278 404.877 335.246 404.877C374.155 404.877 405.724 373.31 405.664 334.344C405.664 295.438 374.096 263.872 335.127 263.931C296.218 263.931 264.649 295.498 264.709 334.464V334.404Z" fill="#A7A9AC"/>
<path d="M335.245 411.143C292.935 411.143 258.562 376.712 258.502 334.464C258.502 292.156 292.875 257.725 335.186 257.666C377.496 257.666 411.929 292.097 411.929 334.345C411.929 354.812 403.992 374.086 389.491 388.586C374.99 403.087 355.714 411.083 335.245 411.083V411.143ZM335.245 270.197C299.857 270.197 271.034 299.019 271.034 334.404C271.034 369.79 299.857 398.552 335.245 398.552C352.432 398.552 368.545 391.868 380.659 379.695C392.773 367.582 399.457 351.411 399.457 334.285C399.457 298.899 370.633 270.077 335.245 270.077V270.197Z" fill="black"/>
<path fill-rule="evenodd" clip-rule="evenodd" d="M319.318 334.403C319.318 343.175 326.419 350.275 335.191 350.275C343.964 350.275 351.065 343.175 351.065 334.403C351.065 325.631 343.904 318.53 335.132 318.53C326.359 318.53 319.258 325.631 319.258 334.403H319.318Z" fill="url(#paint2_linear_196_8009)"/>
<path d="M335.191 356.541C323.017 356.541 313.051 346.636 313.051 334.403C313.051 328.496 315.319 322.946 319.496 318.769C323.673 314.592 329.223 312.265 335.131 312.265C347.365 312.265 357.271 322.17 357.271 334.403C357.271 346.636 347.365 356.541 335.131 356.541H335.191ZM335.191 324.796C332.625 324.796 330.178 325.81 328.388 327.6C326.597 329.391 325.583 331.837 325.583 334.403C325.583 339.714 329.88 344.01 335.191 344.01C340.502 344.01 344.858 339.714 344.858 334.403C344.858 329.092 340.562 324.796 335.25 324.796H335.191Z" fill="black"/>
<defs>
<linearGradient id="paint0_linear_196_8009" x1="334.981" y1="8.41406" x2="334.981" y2="660.393" gradientUnits="userSpaceOnUse">
<stop stop-color="#5F4E84"/>
<stop offset="0.51449" stop-color="#A98BEA"/>
<stop offset="1" stop-color="#5F4E84"/>
</linearGradient>
<linearGradient id="paint1_linear_196_8009" x1="335.189" y1="236.721" x2="335.189" y2="431.968" gradientUnits="userSpaceOnUse">
<stop stop-color="#5F4E84"/>
<stop offset="0.51449" stop-color="#A98BEA"/>
<stop offset="1" stop-color="#5F4E84"/>
</linearGradient>
<linearGradient id="paint2_linear_196_8009" x1="335.161" y1="318.53" x2="335.161" y2="350.275" gradientUnits="userSpaceOnUse">
<stop stop-color="#5F4E84"/>
<stop offset="0.51449" stop-color="#A98BEA"/>
<stop offset="1" stop-color="#5F4E84"/>
</linearGradient>
</defs>
</svg>
