<svg width="100" height="81" viewBox="0 0 100 81" fill="none" xmlns="http://www.w3.org/2000/svg">
<g opacity="0.5">
<path fill-rule="evenodd" clip-rule="evenodd" d="M24.7346 65.4714C20.2357 65.8861 16.0587 64.4009 13.0678 61.1472C10.1028 57.9211 8.71508 53.3815 9.22966 49.0321C9.70752 45.0067 11.7443 41.2444 15.0649 38.7306C26.3332 30.1939 37.384 21.3764 48.8059 13.0325C53.0443 9.93853 59.9226 8.23794 65.1162 8.33606C80.284 8.62103 92.0755 20.8594 91.4544 35.6654C90.8827 49.2345 79.9856 60.4985 66.123 61.8277C52.3343 63.1478 38.5269 64.2022 24.7346 65.4714ZM50.2427 14.8738C38.8243 23.2164 27.7618 32.0234 16.5039 40.5674C13.7118 42.6884 12.0159 45.8668 11.6127 49.2474C11.1758 52.9397 12.3552 56.8213 14.8713 59.5618C17.3616 62.2746 20.8174 63.4849 24.5623 63.1403C38.3285 61.8734 52.1076 60.7849 65.8723 59.5036C78.5531 58.3191 88.5396 48.0249 89.06 35.6152C89.6299 22.1029 78.864 10.9295 65.0229 10.6697C60.4555 10.5831 53.968 12.1519 50.2427 14.8738Z" fill="url(#paint0_linear_776_7960)"/>
<path d="M12.823 61.3588C15.4542 64.2205 18.9582 65.7753 22.9587 65.8542C23.5496 65.8641 24.1555 65.8421 24.7571 65.7882C30.9403 65.2194 37.2326 64.6845 43.3192 64.167C50.8025 63.5325 58.5428 62.8724 66.1489 62.1432C80.1798 60.7994 91.1991 49.4185 91.7774 35.6713C92.408 20.7159 80.4535 8.31076 65.1328 8.01968C59.3939 7.90953 52.6047 9.86817 48.6178 12.778C41.4119 18.0401 34.2376 23.5819 27.3022 28.9369C23.2395 32.077 19.0349 35.3226 14.8734 38.4774C11.5842 40.972 9.40802 44.8053 8.91195 48.9982C8.37948 53.4852 9.84017 58.1058 12.8264 61.3575L12.823 61.3588ZM9.54864 49.0582C10.0277 45.0361 12.1079 41.3584 15.2598 38.9714C19.4246 35.8154 23.628 32.5665 27.6953 29.4284C34.6307 24.0734 41.7995 18.5374 48.9986 13.2778C52.8759 10.4466 59.5002 8.54238 65.1055 8.64662C80.0726 8.93217 91.7457 21.0506 91.1318 35.6596C90.5674 49.0838 79.8043 60.2003 66.0987 61.5155C58.4959 62.2434 50.759 62.9022 43.2756 63.5368C37.1891 64.0542 30.8968 64.5892 24.7102 65.1592C24.1314 65.2121 23.5528 65.2349 22.9881 65.2227C19.1679 65.1509 15.8221 63.6675 13.3084 60.9336C10.4409 57.8129 9.03653 53.373 9.54987 49.0615L9.54864 49.0582Z" fill="#261701"/>
<path d="M23.061 63.5135C23.5596 63.5244 24.0698 63.5047 24.5803 63.4551C31.2116 62.8452 37.9542 62.2645 44.4773 61.7064C51.4975 61.1038 58.7544 60.4832 65.8937 59.8171C78.7542 58.6175 88.8506 48.2148 89.383 35.6211C89.9601 21.9529 79.037 10.618 65.0361 10.3546C60.7174 10.2719 53.9992 11.7404 50.0514 14.6206C42.7125 19.9813 35.4065 25.6249 28.3393 31.0816C24.405 34.1212 20.3342 37.2605 16.307 40.32C13.5417 42.4198 11.7152 45.6621 11.2895 49.2194C10.8339 53.057 12.0812 57.0065 14.6244 59.778C16.8092 62.1607 19.7268 63.4498 23.061 63.5135ZM11.9296 49.2781C12.335 45.8928 14.0699 42.8082 16.6933 40.8141C20.7219 37.7578 24.7947 34.6139 28.729 31.5744C35.7928 26.1189 43.0967 20.4799 50.4288 15.1217C54.2547 12.3284 60.7963 10.9038 65.0055 10.9828C78.6494 11.242 89.2943 22.2888 88.7328 35.6073C88.2156 47.8814 78.3753 58.0197 65.8434 59.1894C58.7075 59.8542 51.4506 60.4748 44.4338 61.0762C37.9106 61.6343 31.1668 62.2117 24.5334 62.8261C24.0478 62.8701 23.5604 62.8887 23.0858 62.88C19.9307 62.8201 17.1734 61.5979 15.1086 59.3495C12.6829 56.7058 11.4943 52.9436 11.9296 49.2781Z" fill="#261701"/>
<path fill-rule="evenodd" clip-rule="evenodd" d="M67.8405 38.9854L71.5363 54.97C77.0392 52.9188 81.5219 48.7987 83.9524 43.5542L67.8439 38.9842L67.8405 38.9854ZM62.5351 40.2561L50.1212 51.6673C54.5835 55.2394 60.4228 56.8928 66.2297 56.2374L62.5351 40.2561ZM58.8514 36.4328L46.4387 47.8473C43.0596 43.2817 41.7184 37.4875 42.7429 31.8627L58.8514 36.4328ZM60.4719 31.3355L56.7761 15.351C51.2733 17.4022 46.7871 21.5236 44.36 26.7667L60.4719 31.3355ZM65.7773 30.0648L78.19 18.6504C73.7289 15.0816 67.8883 13.4249 62.0815 14.0803L65.7761 30.0616L65.7773 30.0648ZM69.461 33.8882L81.8749 22.4769C85.254 27.0425 86.5919 32.838 85.5695 38.4582L69.461 33.8882ZM63.0895 60.4663C48.776 60.1933 37.6441 48.6416 38.231 34.6707C38.8202 20.6952 50.9072 9.58611 65.2195 9.85591C79.541 10.1297 90.6717 21.6781 90.0826 35.6536C89.4935 49.6291 77.4064 60.7381 63.0908 60.4696L63.0895 60.4663Z" fill="url(#paint1_linear_776_7960)"/>
<path d="M69.1495 33.964C69.1753 34.0739 69.2575 34.1589 69.3667 34.1927L85.4752 38.7627C85.5647 38.7852 85.658 38.7763 85.7386 38.7236C85.8171 38.6755 85.8719 38.5951 85.8889 38.5065C86.9242 32.8179 85.5547 26.9072 82.1399 22.2877C82.0855 22.2148 82.0021 22.1676 81.9107 22.1608C81.9039 22.1633 81.8981 22.158 81.8913 22.1606C81.8058 22.1591 81.7211 22.1908 81.6577 22.2483L69.2438 33.6595C69.157 33.7369 69.1237 33.8541 69.1483 33.9607L69.1495 33.964ZM81.8252 22.9516C84.92 27.295 86.1838 32.7595 85.3166 38.0523L70.094 33.7327L81.824 22.9483L81.8252 22.9516Z" fill="#261701"/>
<path d="M65.9991 30.2955L78.4119 18.881C78.4808 18.8178 78.5171 18.7294 78.5147 18.6406C78.5123 18.5518 78.4723 18.4659 78.4 18.4071C74.6675 15.4207 69.9169 13.7247 65.0221 13.6303C64.0343 13.6125 63.0323 13.6598 62.0503 13.7706C61.9582 13.7827 61.8751 13.8289 61.8179 13.9027C61.764 13.9753 61.7449 14.0684 61.7633 14.1587L65.4579 30.14C65.4837 30.2499 65.5658 30.3349 65.6751 30.3686C65.7865 30.3978 65.9077 30.371 65.9899 30.2915L65.9991 30.2955ZM62.4803 14.3604C67.9316 13.8385 73.4725 15.4171 77.7017 18.6768L65.9717 29.4611L62.4791 14.3571L62.4803 14.3604Z" fill="#261701"/>
<path d="M62.5493 39.9444C62.4638 39.9429 62.3825 39.9734 62.3157 40.0321L49.9018 51.4433C49.8328 51.5066 49.7965 51.595 49.7989 51.6837C49.8013 51.7725 49.8413 51.8584 49.9136 51.9172C53.6462 54.9037 58.3968 56.5996 63.2915 56.6941C64.2794 56.7119 65.278 56.6658 66.2634 56.5537C66.3566 56.5449 66.4385 56.4955 66.4957 56.4216C66.5496 56.3491 66.5687 56.2559 66.5503 56.1657L62.8557 40.1844C62.8299 40.0745 62.7478 39.9895 62.6352 39.957C62.6087 39.9482 62.5801 39.944 62.5527 39.9431L62.5493 39.9444ZM65.8346 55.9672C60.3798 56.4904 54.8389 54.9118 50.612 51.6476L62.3419 40.8632L65.8346 55.9672Z" fill="#261701"/>
<path d="M46.4063 48.1622C46.4909 48.1715 46.5903 48.138 46.6593 48.0747L59.072 36.6602C59.1588 36.5828 59.1921 36.4656 59.1675 36.359C59.1417 36.2491 59.0595 36.1641 58.9469 36.1316L42.8384 31.5615C42.8119 31.5528 42.7833 31.5486 42.7559 31.5476C42.6932 31.545 42.6298 31.5614 42.5737 31.5973C42.4953 31.6455 42.4405 31.7259 42.4235 31.8145C41.3882 37.5031 42.7577 43.4138 46.1725 48.0332C46.2269 48.1062 46.3103 48.1534 46.4017 48.1602L46.4063 48.1622ZM42.9991 32.2674L58.2218 36.587L46.4918 47.3714C43.397 43.028 42.1332 37.5635 42.9991 32.2674Z" fill="#261701"/>
<path d="M63.081 60.7834C77.5531 61.0568 89.8125 49.7896 90.4053 35.6595C90.9994 21.5326 79.7091 9.81619 65.2371 9.54281C50.765 9.26944 38.5069 20.5399 37.9128 34.6668C37.3187 48.7936 48.609 60.5101 63.081 60.7834ZM38.5584 34.6785C39.1391 20.8968 51.096 9.90391 65.211 10.173C79.3294 10.4409 90.3417 21.8693 89.7597 35.6477C89.179 49.4294 77.2221 60.4223 63.1037 60.1545C48.9887 59.8854 37.9764 48.457 38.555 34.6798L38.5584 34.6785Z" fill="#261701"/>
<path d="M71.382 55.2485C71.463 55.2892 71.5577 55.2947 71.6458 55.2616C77.1994 53.1913 81.7945 48.9693 84.2453 43.6761C84.2841 43.5942 84.2838 43.5009 84.2451 43.4183C84.2063 43.3356 84.134 43.2768 84.0467 43.2498L67.9382 38.6798C67.9117 38.671 67.8831 38.6668 67.8557 38.6659C67.7701 38.6643 67.6889 38.6949 67.6221 38.7536C67.5353 38.831 67.502 38.9482 67.5266 39.0548L71.2224 55.0394C71.243 55.1251 71.302 55.2001 71.3796 55.242L71.382 55.2485ZM68.2804 39.437L83.503 43.7567C81.1388 48.6324 76.8953 52.5356 71.7697 54.5423L68.2771 39.4383L68.2804 39.437Z" fill="#261701"/>
<path d="M60.3787 31.6433C60.4901 31.6725 60.6079 31.6469 60.6935 31.5662C60.7803 31.4887 60.8136 31.3716 60.789 31.265L57.0932 15.2804C57.0714 15.1914 57.0136 15.1197 56.9348 15.0745C56.892 15.0532 56.8403 15.039 56.7936 15.0378C56.7514 15.0387 56.7105 15.0429 56.6698 15.0581C51.1128 17.1297 46.5211 21.3505 44.0691 26.6404C44.0303 26.7223 44.0305 26.8156 44.0659 26.8995C44.1046 26.9821 44.1769 27.0409 44.2643 27.0679L60.3762 31.6367L60.3787 31.6433ZM56.5472 15.7807L60.0398 30.8847L44.8172 26.5651C47.178 21.6906 51.425 17.7862 56.5505 15.7794L56.5472 15.7807Z" fill="#261701"/>
<path fill-rule="evenodd" clip-rule="evenodd" d="M73.7044 40.8577C70.3655 46.0695 63.385 47.7449 58.1135 44.6C52.842 41.4551 51.2755 34.6803 54.6144 29.4685C57.9533 24.2567 64.9338 22.5813 70.2053 25.7262C75.4767 28.8711 77.0433 35.6459 73.7044 40.8577Z" fill="url(#paint2_linear_776_7960)"/>
<path d="M64.6476 23.825C66.6746 23.8637 68.6556 24.428 70.378 25.4557C75.7932 28.685 77.4064 35.6665 73.9779 41.0203C71.7618 44.4799 67.813 46.5756 63.67 46.4979C61.6429 46.4591 59.6619 45.8948 57.9395 44.8671C55.3166 43.3029 53.5007 40.8227 52.8215 37.8821C52.1423 34.9415 52.6823 31.8945 54.343 29.3012C56.5591 25.8416 60.5079 23.746 64.6476 23.825ZM63.696 45.8677C67.6097 45.9418 71.3382 43.9587 73.4308 40.695C76.6703 35.6402 75.1453 29.0478 70.0326 25.9966C68.4052 25.0266 66.5335 24.496 64.6227 24.4584C60.7124 24.3831 56.9805 26.3674 54.8879 29.6311C53.319 32.0778 52.8085 34.9568 53.449 37.7325C54.0895 40.5082 55.8082 42.853 58.2862 44.3295C59.9135 45.2995 61.7865 45.8334 63.696 45.8677Z" fill="#261701"/>
<path fill-rule="evenodd" clip-rule="evenodd" d="M64.0212 38.4423C62.1652 38.4066 60.7264 36.9099 60.7999 35.0995C60.8767 33.2878 62.4426 31.8514 64.2973 31.8838C66.1532 31.9195 67.5954 33.415 67.5186 35.2267C67.4417 37.0384 65.8759 38.4747 64.0212 38.4423Z" fill="url(#paint3_linear_776_7960)"/>
<path d="M64.3103 31.5687C66.3407 31.6062 67.9238 33.2505 67.8414 35.2325C67.759 37.2145 66.0386 38.7948 64.0082 38.7574C61.9777 38.7199 60.3946 37.0755 60.4771 35.0936C60.5595 33.1116 62.2799 31.5312 64.3103 31.5687ZM64.033 38.1239C65.7064 38.1571 67.1242 36.8511 67.1946 35.2175C67.2649 33.5839 65.9565 32.2288 64.2831 32.1956C62.6096 32.1624 61.1918 33.4684 61.1249 35.1007C61.0545 36.7343 62.3629 38.0894 64.0364 38.1226L64.033 38.1239Z" fill="#261701"/>
<path fill-rule="evenodd" clip-rule="evenodd" d="M21.7976 52.0424L13.6473 51.8884C13.8856 54.632 15.2509 57.1468 17.4344 58.8573L21.7988 52.0457L21.7976 52.0424ZM21.9085 49.4779L13.7582 49.3238C14.2274 46.6024 15.8117 44.135 18.126 42.511L21.9131 49.4799L21.9085 49.4779ZM24.2356 48.2379L20.4519 41.2677C23.0954 40.2527 26.0487 40.3099 28.6022 41.4218L24.2344 48.2346L24.2356 48.2379ZM26.4552 49.561L34.6055 49.7151C34.3672 46.9715 33.0019 44.4567 30.8184 42.7462L26.4506 49.559L26.4552 49.561ZM26.3477 52.1243L34.498 52.2783C34.0288 54.9998 32.4457 57.4705 30.1301 59.0912L26.3443 52.1255L26.3477 52.1243ZM24.0193 53.3611L27.8052 60.3267C25.1617 61.3417 22.2084 61.2844 19.6549 60.1726L24.0193 53.3611ZM12.1561 47.4025C14.2229 40.9117 21.2572 37.1679 27.8677 39.0439C34.4782 40.9198 38.1644 47.7023 36.0976 54.1931C34.0308 60.6839 26.9964 64.4277 20.386 62.5518C13.7755 60.6759 10.0893 53.8933 12.1561 47.4025Z" fill="url(#paint4_linear_776_7960)"/>
<path d="M26.1892 49.7058C26.2384 49.7957 26.3335 49.8535 26.4384 49.8552L34.5921 50.008C34.6776 50.0095 34.761 49.9745 34.8198 49.915C34.8774 49.8523 34.9082 49.7697 34.9002 49.6867C34.6579 46.8811 33.2364 44.2678 31.0086 42.5216C30.9584 42.4807 30.8963 42.4592 30.8301 42.4578C30.8107 42.4576 30.7913 42.4574 30.7698 42.4618C30.6858 42.4747 30.6085 42.5261 30.566 42.5981L26.1982 49.4109C26.1391 49.5004 26.1341 49.6106 26.188 49.7026L26.1892 49.7058ZM30.8878 43.1874C32.762 44.7636 33.9784 47.0054 34.275 49.4207L26.9802 49.2818L30.8865 43.1842L30.8878 43.1874Z" fill="#261701"/>
<path d="M24.2222 48.5307C24.3272 48.5324 24.4306 48.4786 24.4863 48.3904L28.8541 41.5776C28.9012 41.5076 28.9114 41.4215 28.8886 41.3404C28.8625 41.2605 28.8071 41.1953 28.7287 41.1612C27.4213 40.5907 26.0221 40.29 24.5712 40.263C23.1202 40.2359 21.6996 40.4852 20.3491 41.0035C20.2679 41.034 20.2069 41.098 20.1737 41.1741C20.1417 41.2534 20.1475 41.3409 20.1859 41.4124L23.9696 48.3826C24.0188 48.4725 24.1139 48.5302 24.2222 48.5307ZM28.1651 41.5635L24.2576 47.6578L20.8703 41.4245C23.2306 40.6019 25.8691 40.654 28.1605 41.5615L28.1651 41.5635Z" fill="#261701"/>
<path d="M34.5109 51.9932L26.3606 51.8392C26.2556 51.8374 26.1522 51.8912 26.0965 51.9794C26.0408 52.0676 26.0324 52.1791 26.0863 52.2711L29.8721 59.2367C29.9106 59.3082 29.9816 59.3638 30.0653 59.3809C30.1456 59.3994 30.2352 59.3807 30.3057 59.3318C32.6748 57.6686 34.3127 55.1175 34.7948 52.3277C34.8096 52.2436 34.7868 52.1625 34.7315 52.0973C34.6761 52.0321 34.5964 51.9948 34.5109 51.9932ZM30.236 58.6627L26.8488 52.4295L34.139 52.5664C33.6382 54.9671 32.2355 57.157 30.2314 58.6607L30.236 58.6627Z" fill="#261701"/>
<path d="M17.4755 59.1409C17.5582 59.1248 17.6367 59.0766 17.6792 59.0046L22.0436 52.193C22.0994 52.1048 22.1043 51.9946 22.0539 51.9014C22.0047 51.8115 21.9096 51.7537 21.8047 51.752L13.6544 51.598C13.5688 51.5964 13.4854 51.6315 13.4266 51.6909C13.3679 51.7504 13.3383 51.8362 13.3463 51.9192C13.5885 54.7249 15.0101 57.3381 17.2379 59.0843C17.3031 59.1346 17.3927 59.157 17.4721 59.1422L17.4755 59.1409ZM13.9749 52.184L21.2663 52.3242L17.36 58.4218C15.4857 56.8456 14.2659 54.6051 13.9727 52.1886L13.9749 52.184Z" fill="#261701"/>
<path d="M12.7508 56.8559C14.3418 59.7868 17.02 61.9095 20.2925 62.8374C21.3692 63.1432 22.4819 63.3085 23.602 63.3289C29.3945 63.4377 34.6452 59.717 36.3772 54.2788C37.3995 51.0656 37.0866 47.681 35.4956 44.7501C33.9045 41.8192 31.2263 39.6965 27.9526 38.7654C26.8726 38.4608 25.7599 38.2955 24.6431 38.2738C18.8507 38.1651 13.5965 41.887 11.8679 47.3239C10.8456 50.5371 11.1585 53.9217 12.7496 56.8526L12.7508 56.8559ZM12.4369 47.4915C14.0857 42.3051 19.0961 38.7569 24.6205 38.8616C25.6858 38.8802 26.7471 39.0423 27.7755 39.3327C30.8963 40.2166 33.4499 42.2441 34.9699 45.0372C36.4865 47.8316 36.7859 51.0568 35.8119 54.121C34.1631 59.3074 29.1528 62.8557 23.6284 62.7509C22.563 62.7324 21.5029 62.5735 20.4733 62.2798C17.3525 61.396 14.7989 59.3684 13.2789 56.5754C11.7623 53.781 11.4629 50.5558 12.4369 47.4915Z" fill="#261701"/>
<path d="M13.7401 49.6148L21.8937 49.7676C21.9987 49.7693 22.1021 49.7155 22.1578 49.6273C22.2135 49.5391 22.2185 49.4289 22.1681 49.3357L18.381 42.3668C18.3425 42.2952 18.2715 42.2397 18.1878 42.2225C18.1672 42.2191 18.1499 42.2143 18.1305 42.2141C18.0644 42.2128 18.0022 42.2324 17.9474 42.2717C15.5783 43.9349 13.9416 46.4892 13.4583 49.2758C13.4435 49.3598 13.4662 49.441 13.5216 49.5062C13.577 49.5713 13.6567 49.6087 13.7422 49.6102L13.7401 49.6148ZM18.0149 42.9452L21.4022 49.1785L14.1074 49.0396C14.6082 46.6389 16.0108 44.449 18.0149 42.9452Z" fill="#261701"/>
<path d="M19.367 60.2696C19.3931 60.3495 19.4485 60.4146 19.527 60.4487C22.1405 61.5866 25.2022 61.6443 27.9065 60.6064C27.9878 60.5759 28.05 60.5152 28.082 60.4359C28.114 60.3566 28.1082 60.2691 28.0697 60.1975L24.2839 53.2319C24.2347 53.142 24.1396 53.0843 24.0313 53.0838C23.9264 53.0821 23.8229 53.1359 23.7672 53.2241L19.4028 60.0356C19.3557 60.1056 19.3455 60.1917 19.3682 60.2729L19.367 60.2696ZM23.9935 53.9502L27.3807 60.1834C25.0159 61.0041 22.3786 60.9553 20.0906 60.0465L23.9947 53.9534L23.9935 53.9502Z" fill="#261701"/>
<path fill-rule="evenodd" clip-rule="evenodd" d="M20.1079 54.4972C18.0636 52.3756 18.2071 49.0028 20.4268 46.9621C22.6431 44.9227 26.1017 44.9883 28.1447 47.1066C30.1877 49.2249 30.0455 52.601 27.8258 54.6417C25.6095 56.6811 22.1509 56.6155 20.1079 54.4972Z" fill="url(#paint5_linear_776_7960)"/>
<path d="M24.3607 45.1861C25.8972 45.2146 27.3175 45.8288 28.3607 46.9097C30.5117 49.1407 30.3632 52.706 28.0257 54.8545C26.8948 55.8958 25.4233 56.452 23.8868 56.4235C22.3503 56.3949 20.9266 55.782 19.8868 54.6998C17.7345 52.4656 17.8876 48.9023 20.2218 46.7551C21.3527 45.7137 22.8241 45.1575 24.3607 45.1861ZM23.9107 55.8389C25.2875 55.8639 26.6066 55.3649 27.6208 54.4346C29.7137 52.5088 29.8506 49.3141 27.9202 47.3105C26.985 46.3423 25.7123 45.7923 24.3356 45.7673C22.9588 45.7423 21.6397 46.2414 20.6254 47.1716C18.5326 49.0974 18.3956 52.2921 20.326 54.2957C21.2613 55.2639 22.5339 55.8139 23.9107 55.8389Z" fill="#261701"/>
<path fill-rule="evenodd" clip-rule="evenodd" d="M22.5736 50.3645C22.8412 49.524 23.7526 49.0397 24.6086 49.2827C25.4647 49.5256 25.9414 50.4044 25.6737 51.2449C25.4061 52.0855 24.4947 52.5697 23.6387 52.3267C22.7826 52.0838 22.3059 51.205 22.5736 50.3645Z" fill="url(#paint6_linear_776_7960)"/>
<path d="M24.2043 48.9262C24.372 48.9305 24.5391 48.9537 24.6988 48.9984C25.7112 49.2873 26.2755 50.3275 25.9607 51.3203C25.7026 52.1348 24.9153 52.6921 24.0472 52.6742C23.8794 52.6699 23.7124 52.6466 23.5527 52.602C22.5403 52.3131 21.9759 51.2729 22.2907 50.2801C22.5522 49.4643 23.3362 48.9083 24.2043 48.9262ZM24.0735 52.0962C24.6723 52.1068 25.2159 51.7233 25.3921 51.1638C25.6092 50.4768 25.2202 49.7595 24.5226 49.5579C23.8321 49.3649 23.0737 49.773 22.8618 50.4431C22.6447 51.1302 23.0337 51.8475 23.7335 52.0445C23.8448 52.0736 23.9605 52.0937 24.0769 52.0949L24.0735 52.0962Z" fill="#261701"/>
</g>
<defs>
<linearGradient id="paint0_linear_776_7960" x1="59.2096" y1="65.4712" x2="40.4194" y2="15.4277" gradientUnits="userSpaceOnUse">
<stop stop-color="#82ABFF"/>
<stop offset="1" stop-color="#037CB8"/>
</linearGradient>
<linearGradient id="paint1_linear_776_7960" x1="73.0199" y1="58.7642" x2="55.2956" y2="11.5594" gradientUnits="userSpaceOnUse">
<stop stop-color="#82ABFF"/>
<stop offset="1" stop-color="#037CB8"/>
</linearGradient>
<linearGradient id="paint2_linear_776_7960" x1="68.0177" y1="45.439" x2="60.301" y2="24.8872" gradientUnits="userSpaceOnUse">
<stop stop-color="#82ABFF"/>
<stop offset="1" stop-color="#037CB8"/>
</linearGradient>
<linearGradient id="paint3_linear_776_7960" x1="65.3079" y1="38.2203" x2="63.0119" y2="32.1053" gradientUnits="userSpaceOnUse">
<stop stop-color="#261701"/>
<stop offset="1" stop-color="#8C5504"/>
</linearGradient>
<linearGradient id="paint4_linear_776_7960" x1="28.4097" y1="62.2042" x2="19.844" y2="39.3914" gradientUnits="userSpaceOnUse">
<stop stop-color="#A98BEA"/>
<stop offset="1" stop-color="#341479"/>
</linearGradient>
<linearGradient id="paint5_linear_776_7960" x1="25.9917" y1="55.7701" x2="22.2609" y2="45.8337" gradientUnits="userSpaceOnUse">
<stop stop-color="#82ABFF"/>
<stop offset="1" stop-color="#037CB8"/>
</linearGradient>
<linearGradient id="paint6_linear_776_7960" x1="24.6783" y1="52.2818" x2="23.569" y2="49.3276" gradientUnits="userSpaceOnUse">
<stop stop-color="#261701"/>
<stop offset="1" stop-color="#8C5504"/>
</linearGradient>
</defs>
</svg>
