<svg width="779" height="156" viewBox="0 0 779 156" fill="none" xmlns="http://www.w3.org/2000/svg">
<path d="M148.627 34.2309H33.1088C31.4866 34.2309 30.1633 32.8227 30.1815 31.0962C30.1905 29.3793 31.5047 28 33.1088 28H148.627C150.25 28 151.564 29.4082 151.555 31.1347C151.555 32.8516 150.241 34.2405 148.627 34.2405V34.2309Z" fill="#E5CEFF"/>
<path d="M148.564 49.0847H33.0092C31.3869 49.0847 30.0637 47.6765 30.0818 45.95C30.0909 44.2331 31.4051 42.8442 33.0092 42.8442H148.564C150.186 42.8442 151.5 44.2525 151.491 45.979C151.491 47.6958 150.177 49.0847 148.564 49.0847Z" fill="#E5CEFF"/>
<path d="M148.51 63.9577H32.9276C31.3053 63.9577 29.9821 62.5495 30.0002 60.8133C30.0092 59.0965 31.3234 57.7075 32.9276 57.7075H148.51C150.132 57.7075 151.446 59.1157 151.437 60.8423C151.437 62.5688 150.123 63.9577 148.51 63.9577Z" fill="#E5CEFF"/>
<path d="M745.636 31.2309H630.118C628.495 31.2309 627.172 29.8227 627.19 28.0962C627.199 26.3793 628.514 25 630.118 25H745.636C747.259 25 748.573 26.4082 748.564 28.1347C748.564 29.8516 747.25 31.2406 745.636 31.2406V31.2309Z" fill="#E5CEFF"/>
<path d="M745.573 46.0849H630.018C628.396 46.0849 627.072 44.6766 627.091 42.9501C627.1 41.2333 628.414 39.8444 630.018 39.8444H745.573C747.195 39.8444 748.509 41.2526 748.5 42.9791C748.5 44.696 747.186 46.0849 745.573 46.0849Z" fill="#E5CEFF"/>
<path d="M745.51 60.9484H629.928C628.305 60.9484 626.982 59.5402 627 57.8137C627.009 56.0968 628.323 54.7079 629.928 54.7079H745.51C747.132 54.7079 748.446 56.1161 748.437 57.8426C748.437 59.5691 747.123 60.9581 745.51 60.9581V60.9484Z" fill="#E5CEFF"/>
<path d="M373.652 156H197.873C196.214 156 194.864 154.563 194.864 152.798V3.40117C194.864 1.63608 196.214 0.198975 197.873 0.198975H373.652C375.31 0.198975 376.661 1.63608 376.661 3.40117V152.798C376.661 154.563 375.31 156 373.652 156ZM200.882 149.595H370.643V6.60343H200.882V149.595Z" fill="#E5CEFF"/>
<path d="M574.826 156H399.047C397.388 156 396.038 154.563 396.038 152.798V3.40117C396.038 1.63608 397.388 0.198975 399.047 0.198975H574.826C576.484 0.198975 577.835 1.63608 577.835 3.40117V152.798C577.835 154.563 576.484 156 574.826 156ZM402.056 149.595H571.817V6.60343H402.056V149.595Z" fill="#E5CEFF"/>
<path d="M775.991 156H600.203C598.544 156 597.194 154.563 597.194 152.798V3.40117C597.194 1.63608 598.544 0.198975 600.203 0.198975H775.991C777.65 0.198975 779 1.63608 779 3.40117V152.798C779 154.563 777.65 156 775.991 156ZM603.221 149.595H772.982V6.60343H603.221V149.595Z" fill="#E5CEFF"/>
<path d="M178.788 155.801H3.00896C1.3504 155.801 0 154.364 0 152.599V3.2022C0 1.4371 1.3504 0 3.00896 0H178.788C180.447 0 181.797 1.4371 181.797 3.2022V152.599C181.797 154.364 180.447 155.801 178.788 155.801ZM6.01791 149.396H175.779V6.40445H6.01791V149.396Z" fill="#E5CEFF"/>
<path d="M250.368 32.1144C241.577 32.1144 234.435 39.7149 234.408 49.0998C234.381 58.4848 241.486 66.0949 250.277 66.0949C259.069 66.0949 266.219 58.4848 266.237 49.0998C266.256 39.7149 259.159 32.1144 250.368 32.1144ZM250.295 60.6067C244.341 60.6067 239.538 55.4561 239.556 49.0998C239.574 42.7436 244.413 37.6026 250.359 37.6026C256.304 37.6026 261.117 42.7532 261.099 49.0998C261.081 55.4561 256.241 60.6067 250.295 60.6067Z" fill="#E5CEFF"/>
<path d="M452.811 32.1144C444.02 32.1144 436.878 39.7149 436.851 49.0998C436.823 58.4848 443.929 66.0949 452.72 66.0949C461.511 66.0949 468.662 58.4848 468.68 49.0998C468.708 39.7149 461.602 32.1144 452.811 32.1144ZM452.738 60.6067C446.784 60.6067 441.98 55.4561 441.999 49.0998C442.017 42.7436 446.856 37.6026 452.802 37.6026C458.747 37.6026 463.56 42.7532 463.542 49.0998C463.523 55.4561 458.684 60.6067 452.738 60.6067Z" fill="#E5CEFF"/>
</svg>
