<svg width="10" height="10" viewBox="0 0 10 10" fill="none" xmlns="http://www.w3.org/2000/svg">
<path fill-rule="evenodd" clip-rule="evenodd" d="M10 5C10 7.76069 7.76071 10 5.00001 10C2.23931 10 0 7.76069 0 5C0 2.23931 2.23931 0 5.00001 0C7.76071 0 10 2.23931 10 5Z" fill="black"/>
<path fill-rule="evenodd" clip-rule="evenodd" d="M8.88379 4.99999C8.88379 7.14571 7.13913 8.89037 4.99341 8.89037C2.84769 8.89037 1.10303 7.14571 1.10303 4.99999C1.10303 2.85427 2.84769 1.10962 4.99341 1.10962C7.13913 1.10962 8.88379 2.84759 8.88379 4.99999Z" fill="#F85F73"/>
<path fill-rule="evenodd" clip-rule="evenodd" d="M7.50677 5.00001C7.50677 6.73797 6.09634 8.14839 4.35837 8.14839C2.6204 8.14839 1.20996 6.73797 1.20996 5.00001C1.20996 3.26204 2.6204 1.85162 4.35837 1.85162C6.09634 1.85162 7.50677 3.26204 7.50677 5.00001Z" fill="#FCACB6"/>
<path fill-rule="evenodd" clip-rule="evenodd" d="M4.79936 4.86628C4.79936 3.95719 4.06407 3.21521 3.15498 3.21521C2.24589 3.21521 1.50391 3.95052 1.50391 4.85961C1.50391 5.7687 2.2392 6.50398 3.15498 6.50398C4.07075 6.50398 4.79936 5.7687 4.79936 4.85961V4.86628Z" fill="#F1F2F2"/>
<path fill-rule="evenodd" clip-rule="evenodd" d="M7.56012 6.91845L5.64836 5.00001L7.56012 3.08156L7.07883 2.60028L5.16038 4.51872L3.08151 2.43317L2.57349 2.94786L4.65236 5.02675L2.59354 7.07887L3.08151 7.56684L5.13364 5.5147L7.05211 7.42648L7.56012 6.91845Z" fill="black"/>
</svg>
