<svg width="1031" height="382" viewBox="0 0 1031 382" fill="none" xmlns="http://www.w3.org/2000/svg">
<g filter="url(#filter0_d_894_10940)">
<g filter="url(#filter1_i_894_10940)">
<path d="M106.288 316L24 82.3009C398.447 0.397049 632.896 -9.78254 1008 82.301L943.897 316C687.12 256.675 382.702 257.199 106.288 316Z" fill="#4D2C72"/>
</g>
<path d="M106.288 316L24 82.3009C398.447 0.397049 632.896 -9.78254 1008 82.301L943.897 316C687.12 256.675 382.702 257.199 106.288 316Z" stroke="#F85F73" stroke-width="30"/>
</g>
<path d="M372.727 67.7287C401.439 64.5267 427.069 84.0363 430.111 111.317C433.154 138.598 412.451 163.275 383.739 166.477C383.202 166.536 382.666 166.596 382.03 166.577L337.486 171.544L340.498 198.557C342.154 213.405 330.799 226.896 315.146 228.642C299.493 230.387 285.535 219.719 283.879 204.871L272.867 106.123C271.211 91.2748 282.476 77.7932 298.129 76.0476L372.727 67.7287ZM366.657 124.551L382.951 110.69L361.395 113.094L350.763 94.9003L344.589 115.059L322.854 117.483L341.791 127.324L337.714 146.796L355.072 133.541L374.924 142.647L366.657 124.551Z" fill="#FCEEA3"/>
<path d="M649.936 67.6768C662.333 73.2912 668.368 88.9712 663.22 102.713L628.682 196.546C625.228 208.918 613.018 219.232 598.259 219.406C583.59 219.579 571.233 209.643 567.4 197.538L559.701 178.187L575.928 187.987L568.184 164.766L589.43 149.845L563.331 150.152L552.793 126.605L542.993 150.392L516.715 150.701L538.306 165.118L531.021 188.516L547.728 177.968L540.488 197.585C537.124 209.955 524.824 220.271 510.066 220.445C495.397 220.617 483.039 210.682 479.206 198.577L442.015 105.318C436.634 91.7004 442.208 75.8837 454.47 69.9789C466.821 64.073 481.204 70.2041 486.585 83.8216L509.03 140.171L530.052 83.3097C535.11 69.5692 549.345 63.1011 561.742 68.7155C568.348 71.6979 573.187 77.5813 575.428 84.3954L597.224 139.133L618.156 82.272C623.304 68.5305 637.539 62.0624 649.936 67.6768Z" fill="#FDCDD4"/>
<path opacity="0.1" d="M82.4442 212L45 95.409L82.4442 86.7158L130.235 76.4886L220.396 60.1249L307.602 46.3181L397.271 37.6249L472.159 31.9999H540.643L576.5 32.4999L612.5 33.9999L674.5 38.4999L736 44.4999C736 44.4999 261.894 101.959 82.4442 212Z" fill="white"/>
<path d="M762.849 83.8555L743.875 232.395L699.362 227.348L716.481 109.972L693.817 108.534L697.194 73.8803L762.849 83.8555Z" fill="#D0D5DD"/>
<path d="M819.6 192.778C818.499 205.709 826.287 213.304 842.964 215.563C860.735 217.753 870.72 212.06 872.92 198.482C874.583 186.205 867.048 178.608 850.316 175.691C832.607 173.582 822.404 179.282 819.706 192.792L819.6 192.778ZM850.058 142.377L851.868 142.622C897.825 149.063 919.028 169.93 915.477 205.222C910.389 239.583 884.809 253.969 838.736 248.379C793.488 242.033 772.976 221.405 777.199 186.493C778.461 177.703 782.57 168.178 789.524 157.918L831.854 95.8995L878.615 102.016L850.058 142.377Z" fill="#B9E7FE"/>
<path opacity="0.1" d="M983.5 117.5L934 297L893 289.5L852 282L763 269.5L675.104 261.019L585.5 257L514.5 257L480 257L445.5 258.5L336 265C336 265 786.235 190.969 983.5 117.5Z" fill="white"/>
<path d="M233.33 185.385C248.179 181.343 263.11 188.565 266.609 201.417C270.131 214.356 260.897 228.063 246.047 232.105C245.526 232.247 245.092 232.365 244.571 232.507L159.294 255.721C157.628 256.454 155.828 257.037 154.005 257.534C136.723 262.238 119.574 254.407 115.674 240.078L89.7658 144.902L89.7421 144.815C85.8417 130.486 96.6553 115.044 113.937 110.34C114.892 110.08 115.784 109.93 116.676 109.78L206.121 85.4323C220.971 81.3901 235.878 88.5251 239.4 101.464C242.899 114.317 233.689 128.11 218.839 132.152C218.318 132.294 217.797 132.436 217.339 132.467L179.129 142.868L168.837 141.38L164.889 126.877L160.202 140.839L146.562 140.074L157.411 150.46L153.299 164.824L164.693 157.338L175.787 166.911L171.886 152.582L179.743 146.152L219.69 135.279L219.714 135.365C234.563 131.323 249.384 138.482 252.906 151.421C256.405 164.273 247.257 177.956 232.408 181.999L192.809 192.778L182.429 191.313L178.482 176.81L173.77 190.685L160.154 190.007L170.979 200.306L166.891 214.757L178.262 207.184L189.379 216.844L185.479 202.515L192.949 196.377L233.33 185.385Z" fill="#E5CEFF"/>
<defs>
<filter id="filter0_d_894_10940" x="0.2146" y="1.99994" width="1030.33" height="339.857" filterUnits="userSpaceOnUse" color-interpolation-filters="sRGB">
<feFlood flood-opacity="0" result="BackgroundImageFix"/>
<feColorMatrix in="SourceAlpha" type="matrix" values="0 0 0 0 0 0 0 0 0 0 0 0 0 0 0 0 0 0 127 0" result="hardAlpha"/>
<feOffset dy="4"/>
<feGaussianBlur stdDeviation="2"/>
<feComposite in2="hardAlpha" operator="out"/>
<feColorMatrix type="matrix" values="0 0 0 0 0 0 0 0 0 0 0 0 0 0 0 0 0 0 0.25 0"/>
<feBlend mode="normal" in2="BackgroundImageFix" result="effect1_dropShadow_894_10940"/>
<feBlend mode="normal" in="SourceGraphic" in2="effect1_dropShadow_894_10940" result="shape"/>
</filter>
<filter id="filter1_i_894_10940" x="4.2146" y="1.99994" width="1026.33" height="335.857" filterUnits="userSpaceOnUse" color-interpolation-filters="sRGB">
<feFlood flood-opacity="0" result="BackgroundImageFix"/>
<feBlend mode="normal" in="SourceGraphic" in2="BackgroundImageFix" result="shape"/>
<feColorMatrix in="SourceAlpha" type="matrix" values="0 0 0 0 0 0 0 0 0 0 0 0 0 0 0 0 0 0 127 0" result="hardAlpha"/>
<feOffset dx="10" dy="4"/>
<feGaussianBlur stdDeviation="2"/>
<feComposite in2="hardAlpha" operator="arithmetic" k2="-1" k3="1"/>
<feColorMatrix type="matrix" values="0 0 0 0 1 0 0 0 0 1 0 0 0 0 1 0 0 0 1 0"/>
<feBlend mode="normal" in2="shape" result="effect1_innerShadow_894_10940"/>
</filter>
</defs>
</svg>
