<svg width="159" height="496" viewBox="0 0 159 496" fill="none" xmlns="http://www.w3.org/2000/svg">
<path fill-rule="evenodd" clip-rule="evenodd" d="M101.551 413.591C101.551 401.597 91.8234 391.871 79.8285 391.93C67.8336 391.93 58.166 401.657 58.166 413.651C58.166 425.645 67.8933 435.372 79.8882 435.312C91.8832 435.312 101.61 425.586 101.551 413.591Z" fill="url(#paint0_linear_196_8079)"/>
<path d="M79.8284 440.683C64.9094 440.683 52.7949 428.569 52.7949 413.651C52.7949 398.733 64.9094 386.62 79.8284 386.56C94.7475 386.56 106.921 398.674 106.921 413.592C106.921 428.51 94.8072 440.623 79.8881 440.683H79.8284ZM79.8284 397.301C75.4721 397.301 71.3544 399.032 68.2512 402.075C65.1481 405.178 63.4772 409.295 63.4772 413.651C63.4772 422.662 70.8173 430.001 79.8284 430.001C84.1848 430.001 88.3024 428.271 91.4056 425.228C94.5088 422.125 96.1796 418.007 96.1796 413.651C96.1796 404.641 88.8395 397.301 79.8284 397.301Z" fill="black"/>
<path fill-rule="evenodd" clip-rule="evenodd" d="M152.813 417.053L152.396 79.0692C152.396 38.6711 119.276 5.61277 78.8747 5.67244C38.474 5.67244 5.41306 38.7308 5.47274 79.1289L5.89051 417.112C5.89051 457.51 38.9512 490.569 79.4116 490.509C119.812 490.509 152.873 457.391 152.813 417.053ZM124.825 413.651C124.825 438.773 104.476 459.121 79.3519 459.121C54.2282 459.121 33.8787 438.773 33.8787 413.651C33.8787 388.529 54.2282 368.181 79.3519 368.181C104.476 368.181 124.825 388.529 124.825 413.651Z" fill="url(#paint1_linear_196_8079)"/>
<path d="M79.3536 362.87C51.3058 362.87 28.5098 385.665 28.5098 413.711C28.5098 441.697 51.3058 464.492 79.3536 464.492C92.9598 464.492 105.671 459.181 115.279 449.574C124.887 439.967 130.198 427.197 130.138 413.651C130.138 385.665 107.342 362.87 79.3536 362.87ZM79.3536 453.81C57.2138 453.81 39.2514 435.849 39.2514 413.711C39.2514 391.573 57.2734 373.611 79.3536 373.551C101.434 373.551 119.456 391.513 119.456 413.651C119.456 435.79 101.494 453.751 79.3536 453.81Z" fill="black"/>
<path d="M157.707 79.0691C157.707 35.6278 122.32 0.301758 78.8754 0.301758C57.8693 0.301758 38.1165 8.53655 23.2571 23.4546C8.33804 38.3727 0.102755 58.1242 0.162431 79.1289L0.579844 417.112C0.579844 460.553 35.9679 495.879 79.3525 495.879C100.299 495.879 120.111 487.645 135.03 472.727C149.95 457.809 158.185 438.057 158.125 417.053L157.707 79.0691ZM127.451 465.148C114.561 478.038 97.4941 485.138 79.3525 485.198C41.8162 485.198 11.2621 454.646 11.2621 417.112L10.8443 79.1289C10.8443 60.9885 17.9457 43.9223 30.8357 31.0331C43.7258 18.1439 60.7932 10.9831 78.9945 10.9831C116.531 10.9831 147.085 41.5353 147.085 79.0691L147.503 417.053C147.503 435.133 140.401 452.259 127.511 465.148H127.451Z" fill="black"/>
<path fill-rule="evenodd" clip-rule="evenodd" d="M31.5502 351.95L31.1328 79.1286C31.1328 52.8728 52.6759 31.3311 78.8738 31.3311C105.131 31.3311 126.674 52.8727 126.674 79.0688L127.032 351.89C114.381 340.433 97.6121 333.452 79.2318 333.511C60.8515 333.511 44.0825 340.493 31.4909 351.95H31.5502Z" fill="#FBD921"/>
<path d="M35.1309 355.948L26.1795 352.009L25.7617 79.1878C25.7617 65.1052 31.3115 51.7387 41.3371 41.6541C51.4224 31.5695 64.7304 26.02 78.8139 26.02C108.115 26.02 131.985 49.8292 131.985 79.1282L132.403 351.95L123.452 355.948C111.337 344.968 95.6424 338.941 79.2911 338.941C62.8801 338.941 47.1855 345.028 35.0712 356.007L35.1309 355.948ZM78.9331 36.7012C67.6543 36.7012 57.0321 41.1169 48.9758 49.1727C40.9196 57.2284 36.5034 67.8502 36.5034 79.1282L36.9211 341.029C61.8658 324.321 96.7766 324.321 121.781 341.029L121.363 79.1282C121.363 55.7367 102.326 36.7012 78.9331 36.7012Z" fill="black"/>
<defs>
<linearGradient id="paint0_linear_196_8079" x1="79.8585" y1="391.93" x2="79.8585" y2="435.313" gradientUnits="userSpaceOnUse">
<stop stop-color="#958114"/>
<stop offset="0.485642" stop-color="#FBD921"/>
<stop offset="1" stop-color="#958114"/>
</linearGradient>
<linearGradient id="paint1_linear_196_8079" x1="79.143" y1="5.67236" x2="79.143" y2="490.509" gradientUnits="userSpaceOnUse">
<stop stop-color="#958114"/>
<stop offset="0.485642" stop-color="#FBD921"/>
<stop offset="1" stop-color="#958114"/>
</linearGradient>
</defs>
</svg>
