<svg width="10" height="10" viewBox="0 0 10 10" fill="none" xmlns="http://www.w3.org/2000/svg">
<path fill-rule="evenodd" clip-rule="evenodd" d="M8.53392 1.46572C10.4887 3.41338 10.4887 6.58662 8.53392 8.53428C6.57914 10.4886 3.41838 10.4886 1.4636 8.53428C-0.484552 6.58 -0.491178 3.42 1.4636 1.46572C3.41838 -0.488572 6.57914 -0.488572 8.53392 1.46572Z" fill="black"/>
<path fill-rule="evenodd" clip-rule="evenodd" d="M7.74539 2.254C9.26283 3.77106 9.26283 6.23546 7.74539 7.75252C6.22795 9.26958 3.76294 9.26958 2.2455 7.75252C0.728063 6.23546 0.728063 3.77106 2.2455 2.254C3.76294 0.736947 6.22133 0.736947 7.74539 2.254Z" fill="#DDBB06"/>
<path fill-rule="evenodd" clip-rule="evenodd" d="M6.77134 3.22777C8.00384 4.45997 8.00384 6.454 6.77134 7.67957C5.54546 8.91177 3.55092 8.91177 2.31842 7.67957C1.08592 6.44738 1.08592 4.45334 2.31842 3.22777C3.55092 2.0022 5.54546 2.0022 6.77134 3.22777Z" fill="#FCEEA3"/>
<path fill-rule="evenodd" clip-rule="evenodd" d="M4.76353 5.0497C4.12078 4.4071 3.0738 4.4071 2.43104 5.0497C1.78829 5.69229 1.78829 6.73238 2.43104 7.3816C3.0738 8.0242 4.11415 8.0242 4.76353 7.3816C5.40629 6.73901 5.40629 5.69892 4.76353 5.05633V5.0497Z" fill="white"/>
<path fill-rule="evenodd" clip-rule="evenodd" d="M8.16293 4.53955C1.78174 4.53955 8.54726 4.53955 1.82812 4.53955V5.26164C7.5533 5.26164 2.69618 5.26164 8.16293 5.26164V4.53955Z" fill="black"/>
</svg>
