<svg width="10" height="10" viewBox="0 0 10 10" fill="none" xmlns="http://www.w3.org/2000/svg">
<g clip-path="url(#clip0_748_7335)">
<path fill-rule="evenodd" clip-rule="evenodd" d="M7.87081 2.13926C9.45349 3.71849 9.45349 6.28916 7.87081 7.86839C6.28813 9.44762 3.71183 9.44762 2.12915 7.86839C0.546468 6.28916 0.546468 3.71849 2.12915 2.13926C3.71183 0.560027 6.28813 0.560027 7.87081 2.13926Z" fill="#82ABFF"/>
<path fill-rule="evenodd" clip-rule="evenodd" d="M8.7438 3.64058C8.76509 3.69724 8.77929 3.7539 8.79348 3.80347V3.82472L8.82186 3.88845V3.90969L8.85025 3.9876C8.86445 4.05134 8.87864 4.10799 8.89283 4.16465L8.90704 4.24963L8.92123 4.34169C8.92833 4.39835 8.94253 4.455 8.94962 4.51873V4.57538V4.62496V4.63202V4.68869V4.75242V4.79491V4.80907V4.86573V4.93656V5.0286V5.05693V5.09235C8.94962 5.14193 8.94962 5.19858 8.94962 5.24815V5.26231C8.94962 5.31896 8.94251 5.36854 8.93542 5.4252V5.43935C8.85735 6.15461 8.58766 6.84862 8.12634 7.45057L5.692 5.02153L8.12634 2.5925C8.38184 2.91826 8.58055 3.27941 8.7154 3.66183L8.7438 3.64058ZM7.43791 8.14459L5.00356 5.71553L2.5692 8.14459C3.34989 8.74653 4.30092 9.02273 5.23066 8.96607H5.24487C5.47907 8.95191 5.70619 8.91648 5.9333 8.85983H5.94038C6.16749 8.80317 6.39461 8.72529 6.60752 8.63323C6.89851 8.50576 7.1753 8.34287 7.43081 8.1375L7.43791 8.14459ZM1.02911 5.04987C1.02911 5.00029 1.02911 4.94364 1.02911 4.89407C1.0504 4.07258 1.32718 3.25817 1.85947 2.57832L4.29384 5.00736L1.85947 7.43641C1.71043 7.23812 1.5827 7.03982 1.47624 6.82737V6.81321C1.36268 6.60784 1.27751 6.3954 1.20654 6.17586L1.19233 6.14044C1.16394 6.03421 1.13556 5.93507 1.11427 5.82884V5.8076C1.10008 5.75802 1.09297 5.70846 1.08588 5.65889V5.63055L1.07169 5.56682V5.51018V5.44644L1.0575 5.38978V5.33313V5.29771V5.29064C1.0575 5.24107 1.0575 5.19857 1.0504 5.149V5.08527V5.05693L1.02911 5.04987ZM2.5692 1.86308L5.00356 4.29211L7.43791 1.86308C6.01136 0.758328 3.99574 0.758328 2.5692 1.86308ZM3.69767 0.184688L3.58412 0.22011L3.47056 0.25551C3.43507 0.269673 3.39249 0.28385 3.357 0.290932C3.32151 0.305095 3.27893 0.319257 3.24344 0.33342L3.12988 0.375909L3.01632 0.425465L2.90277 0.475042L2.78921 0.52462L2.68275 0.581264L2.5763 0.63793L2.46985 0.701663L2.36339 0.765397C2.36339 0.765397 2.2924 0.807885 2.25692 0.82913C2.22143 0.850375 2.18595 0.878706 2.15046 0.899952C2.11497 0.921197 2.0795 0.949528 2.05111 0.970773C2.01562 0.992019 1.98723 1.02034 1.95174 1.04866C1.91625 1.07699 1.88788 1.09825 1.85239 1.12657L1.75302 1.21155L1.65367 1.29653C1.65367 1.29653 1.58979 1.35318 1.5614 1.38151C1.53301 1.40983 1.49752 1.43816 1.46913 1.47357C1.44074 1.5019 1.40525 1.53731 1.37687 1.56564C1.34848 1.59396 1.32009 1.62938 1.2917 1.6577L1.20654 1.74977L1.12138 1.8489C1.12138 1.8489 1.07168 1.91265 1.04329 1.94806C1.04329 1.94806 0.993624 2.01178 0.965235 2.04719C0.965235 2.04719 0.91555 2.11094 0.894258 2.14635L0.823282 2.25257L0.759409 2.35879L0.695537 2.46501L0.631664 2.57125C0.610373 2.60666 0.589069 2.64207 0.574874 2.67748L0.518106 2.7837C0.496814 2.81911 0.482608 2.85452 0.461316 2.89701L0.411652 3.01032C0.397457 3.04573 0.383258 3.08822 0.361966 3.12363C0.347771 3.15904 0.333579 3.20151 0.319384 3.23692L0.276803 3.35023C0.262608 3.38564 0.248401 3.42813 0.241303 3.46354C0.227109 3.49895 0.212923 3.54144 0.205826 3.57685L0.170348 3.69016L0.141953 3.80347C0.134856 3.83888 0.120656 3.88136 0.113558 3.92385C0.106461 3.95926 0.0993578 4.00176 0.0851633 4.04425L0.0638725 4.16465L0.0425817 4.28503L0.028395 4.40542C0.028395 4.44792 0.0213056 4.48331 0.0142083 4.5258V4.6462H0.00710416C0.00710416 4.68869 0.00709723 4.72409 0 4.76658V4.88698V5.00736V5.12776V5.24815V5.36853H0.00710416V5.48893H0.0142083L0.028395 5.60931L0.0425817 5.72971L0.0638725 5.85009L0.0851633 5.97048C0.0851633 6.00589 0.0993569 6.04837 0.106454 6.09086L0.134849 6.21126L0.163244 6.32457L0.198722 6.43788C0.212916 6.47329 0.220026 6.51578 0.234221 6.55119C0.248415 6.5866 0.262601 6.62909 0.269698 6.6645C0.283893 6.69991 0.298086 6.74238 0.31228 6.77779L0.354862 6.8911L0.404548 7.00441L0.454233 7.11772L0.511002 7.23103L0.567792 7.33726C0.589083 7.37266 0.603268 7.40807 0.62456 7.44348C0.645852 7.47889 0.667141 7.51431 0.688433 7.54972L0.752305 7.65594C0.752305 7.65594 0.794886 7.72676 0.816178 7.76217C0.837469 7.79757 0.865863 7.83298 0.887154 7.86839C0.908446 7.9038 0.936839 7.93922 0.958131 7.96754C0.979423 8.00295 1.00782 8.03127 1.03621 8.06668C1.0646 8.10208 1.08588 8.13042 1.11427 8.16583L1.19943 8.26496L1.2846 8.35703C1.2846 8.35703 1.34137 8.42077 1.36976 8.4491C1.36976 8.4491 1.42654 8.51283 1.46203 8.54116C1.46203 8.54116 1.52591 8.59782 1.5543 8.63323C1.5543 8.63323 1.61817 8.68988 1.64656 8.71821C1.64656 8.71821 1.71044 8.77486 1.73883 8.80318L1.83818 8.88816L1.93755 8.96607L2.0369 9.04396C2.0369 9.04396 2.10789 9.09354 2.13627 9.11478L2.23562 9.1856L2.3421 9.24934L2.44855 9.31307L2.55501 9.3768C2.59049 9.39805 2.62598 9.41928 2.66146 9.43345L2.76792 9.49011C2.8034 9.51136 2.83891 9.52553 2.87439 9.53969L2.98795 9.58925C3.02344 9.60341 3.066 9.62466 3.10149 9.63882L3.21505 9.68131L3.3286 9.7238L3.44216 9.75922C3.47765 9.77339 3.52024 9.78754 3.55572 9.79462C3.59121 9.80879 3.63379 9.81588 3.66928 9.83004C3.70477 9.83713 3.74734 9.85127 3.78992 9.85836C3.82541 9.86544 3.868 9.87961 3.91058 9.88669C3.95317 9.89377 3.98864 9.90086 4.03122 9.91502L4.15189 9.93627L4.27255 9.95751L4.39319 9.97167C4.43577 9.97167 4.47127 9.97874 4.51385 9.98582L4.63449 9.99291L4.75516 10H4.8758H4.99646C5.03904 10 5.07454 10 5.11712 10H5.23776C5.28035 10 5.31584 9.99999 5.35842 9.99291L5.47907 9.98582L5.59973 9.97167L5.72037 9.95751L5.84103 9.93627L5.96167 9.91502C6.00426 9.90794 6.03975 9.90085 6.08233 9.88669L6.203 9.85836C6.23848 9.85127 6.28105 9.83713 6.32364 9.83004L6.4372 9.79462C7.13273 9.58925 7.79276 9.22809 8.36054 8.71821L8.45281 8.63323L8.54508 8.54116L8.63734 8.4491C8.63734 8.4491 8.69412 8.38536 8.72251 8.35703L8.80767 8.2579C8.80767 8.2579 8.86444 8.19415 8.89283 8.15874C8.89283 8.15874 8.94253 8.09502 8.97091 8.05961C8.97091 8.05961 9.02058 7.99586 9.04897 7.96045C9.04897 7.96045 9.09866 7.88963 9.11995 7.8613L9.19093 7.75508L9.2548 7.64885L9.31867 7.54263L9.38254 7.43641C9.40384 7.401 9.42514 7.36558 9.43933 7.33017L9.4961 7.21688C9.51739 7.18147 9.53159 7.14604 9.54579 7.11064L9.59547 6.99735L9.64514 6.88404L9.68772 6.77073L9.73032 6.65741L9.7658 6.5441C9.78 6.5087 9.78708 6.4662 9.80128 6.43079L9.83678 6.31748L9.86515 6.20417C9.87225 6.16168 9.88645 6.12629 9.89355 6.0838L9.91484 5.9634L9.93613 5.84302L9.95742 5.72262L9.97163 5.60224L9.98581 5.48184V5.36144H9.99292V5.24107H10V5.12067V5.00029V4.87989C10 4.8374 10 4.802 10 4.75951C10 4.71702 10 4.6816 9.99292 4.63911L9.98581 4.51873L9.97163 4.39834C9.97163 4.35585 9.96452 4.32043 9.95742 4.27794L9.93613 4.15756C9.93613 4.11507 9.92193 4.07965 9.91484 4.03716L9.89355 3.91678L9.86515 3.79638L9.83678 3.68307L9.80128 3.56976L9.7658 3.45647L9.73032 3.34316L9.68772 3.22985L9.64514 3.11654L9.59547 3.00323C9.35417 2.44377 9.0064 1.91971 8.54508 1.46648L8.45281 1.37444C8.45281 1.37444 8.38893 1.31777 8.36054 1.28944L8.26827 1.20446C8.26827 1.20446 8.20441 1.14781 8.16892 1.11948L8.06955 1.0416L7.9702 0.963685L7.87083 0.892863L7.76438 0.822063L7.65792 0.758308L7.55147 0.694575L7.44501 0.630842C7.40953 0.609596 7.37402 0.588361 7.33854 0.574197L7.23208 0.517531C7.1966 0.496286 7.16111 0.482132 7.11853 0.460887L7.00497 0.411309C6.96948 0.397146 6.92692 0.375895 6.89143 0.361732C6.85594 0.347568 6.81336 0.333407 6.77787 0.319243L6.66431 0.276754L6.55076 0.241354C5.62811 -0.0560791 4.63449 -0.0773286 3.70476 0.170532L3.69767 0.184688Z" fill="black"/>
</g>
<defs>
<clipPath id="clip0_748_7335">
<rect width="10" height="10" fill="white"/>
</clipPath>
</defs>
</svg>
