<svg width="1724" height="1723" viewBox="0 0 1724 1723" fill="none" xmlns="http://www.w3.org/2000/svg">
<path fill-rule="evenodd" clip-rule="evenodd" d="M782.677 813.657V494.231C782.677 387.776 782.677 281.261 782.677 174.806C611.049 194.438 458.576 277.084 348.951 399.114C239.385 521.143 172.667 682.438 172.667 859.306C172.667 906.447 177.501 953.409 187.049 999.297C196.538 1045.18 210.741 1090.06 229.36 1133.14C321.56 1079.91 413.759 1026.69 506.019 973.399C598.218 920.172 690.418 866.944 782.618 813.657H782.677ZM940.76 813.657C1032.96 866.884 1125.22 920.112 1217.42 973.399C1309.62 1026.63 1401.82 1079.85 1494.02 1133.14C1512.64 1090.06 1526.84 1045.18 1536.39 999.297C1545.88 953.409 1550.77 906.507 1550.77 859.306C1550.77 682.438 1484.11 521.143 1374.49 399.114C1264.92 277.144 1112.39 194.438 940.76 174.806V813.657ZM861.689 950.545C953.888 1003.77 1046.15 1057 1138.35 1110.23C1230.55 1163.46 1322.81 1216.68 1415.01 1269.97C1312.24 1408.59 1164.31 1499.23 1003.72 1533.12C843.189 1567.02 670.128 1544.22 517.178 1455.91C476.3 1432.34 438.107 1404.65 403.137 1373.5C368.167 1342.29 336.359 1307.62 308.371 1269.91C400.571 1216.68 492.83 1163.46 585.03 1110.23C677.23 1057 769.489 1003.77 861.689 950.545ZM841.28 7.60449H882.158C887.529 24.6111 892.899 41.6176 898.211 58.6242C903.581 75.6308 908.952 92.6374 914.323 109.644C922.021 93.5325 929.66 77.4806 937.358 61.3691C945.056 45.2577 952.695 29.2058 960.393 13.0943C967.137 14.0491 973.88 15.0038 980.623 15.9586C987.367 16.9134 994.11 17.8681 1000.85 18.8229C1003.78 36.4262 1006.7 53.9698 1009.69 71.5731C1012.61 89.1764 1015.53 106.72 1018.52 124.323C1028.36 109.465 1038.21 94.6066 1048.06 79.7482C1057.9 64.8898 1067.75 50.0314 1077.6 35.173C1084.16 37.0229 1090.73 38.9324 1097.23 40.7822C1103.8 42.6917 1110.3 44.5416 1116.86 46.3914C1117.34 64.2334 1117.82 82.0157 1118.3 99.8577C1118.77 117.7 1119.25 135.482 1119.67 153.324C1131.48 139.957 1143.3 126.591 1155.12 113.284C1166.93 99.9174 1178.75 86.6105 1190.56 73.2439C1196.77 75.9888 1203.04 78.7934 1209.24 81.5383C1215.45 84.2833 1221.66 87.0879 1227.92 89.8328C1225.89 107.555 1223.86 125.278 1221.83 143.001C1219.81 160.723 1217.78 178.386 1215.81 196.109C1229.35 184.533 1242.9 172.956 1256.45 161.38C1269.99 149.803 1283.54 138.227 1297.09 126.651C1302.88 130.231 1308.66 133.871 1314.39 137.451C1320.18 141.091 1325.97 144.672 1331.76 148.312C1327.28 165.557 1322.81 182.802 1318.39 200.107C1313.92 217.352 1309.44 234.598 1304.96 251.903C1320 242.295 1335.04 232.748 1350.08 223.141C1365.12 213.593 1380.16 203.986 1395.19 194.378C1400.39 198.735 1405.64 203.15 1410.83 207.506C1416.08 211.862 1421.27 216.278 1426.52 220.634C1419.66 237.104 1412.86 253.573 1406.06 270.043C1399.25 286.512 1392.39 302.982 1385.59 319.451C1401.82 312.052 1417.99 304.653 1434.22 297.253C1450.45 289.854 1466.69 282.455 1482.86 275.055C1487.39 280.127 1491.99 285.2 1496.52 290.272C1501.06 295.344 1505.65 300.416 1510.19 305.488C1501.12 320.824 1492.11 336.219 1483.04 351.555C1473.97 366.891 1464.96 382.286 1455.88 397.622C1472.95 392.55 1490.08 387.478 1507.15 382.406C1524.27 377.333 1541.34 372.261 1558.41 367.189C1562.23 372.858 1566.05 378.467 1569.87 384.136C1573.69 389.805 1577.5 395.414 1581.32 401.083C1570.22 415.046 1559.12 429.01 1548.02 442.913C1536.92 456.876 1525.83 470.84 1514.73 484.743C1532.33 482.118 1549.99 479.492 1567.6 476.867C1585.2 474.241 1602.87 471.616 1620.47 468.93C1623.46 475.077 1626.44 481.163 1629.42 487.309C1632.41 493.456 1635.39 499.542 1638.37 505.688C1625.42 517.981 1612.53 530.214 1599.59 542.506C1586.64 554.799 1573.69 567.031 1560.8 579.324C1578.64 579.145 1596.42 579.026 1614.27 578.846C1632.11 578.667 1649.89 578.548 1667.74 578.369C1669.82 584.873 1671.97 591.318 1674.06 597.822C1676.15 604.326 1678.3 610.771 1680.39 617.275C1665.89 627.599 1651.38 637.982 1636.88 648.305C1622.38 658.628 1607.82 669.011 1593.32 679.334C1610.98 681.662 1628.65 683.989 1646.31 686.316C1663.98 688.643 1681.64 690.971 1699.36 693.298C1700.56 699.981 1701.75 706.724 1702.88 713.407C1704.08 720.091 1705.27 726.834 1706.46 733.517C1690.65 741.752 1674.84 749.986 1659.02 758.221C1643.21 766.456 1627.39 774.691 1611.58 782.925C1628.77 787.699 1645.95 792.473 1663.14 797.187C1680.33 801.961 1697.51 806.735 1714.64 811.449C1714.88 818.251 1715.12 825.054 1715.36 831.857C1715.6 838.659 1715.83 845.462 1716.07 852.265C1699.24 858.232 1682.48 864.139 1665.65 870.107C1648.82 876.074 1632.05 881.981 1615.22 887.948C1631.57 895.049 1647.92 902.151 1664.27 909.252C1680.63 916.353 1696.98 923.453 1713.33 930.554C1712.61 937.357 1711.9 944.1 1711.18 950.903C1710.46 957.646 1709.75 964.448 1709.03 971.251C1691.55 974.831 1674.06 978.352 1656.58 981.873C1639.09 985.453 1621.67 988.974 1604.18 992.554C1619.4 1001.86 1634.56 1011.17 1649.77 1020.48C1664.99 1029.79 1680.15 1039.1 1695.37 1048.41C1693.69 1055.03 1692.08 1061.65 1690.41 1068.22C1688.8 1074.84 1687.13 1081.41 1685.46 1088.03C1667.68 1089.1 1649.89 1090.18 1632.05 1091.31C1614.27 1092.39 1596.48 1093.46 1578.7 1094.59C1592.42 1105.93 1606.21 1117.27 1619.99 1128.61C1633.72 1139.94 1647.5 1151.28 1661.23 1162.62C1658.72 1168.94 1656.16 1175.27 1653.59 1181.6C1651.03 1187.92 1648.52 1194.25 1645.95 1200.57C1628.17 1199.2 1610.39 1197.77 1592.66 1196.39C1574.88 1195.02 1557.1 1193.59 1539.37 1192.22C1551.43 1205.34 1563.48 1218.47 1575.48 1231.66C1587.53 1244.79 1599.58 1257.98 1611.64 1271.1C1608.24 1277.01 1604.84 1282.92 1601.44 1288.83C1598.03 1294.73 1594.63 1300.64 1591.23 1306.55C1573.86 1302.67 1556.44 1298.85 1539.01 1294.97C1521.59 1291.09 1504.22 1287.27 1486.8 1283.4C1496.88 1298.08 1507.03 1312.75 1517.11 1327.49C1527.2 1342.17 1537.28 1356.85 1547.43 1371.53C1543.25 1376.9 1539.07 1382.27 1534.84 1387.64C1530.66 1393.01 1526.42 1398.38 1522.24 1403.76C1505.54 1397.49 1488.83 1391.28 1472.12 1385.02C1455.41 1378.75 1438.7 1372.55 1421.99 1366.28C1429.93 1382.21 1437.92 1398.21 1445.86 1414.14C1453.8 1430.07 1461.79 1446.06 1469.73 1462L1455.05 1476.2C1450.16 1480.91 1445.26 1485.68 1440.37 1490.4C1424.67 1481.87 1409.04 1473.39 1393.34 1464.86C1377.65 1456.33 1362.01 1447.85 1346.32 1439.32C1351.99 1456.21 1357.66 1473.15 1363.27 1490.04L1380.22 1540.76L1363.68 1552.76L1347.15 1564.75L1304.19 1532.95C1289.87 1522.32 1275.54 1511.76 1261.16 1501.14L1270.89 1553.71L1280.62 1606.28L1262.59 1615.89L1244.57 1625.5L1206.44 1588.02C1193.73 1575.55 1181.02 1563.02 1168.31 1550.55L1170.63 1603.96L1172.96 1657.36L1153.74 1664.34L1134.53 1671.33L1101.95 1628.9L1069.42 1586.47L1064.29 1639.7L1059.16 1692.93L1039.17 1697.16L1019.17 1701.4L992.857 1654.86L966.54 1608.31L954.067 1660.29L941.595 1712.32L921.186 1713.75L900.777 1715.18L881.203 1665.42C874.639 1648.83 868.134 1632.24 861.569 1615.65L841.996 1665.42L822.422 1715.18L802.013 1713.75L781.603 1712.32L769.131 1660.35C764.954 1642.98 760.836 1625.68 756.659 1608.37C747.886 1623.89 739.114 1639.4 730.282 1654.92L703.965 1701.46L683.973 1697.22C677.289 1695.79 670.606 1694.42 663.981 1692.99C662.251 1675.26 660.58 1657.48 658.849 1639.76C657.119 1622.04 655.448 1604.25 653.717 1586.53C642.856 1600.67 631.995 1614.82 621.194 1628.96C610.333 1643.1 599.471 1657.24 588.61 1671.38C582.225 1669.06 575.78 1666.73 569.395 1664.4C563.009 1662.08 556.624 1659.75 550.179 1657.42C550.955 1639.64 551.731 1621.8 552.506 1604.01C553.282 1586.17 554.058 1568.39 554.834 1550.61C542.123 1563.08 529.412 1575.61 516.701 1588.08C503.99 1600.55 491.279 1613.08 478.568 1625.56C472.54 1622.33 466.513 1619.17 460.545 1615.95C454.518 1612.73 448.491 1609.56 442.463 1606.34C445.746 1588.8 448.968 1571.31 452.191 1553.77C455.473 1536.23 458.695 1518.74 461.978 1501.2C447.655 1511.82 433.333 1522.44 418.951 1533.01C404.629 1543.63 390.307 1554.19 375.984 1564.81C370.494 1560.81 364.944 1556.81 359.454 1552.82C353.964 1548.82 348.414 1544.82 342.924 1540.82C348.593 1523.93 354.262 1506.99 359.931 1490.1C365.601 1473.21 371.27 1456.27 376.879 1439.38C361.244 1447.91 345.549 1456.39 329.854 1464.92C314.16 1473.45 298.524 1481.93 282.83 1490.46C277.936 1485.74 273.043 1480.97 268.149 1476.26C263.256 1471.54 258.362 1466.77 253.469 1462.05C261.406 1446.12 269.403 1430.13 277.339 1414.2C285.276 1398.27 293.213 1382.27 301.21 1366.34C284.501 1372.61 267.791 1378.81 251.142 1385.08C234.432 1391.34 217.783 1397.55 201.073 1403.81C196.836 1398.44 192.659 1393.07 188.482 1387.7C184.304 1382.33 180.067 1376.96 175.89 1371.59C185.975 1356.91 196.12 1342.17 206.205 1327.49C216.291 1312.81 226.436 1298.14 236.521 1283.4C219.096 1287.27 201.73 1291.09 184.304 1294.97C166.879 1298.85 149.513 1302.67 132.088 1306.55C128.686 1300.64 125.284 1294.73 121.883 1288.83C118.481 1282.92 115.08 1277.01 111.678 1271.1C123.733 1257.98 135.787 1244.85 147.842 1231.66C159.897 1218.53 171.951 1205.4 184.006 1192.22C166.222 1193.59 148.439 1195.02 130.655 1196.39C112.872 1197.83 95.0883 1199.2 77.3645 1200.63C74.7984 1194.31 72.292 1187.98 69.7259 1181.66C67.1599 1175.33 64.6535 1169 62.0874 1162.68C75.8726 1151.34 89.5982 1140 103.383 1128.67C117.109 1117.33 130.894 1105.99 144.679 1094.65C126.896 1093.58 109.112 1092.5 91.2691 1091.37C73.4856 1090.3 55.7021 1089.22 37.8589 1088.09C36.2476 1081.47 34.5766 1074.84 32.9056 1068.28C31.2944 1061.65 29.6235 1055.03 27.9526 1048.47C43.17 1039.16 58.3279 1029.85 73.5453 1020.54C88.7627 1011.23 103.92 1001.92 119.138 992.614C101.653 989.093 84.2273 985.513 66.7421 981.932C49.257 978.412 31.8316 974.831 14.3464 971.251C13.6303 964.448 12.9143 957.705 12.1982 950.903C11.4821 944.1 10.7659 937.357 10.0497 930.554C26.401 923.453 42.7523 916.353 59.1036 909.252C75.4549 902.151 91.8062 895.049 108.157 887.948C91.3287 881.981 74.5597 876.014 57.731 870.107C40.9023 864.139 24.1334 858.232 7.30469 852.265C7.54339 845.462 7.78207 838.659 8.02077 831.857C8.25948 825.054 8.49815 818.251 8.73686 811.449C25.9236 806.675 43.1104 801.901 60.2972 797.187C77.4839 792.413 94.6706 787.64 111.857 782.925C96.0431 774.691 80.229 766.456 64.4149 758.221C48.6007 749.986 32.7864 741.752 16.9722 733.517C18.1657 726.834 19.3593 720.091 20.5528 713.407C21.7463 706.724 22.9398 699.981 24.0737 693.298C41.7378 690.971 59.4019 688.643 77.1257 686.316C94.7899 683.989 112.454 681.662 130.178 679.334C115.677 669.011 101.175 658.628 86.6142 648.305C72.1129 637.982 57.552 627.599 43.0507 617.216C45.1393 610.771 47.2877 604.267 49.3763 597.822C51.465 591.318 53.6133 584.873 55.702 578.369C73.5452 578.548 91.3885 578.667 109.172 578.846C127.015 579.026 144.858 579.145 162.642 579.324C149.692 567.031 136.802 554.799 123.852 542.506C110.903 530.214 98.0125 517.981 85.0628 505.688C88.0466 499.542 91.0304 493.456 94.0142 487.309C96.998 481.223 99.9818 475.077 102.966 468.93C120.57 471.556 138.234 474.181 155.898 476.867C173.503 479.492 191.167 482.118 208.771 484.743C197.672 470.78 186.572 456.817 175.472 442.913C164.372 428.95 153.273 414.987 142.173 401.083C145.992 395.414 149.811 389.805 153.631 384.136C157.45 378.467 161.269 372.858 165.029 367.189C182.156 372.261 199.223 377.333 216.291 382.406C233.358 387.478 250.485 392.55 267.552 397.622C258.482 382.286 249.411 366.891 240.4 351.555C231.329 336.219 222.318 320.824 213.247 305.488C217.783 300.416 222.378 295.344 226.913 290.331C231.448 285.259 235.984 280.187 240.579 275.175C256.811 282.574 273.043 289.973 289.275 297.373C305.507 304.772 321.739 312.171 337.971 319.571C331.167 303.101 324.305 286.632 317.501 270.162C310.698 253.693 303.836 237.223 297.033 220.754C302.284 216.398 307.476 211.982 312.668 207.626C317.919 203.27 323.111 198.854 328.363 194.498C343.401 204.105 358.439 213.653 373.478 223.26C388.516 232.867 403.555 242.415 418.593 252.022C414.117 234.777 409.642 217.531 405.166 200.226C400.69 182.981 396.214 165.676 391.798 148.431C397.587 144.791 403.316 141.211 409.104 137.571C414.893 133.99 420.622 130.35 426.411 126.77C439.957 138.346 453.504 149.923 467.11 161.499C480.656 173.076 494.203 184.652 507.809 196.228C505.78 178.506 503.751 160.783 501.722 143.06C499.693 125.338 497.664 107.615 495.695 89.9521L514.373 81.6577C520.58 78.9128 526.786 76.1082 533.052 73.3633C544.868 86.7298 556.684 100.037 568.5 113.403C580.315 126.77 592.131 140.077 603.947 153.443C604.425 135.601 604.902 117.819 605.379 99.9771C605.857 82.1351 606.334 64.3528 606.752 46.5108L626.385 40.8419C632.95 38.9921 639.454 37.0826 646.019 35.2327C655.865 50.0911 665.712 64.9495 675.559 79.8079C685.405 94.6662 695.252 109.525 705.098 124.383C708.023 106.78 711.006 89.2361 713.93 71.6328C716.855 54.0295 719.839 36.4858 722.763 18.8825L742.993 16.0183C749.736 15.0635 756.48 14.1088 763.223 13.154C770.921 29.2655 778.56 45.3173 786.258 61.4288C793.956 77.4806 801.595 93.5921 809.293 109.704C814.664 92.6971 820.035 75.6905 825.346 58.6839C830.717 41.6773 836.088 24.6707 841.399 7.66416L841.28 7.60449Z" fill="url(#paint0_linear_50_7832)"/>
<path d="M1418.77 1263.47L865.449 944.04C863.122 942.727 860.257 942.727 857.93 944.04L304.672 1263.41C302.822 1264.48 301.509 1266.27 301.091 1268.42C300.674 1270.51 301.091 1272.71 302.404 1274.45C330.631 1312.46 362.856 1347.66 398.185 1379.17C433.632 1410.8 472.422 1438.84 513.479 1462.53C619.046 1523.52 739.115 1555.68 860.615 1555.68C909.072 1555.68 957.768 1550.61 1005.33 1540.52C1172.42 1505.2 1320.06 1410.74 1421.09 1274.45C1422.35 1272.71 1422.88 1270.51 1422.41 1268.42C1421.99 1266.33 1420.68 1264.48 1418.83 1263.41L1418.77 1263.47ZM1002.17 1525.78C955.62 1535.63 907.998 1540.58 860.556 1540.58C741.681 1540.58 624.298 1509.08 520.939 1449.4C480.776 1426.25 442.822 1398.8 408.15 1367.89C375.687 1338.95 345.908 1306.79 319.531 1272.24L861.69 959.257L1403.85 1272.24C1305.2 1401.91 1162.88 1491.77 1002.17 1525.78Z" fill="#776503"/>
<path d="M790.255 813.656V174.805C790.255 172.657 789.359 170.628 787.748 169.196C786.137 167.764 783.989 167.048 781.84 167.346C613.136 186.62 457.381 267.118 343.34 394.1C228.463 522.038 165.146 687.27 165.146 859.305C165.146 906.685 170.04 954.303 179.707 1000.79C189.315 1047.15 203.697 1092.68 222.495 1136.12C223.331 1138.09 225.002 1139.59 227.031 1140.3C227.807 1140.54 228.582 1140.66 229.418 1140.66C230.731 1140.66 232.044 1140.3 233.178 1139.64L786.436 820.22C788.763 818.847 790.195 816.401 790.195 813.715L790.255 813.656ZM775.157 809.3L233.058 1122.28C216.289 1082.18 203.339 1040.29 194.507 997.685C185.078 952.214 180.304 905.61 180.304 859.245C180.304 690.91 242.188 529.258 354.618 404.066C464.303 281.976 613.374 203.746 775.157 183.219V809.24V809.3Z" fill="#776503"/>
<path d="M1716.37 923.812L1635.81 888.784L1718.58 859.485C1721.68 858.411 1723.71 855.427 1723.59 852.145L1722.16 811.27C1722.04 807.988 1719.83 805.124 1716.67 804.288L1632.05 780.837L1709.93 740.26C1712.85 738.768 1714.46 735.486 1713.86 732.264L1706.76 691.985C1706.23 688.763 1703.6 686.256 1700.32 685.839L1613.25 674.382L1684.74 623.422C1687.43 621.512 1688.56 618.111 1687.55 614.948L1674.9 576.042C1673.88 572.939 1671.02 570.85 1667.74 570.85H1667.68L1579.89 571.626L1643.57 511.178C1645.95 508.911 1646.61 505.39 1645.18 502.406L1627.27 465.648C1625.84 462.665 1622.74 460.994 1619.4 461.471L1532.57 474.48L1587.23 405.737C1589.26 403.172 1589.44 399.532 1587.59 396.846L1564.73 362.953C1562.88 360.267 1559.48 359.014 1556.38 359.969L1472.18 384.912L1516.75 309.248C1518.43 306.443 1518.07 302.803 1515.86 300.356L1488.53 269.983C1486.32 267.537 1482.8 266.821 1479.81 268.193L1399.97 304.593L1433.57 223.499C1434.82 220.455 1433.98 216.935 1431.42 214.846L1400.09 188.59C1397.58 186.502 1393.94 186.263 1391.2 187.994L1317.14 235.194L1339.16 150.161C1339.99 146.999 1338.62 143.597 1335.82 141.867L1301.14 120.206C1298.4 118.475 1294.76 118.714 1292.25 120.862L1225.47 177.909L1235.44 90.6682C1235.8 87.3863 1234.01 84.2833 1231.02 82.9109L1193.67 66.2623C1190.68 64.9495 1187.16 65.7253 1184.95 68.1718L1126.77 133.931L1124.5 46.1528C1124.44 42.8708 1122.23 40.0065 1119.01 39.1115L1079.69 27.8334C1076.46 26.9383 1073.12 28.1914 1071.33 30.9364L1022.87 104.154L1008.37 17.5698C1007.84 14.3475 1005.27 11.7816 1001.99 11.3639L961.527 5.69502C958.304 5.21765 955.082 6.94814 953.709 9.93175L915.875 89.1764L889.498 5.39666C888.484 2.23404 885.619 0.145508 882.337 0.145508H841.458C838.176 0.145508 835.252 2.29371 834.297 5.45633L807.92 89.2361L770.146 9.93175C768.713 6.94814 765.61 5.21765 762.328 5.69502L721.867 11.3639C718.585 11.8413 716.019 14.3475 715.482 17.5698L700.981 104.154L652.524 30.9364C650.674 28.1914 647.332 26.998 644.169 27.8334L604.842 39.1115C601.68 40.0065 599.471 42.8708 599.412 46.1528L597.144 133.931L538.96 68.1718C536.752 65.7253 533.231 64.9495 530.247 66.2623L492.95 82.9109C489.966 84.2833 488.175 87.3863 488.533 90.6682L498.499 177.909L431.722 120.862C429.215 118.714 425.635 118.475 422.83 120.206L388.158 141.867C385.353 143.597 384.04 146.939 384.876 150.161L406.896 235.194L332.838 187.994C330.093 186.263 326.453 186.442 323.946 188.59L292.616 214.846C290.11 216.935 289.215 220.455 290.468 223.499L324.066 304.593L244.159 268.193C241.176 266.821 237.655 267.537 235.447 269.983L208.115 300.356C205.907 302.803 205.549 306.383 207.22 309.248L251.798 384.912L167.595 359.969C164.372 359.074 161.03 360.267 159.18 362.953L136.324 396.846C134.475 399.591 134.594 403.172 136.683 405.737L191.346 474.48L104.517 461.471C101.115 460.994 98.0721 462.665 96.6398 465.648L78.737 502.347C77.3047 505.33 77.9015 508.851 80.3482 511.119L144.023 571.566L56.1794 570.791C53.1956 570.194 49.9729 572.879 48.9584 576.042L36.3668 614.889C35.3523 617.991 36.4862 621.452 39.1716 623.362L110.664 674.382L23.596 685.839C20.3735 686.256 17.7479 688.763 17.1511 691.985L10.0496 732.204C9.45285 735.426 11.0641 738.649 13.9883 740.2L91.8656 780.777L7.24482 804.228C4.08198 805.124 1.81433 807.928 1.69498 811.21L0.262809 852.086C0.143456 855.368 2.17243 858.351 5.27559 859.425L88.0465 888.724L7.48358 923.752C4.44009 925.065 2.64981 928.168 3.00786 931.45L7.30456 972.086C7.66261 975.368 10.0497 977.994 13.2722 978.65L99.3252 996.134L24.4316 1042.02C21.6268 1043.75 20.2542 1047.09 21.03 1050.26L30.9363 1089.88C31.7121 1093.1 34.5168 1095.37 37.799 1095.61L125.463 1100.98L57.6713 1156.83C55.1649 1158.92 54.2101 1162.44 55.4633 1165.48L70.7404 1203.38C71.9339 1206.42 75.0967 1208.33 78.3192 1208.09L165.864 1201.17L106.546 1265.91C104.338 1268.36 103.92 1271.94 105.532 1274.8L126 1310.19C127.671 1313.05 130.954 1314.43 134.176 1313.77L219.931 1294.73L170.161 1367.12C168.311 1369.86 168.43 1373.44 170.459 1376.07L195.643 1408.29C197.672 1410.86 201.133 1411.81 204.236 1410.68L286.529 1379.95L247.322 1458.53C245.83 1461.46 246.487 1465.04 248.814 1467.31L278.234 1495.71C280.562 1498.04 284.202 1498.45 287.067 1496.9L364.288 1455.01L336.419 1538.26C335.404 1541.36 336.419 1544.82 339.164 1546.73L372.224 1570.78C374.91 1572.75 378.491 1572.69 381.176 1570.78L451.773 1518.56L435.78 1604.91C435.183 1608.13 437.749 1611.95 440.673 1613.5L475.763 1632.12C478.627 1633.67 482.208 1633.14 484.595 1630.87L547.255 1569.29L543.436 1657C543.316 1660.29 545.285 1663.33 548.389 1664.4L586.82 1678.37C589.923 1679.5 593.384 1678.49 595.354 1675.86L648.824 1606.22L657.238 1693.64C657.536 1696.92 659.983 1699.61 663.206 1700.33L703.189 1708.8C706.471 1709.52 709.753 1708.02 711.305 1705.1L754.57 1628.66L775.039 1714.05C775.815 1717.27 778.56 1719.6 781.842 1719.84L822.601 1722.7C825.943 1722.82 828.927 1721.03 830.12 1717.93L862.286 1636.24L894.451 1717.93C895.585 1720.85 898.39 1722.7 901.433 1722.7C901.612 1722.7 901.791 1722.7 901.97 1722.7L942.729 1719.84C946.011 1719.6 948.756 1717.27 949.532 1714.11L970.001 1628.72L1013.27 1705.16C1014.88 1708.02 1018.1 1709.52 1021.38 1708.86L1061.37 1700.33C1064.59 1699.61 1066.97 1696.92 1067.33 1693.64L1075.75 1606.22L1129.22 1675.92C1131.25 1678.55 1134.71 1679.56 1137.75 1678.43L1176.12 1664.46C1179.23 1663.33 1181.2 1660.35 1181.08 1657.06L1177.26 1569.35L1239.92 1630.93C1242.24 1633.25 1245.82 1633.73 1248.75 1632.18L1284.85 1612.97C1287.78 1611.41 1289.33 1608.19 1288.73 1604.91L1272.74 1518.56L1343.34 1570.84C1346.02 1572.81 1349.6 1572.81 1352.23 1570.84L1385.29 1546.79C1387.97 1544.88 1389.05 1541.42 1388.03 1538.32L1360.16 1455.07L1437.33 1496.96C1440.25 1498.51 1443.83 1498.04 1446.16 1495.77L1475.58 1467.37C1477.91 1465.1 1478.56 1461.52 1477.07 1458.59L1437.86 1380.01L1520.16 1410.8C1523.2 1411.93 1526.72 1410.98 1528.75 1408.35L1553.93 1376.13C1555.96 1373.56 1556.08 1369.92 1554.17 1367.24L1504.4 1294.85L1590.16 1313.89C1593.38 1314.55 1596.66 1313.17 1598.33 1310.31L1618.74 1274.92C1620.35 1272.06 1619.99 1268.48 1617.79 1266.09L1558.47 1201.35L1646.01 1208.27C1649.24 1208.51 1652.34 1206.66 1653.59 1203.55L1668.87 1165.66C1670.06 1162.62 1669.23 1159.16 1666.66 1157.07L1598.93 1101.22L1686.59 1095.85C1689.87 1095.67 1692.68 1093.34 1693.46 1090.18L1703.36 1050.5C1704.14 1047.27 1702.77 1043.93 1699.96 1042.26L1625.13 996.373L1711.18 978.889C1714.4 978.233 1716.85 975.547 1717.15 972.265L1721.44 931.629C1721.8 928.347 1719.95 925.244 1716.97 923.931L1716.37 923.812ZM1702.17 965.105L1602.75 985.334C1599.7 985.93 1597.38 988.377 1596.84 991.42C1596.3 994.464 1597.68 997.507 1600.3 999.177L1686.77 1052.17L1679.55 1081.11L1578.34 1087.31C1575.24 1087.49 1572.61 1089.58 1571.66 1092.5C1570.7 1095.43 1571.66 1098.71 1574.04 1100.62L1652.34 1165.13L1641.18 1192.75L1540.03 1184.82C1537.04 1184.64 1534 1186.25 1532.69 1189.05C1531.32 1191.86 1531.79 1195.14 1533.94 1197.47L1602.45 1272.24L1587.53 1298.08L1488.53 1276.12C1485.42 1275.46 1482.56 1276.95 1480.83 1279.52C1479.1 1282.08 1479.28 1285.66 1481.01 1288.23L1538.12 1371.35L1519.8 1394.86L1424.79 1359.36C1421.87 1358.23 1418.59 1359.06 1416.56 1361.39C1414.47 1363.72 1414.05 1367 1415.42 1369.8L1460.72 1460.56L1439.24 1481.27L1350.14 1432.88C1347.39 1431.38 1344.05 1431.74 1341.66 1433.71C1339.28 1435.68 1338.38 1438.96 1339.34 1441.89L1371.5 1538.08L1347.39 1555.62L1265.88 1495.29C1263.37 1493.44 1260.03 1493.32 1257.4 1494.93C1254.78 1496.55 1253.4 1499.65 1254 1502.69L1272.5 1602.4L1246.18 1616.43L1173.85 1545.36C1171.65 1543.21 1168.36 1542.61 1165.5 1543.87C1162.7 1545.12 1160.91 1547.98 1161.02 1551.09L1165.44 1652.41L1137.45 1662.61L1075.69 1582.12C1073.84 1579.67 1070.62 1578.59 1067.63 1579.49C1064.65 1580.33 1062.5 1582.95 1062.2 1585.99L1052.47 1686.96L1023.29 1693.17L973.343 1604.91C971.791 1602.22 968.927 1600.67 965.704 1601.15C962.601 1601.57 960.154 1603.84 959.438 1606.88L935.747 1705.52L906.028 1707.61L868.85 1613.2C867.716 1610.34 864.911 1608.43 861.868 1608.43C858.824 1608.43 856.019 1610.34 854.885 1613.2L817.707 1707.55L787.929 1705.46L764.237 1606.82C763.521 1603.84 761.015 1601.57 757.971 1601.09C754.868 1600.61 751.885 1602.17 750.333 1604.85L700.384 1693.11L671.202 1686.9L661.475 1585.93C661.177 1582.83 659.029 1580.27 656.045 1579.43C653.061 1578.53 649.838 1579.61 647.988 1582.06L586.223 1662.55L558.176 1652.35L562.651 1551.03C562.771 1547.92 560.98 1545.06 558.176 1543.81C555.371 1542.55 552.029 1543.15 549.821 1545.3L477.493 1616.37L451.176 1602.34L469.676 1502.63C470.272 1499.59 468.9 1496.49 466.274 1494.87C463.649 1493.26 460.307 1493.38 457.8 1495.23L376.282 1555.56L352.173 1538.02L384.339 1441.83C385.353 1438.9 384.398 1435.62 382.071 1433.65C379.684 1431.62 376.342 1431.32 373.657 1432.82L284.5 1481.21L263.077 1460.5L308.311 1369.74C309.684 1367 309.266 1363.66 307.177 1361.33C305.089 1359 301.807 1358.23 298.942 1359.3L203.938 1394.8L185.557 1371.29L243.026 1287.69C244.756 1285.13 244.816 1281.79 243.026 1279.22C241.295 1276.65 238.132 1275.46 235.148 1276.06L136.145 1298.02L121.226 1272.18L189.794 1197.41C191.883 1195.14 192.36 1191.8 191.047 1188.99C189.735 1186.19 186.691 1184.58 183.707 1184.76L82.5562 1192.69L71.3967 1165.07L149.692 1100.56C152.079 1098.59 153.034 1095.37 152.079 1092.45C151.124 1089.52 148.439 1087.43 145.395 1087.25L44.1247 1081.05L36.9039 1052.11L123.434 999.118C126.06 997.507 127.433 994.404 126.896 991.36C126.358 988.317 124.031 985.871 120.988 985.274L21.6268 965.045L18.464 935.388L111.499 894.93C114.364 893.677 116.154 890.872 116.035 887.77C115.915 884.667 113.946 881.981 111.022 880.907L15.4204 847.073L16.435 817.297L114.185 790.206C117.168 789.37 119.317 786.804 119.675 783.701C119.973 780.598 118.422 777.674 115.677 776.242L25.6847 729.399L30.8765 700.041L131.431 686.794C134.474 686.376 136.981 684.168 137.757 681.125C138.532 678.141 137.339 674.978 134.833 673.129L52.2407 614.232L61.4309 585.888L162.88 586.783C165.984 586.783 168.729 584.933 169.862 582.069C171.056 579.205 170.34 575.923 168.072 573.774L94.4914 503.958L107.561 477.165L207.876 492.143C211.099 492.62 213.963 491.128 215.515 488.443C217.066 485.758 216.828 482.416 214.918 479.97L151.781 400.606L168.49 375.901L265.762 404.723C268.746 405.558 271.909 404.544 273.818 402.157C275.728 399.711 275.967 396.369 274.356 393.684L222.855 306.264L242.787 284.126L335.106 326.194C337.911 327.507 341.253 326.91 343.461 324.762C345.669 322.614 346.385 319.332 345.191 316.468L306.342 222.783L329.198 203.628L414.774 258.108C417.399 259.779 420.741 259.66 423.248 257.87C425.754 256.08 426.888 252.857 426.112 249.874L400.69 151.653L425.933 135.84L503.094 201.718C505.422 203.747 508.764 204.045 511.568 202.613C514.314 201.181 515.865 198.198 515.507 195.095L503.99 94.3082L531.202 82.1948L598.397 158.158C600.486 160.485 603.768 161.32 606.633 160.246C609.557 159.172 611.526 156.487 611.586 153.384L614.212 52.0006L642.856 43.7659L698.832 128.321C700.563 130.887 703.666 132.14 706.71 131.544C709.753 130.887 712.081 128.441 712.558 125.397L729.267 25.3868L758.807 21.2098L802.49 112.747C803.803 115.552 806.608 117.163 809.83 117.043C812.933 116.805 815.559 114.716 816.514 111.792L847.009 15.0636H876.847L907.341 111.792C908.296 114.776 910.922 116.805 914.025 117.043C916.949 117.163 920.052 115.552 921.365 112.747L965.048 21.2098L994.588 25.3868L1011.3 125.397C1011.83 128.441 1014.16 130.887 1017.15 131.544C1020.19 132.2 1023.29 130.887 1025.02 128.321L1081 43.7659L1109.58 52.0006L1112.27 153.384C1112.33 156.487 1114.3 159.232 1117.22 160.246C1120.09 161.32 1123.43 160.485 1125.46 158.158L1192.65 82.1948L1219.93 94.3082L1208.47 195.095C1208.11 198.198 1209.72 201.181 1212.41 202.613C1215.09 204.045 1218.49 203.687 1220.82 201.718L1297.92 135.84L1323.22 151.653L1297.8 249.874C1297.03 252.857 1298.16 256.02 1300.67 257.87C1303.17 259.72 1306.52 259.779 1309.14 258.108L1394.66 203.628L1417.51 222.783L1378.72 316.468C1377.53 319.332 1378.25 322.614 1380.45 324.762C1382.72 326.91 1386 327.507 1388.81 326.194L1481.07 284.126L1501 306.324L1449.56 393.743C1448.01 396.429 1448.19 399.77 1450.1 402.217C1452.01 404.663 1455.23 405.618 1458.15 404.783L1555.36 375.961L1572.07 400.665L1508.94 480.029C1507.03 482.476 1506.73 485.818 1508.34 488.503C1509.89 491.188 1512.88 492.62 1515.98 492.202L1616.29 477.225L1629.36 504.018L1555.78 573.834C1553.51 575.982 1552.8 579.264 1553.99 582.128C1555.13 584.993 1557.93 586.843 1560.97 586.843L1662.42 585.948L1671.61 614.292L1589.02 673.188C1586.52 674.978 1585.32 678.141 1586.1 681.184C1586.81 684.168 1589.38 686.435 1592.42 686.853L1692.98 700.1L1698.17 729.459L1608.18 776.302C1605.43 777.734 1603.82 780.718 1604.18 783.761C1604.48 786.864 1606.69 789.43 1609.67 790.265L1707.42 817.356L1708.43 847.133L1612.83 880.967C1609.91 881.981 1607.94 884.726 1607.82 887.829C1607.7 890.932 1609.49 893.796 1612.36 894.99L1705.39 935.448L1702.29 965.105H1702.17Z" fill="#776503"/>
<path d="M941.596 167.346C939.388 167.048 937.3 167.764 935.688 169.196C934.077 170.628 933.182 172.657 933.182 174.805V813.656C933.182 816.341 934.614 818.847 936.941 820.16L1490.2 1139.59C1491.39 1140.24 1492.65 1140.6 1493.96 1140.6C1494.73 1140.6 1495.57 1140.48 1496.35 1140.24C1498.38 1139.59 1500.05 1138.03 1500.88 1136.06C1519.68 1092.68 1534.06 1047.15 1543.67 1000.73C1553.34 954.243 1558.23 906.625 1558.23 859.245C1558.23 687.151 1494.91 521.978 1380.04 394.041C1266 267.118 1110.3 186.561 941.536 167.286L941.596 167.346ZM1528.99 997.744C1520.16 1040.35 1507.15 1082.24 1490.38 1122.34L948.28 809.359V183.338C1110.12 203.865 1259.19 282.096 1368.88 404.185C1481.31 529.318 1543.25 690.97 1543.25 859.365C1543.25 905.73 1538.48 952.334 1529.05 997.804L1528.99 997.744Z" fill="#776503"/>
<path fill-rule="evenodd" clip-rule="evenodd" d="M861.748 1184.16C1039.94 1184.16 1184.48 1039.64 1184.48 861.454C1184.48 683.273 1039.94 538.747 861.748 538.747C683.555 538.747 539.02 683.273 539.02 861.454C539.02 1039.64 683.555 1184.16 861.748 1184.16Z" fill="url(#paint1_linear_50_7832)"/>
<path d="M861.748 1191.74C679.616 1191.74 531.5 1043.57 531.5 861.514C531.5 679.454 679.676 531.288 861.748 531.288C1043.82 531.288 1192 679.454 1192 861.514C1192 1043.57 1043.82 1191.74 861.748 1191.74ZM861.748 546.385C687.971 546.385 546.598 687.749 546.598 861.514C546.598 1035.28 687.971 1176.64 861.748 1176.64C1035.53 1176.64 1176.9 1035.28 1176.9 861.514C1176.9 687.749 1035.53 546.385 861.748 546.385Z" fill="#776503"/>
<path fill-rule="evenodd" clip-rule="evenodd" d="M861.749 943.384C906.864 943.384 943.624 906.626 943.624 861.514C943.624 816.402 906.804 779.644 861.749 779.644C816.693 779.644 779.873 816.402 779.873 861.514C779.873 906.626 816.633 943.384 861.749 943.384Z" fill="#DDBC06"/>
<path d="M861.748 950.903C812.456 950.903 772.354 910.803 772.354 861.455C772.354 812.106 812.456 772.006 861.748 772.006C911.041 772.006 951.203 812.106 951.203 861.455C951.203 910.803 911.101 950.903 861.748 950.903ZM861.748 787.103C820.751 787.103 787.392 820.46 787.392 861.455C787.392 902.449 820.751 935.806 861.748 935.806C902.746 935.806 936.105 902.449 936.105 861.455C936.105 820.46 902.746 787.103 861.748 787.103Z" fill="#776503"/>
<path fill-rule="evenodd" clip-rule="evenodd" d="M861.748 819.864C838.833 819.864 820.154 838.601 820.154 861.515C820.154 884.43 838.833 903.167 861.748 903.167C884.664 903.167 903.402 884.489 903.402 861.515C903.402 838.542 884.724 819.864 861.748 819.864Z" fill="#776503"/>
<path d="M861.749 910.685C834.656 910.685 812.576 888.606 812.576 861.515C812.576 834.423 834.597 812.345 861.749 812.345C888.902 812.345 910.922 834.423 910.922 861.515C910.922 888.606 888.842 910.685 861.749 910.685ZM861.749 827.442C842.951 827.442 827.674 842.718 827.674 861.515C827.674 880.311 842.951 895.588 861.749 895.588C880.547 895.588 895.825 880.311 895.825 861.515C895.825 842.718 880.547 827.442 861.749 827.442Z" fill="#776503"/>
<defs>
<linearGradient id="paint0_linear_50_7832" x1="861.689" y1="7.60449" x2="861.689" y2="1715.18" gradientUnits="userSpaceOnUse">
<stop stop-color="#DDBC06"/>
<stop offset="0.514423" stop-color="#FCEEA3"/>
<stop offset="1" stop-color="#FBD921"/>
</linearGradient>
<linearGradient id="paint1_linear_50_7832" x1="861.748" y1="538.747" x2="861.748" y2="1184.16" gradientUnits="userSpaceOnUse">
<stop stop-color="#FBD921"/>
<stop offset="0.485577" stop-color="#F1F2F2"/>
<stop offset="0.990385" stop-color="#FBD921"/>
</linearGradient>
</defs>
</svg>
