<svg width="31" height="31" viewBox="0 0 31 31" fill="none" xmlns="http://www.w3.org/2000/svg">
<path fill-rule="evenodd" clip-rule="evenodd" d="M3.46865 12.356C1.73442 18.9933 5.70763 25.7729 12.334 27.5067C18.9603 29.2404 25.7549 25.2683 27.4891 18.644C29.2233 12.0196 25.2501 5.22703 18.6238 3.49331C11.9845 1.75959 5.20289 5.73163 3.46865 12.356Z" fill="black"/>
<path d="M15.4919 29.0852C14.3401 29.0852 13.1753 28.93 12.0493 28.6453C8.54202 27.7267 5.60419 25.5013 3.76642 22.3703C1.92865 19.2392 1.43681 15.5907 2.3557 12.0715C3.92169 6.10694 9.31854 1.92786 15.479 1.92786C16.6437 1.92786 17.7956 2.08315 18.9215 2.36779C22.4288 3.28641 25.3667 5.51175 27.2045 8.6428C29.0293 11.7739 29.534 15.4225 28.6151 18.9417C27.0491 24.9062 21.6523 29.0852 15.4919 29.0852ZM15.479 4.24381C10.3668 4.24381 5.88889 7.69832 4.59469 12.6537C3.83111 15.5648 4.24526 18.5923 5.77242 21.1929C7.28664 23.7806 9.73268 25.6307 12.6446 26.3941C13.5894 26.6399 14.5471 26.7693 15.5048 26.7693C20.6169 26.7693 25.0949 23.3148 26.3891 18.3594C27.1527 15.4483 26.7385 12.4208 25.2114 9.83314C23.6971 7.23255 21.2511 5.3824 18.3521 4.63198C17.4203 4.38616 16.4496 4.25676 15.4919 4.25676L15.479 4.24381Z" fill="black"/>
<path fill-rule="evenodd" clip-rule="evenodd" d="M5.39742 25.6953C11.0272 31.2587 20.1125 31.207 25.6776 25.5789C31.2427 19.9507 31.1909 10.8681 25.5611 5.30463C19.9314 -0.258812 10.846 -0.207064 5.28095 5.42107C-0.284135 11.0492 -0.232371 20.1319 5.39742 25.6953ZM6.29042 8.28041C6.66574 6.8572 8.11525 6.01623 9.52594 6.39144C10.9496 6.76664 11.7908 8.20279 11.4155 9.62599C11.0401 11.0363 9.60358 11.8902 8.17995 11.515C6.75633 11.1398 5.91509 9.70361 6.27747 8.28041H6.29042ZM19.5431 21.3868C19.9184 19.9636 21.355 19.1227 22.7786 19.4979C24.2022 19.8731 25.0435 21.3222 24.6681 22.7324C24.2928 24.1556 22.8563 24.9966 21.4326 24.6214C20.009 24.2462 19.1677 22.8101 19.5431 21.3868ZM22.7139 6.31381C24.1375 6.68902 24.9787 8.1381 24.6034 9.54837C24.2281 10.9716 22.7786 11.8125 21.3679 11.4373C19.9572 11.0621 19.1031 9.62599 19.4784 8.20278C19.8537 6.77957 21.2903 5.9386 22.7139 6.31381ZM9.60359 19.5625C11.0272 19.9378 11.8684 21.3739 11.4931 22.7971C11.1178 24.2203 9.68123 25.0613 8.2576 24.6861C6.84692 24.3109 5.99275 22.8618 6.36807 21.4516C6.74339 20.0284 8.17996 19.1873 9.60359 19.5625Z" fill="url(#paint0_linear_1324_33543)"/>
<path d="M15.4919 31C11.3893 31 7.51962 29.4086 4.59472 26.5234C1.65688 23.6123 0.0132528 19.7308 0.000310764 15.5906C-0.0255733 11.4504 1.56629 7.55593 4.47825 4.60601C7.41609 1.64315 11.3246 0 15.5049 0C19.6851 0 23.4772 1.59139 26.4021 4.47662C32.4848 10.48 32.5366 20.313 26.5315 26.394C23.5937 29.3568 19.6851 30.9871 15.5049 30.9871L15.4919 31ZM15.4919 2.32891C11.9458 2.32891 8.61969 3.71328 6.12187 6.23624C3.64994 8.73332 2.29102 12.0584 2.31691 15.5776C2.34279 19.0968 3.72762 22.3961 6.22543 24.8673C8.71031 27.3256 11.9976 28.6711 15.4919 28.6711C19.0381 28.6711 22.3642 27.2868 24.862 24.7638C29.9741 19.6014 29.9223 11.2304 24.7584 6.13271C22.2735 3.67445 18.9863 2.32891 15.4919 2.32891ZM8.94327 25.9412C10.6775 25.9412 12.1917 24.7638 12.6317 23.0948C12.8906 22.1115 12.7482 21.0764 12.2435 20.2095C11.7258 19.3297 10.8975 18.7087 9.91392 18.4499C7.90791 17.9195 5.78538 19.1745 5.26769 21.167C5.00885 22.1503 5.15124 23.1724 5.65598 24.0522C6.17366 24.932 7.00194 25.5659 7.98553 25.8247C8.30908 25.9023 8.63263 25.9541 8.95619 25.9541L8.94327 25.9412ZM8.94327 20.6365C8.27028 20.6365 7.68787 21.0893 7.50668 21.7492C7.40315 22.1373 7.45491 22.5384 7.66198 22.8748C7.85611 23.2241 8.19262 23.47 8.56794 23.5735C9.3574 23.7805 10.1857 23.2888 10.3928 22.5125C10.4963 22.1244 10.4445 21.7233 10.2375 21.3869C10.0304 21.0505 9.70682 20.8047 9.31856 20.7012C9.18914 20.6624 9.05974 20.6494 8.93032 20.6494L8.94327 20.6365ZM22.1312 25.8635C23.8525 25.8635 25.3667 24.6991 25.8068 23.0171C26.0656 22.0338 25.9232 21.0117 25.4185 20.1319C24.9008 19.2521 24.0725 18.6181 23.0889 18.3594C21.0829 17.8289 18.9604 19.0968 18.4427 21.0764C18.1839 22.0597 18.3262 23.0818 18.8439 23.9616C19.3616 24.8414 20.1899 25.4625 21.1735 25.7212C21.497 25.7988 21.8206 25.8506 22.1441 25.8506L22.1312 25.8635ZM22.1312 20.5589C21.4582 20.5589 20.8629 21.0117 20.6946 21.6715C20.5911 22.0597 20.6429 22.4608 20.8499 22.7972C21.0441 23.1465 21.3806 23.3923 21.7559 23.4829C22.5454 23.6899 23.3736 23.1983 23.5678 22.422C23.6713 22.0338 23.6195 21.6327 23.4125 21.2963C23.2054 20.947 22.8818 20.7012 22.4936 20.5977C22.3641 20.5589 22.2347 20.5459 22.1183 20.5459L22.1312 20.5589ZM8.89149 12.7571C10.6128 12.7571 12.14 11.5927 12.58 9.91069C12.8388 8.92739 12.6965 7.90525 12.1788 7.02545C11.6611 6.14565 10.8328 5.52464 9.84919 5.26587C7.85611 4.7354 5.72068 5.99042 5.203 7.98291C4.94416 8.96621 5.08652 9.98831 5.6042 10.8681C6.12188 11.7479 6.95016 12.369 7.93375 12.6277C8.2573 12.7054 8.58086 12.7571 8.90441 12.7571H8.89149ZM8.89149 7.45244C8.2185 7.45244 7.62315 7.91819 7.4549 8.56511C7.35137 8.95325 7.40313 9.35433 7.6102 9.69073C7.81727 10.0401 8.14085 10.273 8.52912 10.3765C9.31858 10.5835 10.1469 10.0918 10.3539 9.31555C10.4575 8.9274 10.4057 8.52632 10.1986 8.18993C9.99154 7.84059 9.66801 7.60771 9.29269 7.5042C9.16327 7.46538 9.03383 7.45244 8.90441 7.45244H8.89149ZM22.0794 12.6924C23.8137 12.6924 25.3279 11.515 25.7679 9.84602C26.2986 7.81471 25.082 5.73165 23.0501 5.18824C21.0441 4.65778 18.9216 5.91279 18.4039 7.90528C18.1451 8.88859 18.2874 9.92363 18.8051 10.8034C19.3228 11.6832 20.1381 12.3043 21.1217 12.563C21.4453 12.6406 21.7688 12.6924 22.0924 12.6924H22.0794ZM22.0794 7.38772C21.4065 7.38772 20.8111 7.84058 20.6429 8.50043C20.5393 8.88858 20.5911 9.28966 20.7982 9.62605C20.9923 9.97538 21.3158 10.2212 21.7041 10.3118C22.4806 10.5188 23.3219 10.0271 23.5289 9.25083C23.736 8.4616 23.2572 7.64648 22.4677 7.42653C22.3383 7.38772 22.2088 7.37481 22.0924 7.37481L22.0794 7.38772Z" fill="black"/>
<path fill-rule="evenodd" clip-rule="evenodd" d="M10.7428 14.2578C10.0568 16.8713 11.6229 19.5495 14.2371 20.2353C16.8514 20.921 19.5304 19.3425 20.2164 16.7419C20.9023 14.1284 19.3363 11.4502 16.722 10.7645C14.1077 10.0787 11.4287 11.6443 10.7428 14.2578Z" fill="#D1D3D4"/>
<path d="M15.4924 21.5678C14.9747 21.5678 14.457 21.5031 13.9652 21.3738C12.3992 20.9597 11.0792 19.9635 10.2638 18.5661C9.44848 17.1688 9.21553 15.5386 9.62968 13.9731C10.458 10.8162 13.8358 8.82363 17.0196 9.65167C20.2551 10.4927 22.1964 13.8178 21.3552 17.0523C20.6563 19.7176 18.2361 21.5807 15.4924 21.5807V21.5678ZM15.4924 11.7736C13.797 11.7736 12.3087 12.9251 11.8686 14.5682C11.6098 15.5386 11.7522 16.5348 12.2569 17.4017C12.7617 18.2686 13.577 18.8767 14.5347 19.1354C16.4889 19.653 18.5855 18.4109 19.1032 16.4701C19.6209 14.4777 18.4302 12.4334 16.4372 11.903C16.1266 11.8253 15.816 11.7865 15.4924 11.7865V11.7736Z" fill="black"/>
<defs>
<linearGradient id="paint0_linear_1324_33543" x1="15.4793" y1="1.16577" x2="15.4793" y2="29.8342" gradientUnits="userSpaceOnUse">
<stop stop-color="#05DEB8"/>
<stop offset="1" stop-color="#037863"/>
</linearGradient>
</defs>
</svg>
