<svg width="53" height="55" viewBox="0 0 53 55" fill="none" xmlns="http://www.w3.org/2000/svg">
<path fill-rule="evenodd" clip-rule="evenodd" d="M45.23 20.7121L45.4965 21.7903L42.0189 24.2466C42.0866 24.7334 42.1313 25.2116 42.1599 25.6979L45.9994 27.0551L45.9352 28.1783L41.9519 29.4254C41.8748 29.9144 41.7747 30.3947 41.6517 30.8666L44.8483 33.4257L44.4554 34.4826L40.3566 34.3859C40.1416 34.8235 39.9036 35.2526 39.654 35.6775L41.9084 39.1873L41.2303 40.0962L37.4136 38.6775C37.0904 39.019 36.7397 39.3642 36.382 39.6929L37.459 43.8002L36.5644 44.4469L33.4022 41.8306C32.9869 42.0679 32.5692 42.2764 32.1285 42.4763L31.9241 46.7927L30.8864 47.1203L28.7009 43.5662C28.2347 43.6587 27.7776 43.7266 27.3137 43.778L25.8544 47.8797L24.7884 47.8612L23.7756 43.7218C23.3137 43.662 22.8609 43.5776 22.4173 43.4687L19.8424 46.9459L18.8538 46.5784L19.1248 42.2588C18.7177 42.0515 18.3198 41.8197 17.9264 41.5755L14.488 44.1023L13.6527 43.4281L15.1694 39.3477C14.8586 39.0223 14.5454 38.6681 14.2482 38.3058L10.2811 39.6149L9.70483 38.7013L12.328 35.2699C12.1203 34.843 11.9448 34.4001 11.7692 33.9572L7.67063 33.9304L7.40412 32.8521L10.8817 30.3959C10.8141 29.9091 10.7694 29.4309 10.7408 28.9446L6.90125 27.5874L6.96546 26.4642L10.9488 25.2171C11.0258 24.7281 11.1259 24.2478 11.249 23.7759L8.0524 21.2168L8.44529 20.1599L12.544 20.2566C12.7591 19.819 12.9856 19.3856 13.2466 18.965L10.9923 15.4552L11.6703 14.5463L15.487 15.965C15.8102 15.6235 16.161 15.2783 16.5187 14.9496L15.4416 10.8423L16.3362 10.1956L19.4869 12.8076C19.9023 12.5703 20.3314 12.3661 20.7606 12.162L20.965 7.84555L22.0028 7.51788L24.1883 11.072C24.6545 10.9795 25.1115 10.9116 25.5755 10.8603L27.0347 6.75849L28.1007 6.77705L29.1021 10.9122C29.564 10.972 30.0167 11.0563 30.4604 11.1653L33.0352 7.68802L34.0239 8.05553L33.7528 12.3752C34.1599 12.5824 34.5578 12.8143 34.9512 13.0584L38.3896 10.5317L39.2135 11.2016L37.6967 15.282C38.0076 15.6074 38.3208 15.9616 38.6179 16.3238L42.585 15.0148L43.1613 15.9284L40.5336 19.372C40.7413 19.7989 40.9214 20.2296 41.0923 20.6848L45.191 20.7116L45.23 20.7121ZM25.0354 17.2061C19.6778 18.2781 15.9791 23.6877 16.7698 29.2693C17.556 34.8632 22.5422 38.5212 27.8998 37.4492C33.2573 36.3772 36.956 30.9676 36.1653 25.386C35.3791 19.7921 30.3929 16.1341 25.0468 17.2104L25.0354 17.2061Z" fill="url(#paint0_linear_748_7330)"/>
<path d="M45.6737 33.7044C45.8108 33.3357 45.7042 32.9184 45.4119 32.6839L42.6388 30.464C42.6684 30.3491 42.6866 30.23 42.7162 30.1151L46.1669 29.0337C46.5365 28.9193 46.7931 28.581 46.8106 28.1819L46.8748 27.0587C46.8924 26.6596 46.625 26.2524 46.3239 26.1824L42.9947 25.0009C42.9853 24.8855 42.9759 24.7701 42.955 24.6504L45.9737 22.5132C46.2949 22.2829 46.4456 21.8773 46.3484 21.5054L46.0819 20.4271C45.9846 20.0552 45.6624 19.7956 45.2879 19.7823L41.7361 19.7629C41.6876 19.647 41.646 19.5476 41.5929 19.444L43.8748 16.4733C44.1107 16.1553 44.1535 15.7236 43.9323 15.4035L43.356 14.4899C43.1508 14.1618 42.7668 14.0331 42.4133 14.1395L38.9788 15.2829C38.9051 15.1995 38.8199 15.1119 38.7462 15.0285L40.062 11.4889C40.199 11.1202 40.1039 10.7072 39.8117 10.4726L38.9763 9.79841C38.684 9.56387 38.2705 9.55002 37.9608 9.78464L34.9789 11.9635C34.88 11.9128 34.7857 11.8497 34.6868 11.799L34.9269 8.05537C34.9559 7.66049 34.7323 7.31159 34.3874 7.18339L33.3873 6.81161C33.0424 6.68341 32.636 6.82613 32.4001 7.14409L30.1666 10.1607C30.0585 10.1345 29.9459 10.1207 29.8379 10.0945L28.971 6.51293C28.8783 6.12875 28.5561 5.8691 28.1885 5.87235L27.1225 5.85379C26.7435 5.85277 26.4017 6.10341 26.2646 6.47212L25.0109 10.0208C24.9007 10.0358 24.7744 10.0588 24.6641 10.0738L22.7737 6.993C22.5685 6.66495 22.1892 6.52392 21.831 6.64259L20.7933 6.97027C20.4236 7.08466 20.174 7.43949 20.1495 7.82208L19.9761 11.5625C19.8682 11.6063 19.7672 11.6667 19.6663 11.7271L16.939 9.45436C16.6582 9.22409 16.2377 9.19368 15.9235 9.44059L15.0289 10.0872C14.7193 10.3219 14.5685 10.7274 14.6658 11.0993L15.5924 14.6611C15.5098 14.7423 15.4227 14.8359 15.3402 14.9171L12.0293 13.6864C11.6844 13.5582 11.2827 13.6886 11.0467 14.0066L10.3686 14.9156C10.1327 15.2335 10.106 15.6573 10.3112 15.9853L12.259 19.0175C12.1949 19.1195 12.1422 19.2259 12.0896 19.3322L8.53308 19.2552C8.15857 19.2418 7.81682 19.4925 7.67519 19.8735L7.2823 20.9305C7.14068 21.3115 7.26331 21.7208 7.55558 21.9553L10.3287 24.1751C10.2991 24.29 10.2809 24.4092 10.2513 24.5241L6.80064 25.6055C6.431 25.7199 6.17442 26.0581 6.15689 26.4573L6.09265 27.5805C6.07513 27.9796 6.22976 28.3029 6.64362 28.4567L9.97734 29.626C9.98677 29.7414 9.99621 29.8568 10.0126 29.9888L6.99833 32.1137C6.67719 32.344 6.52643 32.7496 6.62371 33.1215L6.89023 34.1998C6.98751 34.5716 7.29822 34.827 7.68422 34.8446L11.236 34.8639C11.2845 34.9799 11.3261 35.0793 11.3791 35.1829L9.10878 38.1579C8.87283 38.4758 8.83467 38.8953 9.03984 39.2233L9.61612 40.137C9.82129 40.465 10.2007 40.6061 10.5588 40.4874L13.9932 39.344C14.0669 39.4274 14.1521 39.515 14.2258 39.5983L12.9147 43.1257C12.7776 43.4944 12.8727 43.9074 13.1604 44.1542L13.9958 44.8285C14.2765 45.0587 14.6901 45.0726 15.0112 44.8422L17.9978 42.6511C18.0921 42.7141 18.191 42.7649 18.2899 42.8156L18.0498 46.5592C18.0208 46.9541 18.2443 47.303 18.5892 47.4312L19.5894 47.803C19.9343 47.9312 20.3406 47.7884 20.5765 47.4705L22.8101 44.4539C22.9181 44.48 23.0307 44.4939 23.1388 44.5201L24.0171 48.1059C24.1098 48.4901 24.4205 48.7455 24.7996 48.7465L25.8656 48.7651C26.2447 48.7661 26.5865 48.5155 26.7235 48.1467L27.9933 44.59C28.1035 44.575 28.2183 44.5478 28.3401 44.5371L30.2305 47.6178C30.4357 47.9459 30.8151 48.0869 31.1732 47.9682L32.2109 47.6406C32.569 47.5219 32.8302 47.1713 32.8592 46.7765L33.0327 43.0361C33.1406 42.9922 33.2416 42.9319 33.3425 42.8715L36.0744 45.1319C36.3621 45.3787 36.7756 45.3926 37.0898 45.1457L37.9844 44.499C38.3056 44.2687 38.4449 43.8588 38.3591 43.4912L37.421 39.9251C37.5035 39.8439 37.5975 39.767 37.6732 39.6692L40.984 40.8999C41.3289 41.0281 41.7307 40.8976 41.9666 40.5797L42.6402 39.683C42.8761 39.365 42.9073 38.929 42.6976 38.6132L40.7544 35.5688C40.807 35.4625 40.8711 35.3604 40.9237 35.2541L44.4757 35.3434C44.8502 35.3567 45.2035 35.1103 45.3336 34.7251L45.7265 33.6681L45.6737 33.7044ZM40.4444 33.4812C40.1044 33.4807 39.7809 33.6822 39.623 34.0012C39.4171 34.4143 39.1998 34.8231 38.9594 35.2233C38.7786 35.5338 38.7817 35.9126 38.9615 36.2033L40.6926 38.9031L37.7611 37.8134C37.4507 37.698 37.0902 37.7878 36.838 38.0438C36.5309 38.3773 36.2008 38.7022 35.8522 39.0063C35.5931 39.2457 35.479 39.6229 35.5625 39.9617L36.3894 43.1227L33.9683 41.1177C33.7105 40.896 33.336 40.8826 33.0423 41.0392C32.6476 41.2562 32.2459 41.4567 31.8328 41.6528C31.5161 41.8009 31.3031 42.1274 31.2809 42.4688L31.1295 45.7978L29.4466 43.0739C29.2668 42.7833 28.931 42.6305 28.5912 42.7C28.1526 42.7887 27.7231 42.8529 27.2867 42.9005C26.9444 42.9412 26.6463 43.1801 26.5344 43.5162L25.4154 46.6673L24.6436 43.4988C24.5602 43.16 24.2886 42.9052 23.9508 42.8635C23.5164 42.8 23.0866 42.7242 22.666 42.6238C22.3419 42.5453 21.9907 42.6805 21.7754 42.9782L19.7985 45.6565L20.0004 42.3324C20.0272 41.9786 19.8496 41.6468 19.5414 41.4903C19.1574 41.2916 18.7778 41.0806 18.4075 40.845C18.3615 40.8279 18.3086 40.7942 18.2626 40.7771C18.0097 40.6831 17.7065 40.7243 17.4702 40.9023L14.8255 42.8428L15.9905 39.7087C16.1184 39.3646 16.0487 38.989 15.8115 38.7469C15.5076 38.4381 15.2128 38.1047 14.9387 37.751C14.7267 37.4764 14.3727 37.3728 14.0421 37.4877L10.9979 38.4964L13.0117 35.8597C13.2225 35.5744 13.263 35.1837 13.1268 34.8813C12.9375 34.4753 12.7643 34.0612 12.5957 33.6348C12.4687 33.3078 12.1833 33.0898 11.8318 33.085L8.6706 33.071L11.3476 31.1845C11.632 30.9824 11.7921 30.6223 11.7408 30.2675C11.6755 29.8096 11.6332 29.3602 11.6069 28.9028C11.5832 28.5443 11.4333 28.2787 11.0539 28.1377L8.10416 27.0972L11.1691 26.1382C11.4951 26.0356 11.7495 25.7384 11.8039 25.381C11.8833 24.9209 11.9742 24.4651 12.0881 24.0178C12.177 23.6732 12.0637 23.3093 11.7898 23.0956L9.3274 21.1311L12.4773 21.2109C12.8127 21.2237 13.1408 21.0099 13.2987 20.6909C13.5045 20.2778 13.7219 19.869 13.9623 19.4688C14.1431 19.1583 14.14 18.7794 13.9602 18.4888L12.2291 15.789L15.1606 16.8787C15.4825 16.9983 15.843 16.9085 16.0837 16.6483C16.3908 16.3148 16.7209 15.9899 17.0695 15.6858C17.3286 15.4464 17.4426 15.0691 17.3592 14.7304L16.5323 11.5693L18.9534 13.5744C19.2157 13.7838 19.5857 13.8094 19.8794 13.6528C20.2741 13.4358 20.6757 13.2354 21.0888 13.0393C21.4056 12.8912 21.63 12.569 21.6453 12.211L21.7967 8.882L23.4796 11.6059C23.6595 11.8965 23.9952 12.0493 24.3351 11.9798C24.7737 11.891 25.2032 11.8269 25.6396 11.7792C25.9818 11.7386 26.2799 11.4997 26.3918 11.1636L27.5108 8.01247L28.278 11.1933C28.3615 11.5321 28.6331 11.7869 28.9709 11.8285C29.4052 11.8921 29.835 11.9679 30.2671 12.0726C30.5912 12.1511 30.9425 12.0158 31.1578 11.7182L33.1347 9.03984L32.9327 12.364C32.9059 12.7177 33.0836 13.0495 33.3917 13.206C33.7758 13.4048 34.1668 13.6201 34.5257 13.8514C34.8087 14.0405 35.1854 14.0127 35.4584 13.8064L38.1031 11.8659L36.9381 14.9999C36.8148 15.3317 36.8845 15.7074 37.1171 15.9617C37.421 16.2705 37.7158 16.6039 37.9899 16.9576C38.2064 17.2199 38.5605 17.3236 38.8865 17.2209L41.9306 16.2122L39.9169 18.8489C39.6946 19.13 39.6656 19.5249 39.8133 19.8316C40.0025 20.2376 40.1803 20.6394 40.3329 21.0738C40.4599 21.4008 40.7499 21.6065 41.0968 21.6236L44.258 21.6376L41.5925 23.5284C41.308 23.7305 41.148 24.0906 41.1993 24.4454C41.2646 24.9033 41.3069 25.3527 41.3332 25.8101C41.3569 26.1686 41.5942 26.4807 41.8862 26.5752L44.836 27.6157L41.7825 28.579C41.4565 28.6816 41.2021 28.9787 41.1477 29.3362C41.0683 29.7963 40.9774 30.2521 40.8635 30.6994C40.7746 31.044 40.8879 31.4079 41.1618 31.6216L43.6242 33.586L40.4743 33.5063L40.4444 33.4812Z" fill="#261701"/>
<path d="M30.3805 16.7309C28.6561 16.0899 26.7605 15.9448 24.9073 16.3191C19.0951 17.4879 15.0505 23.3704 15.9089 29.4388C16.464 33.3661 18.9981 36.6161 22.5274 37.928C24.2633 38.5733 26.1475 38.7141 28.0007 38.3399C33.8129 37.1711 37.8575 31.2886 37.0037 25.2079C36.4485 21.2806 33.9144 18.0305 30.3851 16.7186L30.3805 16.7309ZM27.7557 36.5702C26.1987 36.8867 24.6109 36.7581 23.1624 36.2197C20.1964 35.1172 18.0678 32.3955 17.6036 29.1035C16.892 24.013 20.2724 19.0726 25.1477 18.1011C26.7047 17.7846 28.2809 17.9089 29.741 18.4516C32.7069 19.5541 34.8355 22.2757 35.2997 25.5677C36.0113 30.6583 32.631 35.5987 27.7557 36.5702Z" fill="#261701"/>
<defs>
<linearGradient id="paint0_linear_748_7330" x1="33.6617" y1="7.92092" x2="19.2389" y2="46.7216" gradientUnits="userSpaceOnUse">
<stop stop-color="#05DEB8"/>
<stop offset="1" stop-color="#80FEE8"/>
</linearGradient>
</defs>
</svg>
