<svg width="96" height="57" viewBox="0 0 96 57" fill="none" xmlns="http://www.w3.org/2000/svg">
<path fill-rule="evenodd" clip-rule="evenodd" d="M28.525 1.7634C43.6459 1.6094 56.0222 13.5315 56.1733 28.3678C56.3244 43.204 44.1687 55.3519 29.0478 55.5059C13.9269 55.6599 1.55065 43.7377 1.39956 28.9015C1.24846 14.0653 13.4041 1.91739 28.525 1.7634Z" fill="url(#paint0_linear_1324_33541)"/>
<path d="M0.296677 28.901L0.2968 28.913C0.453649 44.3142 13.3496 56.7241 29.0464 56.5642C44.7555 56.4042 57.4085 43.7583 57.2515 28.345C57.0945 12.9316 44.1986 0.521826 28.5018 0.681685C20.8923 0.759182 13.778 3.72947 8.44018 9.06242C3.11462 14.3952 0.220628 21.4348 0.284412 28.9011L0.296677 28.901ZM55.058 28.3553C55.203 42.5903 43.5206 54.2765 29.0245 54.4121C14.5407 54.5596 2.63489 43.1016 2.49016 28.8906C2.41988 21.9895 5.09882 15.4933 10.0119 10.5735C14.925 5.65365 21.5024 2.90529 28.5237 2.83379C43.0074 2.68628 54.9133 14.1442 55.058 28.3553Z" fill="#341479"/>
<path fill-rule="evenodd" clip-rule="evenodd" d="M28.742 24.2588C31.2049 24.2337 33.2222 26.173 33.2345 28.5898C33.2592 31.0064 31.2817 32.9744 28.8187 32.9995C26.3557 33.0246 24.3384 31.0852 24.3261 28.6685C24.3015 26.2519 26.2789 24.2718 28.742 24.2588Z" fill="#0047D6"/>
<path d="M23.2231 28.6795C23.2537 31.6852 25.766 34.1005 28.8294 34.0693C31.8928 34.0381 34.3555 31.5721 34.3371 28.5663C34.3065 25.5606 31.794 23.1333 28.7306 23.1645C25.6672 23.1957 23.2046 25.6616 23.223 28.6675L23.2231 28.6795ZM32.1314 28.5888C32.1404 29.4664 31.7935 30.2996 31.1749 30.9312C30.5441 31.5629 29.702 31.9081 28.8075 31.9172C26.9572 31.9361 25.435 30.4726 25.4165 28.6571C25.4076 27.7795 25.7544 26.9463 26.373 26.3148C27.0038 25.6831 27.8459 25.3378 28.7404 25.3287C30.5907 25.3098 32.1129 26.7733 32.1314 28.5888Z" fill="#341479"/>
<path fill-rule="evenodd" clip-rule="evenodd" d="M27.9381 13.9261L79.3917 13.4862C87.6874 13.4017 94.5438 20.0053 94.6145 28.1449C94.6974 36.2844 87.9767 43.0142 79.6809 43.0866L28.2273 43.5265C19.9316 43.611 13.0753 37.0194 13.0047 28.8798C12.9218 20.7403 19.6424 14.0106 27.9382 13.9381L27.9381 13.9261ZM28.6817 19.5578C23.523 19.6103 19.3863 23.7527 19.4378 28.8143C19.4894 33.8759 23.7096 37.9332 28.8683 37.8806C34.0271 37.8281 38.1638 33.6858 38.1122 28.6241C38.0607 23.5625 33.8405 19.5053 28.6817 19.5578Z" fill="#0047D6"/>
<path d="M18.3349 28.8254C18.3924 34.4761 23.12 39.0212 28.867 38.9626C34.6262 38.904 39.2603 34.2636 39.2027 28.6128C39.1453 22.9741 34.4176 18.429 28.6707 18.4876C25.8892 18.5159 23.2777 19.6006 21.3246 21.5564C19.3715 23.5122 18.3071 26.0962 18.3349 28.8254ZM37.0093 28.6352C37.0547 33.0957 33.3911 36.7642 28.8451 36.8105C24.299 36.8568 20.5737 33.2635 20.5284 28.8151C20.4829 24.3546 24.1466 20.686 28.6928 20.6517C33.2388 20.6054 36.9641 24.1987 37.0094 28.6472L37.0093 28.6352Z" fill="#341479"/>
<path d="M16.542 17.6253C13.5092 20.6622 11.8587 24.659 11.9018 28.8911C11.991 37.6437 19.3176 44.6874 28.2383 44.6085L79.6919 44.1687C83.9929 44.1249 88.0443 42.4363 91.0771 39.3994C94.1099 36.3625 95.7604 32.3657 95.7173 28.1336C95.6281 19.381 88.3014 12.3253 79.3808 12.4162L27.9272 12.856C23.6262 12.8998 19.5747 14.5884 16.542 17.6253ZM79.3904 14.5684C87.0979 14.4899 93.4345 20.5817 93.5115 28.1441C93.5487 31.7991 92.1256 35.2524 89.493 37.8765C86.8727 40.5004 83.3827 41.9668 79.6576 42.0047L28.204 42.4446C20.4965 42.523 14.1723 36.4311 14.083 28.8688C14.0458 25.2139 15.4689 21.7605 18.1015 19.1365C20.7218 16.5126 24.224 15.046 27.9368 15.0082L79.3904 14.5684Z" fill="#341479"/>
<path fill-rule="evenodd" clip-rule="evenodd" d="M41.5433 38.2323L79.616 37.9287C85.0076 37.8738 89.3869 33.4885 89.3332 28.2104C89.2793 22.9204 84.8116 18.6251 79.4322 18.6799L41.3597 18.9955C43.7383 21.5204 45.2064 24.8842 45.2441 28.5873C45.2818 32.2903 43.8826 35.6834 41.5558 38.2562L41.5433 38.2323Z" fill="#4A86FF"/>
<path d="M40.7271 37.5073L41.5542 39.3025L79.6269 38.9989C82.531 38.9694 85.2522 37.8234 87.3025 35.7825C89.3526 33.7295 90.4649 31.0368 90.436 28.1994C90.3759 22.2962 85.4377 17.5368 79.4212 17.5981L41.3485 17.9017L40.5582 19.7133C42.8377 22.131 44.1075 25.2804 44.141 28.5747C44.1747 31.881 42.957 35.0557 40.7272 37.5193L40.7271 37.5073ZM88.2424 28.1977C88.2655 30.47 87.3806 32.6193 85.7429 34.2593C84.1052 35.8992 81.9331 36.8111 79.6171 36.8347L43.7868 37.1154C47.1667 32.0549 47.095 25.0215 43.6127 20.0189L79.443 19.7382C84.2464 19.6892 88.1944 23.4848 88.2424 28.1977Z" fill="#341479"/>
<defs>
<linearGradient id="paint0_linear_1324_33541" x1="1.39968" y1="28.9136" x2="56.1731" y2="28.3557" gradientUnits="userSpaceOnUse">
<stop offset="0.317362" stop-color="#4A86FF"/>
<stop offset="1" stop-color="#2C5099"/>
</linearGradient>
</defs>
</svg>
