<svg width="136" height="161" viewBox="0 0 136 161" fill="none" xmlns="http://www.w3.org/2000/svg">
<path fill-rule="evenodd" clip-rule="evenodd" d="M106.716 112.8L109.197 116.112L107.402 118.59L103.503 117.261L104.854 121.163L102.376 122.951L99.0546 120.482L99.1315 124.584L96.2058 125.513L93.7974 122.149L92.6083 126.057L89.5146 126.021L88.2447 122.095L85.9048 125.419L82.9557 124.441L82.9416 120.333L79.6904 122.744L77.1703 120.906L78.4214 117.028L74.5587 118.295L72.7141 115.787L75.1247 112.501L71.0196 112.506L70.0428 109.549L73.3462 107.212L69.4283 105.936L69.3933 102.847L73.2903 101.653L69.9325 99.2354L70.86 96.3107L74.9545 96.3863L72.4736 93.0737L74.2688 90.5777L78.1673 91.9251L76.8255 88.0141L79.3038 86.2258L82.6157 88.7039L82.5389 84.6023L85.4558 83.664L87.882 87.0281L89.062 83.1293L92.147 83.1552L93.4169 87.0813L95.7655 83.7665L98.7147 84.7445L98.72 88.8433L101.98 86.4422L104.491 88.2706L103.24 92.1487L107.112 90.8909L108.956 93.3993L106.546 96.6669L110.642 96.671L111.628 99.6191L108.324 101.974L112.233 103.241L112.268 106.33L108.38 107.533L111.738 109.933L110.819 112.867L106.716 112.8Z" fill="#FCEEA3"/>
<path d="M73.7378 119.067C73.7378 119.067 73.6765 119.002 73.6415 118.965L71.797 116.457C71.5012 116.051 71.4943 115.514 71.7887 115.114L72.8561 113.654L71.0317 113.652C70.5309 113.649 70.0903 113.327 69.939 112.856L68.9531 109.908C68.8018 109.436 68.9554 108.923 69.3636 108.645L70.834 107.594L69.0837 107.031C68.6128 106.878 68.2821 106.435 68.2832 105.943L68.2482 102.854C68.2406 102.353 68.5536 101.918 69.0304 101.785L70.7673 101.256L69.2779 100.184C68.8635 99.8904 68.6951 99.3824 68.8479 98.9053L69.7755 95.9807C69.9193 95.5122 70.3639 95.199 70.8556 95.2099L72.6793 95.2476L71.5827 93.7716C71.2778 93.3745 71.2801 92.8287 71.5566 92.4282L73.3427 89.9409C73.6279 89.5497 74.1411 89.3825 74.6207 89.545L76.3524 90.1428L75.753 88.4094C75.5838 87.9372 75.7553 87.4251 76.1548 87.137L78.6243 85.3394C79.0237 85.0512 79.5602 85.055 79.9654 85.3577L81.4454 86.4554L81.4113 84.6285C81.3946 84.1356 81.7167 83.6922 82.1847 83.55L85.1104 82.621C85.5875 82.4702 86.0937 82.6427 86.3895 83.0484L87.4678 84.5416L87.9954 82.8C88.1392 82.3315 88.5751 82.009 89.0667 82.0199L92.1517 82.0458C92.6525 82.0481 93.084 82.3787 93.2353 82.8502L93.7986 84.6L94.8393 83.1296C95.1159 82.7291 95.6291 82.5619 96.1087 82.7244L99.0578 83.7024C99.5287 83.8556 99.8595 84.2986 99.8492 84.7993L99.8475 86.6247L101.3 85.5558C101.7 85.2676 102.236 85.2714 102.642 85.5562L105.162 87.3939C105.567 87.6966 105.736 88.2045 105.583 88.6816L105.02 90.4039L106.74 89.8379C107.208 89.6778 107.741 89.8604 108.028 90.2567L109.863 92.7738C110.159 93.1794 110.157 93.7253 109.871 94.1164L108.804 95.5768L110.628 95.5788C111.121 95.5718 111.57 95.9031 111.721 96.3746L112.707 99.3227C112.858 99.7941 112.705 100.307 112.305 100.595L110.835 101.645L112.567 102.208C113.038 102.361 113.369 102.804 113.368 103.296L113.403 106.385C113.41 106.886 113.089 107.311 112.621 107.454L110.893 107.993L112.391 109.073C112.796 109.358 112.964 109.884 112.821 110.352L111.902 113.286C111.758 113.755 111.313 114.068 110.822 114.057L108.998 114.019L110.095 115.495C110.39 115.901 110.397 116.438 110.121 116.839L108.335 119.326C108.049 119.717 107.536 119.884 107.057 119.722L105.325 119.124L105.924 120.857C106.093 121.33 105.922 121.842 105.523 122.13L103.053 123.927C102.654 124.216 102.108 124.203 101.712 123.909L100.232 122.811L100.266 124.638C100.274 125.14 99.9606 125.575 99.4926 125.717L96.5669 126.646C96.0898 126.797 95.5749 126.615 95.2879 126.218L94.2095 124.725L93.6731 126.458C93.5294 126.926 93.0935 127.249 92.6018 127.238L89.5168 127.212C89.016 127.209 88.5755 126.887 88.4333 126.407L87.8609 124.666L86.811 126.145C86.5344 126.546 86.0125 126.703 85.5416 126.55L82.5925 125.572C82.1216 125.419 81.8 124.968 81.8011 124.475L81.8028 122.65L80.3499 123.719C79.9505 124.007 79.414 124.003 79.0084 123.719L76.4883 121.881C76.0827 121.596 75.9147 121.07 76.0675 120.593L76.6305 118.871L74.9107 119.437C74.4876 119.572 74.0251 119.446 73.7276 119.13L73.7378 119.067ZM74.1179 115.798L74.9705 116.96L78.0588 115.948C78.4641 115.813 78.9178 115.929 79.2245 116.237C79.5042 116.553 79.6472 116.997 79.5136 117.403L78.5109 120.504L79.674 121.356L82.2711 119.438C82.6162 119.184 83.082 119.149 83.4624 119.352C83.8607 119.556 84.0941 119.95 84.0852 120.38L84.0896 123.655L85.4486 124.112L87.3273 121.468C87.567 121.119 87.9999 120.94 88.4186 121.02C88.8464 121.091 89.1889 121.4 89.3326 121.808L90.3418 124.927L91.7635 124.94L92.7126 121.837C92.8283 121.43 93.1832 121.131 93.6048 121.068C94.0265 121.004 94.4521 121.182 94.7041 121.542L96.6256 124.223L97.9759 123.794L97.9088 120.525C97.8998 120.095 98.1314 119.702 98.5199 119.512C98.9084 119.322 99.3636 119.367 99.7071 119.622L102.35 121.59L103.494 120.759L102.422 117.647C102.278 117.238 102.386 116.786 102.687 116.485C102.988 116.184 103.438 116.077 103.846 116.219L106.946 117.283L107.774 116.135L105.798 113.487C105.537 113.137 105.502 112.679 105.689 112.293C105.875 111.907 106.274 111.672 106.703 111.689L109.975 111.75L110.405 110.398L107.725 108.482C107.373 108.235 107.185 107.798 107.256 107.381C107.319 106.953 107.612 106.607 108.026 106.481L111.131 105.523L111.115 104.1L107.997 103.088C107.579 102.955 107.283 102.603 107.211 102.179C107.139 101.756 107.318 101.325 107.662 101.088L110.295 99.2075L109.84 97.8468L106.575 97.8494C106.146 97.85 105.74 97.6009 105.551 97.2175C105.344 96.8333 105.389 96.3698 105.638 96.0308L107.551 93.4233L106.699 92.2614L103.61 93.2733C103.205 93.4091 102.751 93.2924 102.445 92.9847C102.147 92.6685 102.022 92.2249 102.156 91.8187L103.158 88.7181L102.004 87.875L99.3978 89.8014C99.0527 90.0559 98.596 90.0822 98.2065 89.8875C97.8261 89.6843 97.5749 89.2893 97.5837 88.8601L97.5793 85.5847L96.2204 85.1272L94.3504 87.7812C94.1107 88.1295 93.6778 88.3089 93.259 88.2294C92.8312 88.1584 92.4796 87.8579 92.3451 87.4408L91.3272 84.3124L89.9054 84.2998L88.9563 87.4026C88.8315 87.8182 88.4857 88.1085 88.0641 88.172C87.6424 88.2355 87.2081 88.048 86.9648 87.6982L85.0433 85.0166L83.693 85.4454L83.7601 88.7144C83.7691 89.1443 83.5375 89.5376 83.149 89.7278C82.7606 89.9179 82.3054 89.8728 81.9618 89.6173L79.3192 87.6494L78.1753 88.4802L79.2385 91.5836C79.3821 91.9921 79.2744 92.4441 78.9731 92.7452C78.6631 93.037 78.2224 93.1534 77.814 93.0117L74.7058 91.9378L73.8773 93.0856L75.8532 95.7336C76.1143 96.0841 76.1496 96.542 75.9628 96.9282C75.776 97.3144 75.3777 97.5489 74.9488 97.5316L71.6767 97.4713L71.2465 98.8231L73.926 100.739C74.2874 100.995 74.4665 101.423 74.404 101.85C74.3416 102.277 74.0483 102.623 73.6343 102.749L70.5292 103.707L70.5447 105.131L73.6631 106.142C74.0807 106.275 74.3776 106.627 74.4494 107.051C74.5212 107.474 74.3424 107.906 73.9977 108.142L71.3655 110.023L71.8206 111.384L75.085 111.381C75.5143 111.38 75.9118 111.62 76.1094 112.013C76.3162 112.397 76.2709 112.861 76.0225 113.2L74.1088 115.807L74.1179 115.798Z" fill="#776503"/>
<path fill-rule="evenodd" clip-rule="evenodd" d="M110.144 110.45L109.819 111.493L105.608 111.422C105.411 111.852 105.206 112.274 104.965 112.693L107.506 116.107L106.871 116.985L102.857 115.606C102.528 115.951 102.208 116.287 101.853 116.604L103.228 120.624L102.347 121.259L98.9384 118.715C98.5222 118.948 98.0977 119.155 97.6734 119.344L97.7477 123.571L96.7034 123.904L94.2167 120.439C93.7498 120.528 93.2833 120.598 92.808 120.66L91.5809 124.673L90.49 124.665L89.1778 120.621C88.7051 120.557 88.2415 120.485 87.7608 120.376L85.3476 123.786L84.2995 123.44L84.2967 119.216C83.8535 119.019 83.4199 118.796 83.0132 118.565L79.6533 121.042L78.7634 120.389L80.0617 116.396C79.7017 116.069 79.36 115.724 79.0361 115.38L75.0476 116.677L74.3951 115.783L76.8703 112.402C76.6373 111.99 76.4046 111.56 76.199 111.122L71.9779 111.113L71.6326 110.07L75.045 107.648C74.9473 107.179 74.8675 106.71 74.8059 106.224L70.7724 104.916L70.7591 103.824L74.7732 102.59C74.8097 102.117 74.8907 101.655 74.9809 101.184L71.5169 98.7089L71.8424 97.6661L76.062 97.7467C76.2587 97.3162 76.4732 96.8863 76.6961 96.4837L74.1546 93.0701L74.7897 92.1919L78.8039 93.5708C79.1242 93.2168 79.462 92.8814 79.7994 92.5639L78.4149 88.5527L79.2955 87.9171L82.7223 90.4625C83.1385 90.2287 83.563 90.0221 83.9964 89.8248L83.913 85.6065L84.9573 85.2728L87.444 88.7379C87.9109 88.6493 88.3775 88.5786 88.8436 88.5258L90.0707 84.5125L91.1704 84.53L92.4917 88.5655C92.9556 88.62 93.4279 88.7017 93.8999 88.8013L96.3131 85.3907L97.3613 85.7372L97.3641 89.9612C97.8072 90.158 98.2409 90.3813 98.6563 90.6218L102.016 88.1442L102.915 88.8069L101.626 92.7908C101.986 93.1185 102.327 93.4634 102.642 93.8162L106.631 92.5183L107.283 93.4127L104.808 96.794C105.05 97.2154 105.264 97.6446 105.47 98.0646L109.692 98.0737L110.046 99.126L106.633 101.548C106.731 102.017 106.811 102.486 106.881 102.963L110.915 104.271L110.919 105.372L106.914 106.597C106.86 107.069 106.787 107.541 106.706 108.003L110.161 110.487L110.144 110.45Z" fill="#FCEEA3"/>
<path d="M74.2266 117.468C74.2266 117.468 74.1566 117.393 74.1303 117.365L73.4779 116.471C73.1821 116.065 73.1753 115.528 73.4697 115.128L75.5213 112.338C75.5213 112.338 75.5038 112.32 75.4951 112.311L71.9892 112.312C71.4884 112.31 71.0478 111.988 70.8965 111.517L70.5512 110.474C70.3999 110.002 70.5623 109.499 70.9617 109.21L73.7843 107.203C73.7843 107.203 73.7759 107.176 73.7763 107.158L70.4358 106.075C69.9562 105.913 69.6342 105.479 69.6353 104.987L69.6219 103.894C69.6143 103.393 69.9361 102.968 70.4041 102.825L73.7252 101.805C73.7252 101.805 73.7346 101.778 73.735 101.76L70.8706 99.7031C70.4563 99.409 70.2878 98.9011 70.4407 98.424L70.7662 97.3811C70.91 96.9126 71.3546 96.5995 71.8463 96.6104L75.3419 96.6708C75.3419 96.6708 75.3602 96.6536 75.3605 96.6357L73.2454 93.8031C72.9496 93.3975 72.9428 92.8603 73.2193 92.4598L73.8457 91.5722C74.1309 91.181 74.6442 91.0138 75.1238 91.1763L78.4541 92.3219C78.4541 92.3219 78.4723 92.3047 78.4814 92.2961L77.3424 88.966C77.1732 88.4938 77.3447 87.9816 77.7441 87.6935L78.6247 87.0579C79.0241 86.7697 79.5693 86.7827 79.9658 87.0761L82.8021 89.195C82.8021 89.195 82.8204 89.1779 82.8295 89.1693L82.7584 85.6585C82.7508 85.157 83.0638 84.7223 83.5318 84.58L84.567 84.2549C85.0349 84.1127 85.5499 84.2945 85.846 84.6823L87.9068 87.5485C87.9068 87.5485 87.9251 87.5313 87.9517 87.5414L88.9591 84.2083C89.1029 83.7398 89.5388 83.4173 90.0305 83.4282L91.1302 83.4457C91.631 83.448 92.0624 83.7786 92.2137 84.25L93.3075 87.6052C93.3075 87.6052 93.3342 87.6152 93.352 87.6159L95.3508 84.7882C95.6273 84.3877 96.1405 84.2205 96.6201 84.383L97.6683 84.7295C98.1479 84.892 98.4608 85.3342 98.4597 85.8263L98.4684 89.3257C98.4684 89.3257 98.4859 89.3442 98.5125 89.3543L101.3 87.2921C101.7 87.004 102.236 87.0077 102.651 87.3018L103.541 87.9552C103.955 88.2493 104.114 88.7658 103.961 89.2429L102.883 92.5552C102.883 92.5552 102.9 92.5738 102.909 92.5831L106.213 91.5083C106.673 91.3568 107.197 91.53 107.492 91.9357L108.145 92.83C108.441 93.2357 108.447 93.7729 108.153 94.1727L106.092 96.9711C106.092 96.9711 106.11 96.9897 106.119 96.999L109.624 96.9972C110.116 96.9902 110.566 97.3215 110.717 97.793L111.071 98.8453C111.231 99.3261 111.069 99.8296 110.669 100.118L107.847 102.125C107.847 102.125 107.855 102.152 107.855 102.17L111.204 103.262C111.675 103.416 111.997 103.849 112.005 104.351L112.018 105.443C112.017 105.935 111.704 106.37 111.236 106.512L107.915 107.533C107.915 107.533 107.905 107.559 107.905 107.577L110.769 109.634C111.175 109.919 111.343 110.445 111.199 110.913L110.874 111.956C110.73 112.425 110.285 112.738 109.794 112.727L106.298 112.667C106.298 112.667 106.28 112.684 106.279 112.702L108.394 115.534C108.69 115.94 108.706 116.487 108.421 116.878L107.785 117.756C107.5 118.147 106.987 118.314 106.525 118.153L103.195 117.007C103.195 117.007 103.177 117.024 103.168 117.033L104.307 120.363C104.476 120.835 104.304 121.347 103.905 121.635L103.024 122.271C102.625 122.559 102.088 122.555 101.683 122.253L98.8556 120.143C98.8556 120.143 98.8374 120.16 98.8283 120.169L98.8993 123.68C98.9069 124.181 98.5939 124.616 98.1259 124.758L97.0817 125.092C96.6137 125.234 96.0896 125.061 95.8026 124.664L93.7418 121.798C93.7418 121.798 93.7148 121.806 93.6969 121.805L92.6807 125.129C92.537 125.598 92.1011 125.92 91.6094 125.909L90.5097 125.892C90.0089 125.89 89.5775 125.559 89.417 125.096L88.332 121.75C88.332 121.75 88.3054 121.74 88.2875 121.739L86.2887 124.567C86.0122 124.968 85.499 125.135 85.0194 124.972L83.9712 124.626C83.4916 124.463 83.1787 124.021 83.1798 123.529L83.1711 120.03C83.1711 120.03 83.1536 120.011 83.1358 120.01L80.3391 122.063C79.9484 122.361 79.4031 122.348 78.9976 122.063L78.1077 121.409C77.7025 121.107 77.534 120.599 77.6869 120.122L78.7655 116.809C78.7655 116.809 78.748 116.791 78.7305 116.772L75.4262 117.847C75.0031 117.982 74.5406 117.856 74.243 117.54L74.2266 117.468ZM77.0192 110.385C77.1067 110.478 77.1672 110.579 77.2274 110.698C77.4159 111.099 77.6223 111.501 77.8469 111.886C78.0716 112.271 78.0526 112.763 77.7859 113.119L76.3416 115.074L78.6556 114.317C79.0788 114.182 79.5237 114.29 79.8563 114.643C80.2677 115.08 80.5128 115.341 80.8027 115.594C81.1627 115.922 81.2607 116.373 81.1268 116.797L80.3726 119.12L82.3249 117.687C82.6791 117.424 83.1536 117.398 83.5515 117.62C83.9315 117.841 84.3298 118.045 84.7463 118.232C85.1628 118.419 85.4316 118.832 85.4224 119.279L85.4257 121.731L86.8259 119.748C87.0838 119.382 87.5346 119.203 87.9796 119.311C88.4158 119.409 88.8615 119.481 89.2897 119.534C89.7358 119.587 90.1048 119.907 90.2481 120.333L91.0138 122.682L91.7235 120.348C91.8574 119.924 92.2215 119.616 92.6606 119.571C93.1089 119.518 93.5484 119.455 93.9795 119.365C94.4194 119.284 94.8717 119.472 95.1237 119.832L96.567 121.841L96.5192 119.378C96.5105 118.93 96.76 118.537 97.1664 118.348C97.5636 118.167 97.9703 117.96 98.3591 117.752C98.748 117.544 99.2214 117.572 99.5825 117.846L101.565 119.313L100.763 116.981C100.62 116.554 100.728 116.084 101.065 115.785C101.384 115.484 101.703 115.184 101.996 114.856C102.298 114.537 102.756 114.421 103.182 114.564L105.518 115.365L104.038 113.39C103.768 113.03 103.734 112.536 103.956 112.152C104.17 111.758 104.357 111.371 104.544 110.967C104.731 110.563 105.13 110.311 105.577 110.311L108.027 110.356L106.017 108.915C105.656 108.659 105.468 108.204 105.558 107.769C105.638 107.325 105.71 106.889 105.755 106.443C105.8 105.998 106.111 105.634 106.534 105.499L108.866 104.779L106.52 104.022C106.094 103.88 105.779 103.509 105.726 103.068C105.663 102.618 105.592 102.177 105.494 101.744C105.404 101.301 105.574 100.861 105.937 100.607L107.916 99.2013L105.456 99.2006C105.009 99.2005 104.594 98.9421 104.415 98.5322C104.226 98.1308 104.02 97.7287 103.795 97.3438C103.571 96.9589 103.59 96.4675 103.856 96.1113L105.292 94.1468L102.978 94.9037C102.555 95.0387 102.137 94.9055 101.777 94.5778C101.348 94.122 101.103 93.8794 100.822 93.6176C100.507 93.2827 100.373 92.8477 100.507 92.4236L101.252 90.1091L99.3081 91.552C98.9539 91.8151 98.4615 91.84 98.0727 91.6095C97.6927 91.3884 97.2944 91.1844 96.8779 90.9976C96.4614 90.8108 96.1926 90.3972 96.2018 89.9501L96.1985 87.498L94.7983 89.4819C94.5404 89.8474 94.0896 90.026 93.6534 89.9279C93.2172 89.8298 92.7715 89.7581 92.3433 89.7051C91.8972 89.6513 91.519 89.3407 91.3848 88.9058L90.6192 86.5572L89.9095 88.891C89.7756 89.3152 89.4115 89.6227 88.9724 89.6676C88.5332 89.7125 88.0937 89.7753 87.6625 89.8653C87.2227 89.946 86.7704 89.7578 86.5093 89.4072L85.0659 87.3981L85.1141 89.8431C85.1228 90.2909 84.8642 90.6921 84.467 90.873C84.0606 91.0624 83.663 91.2611 83.2742 91.4692C82.8853 91.6772 82.4119 91.6492 82.0417 91.3837L80.0508 89.9074L80.8526 92.2396C80.9959 92.666 80.8879 93.1359 80.5599 93.4269C80.2407 93.7272 79.9215 94.0276 79.6195 94.3644C79.3266 94.6927 78.8502 94.8077 78.4239 94.6652L76.0969 93.8734L77.5677 95.8567C77.8375 96.2166 77.8634 96.7008 77.6587 97.0863C77.4453 97.4625 77.2403 97.8659 77.0619 98.2793C76.8747 98.6834 76.476 98.9358 76.0288 98.9357L73.5793 98.8906L75.5888 100.332C75.9677 100.607 76.1376 101.043 76.057 101.487C75.9676 101.922 75.896 102.358 75.8602 102.795C75.8153 103.24 75.5213 103.622 75.0803 103.757L72.7583 104.468L75.0951 105.216C75.5214 105.358 75.8358 105.729 75.8981 106.179C75.9604 106.629 76.0319 107.07 76.1303 107.504C76.2196 107.946 76.0496 108.386 75.6866 108.64L73.7081 110.046L76.1497 110.046C76.4718 110.041 76.773 110.179 76.9918 110.411L77.0192 110.385Z" fill="#776503"/>
<path fill-rule="evenodd" clip-rule="evenodd" d="M82.2997 92.7722C88.7259 88.1811 97.7712 89.7539 102.485 96.2798C107.198 102.806 105.797 111.823 99.3706 116.414C92.9445 121.005 83.917 119.433 79.1857 112.907C74.4722 106.381 75.8557 97.3626 82.291 92.7629L82.2997 92.7722ZM98.013 98.8915C97.5345 98.6753 96.9848 98.8769 96.7783 99.3518C96.5718 99.8267 96.784 100.381 97.2625 100.597C97.741 100.813 98.2907 100.612 98.4972 100.137C98.7125 99.6714 98.4915 99.1077 98.013 98.8915ZM84.4165 108.599C83.938 108.382 83.3883 108.584 83.1818 109.059C82.9753 109.534 83.1876 110.088 83.6661 110.304C84.1446 110.521 84.6943 110.319 84.9008 109.844C85.1073 109.369 84.895 108.815 84.4165 108.599ZM96.6907 111.903C96.8972 111.429 96.685 110.874 96.2065 110.658C95.7371 110.433 95.1783 110.643 94.9718 111.118C94.7565 111.584 94.9775 112.148 95.456 112.364C95.9345 112.58 96.4842 112.378 96.6907 111.903ZM86.7161 98.0869C86.9226 97.612 86.7104 97.0576 86.2318 96.8414C85.7533 96.6253 85.2036 96.8268 84.9971 97.3017C84.7906 97.7766 85.0028 98.331 85.4814 98.5472C85.9599 98.7634 86.5096 98.5618 86.7161 98.0869Z" fill="#FCEEA3"/>
<path d="M79.6131 115.17C79.1404 114.668 78.6955 114.122 78.2779 113.55C73.2082 106.518 74.7048 96.7793 81.6212 91.832C88.4465 86.9706 98.2614 88.5208 103.392 95.6183C105.854 99.0197 106.86 103.159 106.23 107.259C105.6 111.359 103.398 114.939 100.049 117.337C93.7773 121.818 84.9959 120.891 79.6131 115.17ZM100.425 95.5524C95.8294 90.6689 88.3243 89.8741 82.9691 93.703C77.0514 97.9209 75.7716 106.245 80.1109 112.264C84.4765 118.31 92.8825 119.661 98.7097 115.493C101.578 113.443 103.447 110.386 103.993 106.891C104.53 103.387 103.681 99.8538 101.577 96.9411C101.22 96.4524 100.836 95.9895 100.433 95.5616L100.425 95.5524ZM82.5366 110.858C82.7292 111.063 82.9494 111.224 83.1975 111.341C84.234 111.822 85.4596 111.37 85.928 110.333C86.3691 109.322 85.921 108.06 84.8666 107.579C83.8209 107.107 82.5954 107.559 82.1269 108.596C81.7982 109.361 81.9498 110.253 82.5275 110.867L82.5366 110.858ZM94.3178 112.908C94.5104 113.113 94.7306 113.274 94.9878 113.383C96.0243 113.863 97.2499 113.411 97.7183 112.374C98.1685 111.355 97.6402 110.08 96.6657 109.629C96.1609 109.385 95.589 109.362 95.0842 109.557C94.5615 109.75 94.1511 110.137 93.9442 110.629C93.5976 111.394 93.758 112.295 94.3356 112.909L94.3178 112.908ZM84.3431 99.0919C84.5357 99.2966 84.756 99.4576 85.0131 99.5664C85.5182 99.7926 86.081 99.8242 86.5946 99.6391C87.1082 99.454 87.5186 99.0678 87.7437 98.5579C88.1848 97.5465 87.7096 96.2925 86.6822 95.8036C86.1683 95.5681 85.6143 95.5457 85.0916 95.7394C84.578 95.9245 84.1677 96.3107 83.9517 96.8121C83.6051 97.5766 83.7746 98.4694 84.3523 99.0833L84.3431 99.0919ZM96.1331 101.151C96.3169 101.347 96.5371 101.508 96.7852 101.625C97.299 101.861 97.8622 101.874 98.3758 101.689C98.8806 101.495 99.291 101.109 99.5157 100.617C99.9747 99.6059 99.4999 98.3339 98.4543 97.8622C97.9404 97.6267 97.3773 97.613 96.8637 97.7981C96.341 97.9918 95.9485 98.3787 95.7238 98.8707C95.3863 99.6267 95.5466 100.528 96.1243 101.142L96.1331 101.151Z" fill="#776503"/>
<path fill-rule="evenodd" clip-rule="evenodd" d="M82.7428 93.3896C76.6614 97.744 75.3323 106.29 79.8025 112.466C84.2636 118.651 92.8275 120.151 98.9181 115.787C105.008 111.442 106.319 102.895 101.867 96.7022C97.4064 90.5177 88.8334 89.0265 82.7519 93.381L82.7428 93.3896ZM99.0225 97.1871C100.298 97.7754 100.885 99.2756 100.322 100.542C99.7594 101.808 98.2723 102.365 96.9786 101.776C95.7028 101.188 95.1257 99.6788 95.6791 98.4214C96.2421 97.1376 97.7379 96.5894 99.0137 97.1777L99.0225 97.1871ZM84.6819 107.419C85.9664 108.017 86.544 109.508 85.9814 110.774C85.4097 112.048 83.9226 112.606 82.6381 112.008C81.3623 111.419 80.7851 109.911 81.3476 108.645C81.9102 107.379 83.3974 106.821 84.6731 107.41L84.6819 107.419ZM98.395 112.948C97.8324 114.213 96.3453 114.771 95.0608 114.173C93.785 113.585 93.1987 112.085 93.7613 110.819C94.3238 109.553 95.811 108.995 97.0955 109.593C98.3713 110.181 98.9576 111.682 98.3859 112.956L98.395 112.948ZM87.8901 98.3847C87.3275 99.6507 85.8404 100.208 84.5647 99.6198C83.2801 99.0222 82.7025 97.5312 83.2564 96.256C83.819 94.99 85.3061 94.4326 86.5906 95.0302C87.8664 95.6186 88.4527 97.1188 87.881 98.3933L87.8901 98.3847Z" fill="#FCEEA3"/>
<path d="M80.1601 114.655C79.7137 114.181 79.286 113.671 78.8859 113.118C74.0594 106.436 75.4928 97.16 82.0645 92.4494C88.5542 87.8161 97.888 89.2753 102.766 96.0494C107.592 102.75 106.168 112.017 99.5877 116.718C93.6244 120.979 85.2625 120.096 80.1422 114.654L80.1601 114.655ZM80.8673 112.008C85.0199 117.536 92.7405 118.724 98.1577 114.925C97.1422 115.6 95.8156 115.743 94.6106 115.193C92.8031 114.369 91.9371 112.114 92.7339 110.33C93.1276 109.451 93.848 108.773 94.7493 108.433C95.6597 108.085 96.6515 108.134 97.5552 108.547C99.354 109.362 100.229 111.625 99.432 113.41C99.1788 113.981 98.8027 114.44 98.3394 114.789C103.778 110.829 104.982 103.155 101.064 97.5288C101.731 98.567 101.856 99.8696 101.341 101.003C100.947 101.9 100.236 102.569 99.3165 102.908C98.4064 103.238 97.4056 103.198 96.5106 102.795C94.6856 101.952 93.8371 99.7163 94.6339 97.9318C95.0188 97.0435 95.7392 96.3656 96.6584 96.0268C97.5685 95.6966 98.5693 95.737 99.4731 96.1493C100.014 96.3948 100.489 96.7719 100.837 97.2155C96.7647 91.7178 89.0904 90.4508 83.6487 94.133C83.8388 94.0243 84.0285 93.9336 84.2448 93.8528C85.1548 93.5226 86.1557 93.563 87.0416 93.9745C88.8312 94.7984 89.7064 97.044 88.9183 98.8378C88.5243 99.7347 87.7951 100.403 86.8938 100.743C85.9837 101.073 84.9829 101.033 84.097 100.621C82.2985 99.7879 81.4234 97.5423 82.2115 95.7485C82.4275 95.2471 82.7493 94.8216 83.1498 94.4798C77.854 98.4633 76.7063 106.015 80.5453 111.574C79.9046 110.546 79.7967 109.262 80.2936 108.146C80.6877 107.249 81.4081 106.571 82.3182 106.241C83.2282 105.911 84.2203 105.942 85.115 106.363C86.9225 107.187 87.7885 109.441 86.9917 111.226C86.5977 112.123 85.8864 112.792 84.9672 113.131C84.0571 113.461 83.0563 113.421 82.1613 113.018C81.6474 112.782 81.1984 112.433 80.8407 111.998L80.8673 112.008ZM84.6814 108.752C84.5501 108.613 84.4002 108.508 84.223 108.43C83.8863 108.273 83.511 108.258 83.1597 108.378C82.8172 108.507 82.5437 108.765 82.3846 109.107C82.0843 109.793 82.407 110.629 83.0978 110.961C83.4344 111.118 83.8185 111.143 84.1701 111.005C84.5126 110.875 84.7862 110.618 84.9453 110.275C85.1704 109.765 85.0665 109.162 84.6726 108.743L84.6814 108.752ZM97.1041 110.918C96.9728 110.778 96.823 110.674 96.6545 110.604C96.3178 110.448 95.9337 110.423 95.5821 110.561C95.2396 110.69 94.966 110.948 94.807 111.29C94.5067 111.976 94.8294 112.813 95.5202 113.145C96.2201 113.468 97.0492 113.162 97.3585 112.467C97.5836 111.957 97.4889 111.345 97.095 110.926L97.1041 110.918ZM86.5992 96.355C86.4767 96.2248 86.318 96.111 86.1495 96.0415C85.8042 95.8755 85.4288 95.8603 85.0863 95.9897C84.7351 96.1098 84.4615 96.3672 84.3112 96.7191C84.02 97.3964 84.3336 98.2413 85.0335 98.5649C85.3701 98.7216 85.7542 98.7461 86.0967 98.6167C86.4392 98.4873 86.7128 98.2299 86.8719 97.8873C87.097 97.3773 86.9931 96.7736 86.5992 96.355ZM99.022 98.5204C98.8994 98.3902 98.7408 98.2764 98.5814 98.1984C98.236 98.0323 97.8607 98.0172 97.5091 98.1551C97.1666 98.2845 96.893 98.5419 96.743 98.8759C96.4428 99.5618 96.7563 100.407 97.4562 100.73C97.7929 100.887 98.1682 100.902 98.5286 100.774C98.8711 100.644 99.1447 100.387 99.3037 100.044C99.538 99.5256 99.425 98.9304 99.0311 98.5118L99.022 98.5204Z" fill="#776503"/>
<path fill-rule="evenodd" clip-rule="evenodd" d="M31.9344 118.277C27.0475 113.229 24.3208 106.64 24.4996 99.6675L26.3725 22.3356C26.8061 4.68809 52.8622 2.75881 55.8009 20.8108L71.7573 79.1563L92.9715 80.0117C124.176 81.27 123.173 130.144 91.9687 128.886L52.1413 127.253C44.2061 126.933 37.0138 123.529 31.9253 118.285L31.9344 118.277ZM90.525 117.301C97.5488 117.585 103.367 112.11 103.511 105.082C103.665 98.0453 98.0804 92.1108 91.0388 91.8268C84.015 91.5436 78.1968 97.0183 78.0526 104.046C77.8993 111.083 83.4834 117.017 90.525 117.301ZM40.9556 29.9217C45.1464 30.0996 48.621 26.8302 48.6981 22.6363C48.7839 18.4517 45.458 14.917 41.2671 14.7391C37.0851 14.5704 33.6105 17.8399 33.5246 22.0245C33.4475 26.2183 36.7735 29.753 40.9556 29.9217Z" fill="url(#paint0_linear_1324_33548)"/>
<path d="M41.2908 13.5942C36.4832 13.4004 32.4888 17.1589 32.3901 21.9694C32.3424 24.2941 33.2088 26.5305 34.8192 28.242C36.4297 29.9536 38.6005 30.9449 40.9327 31.0479C43.2648 31.1509 45.473 30.3182 47.151 28.7393C48.829 27.1604 49.7856 24.9975 49.8333 22.6728C49.9291 18.0053 45.9554 13.7823 41.2908 13.5942ZM40.9793 28.7768C37.5299 28.6377 34.5891 25.5123 34.6599 22.0609C34.7329 18.5022 37.6876 15.7219 41.2442 15.8653C42.9778 15.9352 44.5814 16.6711 45.7718 17.9361C46.9621 19.2012 47.6079 20.8559 47.5635 22.5812C47.5371 24.3073 46.8245 25.9073 45.5843 27.0743C44.344 28.2413 42.7129 28.8467 40.9793 28.7768Z" fill="#776503"/>
<path d="M100.782 95.1457C98.217 92.4203 94.7617 90.8312 91.0622 90.682C87.3626 90.5329 83.8479 91.8408 81.185 94.3465C78.5129 96.8608 76.9937 100.29 76.9178 103.991C76.8418 107.693 78.2179 111.239 80.7825 113.964C83.347 116.689 86.7935 118.269 90.5018 118.428C94.2013 118.577 97.7161 117.269 100.388 114.755C103.06 112.24 104.57 108.82 104.646 105.118C104.722 101.417 103.346 97.8711 100.782 95.1457ZM90.5393 116.165C87.4474 116.04 84.5501 114.716 82.4057 112.437C80.2613 110.158 79.1146 107.203 79.1784 104.091C79.2419 100.998 80.5083 98.1225 82.7426 96.0201C84.9768 93.9178 87.9058 92.8277 91.0156 92.9531C94.1162 93.0871 97.0048 94.4028 99.1492 96.6817C101.294 98.9606 102.44 101.915 102.376 105.027C102.313 108.121 101.047 110.996 98.8123 113.098C96.578 115.201 93.6399 116.299 90.5393 116.165Z" fill="#776503"/>
<path d="M114.639 116.305C119.085 106.229 117.192 93.8745 110.024 86.2563C105.735 81.6984 99.84 79.143 92.9771 78.8663L72.6029 78.0447L56.8954 20.6399C56.3232 17.1447 54.9259 14.1978 52.7377 11.8724C48.4402 7.30522 41.3794 5.77661 35.1793 8.06807C29.1054 10.3109 25.3655 15.6189 25.2107 22.2885L23.3379 99.6204C23.1667 106.656 25.8267 113.448 30.8156 118.75L31.1045 119.057C36.5344 124.663 44.1917 128.068 52.1002 128.378L91.9277 130.011C102.311 130.43 110.588 125.43 114.621 116.304L114.639 116.305ZM91.9922 127.741L52.1647 126.108C44.8372 125.813 37.7558 122.672 32.7376 117.485L32.475 117.206C27.9062 112.351 25.4668 106.14 25.6255 99.7126L27.4984 22.3807C27.6424 16.6682 30.8213 12.1162 36.03 10.1964C41.3919 8.22013 47.4559 9.51168 51.132 13.4184C52.9963 15.3997 54.1963 17.9359 54.7132 21.0798L70.6696 79.4254C70.8027 79.914 71.2338 80.2625 71.7342 80.2826L92.9575 81.1295C99.2039 81.3725 104.541 83.6817 108.409 87.793C114.851 94.6391 116.608 106.227 112.575 115.353C108.926 123.609 101.429 128.121 91.9922 127.741Z" fill="#776503"/>
<path fill-rule="evenodd" clip-rule="evenodd" d="M33.4276 35.0234C39.1944 38.5939 46.7399 37.8601 51.5751 33.2227L66.0921 86.3109L80.783 86.9033C68.0003 94.0033 67.3174 112.464 79.4844 120.991L52.3013 119.877C41.7032 119.449 31.5976 111.14 31.8711 99.9918L33.4455 35.0242L33.4276 35.0234Z" fill="url(#paint1_linear_1324_33548)"/>
<path d="M36.1334 113.676C32.5273 109.844 30.5974 104.96 30.7183 99.9361L32.2928 34.9684C32.3012 34.5571 32.523 34.2081 32.8757 34.0165C33.2285 33.8249 33.6574 33.8422 34.0017 34.0619C39.3888 37.3933 46.2803 36.7137 50.778 32.3938C51.0699 32.1192 51.4744 32.0192 51.8657 32.1245C52.248 32.2383 52.5546 32.546 52.6629 32.9352L66.9555 85.1999L80.7976 85.7492C81.3071 85.7608 81.7466 86.1365 81.8797 86.6251C82.0036 87.1222 81.7873 87.6415 81.3441 87.8831C76.2961 90.6864 72.9304 95.6247 72.0959 101.426C71.0625 108.641 74.1254 115.844 80.1205 120.059C80.5435 120.362 80.712 120.87 80.5591 121.347C80.4062 121.824 79.9616 122.137 79.4611 122.117L52.278 121.003C46.1658 120.757 40.2821 118.085 36.1421 113.685L36.1334 113.676ZM34.5251 36.884L32.9881 100.028C32.8872 104.507 34.5364 108.69 37.7661 112.122C41.4422 116.029 46.8828 118.504 52.3159 118.723L76.1748 119.703C71.2116 114.885 68.849 107.988 69.8408 101.057C70.6023 95.7634 73.2465 91.1182 77.2572 87.8705L66.0692 87.4193C65.5688 87.3992 65.1286 87.0592 65.0047 86.5621L50.9703 35.2294C46.2826 38.781 39.9375 39.42 34.5342 36.8754L34.5251 36.884Z" fill="#776503"/>
<path fill-rule="evenodd" clip-rule="evenodd" d="M41.4692 43.6793C40.0283 45.0351 39.9814 47.3241 41.373 48.8031C42.7647 50.2821 45.0348 50.3557 46.4757 48.9999C47.9166 47.6441 47.9635 45.3551 46.5806 43.8854C45.1977 42.4157 42.9101 42.3235 41.4692 43.6793Z" fill="#FCEEA3"/>
<path d="M40.5527 49.5574C38.7409 47.6319 38.7938 44.6183 40.6815 42.842C42.5693 41.0657 45.5718 41.1868 47.3927 43.1036C49.2045 45.0291 49.1516 48.0427 47.2639 49.819C45.3761 51.5953 42.3645 51.4828 40.5527 49.5574ZM45.769 44.649C44.8238 43.6444 43.251 43.581 42.2661 44.5077C41.2812 45.4345 41.2489 47.0082 42.2029 48.0221C43.157 49.036 44.721 49.0901 45.7059 48.1633C46.6908 47.2365 46.7231 45.6629 45.7778 44.6583L45.769 44.649Z" fill="#776503"/>
<path fill-rule="evenodd" clip-rule="evenodd" d="M88.3362 101.928C86.8953 103.284 86.8483 105.573 88.24 107.052C89.6316 108.531 91.9018 108.605 93.3427 107.249C94.7835 105.893 94.8305 103.604 93.4476 102.134C92.0647 100.665 89.7771 100.572 88.3362 101.928Z" fill="url(#paint2_linear_1324_33548)"/>
<path d="M87.4191 107.824C85.6073 105.899 85.6602 102.885 87.548 101.109C89.4357 99.3327 92.4382 99.4538 94.25 101.379C96.0618 103.305 96.0089 106.318 94.1212 108.095C92.2334 109.871 89.2218 109.758 87.41 107.833L87.4191 107.824ZM92.6355 102.916C91.6902 101.911 90.1175 101.848 89.1326 102.775C88.1477 103.702 88.1154 105.275 89.0694 106.289C90.0234 107.303 91.5874 107.357 92.5723 106.43C93.5572 105.504 93.5895 103.93 92.6355 102.916Z" fill="#776503"/>
<path fill-rule="evenodd" clip-rule="evenodd" d="M59.9181 99.5203L56.8448 102.412L53.7624 105.313L49.6746 104.038L45.5689 102.763L44.5543 98.5965L43.5306 94.4387L46.613 91.5383L49.6863 88.6465L53.7832 89.9124L57.8802 91.1783L58.9035 95.354L59.9181 99.5203Z" fill="url(#paint3_linear_1324_33548)"/>
<path fill-rule="evenodd" clip-rule="evenodd" d="M59.7406 99.4595L53.7218 105.123L49.7138 103.879L45.7058 102.634L44.9297 99.4887L58.9557 96.3047L59.7319 99.4502L59.7406 99.4595ZM44.4937 97.6366L58.5285 94.4619L57.7614 91.3078L53.7535 90.0634L49.7455 88.819L43.7267 94.4825L44.4937 97.6366ZM61.9979 100.159L59.4398 89.711L49.1666 86.5226L41.4515 93.7822L44.0096 104.23L54.2828 107.419L61.9979 100.159Z" fill="#776503"/>
<defs>
<linearGradient id="paint0_linear_1324_33548" x1="87.6916" y1="50.6331" x2="24.3502" y2="110.235" gradientUnits="userSpaceOnUse">
<stop stop-color="#FCD1A3"/>
<stop offset="0.519298" stop-color="#DDBC06"/>
<stop offset="1" stop-color="#776503"/>
</linearGradient>
<linearGradient id="paint1_linear_1324_33548" x1="76.218" y1="59.4119" x2="28.6938" y2="104.13" gradientUnits="userSpaceOnUse">
<stop offset="0.519298" stop-color="#FBD921"/>
<stop offset="1" stop-color="#958114"/>
</linearGradient>
<linearGradient id="paint2_linear_1324_33548" x1="93.4476" y1="102.134" x2="88.2312" y2="107.043" gradientUnits="userSpaceOnUse">
<stop stop-color="#FCD1A3"/>
<stop offset="0.519298" stop-color="#DDBC06"/>
<stop offset="1" stop-color="#776503"/>
</linearGradient>
<linearGradient id="paint3_linear_1324_33548" x1="57.8846" y1="91.183" x2="45.5732" y2="102.767" gradientUnits="userSpaceOnUse">
<stop stop-color="#FCD1A3"/>
<stop offset="0.519298" stop-color="#DDBC06"/>
<stop offset="1" stop-color="#776503"/>
</linearGradient>
</defs>
</svg>
