<svg width="28" height="33" viewBox="0 0 28 33" fill="none" xmlns="http://www.w3.org/2000/svg">
<path fill-rule="evenodd" clip-rule="evenodd" d="M24.3391 22.4003L18.9705 25.5932L13.6019 28.805L8.1963 25.6245L2.80917 22.4628L2.7906 16.0704L2.77209 9.6969L8.14071 6.48507L13.5277 3.27318L18.9149 6.45377L24.302 9.63437L24.3205 16.0079L24.3391 22.4003Z" fill="url(#paint0_linear_1324_33545)"/>
<path fill-rule="evenodd" clip-rule="evenodd" d="M24.0992 22.2497L18.841 25.3855L13.5827 28.5214L8.30622 25.4161L3.02982 22.3109L3.01581 17.4881L24.0669 17.427L24.0809 22.2497L24.0992 22.2497ZM3.02595 14.6512L3.01194 9.82854L8.27028 6.69275L13.5286 3.55685L18.805 6.66215L24.0814 9.76734L24.0954 14.59L3.04439 14.6511L3.02595 14.6512ZM27.0696 23.9999L27.0231 7.99994L13.5 0.0392092L0.0232272 8.07836L0.0696977 24.0783L13.5929 32.0391L27.0696 23.9999Z" fill="black"/>
<defs>
<linearGradient id="paint0_linear_1324_33545" x1="13.5185" y1="3.27321" x2="13.5926" y2="28.805" gradientUnits="userSpaceOnUse">
<stop offset="0.146157" stop-color="#CEA3FE"/>
<stop offset="0.495192" stop-color="#F1F2F2"/>
<stop offset="0.898019" stop-color="#CEA3FE"/>
</linearGradient>
</defs>
</svg>
