<svg width="833" height="405" viewBox="0 0 833 405" fill="none" xmlns="http://www.w3.org/2000/svg">
<g filter="url(#filter0_i_1429_27699)">
<path d="M833 160.06H0V405H833V160.06Z" fill="#702B34"/>
<path d="M726.188 0H106.812L0 160.06H833L726.188 0Z" fill="#702B34"/>
</g>
<path d="M172.627 264.231H57.1088C55.4866 264.231 54.1633 262.823 54.1815 261.096C54.1905 259.379 55.5047 258 57.1088 258H172.627C174.25 258 175.564 259.408 175.555 261.135C175.555 262.852 174.241 264.24 172.627 264.24V264.231Z" fill="#E5CEFF"/>
<path d="M172.564 279.085H57.0092C55.3869 279.085 54.0637 277.677 54.0818 275.95C54.0909 274.233 55.4051 272.844 57.0092 272.844H172.564C174.186 272.844 175.5 274.252 175.491 275.979C175.491 277.696 174.177 279.085 172.564 279.085Z" fill="#E5CEFF"/>
<path d="M172.51 293.958H56.9276C55.3053 293.958 53.9821 292.55 54.0002 290.813C54.0092 289.096 55.3234 287.708 56.9276 287.708H172.51C174.132 287.708 175.446 289.116 175.437 290.842C175.437 292.569 174.123 293.958 172.51 293.958Z" fill="#E5CEFF"/>
<path d="M769.636 261.231H654.118C652.495 261.231 651.172 259.823 651.19 258.096C651.199 256.379 652.514 255 654.118 255H769.636C771.259 255 772.573 256.408 772.564 258.135C772.564 259.852 771.25 261.241 769.636 261.241V261.231Z" fill="#E5CEFF"/>
<path d="M769.573 276.085H654.018C652.396 276.085 651.072 274.677 651.091 272.95C651.1 271.233 652.414 269.844 654.018 269.844H769.573C771.195 269.844 772.509 271.253 772.5 272.979C772.5 274.696 771.186 276.085 769.573 276.085Z" fill="#E5CEFF"/>
<path d="M769.51 290.948H653.928C652.305 290.948 650.982 289.54 651 287.814C651.009 286.097 652.323 284.708 653.928 284.708H769.51C771.132 284.708 772.446 286.116 772.437 287.843C772.437 289.569 771.123 290.958 769.51 290.958V290.948Z" fill="#E5CEFF"/>
<path d="M397.652 386H221.873C220.214 386 218.864 384.563 218.864 382.798V233.401C218.864 231.636 220.214 230.199 221.873 230.199H397.652C399.31 230.199 400.661 231.636 400.661 233.401V382.798C400.661 384.563 399.31 386 397.652 386ZM224.882 379.595H394.643V236.603H224.882V379.595Z" fill="#E5CEFF"/>
<path d="M598.826 386H423.047C421.388 386 420.038 384.563 420.038 382.798V233.401C420.038 231.636 421.388 230.199 423.047 230.199H598.826C600.484 230.199 601.835 231.636 601.835 233.401V382.798C601.835 384.563 600.484 386 598.826 386ZM426.056 379.595H595.817V236.603H426.056V379.595Z" fill="#E5CEFF"/>
<path d="M799.991 386H624.203C622.544 386 621.194 384.563 621.194 382.798V233.401C621.194 231.636 622.544 230.199 624.203 230.199H799.991C801.65 230.199 803 231.636 803 233.401V382.798C803 384.563 801.65 386 799.991 386ZM627.221 379.595H796.982V236.603H627.221V379.595Z" fill="#E5CEFF"/>
<path d="M202.788 385.801H27.009C25.3504 385.801 24 384.364 24 382.599V233.202C24 231.437 25.3504 230 27.009 230H202.788C204.447 230 205.797 231.437 205.797 233.202V382.599C205.797 384.364 204.447 385.801 202.788 385.801ZM30.0179 379.396H199.779V236.404H30.0179V379.396Z" fill="#E5CEFF"/>
<path d="M274.368 262.114C265.577 262.114 258.435 269.715 258.408 279.1C258.381 288.485 265.486 296.095 274.277 296.095C283.069 296.095 290.219 288.485 290.237 279.1C290.256 269.715 283.159 262.114 274.368 262.114ZM274.295 290.607C268.341 290.607 263.538 285.456 263.556 279.1C263.574 272.744 268.413 267.603 274.359 267.603C280.304 267.603 285.117 272.753 285.099 279.1C285.081 285.456 280.241 290.607 274.295 290.607Z" fill="#E5CEFF"/>
<path d="M476.811 262.114C468.02 262.114 460.878 269.715 460.851 279.1C460.823 288.485 467.929 296.095 476.72 296.095C485.511 296.095 492.662 288.485 492.68 279.1C492.708 269.715 485.602 262.114 476.811 262.114ZM476.738 290.607C470.784 290.607 465.98 285.456 465.999 279.1C466.017 272.744 470.856 267.603 476.802 267.603C482.747 267.603 487.56 272.753 487.542 279.1C487.523 285.456 482.684 290.607 476.738 290.607Z" fill="#E5CEFF"/>
<defs>
<filter id="filter0_i_1429_27699" x="0" y="0" width="833" height="409" filterUnits="userSpaceOnUse" color-interpolation-filters="sRGB">
<feFlood flood-opacity="0" result="BackgroundImageFix"/>
<feBlend mode="normal" in="SourceGraphic" in2="BackgroundImageFix" result="shape"/>
<feColorMatrix in="SourceAlpha" type="matrix" values="0 0 0 0 0 0 0 0 0 0 0 0 0 0 0 0 0 0 127 0" result="hardAlpha"/>
<feOffset dy="4"/>
<feGaussianBlur stdDeviation="2"/>
<feComposite in2="hardAlpha" operator="arithmetic" k2="-1" k3="1"/>
<feColorMatrix type="matrix" values="0 0 0 0 0 0 0 0 0 0 0 0 0 0 0 0 0 0 0.25 0"/>
<feBlend mode="normal" in2="shape" result="effect1_innerShadow_1429_27699"/>
</filter>
</defs>
</svg>
