<svg width="190" height="82" viewBox="0 0 190 82" fill="none" xmlns="http://www.w3.org/2000/svg">
<path fill-rule="evenodd" clip-rule="evenodd" d="M110.424 74.9949C111.063 76.4859 111.006 78.1685 110.27 79.5974C109.53 81.0263 108.292 81.8546 106.869 81.8546H3.98651C1.7752 81.8546 0 79.7165 0 77.1279V5.03025C0 2.44165 1.77961 0.303467 3.98651 0.303467H76.0169C77.5542 0.303467 78.8845 1.27678 79.5717 2.89206L110.429 74.9897L110.424 74.9949Z" fill="black"/>
<path fill-rule="evenodd" clip-rule="evenodd" d="M109.675 75.435L78.8184 3.33736C78.2678 2.04824 77.2238 1.29236 76.008 1.29236H3.9777C2.24214 1.29236 0.82373 2.97495 0.82373 5.03548V77.1331C0.82373 79.1936 2.23773 80.8762 3.9777 80.8762H106.861C107.988 80.8762 108.957 80.2342 109.548 79.0901C110.138 77.9511 110.182 76.6309 109.671 75.435H109.675Z" fill="#B9E7FE"/>
<path fill-rule="evenodd" clip-rule="evenodd" d="M16.5758 7.95024C15.7389 8.9339 14.3821 8.9339 13.5452 7.95024C12.7082 6.96657 12.7082 5.37199 13.5452 4.38832C14.3821 3.40466 15.7389 3.40466 16.5758 4.38832C17.4128 5.37199 17.4128 6.96657 16.5758 7.95024Z" fill="black"/>
<path fill-rule="evenodd" clip-rule="evenodd" d="M36.504 7.95024C35.6671 8.9339 34.3104 8.9339 33.4734 7.95024C32.6365 6.96657 32.6365 5.37199 33.4734 4.38832C34.3104 3.40466 35.6671 3.40466 36.504 4.38832C37.341 5.37199 37.341 6.96657 36.504 7.95024Z" fill="black"/>
<path fill-rule="evenodd" clip-rule="evenodd" d="M56.4191 7.93978C55.5821 8.92345 54.2254 8.92345 53.3885 7.93978C52.5515 6.95612 52.5515 5.36155 53.3885 4.37789C54.2254 3.39422 55.5821 3.39422 56.4191 4.37789C57.256 5.36155 57.256 6.95612 56.4191 7.93978Z" fill="black"/>
<path fill-rule="evenodd" clip-rule="evenodd" d="M55.8728 7.29791C55.3398 7.92435 54.4721 7.92435 53.9391 7.29791C53.4061 6.67147 53.4061 5.65157 53.9391 5.02513C54.4721 4.39869 55.3398 4.39869 55.8728 5.02513C56.4058 5.65157 56.4058 6.67147 55.8728 7.29791Z" fill="#A7A9AC"/>
<path fill-rule="evenodd" clip-rule="evenodd" d="M55.5294 6.89401C55.0977 7.40138 54.3929 7.40138 53.9612 6.89401C53.5295 6.38665 53.5295 5.5583 53.9612 5.05093C54.3929 4.54357 55.0977 4.54357 55.5294 5.05093C55.9611 5.5583 55.9611 6.38665 55.5294 6.89401Z" fill="#D1D3D4"/>
<path fill-rule="evenodd" clip-rule="evenodd" d="M6.61635 7.95024C5.7794 8.9339 4.42267 8.9339 3.58572 7.95024C2.74877 6.96657 2.74877 5.37199 3.58572 4.38832C4.42267 3.40466 5.7794 3.40466 6.61635 4.38832C7.4533 5.37199 7.4533 6.96657 6.61635 7.95024Z" fill="black"/>
<path fill-rule="evenodd" clip-rule="evenodd" d="M6.06573 7.30305C6.59873 6.67661 6.59873 5.6567 6.06573 5.03026C5.53272 4.40381 4.66493 4.40381 4.13193 5.03026C3.59893 5.6567 3.59893 6.67661 4.13193 7.30305C4.66493 7.92949 5.53272 7.92949 6.06573 7.30305Z" fill="#A7A9AC"/>
<path fill-rule="evenodd" clip-rule="evenodd" d="M5.72202 6.8992C6.15371 6.39184 6.15371 5.56349 5.72202 5.05612C5.29033 4.54876 4.58553 4.54876 4.15384 5.05612C3.72216 5.56349 3.72216 6.39184 4.15384 6.8992C4.58553 7.40657 5.29033 7.40657 5.72202 6.8992Z" fill="#D1D3D4"/>
<path fill-rule="evenodd" clip-rule="evenodd" d="M16.0298 7.30305C16.5628 6.67661 16.5628 5.6567 16.0298 5.03026C15.4968 4.40381 14.629 4.40381 14.096 5.03026C13.563 5.6567 13.563 6.67661 14.096 7.30305C14.629 7.92949 15.4968 7.92949 16.0298 7.30305Z" fill="#A7A9AC"/>
<path fill-rule="evenodd" clip-rule="evenodd" d="M15.6861 6.8992C16.1178 6.39184 16.1178 5.56349 15.6861 5.05612C15.2544 4.54876 14.5496 4.54876 14.118 5.05612C13.6863 5.56349 13.6863 6.39184 14.118 6.8992C14.5496 7.40657 15.2544 7.40657 15.6861 6.8992Z" fill="#D1D3D4"/>
<path fill-rule="evenodd" clip-rule="evenodd" d="M26.5399 7.95024C25.703 8.9339 24.3463 8.9339 23.5093 7.95024C22.6724 6.96657 22.6724 5.37199 23.5093 4.38832C24.3463 3.40466 25.703 3.40466 26.5399 4.38832C27.3769 5.37199 27.3769 6.96657 26.5399 7.95024Z" fill="black"/>
<path fill-rule="evenodd" clip-rule="evenodd" d="M25.9939 7.30305C26.5269 6.67661 26.5269 5.6567 25.9939 5.03026C25.4609 4.40381 24.5932 4.40381 24.0602 5.03026C23.5271 5.6567 23.5271 6.67661 24.0602 7.30305C24.5932 7.92949 25.4609 7.92949 25.9939 7.30305Z" fill="#A7A9AC"/>
<path fill-rule="evenodd" clip-rule="evenodd" d="M25.6502 6.8992C26.0819 6.39184 26.0819 5.56349 25.6502 5.05612C25.2186 4.54876 24.5138 4.54876 24.0821 5.05612C23.6504 5.56349 23.6504 6.39184 24.0821 6.8992C24.5138 7.40657 25.2186 7.40657 25.6502 6.8992Z" fill="#D1D3D4"/>
<path fill-rule="evenodd" clip-rule="evenodd" d="M35.9581 7.30305C36.4911 6.67661 36.4911 5.6567 35.9581 5.03026C35.4251 4.40381 34.5573 4.40381 34.0243 5.03026C33.4913 5.6567 33.4913 6.67661 34.0243 7.30305C34.5573 7.92949 35.4251 7.92949 35.9581 7.30305Z" fill="#A7A9AC"/>
<path fill-rule="evenodd" clip-rule="evenodd" d="M35.6144 6.8992C36.046 6.39184 36.046 5.56349 35.6144 5.05612C35.1827 4.54876 34.4779 4.54876 34.0462 5.05612C33.6145 5.56349 33.6145 6.39184 34.0462 6.8992C34.4779 7.40657 35.1827 7.40657 35.6144 6.8992Z" fill="#D1D3D4"/>
<path fill-rule="evenodd" clip-rule="evenodd" d="M46.4682 7.95024C45.6312 8.9339 44.2745 8.9339 43.4375 7.95024C42.6006 6.96657 42.6006 5.37199 43.4375 4.38832C44.2745 3.40466 45.6312 3.40466 46.4682 4.38832C47.3051 5.37199 47.3051 6.96657 46.4682 7.95024Z" fill="black"/>
<path fill-rule="evenodd" clip-rule="evenodd" d="M45.9222 7.30305C46.4552 6.67661 46.4552 5.6567 45.9222 5.03026C45.3892 4.40381 44.5214 4.40381 43.9884 5.03026C43.4554 5.6567 43.4554 6.67661 43.9884 7.30305C44.5214 7.92949 45.3892 7.92949 45.9222 7.30305Z" fill="#A7A9AC"/>
<path fill-rule="evenodd" clip-rule="evenodd" d="M45.5785 6.90439C46.0102 6.39703 46.0102 5.56868 45.5785 5.06131C45.1468 4.55394 44.442 4.55394 44.0103 5.06131C43.5786 5.56868 43.5786 6.39703 44.0103 6.90439C44.442 7.41176 45.1468 7.41176 45.5785 6.90439Z" fill="#D1D3D4"/>
<path fill-rule="evenodd" clip-rule="evenodd" d="M34.9756 6.07089C35.2003 5.80685 35.2003 5.37198 34.9756 5.10794C34.7509 4.8439 34.3809 4.8439 34.1563 5.10794C33.9316 5.37198 33.9316 5.80685 34.1563 6.07089C34.3809 6.33493 34.7509 6.33493 34.9756 6.07089Z" fill="#F1F2F2"/>
<path fill-rule="evenodd" clip-rule="evenodd" d="M25.0115 6.07089C25.2362 5.80685 25.2362 5.37198 25.0115 5.10794C24.7869 4.8439 24.4168 4.8439 24.1922 5.10794C23.9675 5.37198 23.9675 5.80685 24.1922 6.07089C24.4168 6.33493 24.7869 6.33493 25.0115 6.07089Z" fill="#F1F2F2"/>
<path fill-rule="evenodd" clip-rule="evenodd" d="M15.0474 6.07089C15.272 5.80685 15.272 5.37198 15.0474 5.10794C14.8227 4.8439 14.4527 4.8439 14.2281 5.10794C14.0034 5.37198 14.0034 5.80685 14.2281 6.07089C14.4527 6.33493 14.8227 6.33493 15.0474 6.07089Z" fill="#F1F2F2"/>
<path fill-rule="evenodd" clip-rule="evenodd" d="M5.08327 6.07089C5.30793 5.80685 5.30793 5.37198 5.08327 5.10794C4.85862 4.8439 4.4886 4.8439 4.26395 5.10794C4.0393 5.37198 4.0393 5.80685 4.26395 6.07089C4.4886 6.33493 4.85862 6.33493 5.08327 6.07089Z" fill="#F1F2F2"/>
<path fill-rule="evenodd" clip-rule="evenodd" d="M54.8863 6.0657C55.1109 5.80167 55.1109 5.36679 54.8863 5.10275C54.6616 4.83871 54.2916 4.83871 54.0669 5.10275C53.8423 5.36679 53.8423 5.80167 54.0669 6.0657C54.2916 6.32974 54.6616 6.32974 54.8863 6.0657Z" fill="#F1F2F2"/>
<path fill-rule="evenodd" clip-rule="evenodd" d="M44.9353 6.07089C45.16 5.80685 45.16 5.37198 44.9353 5.10794C44.7107 4.8439 44.3407 4.8439 44.116 5.10794C43.8913 5.37198 43.8913 5.80685 44.116 6.07089C44.3407 6.33493 44.7107 6.33493 44.9353 6.07089Z" fill="#F1F2F2"/>
<path fill-rule="evenodd" clip-rule="evenodd" d="M75.8141 7.95017C74.9772 8.93384 73.6204 8.93384 72.7835 7.95017C71.9465 6.96651 71.9465 5.37193 72.7835 4.38826C73.6204 3.4046 74.9772 3.4046 75.8141 4.38826C76.6511 5.37193 76.6511 6.96651 75.8141 7.95017Z" fill="black"/>
<path fill-rule="evenodd" clip-rule="evenodd" d="M75.2635 7.30299C75.7965 6.67655 75.7965 5.65663 75.2635 5.03019C74.7305 4.40375 73.8627 4.40375 73.3297 5.03019C72.7967 5.65663 72.7967 6.67655 73.3297 7.30299C73.8627 7.92943 74.7305 7.92943 75.2635 7.30299Z" fill="#A7A9AC"/>
<path fill-rule="evenodd" clip-rule="evenodd" d="M74.92 6.8992C75.3517 6.39184 75.3517 5.56349 74.92 5.05612C74.4883 4.54876 73.7879 4.54876 73.3518 5.05612C72.9202 5.56349 72.9202 6.39184 73.3518 6.8992C73.7835 7.40657 74.4883 7.40657 74.92 6.8992Z" fill="#D1D3D4"/>
<path fill-rule="evenodd" clip-rule="evenodd" d="M74.2813 6.07083C74.5059 5.80679 74.5059 5.37192 74.2813 5.10788C74.0566 4.84384 73.6866 4.84384 73.4619 5.10788C73.2373 5.37192 73.2373 5.80679 73.4619 6.07083C73.6866 6.33487 74.0566 6.33487 74.2813 6.07083Z" fill="#F1F2F2"/>
<path fill-rule="evenodd" clip-rule="evenodd" d="M66.3434 7.95024C65.5065 8.9339 64.1497 8.9339 63.3128 7.95024C62.4758 6.96657 62.4758 5.37199 63.3128 4.38832C64.1497 3.40466 65.5065 3.40466 66.3434 4.38832C67.1803 5.37199 67.1803 6.96657 66.3434 7.95024Z" fill="black"/>
<path fill-rule="evenodd" clip-rule="evenodd" d="M65.793 7.30305C66.326 6.67661 66.326 5.6567 65.793 5.03026C65.26 4.40381 64.3922 4.40381 63.8592 5.03026C63.3262 5.6567 63.3262 6.67661 63.8592 7.30305C64.3922 7.92949 65.26 7.92949 65.793 7.30305Z" fill="#A7A9AC"/>
<path fill-rule="evenodd" clip-rule="evenodd" d="M65.4493 6.8992C65.881 6.39184 65.881 5.56349 65.4493 5.05612C65.0176 4.54876 64.3128 4.54876 63.8811 5.05612C63.4495 5.56349 63.4495 6.39184 63.8811 6.8992C64.3128 7.40657 65.0176 7.40657 65.4493 6.8992Z" fill="#D1D3D4"/>
<path fill-rule="evenodd" clip-rule="evenodd" d="M64.8106 6.07089C65.0352 5.80685 65.0352 5.37198 64.8106 5.10794C64.5859 4.8439 64.2159 4.8439 63.9912 5.10794C63.7666 5.37198 63.7666 5.80685 63.9912 6.07089C64.2159 6.33493 64.5859 6.33493 64.8106 6.07089Z" fill="#F1F2F2"/>
<path fill-rule="evenodd" clip-rule="evenodd" d="M76.3075 78.1529C75.4706 79.1366 74.1138 79.1366 73.2769 78.1529C72.4399 77.1693 72.4399 75.5747 73.2769 74.591C74.1138 73.6074 75.4706 73.6074 76.3075 74.591C77.1445 75.5747 77.1445 77.1693 76.3075 78.1529Z" fill="black"/>
<path fill-rule="evenodd" clip-rule="evenodd" d="M96.2313 78.1529C95.3944 79.1366 94.0377 79.1366 93.2007 78.1529C92.3638 77.1693 92.3638 75.5747 93.2007 74.591C94.0377 73.6074 95.3944 73.6074 96.2313 74.591C97.0683 75.5747 97.0683 77.1693 96.2313 78.1529Z" fill="black"/>
<path fill-rule="evenodd" clip-rule="evenodd" d="M75.7571 77.5109C76.2901 76.8845 76.2901 75.8646 75.7571 75.2381C75.2241 74.6117 74.3563 74.6117 73.8233 75.2381C73.2903 75.8646 73.2903 76.8845 73.8233 77.5109C74.3563 78.1374 75.2241 78.1374 75.7571 77.5109Z" fill="#A7A9AC"/>
<path fill-rule="evenodd" clip-rule="evenodd" d="M75.4134 77.1071C75.8451 76.5998 75.8451 75.7714 75.4134 75.2641C74.9817 74.7567 74.2769 74.7567 73.8453 75.2641C73.4136 75.7714 73.4136 76.5998 73.8453 77.1071C74.2769 77.6145 74.9817 77.6145 75.4134 77.1071Z" fill="#D1D3D4"/>
<path fill-rule="evenodd" clip-rule="evenodd" d="M86.2672 78.1529C85.4303 79.1366 84.0735 79.1366 83.2366 78.1529C82.3996 77.1693 82.3996 75.5747 83.2366 74.591C84.0735 73.6074 85.4303 73.6074 86.2672 74.591C87.1042 75.5747 87.1042 77.1693 86.2672 78.1529Z" fill="black"/>
<path fill-rule="evenodd" clip-rule="evenodd" d="M85.7212 77.5109C86.2543 76.8845 86.2543 75.8646 85.7212 75.2381C85.1882 74.6117 84.3205 74.6117 83.7874 75.2381C83.2544 75.8646 83.2544 76.8845 83.7874 77.5109C84.3205 78.1374 85.1882 78.1374 85.7212 77.5109Z" fill="#A7A9AC"/>
<path fill-rule="evenodd" clip-rule="evenodd" d="M85.3775 77.1071C85.8092 76.5998 85.8092 75.7714 85.3775 75.2641C84.9458 74.7567 84.2411 74.7567 83.8094 75.2641C83.3777 75.7714 83.3777 76.5998 83.8094 77.1071C84.2411 77.6145 84.9458 77.6145 85.3775 77.1071Z" fill="#D1D3D4"/>
<path fill-rule="evenodd" clip-rule="evenodd" d="M95.6851 77.5109C96.2181 76.8845 96.2181 75.8646 95.6851 75.2381C95.1521 74.6117 94.2843 74.6117 93.7513 75.2381C93.2183 75.8646 93.2183 76.8845 93.7513 77.5109C94.2843 78.1374 95.1521 78.1374 95.6851 77.5109Z" fill="#A7A9AC"/>
<path fill-rule="evenodd" clip-rule="evenodd" d="M95.3414 77.1071C95.7731 76.5998 95.7731 75.7714 95.3414 75.2641C94.9097 74.7567 94.2049 74.7567 93.7732 75.2641C93.3415 75.7714 93.3415 76.5998 93.7732 77.1071C94.2049 77.6145 94.9097 77.6145 95.3414 77.1071Z" fill="#D1D3D4"/>
<path fill-rule="evenodd" clip-rule="evenodd" d="M94.6985 76.2737C94.9232 76.0096 94.9232 75.5747 94.6985 75.3107C94.4739 75.0467 94.1038 75.0467 93.8792 75.3107C93.6545 75.5747 93.6545 76.0096 93.8792 76.2737C94.1038 76.5377 94.4739 76.5377 94.6985 76.2737Z" fill="#F1F2F2"/>
<path fill-rule="evenodd" clip-rule="evenodd" d="M84.7388 76.2737C84.9634 76.0096 84.9634 75.5747 84.7388 75.3107C84.5141 75.0467 84.1441 75.0467 83.9195 75.3107C83.6948 75.5747 83.6948 76.0096 83.9195 76.2737C84.1441 76.5377 84.5141 76.5377 84.7388 76.2737Z" fill="#F1F2F2"/>
<path fill-rule="evenodd" clip-rule="evenodd" d="M74.7747 76.2737C74.9993 76.0096 74.9993 75.5747 74.7747 75.3107C74.55 75.0467 74.18 75.0467 73.9554 75.3107C73.7307 75.5747 73.7307 76.0096 73.9554 76.2737C74.18 76.5377 74.55 76.5377 74.7747 76.2737Z" fill="#F1F2F2"/>
<path fill-rule="evenodd" clip-rule="evenodd" d="M16.5761 78.1529C15.7391 79.1366 14.3824 79.1366 13.5454 78.1529C12.7085 77.1693 12.7085 75.5747 13.5454 74.591C14.3824 73.6074 15.7391 73.6074 16.5761 74.591C17.413 75.5747 17.413 77.1693 16.5761 78.1529Z" fill="black"/>
<path fill-rule="evenodd" clip-rule="evenodd" d="M36.5043 78.1529C35.6673 79.1366 34.3106 79.1366 33.4737 78.1529C32.6367 77.1693 32.6367 75.5747 33.4737 74.591C34.3106 73.6074 35.6673 73.6074 36.5043 74.591C37.3412 75.5747 37.3412 77.1693 36.5043 78.1529Z" fill="black"/>
<path fill-rule="evenodd" clip-rule="evenodd" d="M56.4191 78.1477C55.5821 79.1313 54.2254 79.1313 53.3885 78.1477C52.5515 77.164 52.5515 75.5694 53.3885 74.5858C54.2254 73.6021 55.5821 73.6021 56.4191 74.5858C57.256 75.5694 57.256 77.164 56.4191 78.1477Z" fill="black"/>
<path fill-rule="evenodd" clip-rule="evenodd" d="M55.8728 77.5006C55.3398 78.127 54.4721 78.127 53.9391 77.5006C53.4061 76.8741 53.4061 75.8542 53.9391 75.2278C54.4721 74.6013 55.3398 74.6013 55.8728 75.2278C56.4058 75.8542 56.4058 76.8741 55.8728 77.5006Z" fill="#A7A9AC"/>
<path fill-rule="evenodd" clip-rule="evenodd" d="M55.5294 77.1019C55.0977 77.6093 54.3929 77.6093 53.9612 77.1019C53.5295 76.5945 53.5295 75.7714 53.9612 75.2588C54.3929 74.7515 55.0977 74.7515 55.5294 75.2588C55.9611 75.7662 55.9611 76.5945 55.5294 77.1019Z" fill="#D1D3D4"/>
<path fill-rule="evenodd" clip-rule="evenodd" d="M6.61635 78.1529C5.7794 79.1366 4.42267 79.1366 3.58572 78.1529C2.74877 77.1693 2.74877 75.5747 3.58572 74.591C4.42267 73.6074 5.7794 73.6074 6.61635 74.591C7.4533 75.5747 7.4533 77.1693 6.61635 78.1529Z" fill="black"/>
<path fill-rule="evenodd" clip-rule="evenodd" d="M6.06573 77.5108C6.59873 76.8844 6.59873 75.8645 6.06573 75.238C5.53272 74.6116 4.66493 74.6116 4.13193 75.238C3.59893 75.8645 3.59893 76.8844 4.13193 77.5108C4.66493 78.1372 5.53272 78.1372 6.06573 77.5108Z" fill="#A7A9AC"/>
<path fill-rule="evenodd" clip-rule="evenodd" d="M5.72226 77.107C6.15395 76.5997 6.15395 75.7713 5.72226 75.2639C5.29057 74.7566 4.58578 74.7566 4.15409 75.2639C3.7224 75.7713 3.7224 76.5997 4.15409 77.107C4.58578 77.6144 5.29057 77.6144 5.72226 77.107Z" fill="#D1D3D4"/>
<path fill-rule="evenodd" clip-rule="evenodd" d="M16.0298 77.5108C16.5628 76.8844 16.5628 75.8645 16.0298 75.238C15.4968 74.6116 14.629 74.6116 14.096 75.238C13.563 75.8645 13.563 76.8844 14.096 77.5108C14.629 78.1372 15.4968 78.1372 16.0298 77.5108Z" fill="#A7A9AC"/>
<path fill-rule="evenodd" clip-rule="evenodd" d="M15.6861 77.107C16.1178 76.5997 16.1178 75.7713 15.6861 75.2639C15.2544 74.7566 14.5496 74.7566 14.118 75.2639C13.6863 75.7713 13.6863 76.5997 14.118 77.107C14.5496 77.6144 15.2544 77.6144 15.6861 77.107Z" fill="#D1D3D4"/>
<path fill-rule="evenodd" clip-rule="evenodd" d="M26.5402 78.1529C25.7032 79.1366 24.3465 79.1366 23.5095 78.1529C22.6726 77.1693 22.6726 75.5747 23.5095 74.591C24.3465 73.6074 25.7032 73.6074 26.5402 74.591C27.3771 75.5747 27.3771 77.1693 26.5402 78.1529Z" fill="black"/>
<path fill-rule="evenodd" clip-rule="evenodd" d="M25.9937 77.5108C26.5267 76.8844 26.5267 75.8645 25.9937 75.238C25.4607 74.6116 24.5929 74.6116 24.0599 75.238C23.5269 75.8645 23.5269 76.8844 24.0599 77.5108C24.5929 78.1372 25.4607 78.1372 25.9937 77.5108Z" fill="#A7A9AC"/>
<path fill-rule="evenodd" clip-rule="evenodd" d="M25.6502 77.107C26.0819 76.5997 26.0819 75.7713 25.6502 75.2639C25.2186 74.7566 24.5138 74.7566 24.0821 75.2639C23.6504 75.7713 23.6504 76.5997 24.0821 77.107C24.5138 77.6144 25.2186 77.6144 25.6502 77.107Z" fill="#D1D3D4"/>
<path fill-rule="evenodd" clip-rule="evenodd" d="M35.9578 77.5108C36.4908 76.8844 36.4908 75.8645 35.9578 75.238C35.4248 74.6116 34.557 74.6116 34.024 75.238C33.491 75.8645 33.491 76.8844 34.024 77.5108C34.557 78.1372 35.4248 78.1372 35.9578 77.5108Z" fill="#A7A9AC"/>
<path fill-rule="evenodd" clip-rule="evenodd" d="M35.6144 77.107C36.046 76.5997 36.046 75.7713 35.6144 75.2639C35.1827 74.7566 34.4779 74.7566 34.0462 75.2639C33.6145 75.7713 33.6145 76.5997 34.0462 77.107C34.4779 77.6144 35.1827 77.6144 35.6144 77.107Z" fill="#D1D3D4"/>
<path fill-rule="evenodd" clip-rule="evenodd" d="M46.4684 78.1581C45.6315 79.1417 44.2747 79.1417 43.4378 78.1581C42.6008 77.1744 42.6008 75.5798 43.4378 74.5961C44.2747 73.6125 45.6315 73.6125 46.4684 74.5961C47.3054 75.5798 47.3054 77.1744 46.4684 78.1581Z" fill="black"/>
<path fill-rule="evenodd" clip-rule="evenodd" d="M45.9219 77.5108C46.4549 76.8844 46.4549 75.8645 45.9219 75.238C45.3889 74.6116 44.5211 74.6116 43.9881 75.238C43.4551 75.8645 43.4551 76.8844 43.9881 77.5108C44.5211 78.1372 45.3889 78.1372 45.9219 77.5108Z" fill="#A7A9AC"/>
<path fill-rule="evenodd" clip-rule="evenodd" d="M45.5785 77.107C46.0102 76.5997 46.0102 75.7713 45.5785 75.2639C45.1468 74.7566 44.442 74.7566 44.0103 75.2639C43.5786 75.7713 43.5786 76.5997 44.0103 77.107C44.442 77.6144 45.1468 77.6144 45.5785 77.107Z" fill="#D1D3D4"/>
<path fill-rule="evenodd" clip-rule="evenodd" d="M34.9756 76.2735C35.2003 76.0095 35.2003 75.5746 34.9756 75.3106C34.7509 75.0465 34.3809 75.0465 34.1563 75.3106C33.9316 75.5746 33.9316 76.0095 34.1563 76.2735C34.3809 76.5376 34.7509 76.5376 34.9756 76.2735Z" fill="#F1F2F2"/>
<path fill-rule="evenodd" clip-rule="evenodd" d="M25.0115 76.2735C25.2362 76.0095 25.2362 75.5746 25.0115 75.3106C24.7869 75.0465 24.4168 75.0465 24.1922 75.3106C23.9675 75.5746 23.9675 76.0095 24.1922 76.2735C24.4168 76.5376 24.7869 76.5376 25.0115 76.2735Z" fill="#F1F2F2"/>
<path fill-rule="evenodd" clip-rule="evenodd" d="M15.0474 76.2735C15.272 76.0095 15.272 75.5746 15.0474 75.3106C14.8227 75.0465 14.4527 75.0465 14.2281 75.3106C14.0034 75.5746 14.0034 76.0095 14.2281 76.2735C14.4527 76.5376 14.8227 76.5376 15.0474 76.2735Z" fill="#F1F2F2"/>
<path fill-rule="evenodd" clip-rule="evenodd" d="M5.08352 76.2735C5.30817 76.0095 5.30817 75.5746 5.08352 75.3106C4.85886 75.0465 4.48885 75.0465 4.26419 75.3106C4.03954 75.5746 4.03954 76.0095 4.26419 76.2735C4.48885 76.5376 4.85886 76.5376 5.08352 76.2735Z" fill="#F1F2F2"/>
<path fill-rule="evenodd" clip-rule="evenodd" d="M54.8863 76.2684C55.1109 76.0044 55.1109 75.5695 54.8863 75.3054C54.6616 75.0414 54.2916 75.0414 54.0669 75.3054C53.8423 75.5695 53.8423 76.0044 54.0669 76.2684C54.2916 76.5324 54.6616 76.5324 54.8863 76.2684Z" fill="#F1F2F2"/>
<path fill-rule="evenodd" clip-rule="evenodd" d="M44.9353 76.2735C45.16 76.0095 45.16 75.5746 44.9353 75.3106C44.7107 75.0465 44.3407 75.0465 44.116 75.3106C43.8913 75.5746 43.8913 76.0095 44.116 76.2735C44.3407 76.5376 44.7107 76.5376 44.9353 76.2735Z" fill="#F1F2F2"/>
<path fill-rule="evenodd" clip-rule="evenodd" d="M66.3436 78.1529C65.5067 79.1366 64.15 79.1366 63.313 78.1529C62.4761 77.1693 62.4761 75.5747 63.313 74.591C64.15 73.6074 65.5067 73.6074 66.3436 74.591C67.1806 75.5747 67.1806 77.1693 66.3436 78.1529Z" fill="black"/>
<path fill-rule="evenodd" clip-rule="evenodd" d="M65.793 77.5108C66.326 76.8844 66.326 75.8645 65.793 75.238C65.26 74.6116 64.3922 74.6116 63.8592 75.238C63.3262 75.8645 63.3262 76.8844 63.8592 77.5108C64.3922 78.1372 65.26 78.1372 65.793 77.5108Z" fill="#A7A9AC"/>
<path fill-rule="evenodd" clip-rule="evenodd" d="M65.4493 77.107C65.881 76.5997 65.881 75.7713 65.4493 75.2639C65.0176 74.7566 64.3128 74.7566 63.8811 75.2639C63.4495 75.7713 63.4495 76.5997 63.8811 77.107C64.3128 77.6144 65.0176 77.6144 65.4493 77.107Z" fill="#D1D3D4"/>
<path fill-rule="evenodd" clip-rule="evenodd" d="M64.8106 76.2735C65.0353 76.0095 65.0353 75.5746 64.8106 75.3106C64.5859 75.0465 64.2159 75.0465 63.9912 75.3106C63.7666 75.5746 63.7666 76.0095 63.9912 76.2735C64.2159 76.5376 64.5859 76.5376 64.8106 76.2735Z" fill="#F1F2F2"/>
<path fill-rule="evenodd" clip-rule="evenodd" d="M6.62075 19.6507C7.4577 18.667 7.4577 17.0724 6.62075 16.0888C5.7838 15.1051 4.42706 15.1051 3.59011 16.0888C2.75317 17.0724 2.75317 18.667 3.59011 19.6507C4.42706 20.6343 5.7838 20.6343 6.62075 19.6507Z" fill="black"/>
<path fill-rule="evenodd" clip-rule="evenodd" d="M6.62075 43.0722C7.4577 42.0886 7.4577 40.494 6.62075 39.5103C5.7838 38.5267 4.42706 38.5267 3.59011 39.5103C2.75317 40.494 2.75317 42.0886 3.59011 43.0722C4.42706 44.0559 5.7838 44.0559 6.62075 43.0722Z" fill="black"/>
<path fill-rule="evenodd" clip-rule="evenodd" d="M6.61635 66.4784C7.4533 65.4947 7.4533 63.9001 6.61635 62.9165C5.7794 61.9328 4.42267 61.9328 3.58572 62.9165C2.74877 63.9001 2.74877 65.4947 3.58572 66.4784C4.42267 67.462 5.7794 67.462 6.61635 66.4784Z" fill="black"/>
<path fill-rule="evenodd" clip-rule="evenodd" d="M6.06573 65.8312C6.59873 65.2048 6.59873 64.1849 6.06573 63.5585C5.53272 62.932 4.66493 62.932 4.13193 63.5585C3.59893 64.1849 3.59893 65.2048 4.13193 65.8312C4.66493 66.4577 5.53272 66.4577 6.06573 65.8312Z" fill="#A7A9AC"/>
<path fill-rule="evenodd" clip-rule="evenodd" d="M5.72226 65.4275C6.15395 64.9201 6.15395 64.0917 5.72226 63.5844C5.29057 63.077 4.58578 63.077 4.15409 63.5844C3.7224 64.0917 3.7224 64.9201 4.15409 65.4275C4.58578 65.9348 5.29057 65.9348 5.72226 65.4275Z" fill="#D1D3D4"/>
<path fill-rule="evenodd" clip-rule="evenodd" d="M6.0745 19.0087C5.5415 19.6351 4.67372 19.6351 4.14072 19.0087C3.60772 18.3822 3.60772 17.3623 4.14072 16.7359C4.67372 16.1094 5.5415 16.1094 6.0745 16.7359C6.60751 17.3623 6.60751 18.3822 6.0745 19.0087Z" fill="#A7A9AC"/>
<path fill-rule="evenodd" clip-rule="evenodd" d="M5.73105 18.6048C5.29936 19.1122 4.59457 19.1122 4.16288 18.6048C3.73119 18.0975 3.73119 17.2691 4.16288 16.7617C4.59457 16.2544 5.29936 16.2544 5.73105 16.7617C6.16274 17.2691 6.16274 18.0975 5.73105 18.6048Z" fill="#D1D3D4"/>
<path fill-rule="evenodd" clip-rule="evenodd" d="M6.62075 31.3615C7.4577 30.3778 7.4577 28.7832 6.62075 27.7996C5.7838 26.8159 4.42706 26.8159 3.59011 27.7996C2.75317 28.7832 2.75317 30.3778 3.59011 31.3615C4.42706 32.3452 5.7838 32.3452 6.62075 31.3615Z" fill="black"/>
<path fill-rule="evenodd" clip-rule="evenodd" d="M6.0745 30.7195C5.5415 31.3459 4.67372 31.3459 4.14072 30.7195C3.60772 30.093 3.60772 29.0731 4.14072 28.4467C4.67372 27.8203 5.5415 27.8203 6.0745 28.4467C6.60751 29.0731 6.60751 30.093 6.0745 30.7195Z" fill="#A7A9AC"/>
<path fill-rule="evenodd" clip-rule="evenodd" d="M5.73105 30.3157C5.29936 30.8231 4.59457 30.8231 4.16288 30.3157C3.73119 29.8083 3.73119 28.9852 4.16288 28.4726C4.59457 27.9653 5.29936 27.9653 5.73105 28.4726C6.16274 28.98 6.16274 29.8083 5.73105 30.3157Z" fill="#D1D3D4"/>
<path fill-rule="evenodd" clip-rule="evenodd" d="M6.0745 42.4251C5.5415 43.0516 4.67372 43.0516 4.14072 42.4251C3.60772 41.7987 3.60772 40.7788 4.14072 40.1523C4.67372 39.5259 5.5415 39.5259 6.0745 40.1523C6.60751 40.7788 6.60751 41.7987 6.0745 42.4251Z" fill="#A7A9AC"/>
<path fill-rule="evenodd" clip-rule="evenodd" d="M5.73105 42.0213C5.29936 42.5287 4.59457 42.5287 4.16288 42.0213C3.73119 41.514 3.73119 40.6856 4.16288 40.1783C4.59457 39.6709 5.29936 39.6709 5.73105 40.1783C6.16274 40.6856 6.16274 41.514 5.73105 42.0213Z" fill="#D1D3D4"/>
<path fill-rule="evenodd" clip-rule="evenodd" d="M6.62075 54.7831C7.4577 53.7995 7.4577 52.2049 6.62075 51.2212C5.7838 50.2375 4.42706 50.2375 3.59011 51.2212C2.75317 52.2049 2.75317 53.7995 3.59011 54.7831C4.42706 55.7668 5.7838 55.7668 6.62075 54.7831Z" fill="black"/>
<path fill-rule="evenodd" clip-rule="evenodd" d="M6.0745 54.1359C5.5415 54.7624 4.67372 54.7624 4.14072 54.1359C3.60772 53.5095 3.60772 52.4896 4.14072 51.8631C4.67372 51.2367 5.5415 51.2367 6.0745 51.8631C6.60751 52.4896 6.60751 53.5095 6.0745 54.1359Z" fill="#A7A9AC"/>
<path fill-rule="evenodd" clip-rule="evenodd" d="M5.73105 53.7322C5.29936 54.2395 4.59457 54.2395 4.16288 53.7322C3.73119 53.2248 3.73119 52.3964 4.16288 51.8891C4.59457 51.3817 5.29936 51.3817 5.73105 51.8891C6.16274 52.3964 6.16274 53.2196 5.73105 53.7322Z" fill="#D1D3D4"/>
<path fill-rule="evenodd" clip-rule="evenodd" d="M5.02176 41.2706C4.79711 41.5346 4.42708 41.5346 4.20243 41.2706C3.97777 41.0066 3.97777 40.5717 4.20243 40.3076C4.42708 40.0436 4.79711 40.0436 5.02176 40.3076C5.24642 40.5769 5.24642 41.0066 5.02176 41.2706Z" fill="#F1F2F2"/>
<path fill-rule="evenodd" clip-rule="evenodd" d="M5.02176 29.5598C4.79711 29.8238 4.42708 29.8238 4.20243 29.5598C3.97777 29.2957 3.97777 28.8609 4.20243 28.5968C4.42708 28.3328 4.79711 28.3328 5.02176 28.5968C5.24642 28.8609 5.24642 29.2957 5.02176 29.5598Z" fill="#F1F2F2"/>
<path fill-rule="evenodd" clip-rule="evenodd" d="M5.02176 17.849C4.79711 18.113 4.42708 18.113 4.20243 17.849C3.97777 17.5849 3.97777 17.1501 4.20243 16.886C4.42708 16.622 4.79711 16.622 5.02176 16.886C5.24642 17.1552 5.24642 17.5849 5.02176 17.849Z" fill="#F1F2F2"/>
<path fill-rule="evenodd" clip-rule="evenodd" d="M5.01735 64.6767C4.7927 64.9408 4.42269 64.9408 4.19803 64.6767C3.97338 64.4075 3.97338 63.9778 4.19803 63.7138C4.42269 63.4497 4.7927 63.4497 5.01735 63.7138C5.24201 63.9778 5.24201 64.4127 5.01735 64.6767Z" fill="#F1F2F2"/>
<path fill-rule="evenodd" clip-rule="evenodd" d="M5.02176 52.9814C4.79711 53.2454 4.42708 53.2454 4.20243 52.9814C3.97777 52.7174 3.97777 52.2825 4.20243 52.0185C4.42708 51.7544 4.79711 51.7544 5.02176 52.0185C5.24642 52.2825 5.24642 52.7174 5.02176 52.9814Z" fill="#F1F2F2"/>
<path fill-rule="evenodd" clip-rule="evenodd" d="M105.35 78.7431C104.226 79.178 103.015 78.4636 102.641 77.1434C102.271 75.8232 102.878 74.3995 104.002 73.9594C105.125 73.5245 106.336 74.239 106.711 75.5592C107.081 76.8793 106.473 78.3031 105.35 78.7431Z" fill="black"/>
<path fill-rule="evenodd" clip-rule="evenodd" d="M105.103 77.8786C105.821 77.599 106.208 76.6879 105.971 75.8492C105.733 75.0053 104.957 74.5497 104.244 74.8292C103.53 75.1088 103.138 76.02 103.376 76.8587C103.614 77.7026 104.389 78.1582 105.103 77.8786Z" fill="#A7A9AC"/>
<path fill-rule="evenodd" clip-rule="evenodd" d="M104.953 77.3349C105.535 77.1071 105.847 76.372 105.658 75.6886C105.464 75.0052 104.839 74.6376 104.257 74.8602C103.676 75.088 103.363 75.8232 103.552 76.5066C103.746 77.19 104.372 77.5576 104.953 77.3349Z" fill="#D1D3D4"/>
<path fill-rule="evenodd" clip-rule="evenodd" d="M104.698 76.2529C105.002 76.1338 105.165 75.7507 105.063 75.3935C104.962 75.0363 104.636 74.8447 104.332 74.9638C104.028 75.0829 103.865 75.466 103.962 75.8232C104.064 76.1804 104.39 76.372 104.693 76.2581L104.698 76.2529Z" fill="#F1F2F2"/>
<path fill-rule="evenodd" clip-rule="evenodd" d="M94.117 47.214C94.4871 45.8939 93.8792 44.4701 92.7559 44.0301C91.6327 43.5952 90.4169 44.3096 90.0468 45.6298C89.6768 46.95 90.2847 48.3737 91.408 48.8138C92.5313 49.2487 93.747 48.5342 94.117 47.214Z" fill="black"/>
<path fill-rule="evenodd" clip-rule="evenodd" d="M93.3814 46.9241C93.1435 47.768 92.3682 48.2236 91.6546 47.944C90.9366 47.6644 90.5489 46.7584 90.7868 45.9145C91.0247 45.0706 91.8 44.615 92.5136 44.8946C93.2316 45.1742 93.6192 46.0802 93.3814 46.9241Z" fill="#A7A9AC"/>
<path fill-rule="evenodd" clip-rule="evenodd" d="M92.9233 46.7481C92.7295 47.4315 92.1039 47.8042 91.5225 47.5764C90.941 47.3486 90.6239 46.6135 90.8177 45.9301C91.0115 45.2467 91.637 44.8739 92.2185 45.1017C92.7999 45.3295 93.1127 46.0647 92.9233 46.7481Z" fill="#D1D3D4"/>
<path fill-rule="evenodd" clip-rule="evenodd" d="M92.0026 46.4478C91.9013 46.805 91.5754 46.9966 91.2714 46.8827C90.9675 46.7636 90.8045 46.3805 90.9058 46.0233C91.0071 45.666 91.3331 45.4745 91.637 45.5884C91.941 45.7074 92.1039 46.0906 92.007 46.4478H92.0026Z" fill="#F1F2F2"/>
<path fill-rule="evenodd" clip-rule="evenodd" d="M89.9498 37.3309C90.3199 36.0107 89.712 34.587 88.5887 34.1469C87.4654 33.712 86.254 34.4265 85.8796 35.7466C85.5096 37.0668 86.1175 38.4906 87.2408 38.9306C88.364 39.3707 89.5798 38.6511 89.9498 37.3309Z" fill="black"/>
<path fill-rule="evenodd" clip-rule="evenodd" d="M89.2141 37.0409C88.9762 37.8848 88.201 38.3404 87.4874 38.0609C86.7693 37.7813 86.3817 36.8701 86.6196 36.0262C86.8575 35.1823 87.6327 34.7267 88.3463 35.0063C89.0643 35.2859 89.452 36.1971 89.2141 37.0358V37.0409Z" fill="#A7A9AC"/>
<path fill-rule="evenodd" clip-rule="evenodd" d="M88.7561 36.865C88.5623 37.5484 87.9368 37.9211 87.3553 37.6933C86.7738 37.4655 86.4611 36.7303 86.6505 36.047C86.8443 35.3636 87.4698 34.9908 88.0513 35.2186C88.6327 35.4464 88.9455 36.1816 88.7561 36.865Z" fill="#D1D3D4"/>
<path fill-rule="evenodd" clip-rule="evenodd" d="M87.8355 36.5646C87.7342 36.9219 87.4082 37.1134 87.1043 36.9944C86.8003 36.8753 86.6373 36.4922 86.7342 36.1349C86.8355 35.7777 87.1615 35.5862 87.4655 35.7001C87.7694 35.8191 87.9324 36.2022 87.8355 36.5595V36.5646Z" fill="#F1F2F2"/>
<path fill-rule="evenodd" clip-rule="evenodd" d="M85.6329 27.5873C86.0029 26.2672 85.3951 24.8434 84.2718 24.4034C83.1485 23.9685 81.9371 24.6829 81.5627 26.0031C81.1927 27.3233 81.8006 28.747 82.9239 29.1871C84.0471 29.622 85.2629 28.9075 85.6329 27.5873Z" fill="black"/>
<path fill-rule="evenodd" clip-rule="evenodd" d="M84.8928 27.3026C84.655 28.1465 83.8797 28.6021 83.1661 28.3225C82.4481 28.043 82.0604 27.1318 82.2983 26.2931C82.5362 25.4492 83.3115 24.9936 84.0251 25.2732C84.7431 25.5527 85.1307 26.4639 84.8928 27.3026Z" fill="#A7A9AC"/>
<path fill-rule="evenodd" clip-rule="evenodd" d="M84.4348 27.1266C84.241 27.8099 83.6155 28.1827 83.034 27.9549C82.4525 27.7271 82.1398 26.9919 82.3292 26.3086C82.523 25.6252 83.1485 25.2524 83.73 25.4802C84.3114 25.708 84.6242 26.4432 84.4348 27.1266Z" fill="#D1D3D4"/>
<path fill-rule="evenodd" clip-rule="evenodd" d="M83.5142 26.8263C83.4129 27.1835 83.0869 27.3751 82.783 27.256C82.479 27.1369 82.316 26.7538 82.4129 26.3966C82.5142 26.0394 82.8402 25.8478 83.1442 25.9617C83.4481 26.0808 83.6111 26.4639 83.5142 26.8211V26.8263Z" fill="#F1F2F2"/>
<path fill-rule="evenodd" clip-rule="evenodd" d="M103.059 68.1299C103.429 66.8098 102.821 65.3809 101.698 64.946C100.575 64.5111 99.3634 65.2255 98.989 66.5457C98.619 67.8659 99.2269 69.2896 100.35 69.7297C101.473 70.1698 102.685 69.4501 103.059 68.1299Z" fill="black"/>
<path fill-rule="evenodd" clip-rule="evenodd" d="M102.319 67.84C102.557 66.9961 102.169 66.085 101.451 65.8106C100.733 65.531 99.958 65.9866 99.7246 66.8305C99.4867 67.6743 99.8743 68.5855 100.592 68.8651C101.31 69.1447 102.081 68.6891 102.319 67.8452V67.84Z" fill="#A7A9AC"/>
<path fill-rule="evenodd" clip-rule="evenodd" d="M101.861 67.6641C102.055 66.9807 101.738 66.2455 101.156 66.0177C100.575 65.7899 99.9493 66.1627 99.7554 66.8461C99.5616 67.5295 99.8788 68.2646 100.46 68.4924C101.042 68.7202 101.667 68.3475 101.861 67.6641Z" fill="#D1D3D4"/>
<path fill-rule="evenodd" clip-rule="evenodd" d="M100.94 67.3638C100.839 67.721 100.513 67.9126 100.209 67.7987C99.9053 67.6796 99.7423 67.2965 99.8392 66.9393C99.9405 66.582 100.267 66.3905 100.57 66.5044C100.874 66.6235 101.037 67.0066 100.936 67.3638H100.94Z" fill="#F1F2F2"/>
<path fill-rule="evenodd" clip-rule="evenodd" d="M98.5922 57.6771C98.9622 56.3569 98.3543 54.9332 97.231 54.4931C96.1077 54.0583 94.8964 54.7727 94.5219 56.0929C94.1519 57.4131 94.7598 58.8368 95.8831 59.2769C97.0064 59.7118 98.2222 58.9973 98.5922 57.6771Z" fill="black"/>
<path fill-rule="evenodd" clip-rule="evenodd" d="M97.8564 57.3872C97.6186 58.2311 96.8433 58.6867 96.1297 58.4071C95.4117 58.1275 95.024 57.2215 95.2619 56.3777C95.4998 55.5338 96.2751 55.0782 96.9887 55.3577C97.7067 55.6373 98.0943 56.5485 97.8564 57.3872Z" fill="#A7A9AC"/>
<path fill-rule="evenodd" clip-rule="evenodd" d="M97.3984 57.2112C97.2046 57.8946 96.5791 58.2673 95.9976 58.0396C95.4162 57.8118 95.1034 57.0766 95.2928 56.3932C95.4866 55.7098 96.1122 55.3371 96.6936 55.5649C97.2751 55.7927 97.5878 56.5278 97.3984 57.2112Z" fill="#D1D3D4"/>
<path fill-rule="evenodd" clip-rule="evenodd" d="M96.4778 56.9109C96.3765 57.2681 96.0505 57.4597 95.7466 57.3458C95.4426 57.2267 95.2796 56.8436 95.3766 56.4864C95.4779 56.1292 95.8039 55.9376 96.1078 56.0515C96.4117 56.1706 96.5747 56.5537 96.4778 56.9109Z" fill="#F1F2F2"/>
<path fill-rule="evenodd" clip-rule="evenodd" d="M80.9462 16.8343C81.3162 15.5141 80.7083 14.0904 79.585 13.6503C78.4618 13.2103 77.246 13.9299 76.8759 15.2501C76.5059 16.5703 77.1138 17.994 78.2371 18.4341C79.3604 18.869 80.5762 18.1545 80.9462 16.8343Z" fill="black"/>
<path fill-rule="evenodd" clip-rule="evenodd" d="M80.2104 16.5496C79.9726 17.3934 79.1973 17.849 78.4837 17.5695C77.7657 17.2899 77.3781 16.3787 77.6159 15.54C77.8538 14.6961 78.6291 14.2405 79.3427 14.5201C80.0607 14.7997 80.4483 15.7057 80.2104 16.5496Z" fill="#A7A9AC"/>
<path fill-rule="evenodd" clip-rule="evenodd" d="M79.748 16.3684C79.5542 17.0517 78.9287 17.4193 78.3472 17.1967C77.7658 16.9689 77.453 16.2337 77.6424 15.5503C77.8362 14.867 78.4617 14.4994 79.0432 14.722C79.6247 14.9498 79.9374 15.685 79.748 16.3684Z" fill="#D1D3D4"/>
<path fill-rule="evenodd" clip-rule="evenodd" d="M78.8318 16.0681C78.7305 16.4253 78.4045 16.6169 78.1006 16.4978C77.7966 16.3788 77.6337 15.9956 77.7306 15.6384C77.8319 15.2812 78.1579 15.0896 78.4618 15.2035C78.7657 15.3226 78.9287 15.7057 78.8318 16.0629V16.0681Z" fill="#F1F2F2"/>
<path fill-rule="evenodd" clip-rule="evenodd" d="M79.5637 6.86154C78.9277 5.36792 78.988 3.68557 79.7263 2.25965C80.4689 0.833739 81.7082 0.0104166 83.131 0.0161806L186.014 0.432969C188.225 0.441927 189.996 2.58729 189.991 5.17588L189.86 77.2732C189.856 79.8618 188.072 81.9928 185.865 81.9839L113.835 81.692C112.298 81.6858 110.969 80.7071 110.285 79.0891L79.5593 6.8667L79.5637 6.86154Z" fill="black"/>
<path fill-rule="evenodd" clip-rule="evenodd" d="M80.3133 6.42448L111.039 78.6469C111.587 79.9382 112.63 80.6983 113.846 80.7032L185.876 80.995C187.611 81.0021 189.033 79.3252 189.037 77.2647L189.168 5.16734C189.171 3.10682 187.76 1.41852 186.02 1.41147L83.138 0.994686C82.0103 0.990118 81.04 1.62817 80.4477 2.76993C79.8553 3.90652 79.8089 5.2265 80.3177 6.4245L80.3133 6.42448Z" fill="#B9E7FE"/>
<path fill-rule="evenodd" clip-rule="evenodd" d="M173.29 74.2861C174.129 73.3058 175.485 73.3113 176.321 74.2984C177.156 75.2854 177.153 76.88 176.314 77.8603C175.475 78.8406 174.119 78.8351 173.283 77.848C172.448 76.861 172.451 75.2664 173.29 74.2861Z" fill="black"/>
<path fill-rule="evenodd" clip-rule="evenodd" d="M153.362 74.2054C154.2 73.2252 155.557 73.2307 156.392 74.2177C157.227 75.2048 157.225 76.7993 156.386 77.7796C155.547 78.7599 154.19 78.7544 153.355 77.7673C152.52 76.7803 152.523 75.1857 153.362 74.2054Z" fill="black"/>
<path fill-rule="evenodd" clip-rule="evenodd" d="M133.447 74.1351C134.286 73.1549 135.642 73.1604 136.478 74.1474C137.313 75.1345 137.31 76.729 136.471 77.7093C135.632 78.6896 134.276 78.6841 133.44 77.697C132.605 76.71 132.608 75.1154 133.447 74.1351Z" fill="black"/>
<path fill-rule="evenodd" clip-rule="evenodd" d="M133.992 74.7793C134.526 74.155 135.394 74.1586 135.926 74.7872C136.458 75.4157 136.456 76.4356 135.922 77.0599C135.388 77.6842 134.52 77.6807 133.988 77.0521C133.456 76.4235 133.458 75.4036 133.992 74.7793Z" fill="#A7A9AC"/>
<path fill-rule="evenodd" clip-rule="evenodd" d="M134.335 75.1845C134.767 74.6789 135.472 74.6818 135.903 75.1909C136.333 75.7 136.332 76.5283 135.899 77.0339C135.467 77.5396 134.762 77.5367 134.331 77.0276C133.9 76.5185 133.902 75.6901 134.335 75.1845Z" fill="#D1D3D4"/>
<path fill-rule="evenodd" clip-rule="evenodd" d="M183.249 74.3264C184.088 73.3461 185.445 73.3516 186.28 74.3387C187.115 75.3257 187.112 76.9203 186.274 77.9006C185.435 78.8809 184.078 78.8754 183.243 77.8883C182.408 76.9012 182.411 75.3067 183.249 74.3264Z" fill="black"/>
<path fill-rule="evenodd" clip-rule="evenodd" d="M183.799 74.9758C183.265 75.6001 183.263 76.62 183.795 77.2486C184.327 77.8772 185.194 77.8807 185.729 77.2565C186.263 76.6322 186.265 75.6123 185.733 74.9837C185.201 74.3551 184.333 74.3516 183.799 74.9758Z" fill="#A7A9AC"/>
<path fill-rule="evenodd" clip-rule="evenodd" d="M184.142 75.381C183.709 75.8867 183.708 76.715 184.139 77.2241C184.569 77.7332 185.274 77.7361 185.707 77.2305C186.139 76.7249 186.141 75.8965 185.71 75.3874C185.279 74.8783 184.575 74.8754 184.142 75.381Z" fill="#D1D3D4"/>
<path fill-rule="evenodd" clip-rule="evenodd" d="M173.835 74.9356C173.301 75.5598 173.299 76.5797 173.831 77.2083C174.363 77.8369 175.23 77.8405 175.764 77.2162C176.299 76.5919 176.3 75.572 175.769 74.9434C175.237 74.3148 174.369 74.3113 173.835 74.9356Z" fill="#A7A9AC"/>
<path fill-rule="evenodd" clip-rule="evenodd" d="M174.178 75.3408C173.745 75.8464 173.744 76.6747 174.174 77.1838C174.605 77.6929 175.31 77.6958 175.743 77.1902C176.175 76.6846 176.177 75.8562 175.746 75.3471C175.315 74.838 174.61 74.8351 174.178 75.3408Z" fill="#D1D3D4"/>
<path fill-rule="evenodd" clip-rule="evenodd" d="M163.326 74.2457C164.165 73.2654 165.521 73.2709 166.356 74.258C167.192 75.245 167.189 76.8396 166.35 77.8199C165.511 78.8002 164.154 78.7947 163.319 77.8076C162.484 76.8206 162.487 75.226 163.326 74.2457Z" fill="black"/>
<path fill-rule="evenodd" clip-rule="evenodd" d="M163.871 74.8951C163.337 75.5194 163.335 76.5393 163.867 77.1679C164.398 77.7965 165.266 77.8 165.8 77.1758C166.334 76.5515 166.336 75.5316 165.804 74.903C165.273 74.2744 164.405 74.2709 163.871 74.8951Z" fill="#A7A9AC"/>
<path fill-rule="evenodd" clip-rule="evenodd" d="M164.214 75.3004C163.781 75.806 163.78 76.6343 164.21 77.1434C164.641 77.6525 165.346 77.6554 165.778 77.1498C166.211 76.6442 166.213 75.8158 165.782 75.3067C165.351 74.7976 164.646 74.7947 164.214 75.3004Z" fill="#D1D3D4"/>
<path fill-rule="evenodd" clip-rule="evenodd" d="M153.907 74.8547C153.372 75.479 153.371 76.4989 153.902 77.1275C154.434 77.7561 155.302 77.7596 155.836 77.1354C156.37 76.5111 156.372 75.4912 155.84 74.8626C155.308 74.234 154.441 74.2305 153.907 74.8547Z" fill="#A7A9AC"/>
<path fill-rule="evenodd" clip-rule="evenodd" d="M154.25 75.26C153.817 75.7656 153.815 76.5939 154.246 77.103C154.677 77.6121 155.382 77.615 155.814 77.1094C156.247 76.6038 156.248 75.7754 155.818 75.2663C155.387 74.7572 154.682 74.7543 154.25 75.26Z" fill="#D1D3D4"/>
<path fill-rule="evenodd" clip-rule="evenodd" d="M143.398 74.165C144.237 73.1848 145.593 73.1902 146.428 74.1773C147.264 75.1644 147.261 76.7589 146.422 77.7392C145.583 78.7195 144.227 78.714 143.391 77.7269C142.556 76.7399 142.559 75.1453 143.398 74.165Z" fill="black"/>
<path fill-rule="evenodd" clip-rule="evenodd" d="M143.943 74.8145C143.409 75.4387 143.407 76.4586 143.939 77.0872C144.47 77.7158 145.338 77.7194 145.872 77.0951C146.406 76.4708 146.408 75.4509 145.876 74.8223C145.345 74.1937 144.477 74.1902 143.943 74.8145Z" fill="#A7A9AC"/>
<path fill-rule="evenodd" clip-rule="evenodd" d="M144.286 75.2144C143.853 75.72 143.852 76.5484 144.282 77.0575C144.713 77.5666 145.418 77.5695 145.851 77.0638C146.283 76.5582 146.285 75.7299 145.854 75.2208C145.423 74.7117 144.718 74.7088 144.286 75.2144Z" fill="#D1D3D4"/>
<path fill-rule="evenodd" clip-rule="evenodd" d="M154.887 76.0909C154.661 76.354 154.661 76.7889 154.885 77.0538C155.109 77.3188 155.479 77.3203 155.704 77.0571C155.929 76.794 155.93 76.3591 155.706 76.0942C155.482 75.8293 155.112 75.8278 154.887 76.0909Z" fill="#F1F2F2"/>
<path fill-rule="evenodd" clip-rule="evenodd" d="M164.851 76.1313C164.626 76.3944 164.625 76.8293 164.849 77.0942C165.073 77.3592 165.443 77.3607 165.668 77.0976C165.893 76.8344 165.894 76.3996 165.67 76.1346C165.446 75.8697 165.076 75.8682 164.851 76.1313Z" fill="#F1F2F2"/>
<path fill-rule="evenodd" clip-rule="evenodd" d="M174.815 76.1717C174.59 76.4348 174.589 76.8697 174.813 77.1346C175.037 77.3996 175.407 77.4011 175.632 77.138C175.858 76.8748 175.858 76.44 175.634 76.175C175.41 75.9101 175.04 75.9086 174.815 76.1717Z" fill="#F1F2F2"/>
<path fill-rule="evenodd" clip-rule="evenodd" d="M184.779 76.212C184.554 76.4751 184.553 76.91 184.777 77.1749C185.001 77.4399 185.371 77.4414 185.597 77.1782C185.822 76.9151 185.822 76.4802 185.598 76.2153C185.374 75.9504 185.004 75.9489 184.779 76.212Z" fill="#F1F2F2"/>
<path fill-rule="evenodd" clip-rule="evenodd" d="M134.976 76.0154C134.751 76.2786 134.751 76.7134 134.975 76.9784C135.199 77.2433 135.569 77.2448 135.794 76.9817C136.019 76.7186 136.02 76.2837 135.796 76.0188C135.572 75.7538 135.202 75.7523 134.976 76.0154Z" fill="#F1F2F2"/>
<path fill-rule="evenodd" clip-rule="evenodd" d="M144.927 76.0506C144.702 76.3137 144.701 76.7486 144.925 77.0135C145.15 77.2785 145.52 77.28 145.745 77.0169C145.97 76.7537 145.971 76.3189 145.746 76.0539C145.522 75.789 145.152 75.7875 144.927 76.0506Z" fill="#F1F2F2"/>
<path fill-rule="evenodd" clip-rule="evenodd" d="M114.052 74.0461C114.891 73.0659 116.247 73.0714 117.082 74.0584C117.918 75.0455 117.915 76.64 117.076 77.6203C116.237 78.6006 114.881 78.5951 114.045 77.608C113.21 76.621 113.213 75.0264 114.052 74.0461Z" fill="black"/>
<path fill-rule="evenodd" clip-rule="evenodd" d="M114.601 74.6956C114.067 75.3198 114.065 76.3398 114.597 76.9683C115.129 77.5969 115.997 77.6005 116.531 76.9762C117.065 76.3519 117.067 75.332 116.535 74.7034C116.003 74.0748 115.136 74.0713 114.601 74.6956Z" fill="#A7A9AC"/>
<path fill-rule="evenodd" clip-rule="evenodd" d="M114.944 75.1008C114.512 75.6064 114.51 76.4347 114.941 76.9438C115.372 77.453 116.072 77.4558 116.509 76.9502C116.942 76.4446 116.943 75.6162 116.512 75.1071C116.082 74.598 115.377 74.5952 114.944 75.1008Z" fill="#D1D3D4"/>
<path fill-rule="evenodd" clip-rule="evenodd" d="M115.581 75.9317C115.356 76.1948 115.355 76.6297 115.58 76.8947C115.804 77.1596 116.174 77.1611 116.399 76.898C116.624 76.6348 116.625 76.2 116.401 75.935C116.177 75.6701 115.807 75.6686 115.581 75.9317Z" fill="#F1F2F2"/>
<path fill-rule="evenodd" clip-rule="evenodd" d="M123.523 74.0845C124.361 73.1042 125.718 73.1097 126.553 74.0967C127.388 75.0838 127.385 76.6784 126.547 77.6586C125.708 78.6389 124.351 78.6334 123.516 77.6464C122.681 76.6593 122.684 75.0647 123.523 74.0845Z" fill="black"/>
<path fill-rule="evenodd" clip-rule="evenodd" d="M124.072 74.7339C123.538 75.3582 123.536 76.3781 124.068 77.0067C124.6 77.6353 125.467 77.6388 126.001 77.0145C126.536 76.3902 126.537 75.3703 126.006 74.7417C125.474 74.1131 124.606 74.1096 124.072 74.7339Z" fill="#A7A9AC"/>
<path fill-rule="evenodd" clip-rule="evenodd" d="M124.415 75.1391C123.982 75.6447 123.981 76.4731 124.411 76.9822C124.842 77.4913 125.547 77.4941 125.98 76.9885C126.412 76.4829 126.414 75.6546 125.983 75.1455C125.552 74.6363 124.847 74.6335 124.415 75.1391Z" fill="#D1D3D4"/>
<path fill-rule="evenodd" clip-rule="evenodd" d="M125.052 75.97C124.827 76.2332 124.826 76.668 125.05 76.933C125.274 77.1979 125.644 77.1994 125.869 76.9363C126.095 76.6732 126.095 76.2383 125.871 75.9734C125.647 75.7084 125.277 75.7069 125.052 75.97Z" fill="#F1F2F2"/>
<path fill-rule="evenodd" clip-rule="evenodd" d="M113.686 3.84167C114.525 2.8614 115.882 2.86689 116.717 3.85395C117.552 4.841 117.549 6.43556 116.71 7.41584C115.872 8.39611 114.515 8.39061 113.68 7.40356C112.845 6.4165 112.847 4.82195 113.686 3.84167Z" fill="black"/>
<path fill-rule="evenodd" clip-rule="evenodd" d="M93.7623 3.76098C94.6011 2.78071 95.9578 2.78621 96.7929 3.77326C97.6281 4.76032 97.6252 6.35487 96.7865 7.33515C95.9477 8.31542 94.591 8.30993 93.7559 7.32287C92.9207 6.33582 92.9236 4.74126 93.7623 3.76098Z" fill="black"/>
<path fill-rule="evenodd" clip-rule="evenodd" d="M114.235 4.48592C113.701 5.1102 113.699 6.13009 114.231 6.75869C114.763 7.38729 115.631 7.39081 116.165 6.76653C116.699 6.14225 116.701 5.12235 116.169 4.49375C115.637 3.86515 114.77 3.86164 114.235 4.48592Z" fill="#A7A9AC"/>
<path fill-rule="evenodd" clip-rule="evenodd" d="M114.578 4.89106C114.146 5.39667 114.144 6.22502 114.575 6.73413C115.006 7.24324 115.71 7.24609 116.143 6.74048C116.576 6.23487 116.577 5.40652 116.146 4.89741C115.716 4.3883 115.011 4.38544 114.578 4.89106Z" fill="#D1D3D4"/>
<path fill-rule="evenodd" clip-rule="evenodd" d="M103.726 3.80133C104.565 2.82105 105.922 2.82655 106.757 3.81361C107.592 4.80066 107.589 6.39522 106.751 7.37549C105.912 8.35577 104.555 8.35027 103.72 7.36322C102.885 6.37616 102.888 4.7816 103.726 3.80133Z" fill="black"/>
<path fill-rule="evenodd" clip-rule="evenodd" d="M104.271 4.44551C103.737 5.06979 103.735 6.08969 104.267 6.71829C104.799 7.34689 105.667 7.3504 106.201 6.72612C106.735 6.10184 106.737 5.08194 106.205 4.45335C105.673 3.82475 104.805 3.82123 104.271 4.44551Z" fill="#A7A9AC"/>
<path fill-rule="evenodd" clip-rule="evenodd" d="M104.614 4.85071C104.181 5.35633 104.18 6.18467 104.611 6.69378C105.041 7.2029 105.746 7.20575 106.179 6.70014C106.611 6.19452 106.613 5.36618 106.182 4.85707C105.751 4.34796 105.047 4.3451 104.614 4.85071Z" fill="#D1D3D4"/>
<path fill-rule="evenodd" clip-rule="evenodd" d="M94.3074 4.40517C93.7733 5.02945 93.7714 6.04934 94.3033 6.67794C94.8352 7.30654 95.7029 7.31006 96.2371 6.68578C96.7712 6.0615 96.7731 5.0416 96.2412 4.413C95.7094 3.7844 94.8416 3.78089 94.3074 4.40517Z" fill="#A7A9AC"/>
<path fill-rule="evenodd" clip-rule="evenodd" d="M94.6502 4.81037C94.2176 5.31598 94.2161 6.14433 94.6468 6.65344C95.0776 7.16255 95.7824 7.16541 96.215 6.65979C96.6476 6.15418 96.6491 5.32583 96.2184 4.81672C95.7876 4.30761 95.0828 4.30476 94.6502 4.81037Z" fill="#D1D3D4"/>
<path fill-rule="evenodd" clip-rule="evenodd" d="M95.2919 5.64647C95.0668 5.9096 95.066 6.34449 95.2901 6.60943C95.5143 6.87438 95.8843 6.87588 96.1095 6.61275C96.3346 6.34963 96.3354 5.91474 96.1112 5.64979C95.887 5.38485 95.517 5.38335 95.2919 5.64647Z" fill="#F1F2F2"/>
<path fill-rule="evenodd" clip-rule="evenodd" d="M105.251 5.68682C105.026 5.94994 105.025 6.38483 105.25 6.64978C105.474 6.91472 105.844 6.91622 106.069 6.6531C106.294 6.38997 106.295 5.95508 106.071 5.69014C105.847 5.42519 105.476 5.42369 105.251 5.68682Z" fill="#F1F2F2"/>
<path fill-rule="evenodd" clip-rule="evenodd" d="M115.215 5.72716C114.99 5.99029 114.99 6.42518 115.214 6.69012C115.438 6.95507 115.808 6.95657 116.033 6.69344C116.258 6.43032 116.259 5.99543 116.035 5.73048C115.811 5.46554 115.441 5.46404 115.215 5.72716Z" fill="#F1F2F2"/>
<path fill-rule="evenodd" clip-rule="evenodd" d="M173.417 4.08368C174.256 3.10341 175.613 3.10891 176.448 4.09596C177.283 5.08301 177.28 6.67757 176.442 7.65784C175.603 8.63811 174.246 8.63262 173.411 7.64557C172.576 6.65851 172.579 5.06396 173.417 4.08368Z" fill="black"/>
<path fill-rule="evenodd" clip-rule="evenodd" d="M153.489 4.00293C154.328 3.02266 155.685 3.02816 156.52 4.01521C157.355 5.00226 157.352 6.59682 156.514 7.57709C155.675 8.55737 154.318 8.55187 153.483 7.56482C152.648 6.57776 152.651 4.98321 153.489 4.00293Z" fill="black"/>
<path fill-rule="evenodd" clip-rule="evenodd" d="M133.574 3.92743C134.413 2.94715 135.77 2.95265 136.605 3.9397C137.44 4.92676 137.437 6.52132 136.598 7.50159C135.76 8.48186 134.403 8.47637 133.568 7.48931C132.733 6.50226 132.736 4.9077 133.574 3.92743Z" fill="black"/>
<path fill-rule="evenodd" clip-rule="evenodd" d="M134.119 4.57679C134.654 3.95251 135.521 3.95603 136.053 4.58462C136.585 5.21322 136.583 6.23313 136.049 6.85741C135.515 7.48169 134.647 7.47817 134.115 6.84958C133.583 6.22098 133.585 5.20107 134.119 4.57679Z" fill="#A7A9AC"/>
<path fill-rule="evenodd" clip-rule="evenodd" d="M134.462 4.97687C134.895 4.47125 135.6 4.47411 136.03 4.98322C136.461 5.49233 136.46 6.3155 136.027 6.8263C135.594 7.33191 134.89 7.32906 134.459 6.81994C134.028 6.31083 134.03 5.48248 134.462 4.97687Z" fill="#D1D3D4"/>
<path fill-rule="evenodd" clip-rule="evenodd" d="M183.377 4.12403C184.216 3.14376 185.573 3.14925 186.408 4.13631C187.243 5.12336 187.24 6.71791 186.401 7.69819C185.562 8.67846 184.206 8.67296 183.371 7.68591C182.535 6.69886 182.538 5.1043 183.377 4.12403Z" fill="black"/>
<path fill-rule="evenodd" clip-rule="evenodd" d="M183.927 4.76827C183.392 5.39255 183.391 6.41245 183.922 7.04104C184.454 7.66964 185.322 7.67316 185.856 7.04888C186.39 6.4246 186.392 5.4047 185.86 4.77611C185.328 4.14751 184.461 4.14399 183.927 4.76827Z" fill="#A7A9AC"/>
<path fill-rule="evenodd" clip-rule="evenodd" d="M184.269 5.17347C183.837 5.67908 183.835 6.50743 184.266 7.01654C184.697 7.52565 185.402 7.5285 185.834 7.02289C186.267 6.51728 186.268 5.68893 185.838 5.17982C185.407 4.67071 184.702 4.66785 184.269 5.17347Z" fill="#D1D3D4"/>
<path fill-rule="evenodd" clip-rule="evenodd" d="M173.962 4.72793C173.428 5.35221 173.426 6.3721 173.958 7.0007C174.49 7.6293 175.358 7.63281 175.892 7.00853C176.426 6.38425 176.428 5.36436 175.896 4.73576C175.364 4.10716 174.497 4.10365 173.962 4.72793Z" fill="#A7A9AC"/>
<path fill-rule="evenodd" clip-rule="evenodd" d="M174.305 5.13306C173.873 5.63868 173.871 6.46702 174.302 6.97613C174.733 7.48524 175.438 7.4881 175.87 6.98249C176.303 6.47687 176.304 5.64853 175.874 5.13942C175.443 4.6303 174.738 4.62745 174.305 5.13306Z" fill="#D1D3D4"/>
<path fill-rule="evenodd" clip-rule="evenodd" d="M163.453 4.04334C164.292 3.06307 165.649 3.06856 166.484 4.05562C167.319 5.04267 167.316 6.63723 166.478 7.6175C165.639 8.59777 164.282 8.59227 163.447 7.60522C162.612 6.61817 162.615 5.02361 163.453 4.04334Z" fill="black"/>
<path fill-rule="evenodd" clip-rule="evenodd" d="M163.999 4.68752C163.464 5.3118 163.463 6.3317 163.994 6.96029C164.526 7.58889 165.394 7.59241 165.928 6.96813C166.462 6.34385 166.464 5.32395 165.932 4.69536C165.401 4.06676 164.533 4.06324 163.999 4.68752Z" fill="#A7A9AC"/>
<path fill-rule="evenodd" clip-rule="evenodd" d="M164.341 5.09272C163.909 5.59833 163.907 6.42668 164.338 6.93579C164.769 7.4449 165.474 7.44775 165.906 6.94214C166.339 6.43653 166.34 5.60818 165.91 5.09907C165.479 4.58996 164.774 4.5871 164.341 5.09272Z" fill="#D1D3D4"/>
<path fill-rule="evenodd" clip-rule="evenodd" d="M154.034 4.64718C153.5 5.27146 153.498 6.29135 154.03 6.91995C154.562 7.54855 155.43 7.55206 155.964 6.92778C156.498 6.3035 156.5 5.28361 155.968 4.65501C155.436 4.02642 154.569 4.0229 154.034 4.64718Z" fill="#A7A9AC"/>
<path fill-rule="evenodd" clip-rule="evenodd" d="M154.377 5.05237C153.945 5.55799 153.943 6.38633 154.374 6.89544C154.805 7.40456 155.509 7.40741 155.942 6.9018C156.375 6.39618 156.376 5.56784 155.945 5.05873C155.515 4.54962 154.81 4.54676 154.377 5.05237Z" fill="#D1D3D4"/>
<path fill-rule="evenodd" clip-rule="evenodd" d="M143.525 3.95744C144.364 2.97717 145.721 2.98266 146.556 3.96972C147.391 4.95677 147.388 6.55135 146.549 7.53162C145.711 8.51189 144.354 8.5064 143.519 7.51934C142.684 6.53229 142.687 4.93771 143.525 3.95744Z" fill="black"/>
<path fill-rule="evenodd" clip-rule="evenodd" d="M144.07 4.60683C143.536 5.23111 143.534 6.25101 144.066 6.8796C144.598 7.5082 145.466 7.51172 146 6.88744C146.534 6.26316 146.536 5.24327 146.004 4.61467C145.472 3.98607 144.605 3.98256 144.07 4.60683Z" fill="#A7A9AC"/>
<path fill-rule="evenodd" clip-rule="evenodd" d="M144.413 5.01197C143.981 5.51758 143.979 6.34593 144.41 6.85504C144.841 7.36415 145.545 7.36701 145.978 6.86139C146.411 6.35578 146.412 5.52743 145.981 5.01832C145.551 4.50921 144.846 4.50635 144.413 5.01197Z" fill="#D1D3D4"/>
<path fill-rule="evenodd" clip-rule="evenodd" d="M155.015 5.88848C154.789 6.1516 154.789 6.58649 155.013 6.85144C155.237 7.11638 155.607 7.11788 155.832 6.85476C156.057 6.59163 156.058 6.15674 155.834 5.8918C155.61 5.62685 155.24 5.62535 155.015 5.88848Z" fill="#F1F2F2"/>
<path fill-rule="evenodd" clip-rule="evenodd" d="M164.979 5.92888C164.754 6.19201 164.753 6.6269 164.977 6.89184C165.201 7.15679 165.571 7.15829 165.796 6.89516C166.021 6.63204 166.022 6.19715 165.798 5.9322C165.574 5.66726 165.204 5.66576 164.979 5.92888Z" fill="#F1F2F2"/>
<path fill-rule="evenodd" clip-rule="evenodd" d="M174.943 5.96923C174.718 6.23235 174.717 6.66724 174.941 6.93219C175.165 7.19713 175.535 7.19863 175.76 6.93551C175.985 6.67238 175.986 6.23749 175.762 5.97255C175.538 5.7076 175.168 5.7061 174.943 5.96923Z" fill="#F1F2F2"/>
<path fill-rule="evenodd" clip-rule="evenodd" d="M184.907 6.00957C184.682 6.2727 184.681 6.70759 184.905 6.97253C185.129 7.23748 185.499 7.23898 185.724 6.97585C185.949 6.71273 185.95 6.27784 185.726 6.01289C185.502 5.74794 185.132 5.74645 184.907 6.00957Z" fill="#F1F2F2"/>
<path fill-rule="evenodd" clip-rule="evenodd" d="M135.104 5.81299C134.879 6.07611 134.878 6.51099 135.102 6.77594C135.326 7.04088 135.696 7.04238 135.921 6.77926C136.147 6.51613 136.147 6.08125 135.923 5.8163C135.699 5.55136 135.329 5.54986 135.104 5.81299Z" fill="#F1F2F2"/>
<path fill-rule="evenodd" clip-rule="evenodd" d="M145.055 5.84813C144.83 6.11126 144.829 6.54615 145.053 6.81109C145.277 7.07604 145.647 7.07754 145.872 6.81441C146.098 6.55129 146.098 6.1164 145.874 5.85145C145.65 5.58651 145.28 5.58501 145.055 5.84813Z" fill="#F1F2F2"/>
<path fill-rule="evenodd" clip-rule="evenodd" d="M123.65 3.88208C124.489 2.90181 125.845 2.90731 126.681 3.89436C127.516 4.88142 127.513 6.47597 126.674 7.45624C125.835 8.43652 124.479 8.43102 123.644 7.44397C122.808 6.45691 122.811 4.86236 123.65 3.88208Z" fill="black"/>
<path fill-rule="evenodd" clip-rule="evenodd" d="M124.199 4.52633C123.665 5.15061 123.663 6.1705 124.195 6.7991C124.727 7.4277 125.595 7.43121 126.129 6.80693C126.663 6.18265 126.665 5.16276 126.133 4.53416C125.601 3.90557 124.733 3.90205 124.199 4.52633Z" fill="#A7A9AC"/>
<path fill-rule="evenodd" clip-rule="evenodd" d="M124.543 4.93146C124.11 5.43708 124.108 6.26542 124.539 6.77453C124.97 7.28364 125.675 7.2865 126.107 6.78089C126.54 6.27527 126.541 5.44693 126.111 4.93782C125.68 4.4287 124.975 4.42585 124.543 4.93146Z" fill="#D1D3D4"/>
<path fill-rule="evenodd" clip-rule="evenodd" d="M125.18 5.76763C124.954 6.03075 124.954 6.46564 125.178 6.73059C125.402 6.99553 125.772 6.99703 125.997 6.73391C126.222 6.47078 126.223 6.03589 125.999 5.77095C125.775 5.506 125.405 5.5045 125.18 5.76763Z" fill="#F1F2F2"/>
<path fill-rule="evenodd" clip-rule="evenodd" d="M183.266 62.6261C182.427 63.6064 182.425 65.2009 183.26 66.188C184.095 67.175 185.452 67.1805 186.29 66.2003C187.129 65.22 187.132 63.6254 186.297 62.6384C185.462 61.6513 184.105 61.6458 183.266 62.6261Z" fill="black"/>
<path fill-rule="evenodd" clip-rule="evenodd" d="M183.309 39.2046C182.47 40.1848 182.467 41.7794 183.302 42.7665C184.137 43.7535 185.494 43.759 186.333 42.7788C187.172 41.7985 187.174 40.2039 186.339 39.2169C185.504 38.2298 184.147 38.2243 183.309 39.2046Z" fill="black"/>
<path fill-rule="evenodd" clip-rule="evenodd" d="M183.356 15.7986C182.517 16.7788 182.514 18.3734 183.349 19.3605C184.185 20.3475 185.541 20.353 186.38 19.3727C187.219 18.3925 187.222 16.7979 186.386 15.8108C185.551 14.8238 184.195 14.8183 183.356 15.7986Z" fill="black"/>
<path fill-rule="evenodd" clip-rule="evenodd" d="M183.905 16.4479C183.371 17.0722 183.369 18.0921 183.901 18.7207C184.433 19.3493 185.301 19.3528 185.835 18.7285C186.369 18.1042 186.371 17.0843 185.839 16.4557C185.307 15.8271 184.439 15.8236 183.905 16.4479Z" fill="#A7A9AC"/>
<path fill-rule="evenodd" clip-rule="evenodd" d="M184.248 16.8531C183.815 17.3587 183.814 18.1871 184.244 18.6962C184.675 19.2053 185.38 19.2081 185.813 18.7025C186.245 18.1969 186.247 17.3686 185.816 16.8594C185.385 16.3503 184.68 16.3475 184.248 16.8531Z" fill="#D1D3D4"/>
<path fill-rule="evenodd" clip-rule="evenodd" d="M183.811 63.2703C184.345 62.646 185.213 62.6495 185.745 63.2781C186.277 63.9067 186.275 64.9266 185.741 65.5509C185.207 66.1752 184.339 66.1717 183.807 65.5431C183.275 64.9145 183.277 63.8946 183.811 63.2703Z" fill="#A7A9AC"/>
<path fill-rule="evenodd" clip-rule="evenodd" d="M184.154 63.6755C184.587 63.1699 185.292 63.1727 185.722 63.6818C186.153 64.1909 186.152 65.0193 185.719 65.5249C185.286 66.0305 184.582 66.0277 184.151 65.5186C183.72 65.0094 183.721 64.1811 184.154 63.6755Z" fill="#D1D3D4"/>
<path fill-rule="evenodd" clip-rule="evenodd" d="M183.287 50.9153C182.449 51.8955 182.446 53.4901 183.281 54.4772C184.116 55.4642 185.473 55.4697 186.312 54.4894C187.15 53.5092 187.153 51.9146 186.318 50.9275C185.483 49.9405 184.126 49.935 183.287 50.9153Z" fill="black"/>
<path fill-rule="evenodd" clip-rule="evenodd" d="M183.833 51.5595C184.367 50.9352 185.235 50.9387 185.766 51.5673C186.298 52.1959 186.296 53.2158 185.762 53.8401C185.228 54.4644 184.36 54.4608 183.828 53.8322C183.297 53.2036 183.298 52.1837 183.833 51.5595Z" fill="#A7A9AC"/>
<path fill-rule="evenodd" clip-rule="evenodd" d="M184.175 51.9647C184.608 51.459 185.313 51.4619 185.744 51.971C186.174 52.4801 186.173 53.3033 185.74 53.8141C185.308 54.3197 184.603 54.3168 184.172 53.8077C183.741 53.2986 183.743 52.4703 184.175 51.9647Z" fill="#D1D3D4"/>
<path fill-rule="evenodd" clip-rule="evenodd" d="M183.854 39.8539C184.388 39.2296 185.256 39.2331 185.788 39.8617C186.319 40.4903 186.318 41.5102 185.783 42.1345C185.249 42.7588 184.382 42.7553 183.85 42.1267C183.318 41.4981 183.32 40.4782 183.854 39.8539Z" fill="#A7A9AC"/>
<path fill-rule="evenodd" clip-rule="evenodd" d="M184.197 40.2591C184.629 39.7535 185.334 39.7563 185.765 40.2654C186.196 40.7746 186.194 41.6029 185.761 42.1085C185.329 42.6141 184.624 42.6113 184.193 42.1022C183.762 41.5931 183.764 40.7647 184.197 40.2591Z" fill="#D1D3D4"/>
<path fill-rule="evenodd" clip-rule="evenodd" d="M183.33 27.4938C182.491 28.474 182.489 30.0686 183.324 31.0557C184.159 32.0427 185.516 32.0482 186.354 31.0679C187.193 30.0877 187.196 28.4931 186.361 27.506C185.526 26.519 184.169 26.5135 183.33 27.4938Z" fill="black"/>
<path fill-rule="evenodd" clip-rule="evenodd" d="M183.875 28.1432C184.409 27.5189 185.277 27.5224 185.809 28.151C186.341 28.7796 186.339 29.7995 185.805 30.4238C185.271 31.048 184.403 31.0445 183.871 30.4159C183.339 29.7873 183.341 28.7674 183.875 28.1432Z" fill="#A7A9AC"/>
<path fill-rule="evenodd" clip-rule="evenodd" d="M184.218 28.5483C184.65 28.0427 185.355 28.0456 185.786 28.5547C186.217 29.0638 186.215 29.8922 185.783 30.3978C185.35 30.9034 184.645 30.9005 184.214 30.3914C183.784 29.8823 183.785 29.0591 184.218 28.5483Z" fill="#D1D3D4"/>
<path fill-rule="evenodd" clip-rule="evenodd" d="M184.904 41.0127C185.13 40.7496 185.5 40.7511 185.724 41.016C185.948 41.281 185.947 41.7158 185.722 41.979C185.497 42.2421 185.127 42.2406 184.903 41.9756C184.679 41.7055 184.679 41.2758 184.904 41.0127Z" fill="#F1F2F2"/>
<path fill-rule="evenodd" clip-rule="evenodd" d="M184.883 52.7235C185.108 52.4603 185.478 52.4618 185.703 52.7268C185.927 52.9917 185.926 53.4266 185.701 53.6897C185.476 53.9528 185.106 53.9513 184.881 53.6864C184.657 53.4215 184.658 52.9866 184.883 52.7235Z" fill="#F1F2F2"/>
<path fill-rule="evenodd" clip-rule="evenodd" d="M184.862 64.4343C185.087 64.1711 185.457 64.1726 185.681 64.4376C185.905 64.7025 185.905 65.1374 185.68 65.4005C185.454 65.6637 185.084 65.6622 184.86 65.3972C184.636 65.1271 184.637 64.6974 184.862 64.4343Z" fill="#F1F2F2"/>
<path fill-rule="evenodd" clip-rule="evenodd" d="M184.951 17.6067C185.176 17.3436 185.546 17.3451 185.771 17.61C185.995 17.8801 185.994 18.3098 185.769 18.573C185.544 18.8361 185.174 18.8346 184.95 18.5696C184.725 18.3047 184.726 17.8698 184.951 17.6067Z" fill="#F1F2F2"/>
<path fill-rule="evenodd" clip-rule="evenodd" d="M184.926 29.3019C185.151 29.0388 185.521 29.0403 185.745 29.3052C185.969 29.5701 185.968 30.005 185.743 30.2681C185.518 30.5313 185.148 30.5298 184.924 30.2648C184.7 29.9999 184.701 29.565 184.926 29.3019Z" fill="#F1F2F2"/>
<path fill-rule="evenodd" clip-rule="evenodd" d="M84.6451 3.13385C85.7692 2.70352 86.9792 3.42287 87.3513 4.74457C87.7189 6.06625 87.1084 7.48751 85.9844 7.92302C84.8603 8.35335 83.6502 7.63399 83.2782 6.3123C82.9106 4.99062 83.5211 3.56936 84.6451 3.13385Z" fill="black"/>
<path fill-rule="evenodd" clip-rule="evenodd" d="M84.8903 3.99943C84.1717 4.27608 83.7824 5.1857 84.0188 6.02537C84.2551 6.87022 85.0296 7.32895 85.7437 7.05227C86.4578 6.7756 86.8515 5.86599 86.6151 5.02633C86.3788 4.18148 85.6044 3.72275 84.8903 3.99943Z" fill="#A7A9AC"/>
<path fill-rule="evenodd" clip-rule="evenodd" d="M85.039 4.54364C84.4572 4.76908 84.1431 5.50296 84.3312 6.18712C84.5238 6.87129 85.1487 7.24141 85.7305 7.02114C86.3124 6.7957 86.6265 6.06182 86.4383 5.37766C86.2457 4.69349 85.6209 4.32337 85.039 4.54364Z" fill="#D1D3D4"/>
<path fill-rule="evenodd" clip-rule="evenodd" d="M85.2923 5.62675C84.9882 5.74459 84.8245 6.12705 84.9251 6.48468C85.0258 6.84232 85.3514 7.03519 85.6556 6.91734C85.9598 6.7995 86.1234 6.41705 86.0272 6.05943C85.9265 5.70179 85.6009 5.50892 85.2967 5.62158L85.2923 5.62675Z" fill="#F1F2F2"/>
<path fill-rule="evenodd" clip-rule="evenodd" d="M95.8204 34.7083C95.448 36.027 96.0532 37.4532 97.1757 37.8978C98.2982 38.3372 99.5153 37.6277 99.8877 36.309C100.26 34.9903 99.6548 33.5641 98.5323 33.1195C97.4099 32.6801 96.1928 33.3896 95.8204 34.7083Z" fill="black"/>
<path fill-rule="evenodd" clip-rule="evenodd" d="M96.5556 35.0012C96.795 34.1583 97.5711 33.7059 98.2842 33.9883C99.0017 34.2708 99.3877 35.1784 99.1483 36.0213C98.9089 36.8642 98.1328 37.3167 97.4197 37.0342C96.7022 36.7517 96.3162 35.8441 96.5556 35.0012Z" fill="#A7A9AC"/>
<path fill-rule="evenodd" clip-rule="evenodd" d="M97.0132 35.1791C97.2082 34.4965 97.8345 34.1263 98.4155 34.3564C98.9965 34.5866 99.3123 35.323 99.1173 36.0056C98.9222 36.6882 98.296 37.0584 97.715 36.8283C97.134 36.5981 96.8225 35.8617 97.0132 35.1791Z" fill="#D1D3D4"/>
<path fill-rule="evenodd" clip-rule="evenodd" d="M97.9333 35.4831C98.0353 35.1263 98.3616 34.9361 98.6653 35.0512C98.9691 35.1715 99.1313 35.5553 99.0294 35.9121C98.9274 36.2689 98.6011 36.4592 98.2974 36.344C97.9937 36.2237 97.8314 35.84 97.9289 35.4831L97.9333 35.4831Z" fill="#F1F2F2"/>
<path fill-rule="evenodd" clip-rule="evenodd" d="M99.9695 44.6083C99.5971 45.927 100.202 47.3532 101.325 47.7978C102.447 48.2372 103.66 47.5277 104.037 46.209C104.409 44.8904 103.804 43.4642 102.681 43.0196C101.559 42.5749 100.342 43.2896 99.9695 44.6083Z" fill="black"/>
<path fill-rule="evenodd" clip-rule="evenodd" d="M100.705 44.9012C100.944 44.0583 101.72 43.6058 102.433 43.8883C103.151 44.1708 103.537 45.0835 103.297 45.9265C103.058 46.7694 102.282 47.2218 101.569 46.9394C100.851 46.6569 100.465 45.7441 100.705 44.9064L100.705 44.9012Z" fill="#A7A9AC"/>
<path fill-rule="evenodd" clip-rule="evenodd" d="M101.162 45.0791C101.357 44.3965 101.984 44.0263 102.565 44.2564C103.146 44.4866 103.457 45.223 103.266 45.9056C103.071 46.5882 102.445 46.9585 101.864 46.7283C101.283 46.4982 100.972 45.7617 101.162 45.0791Z" fill="#D1D3D4"/>
<path fill-rule="evenodd" clip-rule="evenodd" d="M102.082 45.3831C102.184 45.0263 102.511 44.8361 102.814 44.9564C103.118 45.0767 103.28 45.4604 103.183 45.8173C103.081 46.1741 102.755 46.3643 102.451 46.2492C102.147 46.1289 101.985 45.7451 102.082 45.3883L102.082 45.3831Z" fill="#F1F2F2"/>
<path fill-rule="evenodd" clip-rule="evenodd" d="M104.269 54.3694C103.896 55.6881 104.501 57.1142 105.624 57.5589C106.746 57.9983 107.959 57.2887 108.336 55.9701C108.708 54.6514 108.103 53.2252 106.981 52.7806C105.858 52.3412 104.641 53.0507 104.269 54.3694Z" fill="black"/>
<path fill-rule="evenodd" clip-rule="evenodd" d="M105.008 54.6571C105.247 53.8142 106.023 53.3617 106.737 53.6442C107.454 53.9267 107.84 54.8394 107.601 55.6772C107.361 56.5201 106.585 56.9725 105.872 56.6901C105.155 56.4076 104.769 55.4949 105.008 54.6571Z" fill="#A7A9AC"/>
<path fill-rule="evenodd" clip-rule="evenodd" d="M105.466 54.835C105.661 54.1524 106.287 53.7822 106.868 54.0124C107.449 54.2425 107.761 54.9789 107.57 55.6616C107.375 56.3442 106.749 56.7144 106.168 56.4842C105.587 56.2541 105.275 55.5176 105.466 54.835Z" fill="#D1D3D4"/>
<path fill-rule="evenodd" clip-rule="evenodd" d="M106.386 55.139C106.488 54.7822 106.814 54.592 107.118 54.7123C107.422 54.8326 107.584 55.2164 107.487 55.5732C107.385 55.93 107.058 56.1202 106.755 56.0051C106.451 55.8848 106.289 55.5011 106.386 55.1442L106.386 55.139Z" fill="#F1F2F2"/>
<path fill-rule="evenodd" clip-rule="evenodd" d="M86.9163 13.7563C86.5439 15.075 87.1492 16.5063 88.2717 16.9458C89.3941 17.3852 90.6068 16.6756 90.9836 15.357C91.3561 14.0383 90.7507 12.6121 89.6283 12.1675C88.5058 11.7229 87.2931 12.4376 86.9163 13.7563Z" fill="black"/>
<path fill-rule="evenodd" clip-rule="evenodd" d="M87.6557 14.0492C87.4163 14.8921 87.8023 15.8049 88.5198 16.0822C89.2373 16.3647 90.0134 15.9122 90.2484 15.0693C90.4878 14.2264 90.1018 13.3136 89.3843 13.0311C88.6668 12.7486 87.8951 13.2011 87.6557 14.044L87.6557 14.0492Z" fill="#A7A9AC"/>
<path fill-rule="evenodd" clip-rule="evenodd" d="M88.1135 14.2271C87.9185 14.9097 88.2343 15.6461 88.8153 15.8763C89.3964 16.1064 90.0226 15.7362 90.2176 15.0536C90.4127 14.371 90.0969 13.6345 89.5158 13.4044C88.9348 13.1742 88.3086 13.5445 88.1135 14.2271Z" fill="#D1D3D4"/>
<path fill-rule="evenodd" clip-rule="evenodd" d="M89.0338 14.531C89.1358 14.1742 89.4621 13.984 89.7658 14.0991C90.0696 14.2194 90.2319 14.6032 90.1343 14.96C90.0323 15.3169 89.706 15.5071 89.4023 15.392C89.0985 15.2717 88.9363 14.8879 89.0382 14.5311L89.0338 14.531Z" fill="#F1F2F2"/>
<path fill-rule="evenodd" clip-rule="evenodd" d="M91.3641 24.2271C90.9916 25.5458 91.5969 26.972 92.7194 27.4166C93.8419 27.856 95.0546 27.1465 95.4314 25.8278C95.8038 24.5091 95.1985 23.0829 94.076 22.6383C92.9536 22.1989 91.7365 22.9084 91.3641 24.2271Z" fill="black"/>
<path fill-rule="evenodd" clip-rule="evenodd" d="M92.0993 24.52C92.3387 23.6771 93.1148 23.2246 93.8279 23.5071C94.5454 23.7895 94.9314 24.6971 94.692 25.54C94.4526 26.3829 93.6765 26.8354 92.9634 26.5529C92.2459 26.2705 91.8599 25.3577 92.0993 24.52Z" fill="#A7A9AC"/>
<path fill-rule="evenodd" clip-rule="evenodd" d="M92.5569 24.6978C92.7519 24.0152 93.3781 23.645 93.9591 23.8752C94.5402 24.1053 94.8516 24.8417 94.661 25.5244C94.4659 26.207 93.8397 26.5772 93.2587 26.347C92.6776 26.1169 92.3662 25.3805 92.5569 24.6978Z" fill="#D1D3D4"/>
<path fill-rule="evenodd" clip-rule="evenodd" d="M93.4769 25.0019C93.5789 24.6451 93.9052 24.4548 94.2089 24.57C94.5127 24.6903 94.675 25.074 94.5774 25.4309C94.4755 25.7877 94.1491 25.9779 93.8454 25.8628C93.5417 25.7425 93.3794 25.3587 93.4769 25.0019Z" fill="#F1F2F2"/>
<path fill-rule="evenodd" clip-rule="evenodd" d="M108.936 65.1413C108.564 66.46 109.169 67.8862 110.291 68.3308C111.414 68.7754 112.631 68.0607 113.003 66.742C113.376 65.4233 112.771 63.9972 111.648 63.5526C110.526 63.1131 109.308 63.8226 108.936 65.1413Z" fill="black"/>
<path fill-rule="evenodd" clip-rule="evenodd" d="M109.671 65.4291C109.911 64.5862 110.687 64.1337 111.4 64.4162C112.117 64.6987 112.503 65.6114 112.264 66.4492C112.025 67.2921 111.249 67.7445 110.535 67.4621C109.818 67.1796 109.432 66.272 109.671 65.4291Z" fill="#A7A9AC"/>
<path fill-rule="evenodd" clip-rule="evenodd" d="M110.133 65.6121C110.328 64.9295 110.955 64.5645 111.536 64.7894C112.117 65.0196 112.428 65.756 112.237 66.4386C112.042 67.1212 111.416 67.4863 110.835 67.2613C110.254 67.0312 109.943 66.2947 110.133 65.6121Z" fill="#D1D3D4"/>
<path fill-rule="evenodd" clip-rule="evenodd" d="M111.049 65.9161C111.151 65.5593 111.477 65.3691 111.781 65.4894C112.085 65.6097 112.247 65.9935 112.15 66.3503C112.048 66.7071 111.721 66.8973 111.418 66.7822C111.114 66.6619 110.952 66.2782 111.049 65.9213L111.049 65.9161Z" fill="#F1F2F2"/>
<g filter="url(#filter0_d_654_13519)">
<path d="M52.9121 37.9111L52.9502 20.2139L58.2441 20.1504L57.9648 34.166L68.2607 34.001L68.375 38.1143L52.9121 37.9111ZM74.5068 27.1328L83.5586 26.9678L83.3428 31.0176L74.583 31.1953L74.6465 34.1787L84.7646 33.9883L84.5488 38.0381L69.4287 38.0508L69.3906 20.3535L84.8535 20.1504L84.7393 24.2637L74.4434 24.0986L74.5068 27.1328ZM91.2139 35.6895L90.4775 38.0508H84.9805L91.3281 20.2393L96.6348 20.1758L102.906 38.1396L97.6377 38.1016L96.8887 35.791L91.2139 35.6895ZM95.5811 31.7793L93.9561 26.8154L92.4326 31.7285L95.5811 31.7793ZM113.215 26.3584C113.139 24.8265 112.233 24.0605 110.498 24.0605L108.213 24.0986L108.276 28.9863L110.523 28.8467C112.292 28.8128 113.185 27.9834 113.202 26.3584H113.215ZM110.27 32.96L108.2 32.998L108.162 38.0762L103.236 38.0127L103.033 20.1123L110.727 20.1504C115.534 20.0911 118.052 22.1816 118.28 26.4219C118.34 29.0879 117.409 30.9372 115.487 31.9697L119.702 38.1016L113.621 38.0381L110.27 32.96ZM125.11 27.8691L125.301 38.1143L120.007 38.0508L119.969 20.3535L125.021 20.29L131.407 28.2627L131.395 20.3535L136.447 20.29L136.727 38.1143L131.433 38.0508L131.42 35.4609L125.11 27.8691ZM68.0957 62.8965L63.665 57.8691L63.8555 68.1143L58.5615 68.0508L58.5234 50.3535L63.5762 50.29L68.0195 55.7363L72.5645 50.1631L77.6172 50.2266L77.5791 67.9238L72.2852 67.9873L72.4756 57.7422L68.0957 62.8965ZM97.8027 59.1387C97.6842 65.2663 94.4596 68.2201 88.1289 68C81.9505 68 78.8148 65.0462 78.7217 59.1387C78.5947 53.265 81.6628 50.2858 87.9258 50.2012C94.4427 50.235 97.735 53.2142 97.8027 59.1387ZM92.585 58.999C92.5765 55.7575 91.1842 54.196 88.4082 54.3145C85.4121 54.3229 83.9098 55.9014 83.9014 59.0498H83.8887C84.2357 62.3083 85.7549 63.9967 88.4463 64.1152C91.1631 64.1914 92.5426 62.486 92.585 58.999ZM108.949 56.3584C108.873 54.8265 107.967 54.0605 106.232 54.0605L103.947 54.0986L104.011 58.9863L106.258 58.8467C108.027 58.8128 108.92 57.9834 108.937 56.3584H108.949ZM106.004 62.96L103.935 62.998L103.896 68.0762L98.9707 68.0127L98.7676 50.1123L106.461 50.1504C111.268 50.0911 113.786 52.1816 114.015 56.4219C114.074 59.0879 113.143 60.9372 111.222 61.9697L115.437 68.1016L109.355 68.0381L106.004 62.96ZM120.819 57.1328L129.871 56.9678L129.655 61.0176L120.896 61.1953L120.959 64.1787L131.077 63.9883L130.861 68.0381L115.741 68.0508L115.703 50.3535L131.166 50.1504L131.052 54.2637L120.756 54.0986L120.819 57.1328Z" fill="black"/>
</g>
<defs>
<filter id="filter0_d_654_13519" x="52.9121" y="20.0615" width="83.8145" height="48.2686" filterUnits="userSpaceOnUse" color-interpolation-filters="sRGB">
<feFlood flood-opacity="0" result="BackgroundImageFix"/>
<feColorMatrix in="SourceAlpha" type="matrix" values="0 0 0 0 0 0 0 0 0 0 0 0 0 0 0 0 0 0 127 0" result="hardAlpha"/>
<feOffset/>
<feComposite in2="hardAlpha" operator="out"/>
<feColorMatrix type="matrix" values="0 0 0 0 0 0 0 0 0 0 0 0 0 0 0 0 0 0 1 0"/>
<feBlend mode="normal" in2="BackgroundImageFix" result="effect1_dropShadow_654_13519"/>
<feBlend mode="normal" in="SourceGraphic" in2="effect1_dropShadow_654_13519" result="shape"/>
</filter>
</defs>
</svg>
