<svg width="33" height="31" viewBox="0 0 33 31" fill="none" xmlns="http://www.w3.org/2000/svg">
<path fill-rule="evenodd" clip-rule="evenodd" d="M9.61813 4.44984C3.12524 8.01995 0.9427 15.8628 4.7363 21.9634C8.53599 28.064 16.8831 30.1147 23.376 26.5503C29.8689 22.9802 32.0575 15.1373 28.2579 9.0367C24.4582 2.9361 16.111 0.885444 9.61813 4.44984Z" fill="black"/>
<path d="M16.5185 29.0236C11.4178 29.0236 6.65151 26.4588 4.07989 22.3289C0.0735047 15.8913 2.38372 7.59151 9.23531 3.82718C11.4361 2.6162 13.9469 1.97644 16.4881 1.97644C21.5888 1.97644 26.3551 4.54123 28.9268 8.67113C30.8661 11.79 31.4011 15.4286 30.4284 18.9245C29.4557 22.4203 27.0908 25.345 23.7714 27.1728C21.5706 28.3838 19.0598 29.0236 16.5185 29.0236ZM16.4881 3.42164C14.2205 3.42164 11.9771 3.99284 10.0074 5.07815C3.89143 8.44262 1.82439 15.857 5.40521 21.6035C7.70326 25.2935 11.9589 27.5841 16.5185 27.5841C18.7862 27.5841 21.0234 27.0129 22.9932 25.9276C25.96 24.2996 28.0696 21.6835 28.9389 18.5589C29.8083 15.4401 29.3341 12.1841 27.6014 9.40227C25.3034 5.7122 21.0478 3.42164 16.4881 3.42164Z" fill="black"/>
<path fill-rule="evenodd" clip-rule="evenodd" d="M0.766103 15.5828C0.814739 23.7456 7.89734 30.326 16.5849 30.2803C25.2725 30.2346 32.2761 23.5742 32.2275 15.4172C32.1788 7.25451 25.0902 0.674052 16.4026 0.71975C7.71496 0.765447 0.711381 7.42015 0.760017 15.5828H0.766103ZM14.9739 3.53585C16.3661 2.77042 18.1413 3.21027 18.9498 4.51264C19.7645 5.82073 19.2964 7.49439 17.9103 8.25411C16.5241 9.01383 14.7428 8.57973 13.9343 7.27735C13.1196 5.96926 13.5877 4.29557 14.9739 3.53585ZM15.0833 22.7459C16.4755 21.9805 18.2507 22.4203 19.0593 23.7227C19.8739 25.0308 19.4058 26.7045 18.0197 27.4642C16.6336 28.2239 14.8523 27.7898 14.0437 26.4874C13.2291 25.1793 13.6972 23.5056 15.0833 22.7459ZM29.2303 14.0691C30.0449 15.3772 29.5768 17.0452 28.1907 17.8049C26.8046 18.5703 25.0233 18.1305 24.2147 16.8281C23.4061 15.5257 23.8682 13.8521 25.2543 13.0923C26.6465 12.3269 28.4217 12.7667 29.2364 14.0691H29.2303ZM8.78496 14.1719C9.59961 15.48 9.13147 17.148 7.74535 17.9077C6.35314 18.6731 4.57795 18.2333 3.76937 16.9309C2.9608 15.6285 3.42284 13.9549 4.80896 13.1952C6.20117 12.4297 7.97637 12.8695 8.79102 14.1719H8.78496Z" fill="url(#paint0_linear_1613_36900)"/>
<path d="M16.4939 31C7.44764 31 0.0488947 24.0826 0.000258811 15.5886C-0.0240592 11.4472 1.66604 7.54579 4.76658 4.60401C7.86712 1.65653 12.0012 0.0228487 16.4027 0C25.5463 0 32.945 6.91176 32.9997 15.4115C33.0241 19.5528 31.334 23.4542 28.2334 26.396C25.1329 29.3435 20.9988 30.9772 16.5912 31H16.4939ZM16.5061 1.43948C12.4207 1.46233 8.6696 2.94178 5.86088 5.61508C3.05215 8.28838 1.51405 11.8242 1.53837 15.5828C1.58701 23.2943 8.29268 29.5605 16.5 29.5605H16.5912C20.5854 29.5377 24.3365 28.0582 27.1452 25.3849C29.9539 22.7116 31.492 19.1758 31.4677 15.4172C31.4191 7.71147 24.7073 1.43948 16.5061 1.43948ZM16.5547 28.5552C17.2052 28.5552 17.8436 28.3895 18.409 28.0811C19.254 27.6184 19.862 26.8701 20.1112 25.979C20.3605 25.0879 20.2267 24.1568 19.7282 23.3571C18.7433 21.7748 16.3966 21.1922 14.7005 22.1233C13.8554 22.586 13.2475 23.3343 12.9982 24.2254C12.749 25.1165 12.8827 26.0475 13.3812 26.8472C14.0378 27.904 15.2537 28.5552 16.5547 28.5552ZM16.5547 23.0886C16.1778 23.0886 15.8009 23.1857 15.4726 23.3628C14.9801 23.6313 14.6275 24.0654 14.4816 24.5852C14.3357 25.105 14.4147 25.6477 14.7066 26.1161C15.278 27.0358 16.6459 27.3728 17.6369 26.8358C18.1293 26.5674 18.4819 26.1332 18.6278 25.6134C18.7737 25.0936 18.6947 24.551 18.4029 24.0826C18.0199 23.4714 17.3147 23.0886 16.5547 23.0886ZM6.28037 18.9987C6.93087 18.9987 7.56923 18.8331 8.13462 18.5246C8.97967 18.0619 9.58761 17.3136 9.83687 16.4225C10.0861 15.5314 9.9463 14.6003 9.45386 13.8006C8.46898 12.2184 6.11623 11.6357 4.42613 12.5668C3.575 13.0295 2.97314 13.7778 2.72388 14.6746C2.47462 15.5657 2.61443 16.4968 3.10687 17.2908C3.76346 18.3475 4.97935 19.0044 6.28037 19.0044V18.9987ZM6.28037 13.5322C5.90344 13.5322 5.52651 13.6293 5.19822 13.8121C4.70578 14.0805 4.35316 14.5146 4.20726 15.0345C4.06135 15.5543 4.1404 16.0969 4.43221 16.5596C5.00369 17.4793 6.37156 17.822 7.36251 17.2793C7.85495 17.0109 8.20757 16.5768 8.35347 16.057C8.49938 15.5372 8.42035 14.9945 8.12854 14.5318C7.74553 13.9206 7.0403 13.5379 6.28037 13.5379V13.5322ZM26.7257 18.9016C27.3762 18.9016 28.0206 18.7359 28.58 18.4275C29.4311 17.9648 30.0329 17.2165 30.2822 16.3254C30.5315 15.4343 30.3916 14.5032 29.8992 13.7035C28.9143 12.1213 26.5676 11.5386 24.8715 12.4697C23.1266 13.4293 22.5369 15.5486 23.5583 17.1937C24.2149 18.2504 25.4308 18.9073 26.7318 18.9073L26.7257 18.9016ZM26.7257 13.4351C26.3488 13.4351 25.9718 13.5322 25.6436 13.7149C24.6283 14.2747 24.2878 15.5086 24.8775 16.4682C25.449 17.3879 26.8169 17.7306 27.8078 17.188C28.3003 16.9195 28.6529 16.4854 28.7988 15.9655C28.9447 15.4457 28.8657 14.9031 28.5739 14.4404C28.1909 13.8235 27.4856 13.4465 26.7257 13.4465V13.4351ZM16.4453 9.34515C17.0958 9.34515 17.7341 9.17949 18.2995 8.87103C19.1446 8.40834 19.7525 7.66005 20.0018 6.76895C20.251 5.87785 20.1173 4.94675 19.6188 4.14705C18.6339 2.57049 16.2872 1.98215 14.591 2.91323C13.746 3.37592 13.138 4.12421 12.8888 5.01531C12.6395 5.90641 12.7733 6.84322 13.2718 7.63721C13.9284 8.69397 15.1443 9.34515 16.4392 9.34515H16.4453ZM16.4453 3.87859C16.0683 3.87859 15.6914 3.97569 15.3631 4.15276C14.8707 4.42124 14.5181 4.86108 14.3722 5.37518C14.2263 5.89499 14.3053 6.43764 14.5971 6.90604C15.1686 7.8257 16.5365 8.16844 17.5274 7.62578C18.0199 7.35731 18.3725 6.92317 18.5184 6.40336C18.6643 5.88356 18.5853 5.3409 18.2934 4.8725C17.9104 4.25559 17.2052 3.87859 16.4453 3.87859Z" fill="black"/>
<defs>
<linearGradient id="paint0_linear_1613_36900" x1="16.4937" y1="0.719513" x2="16.4937" y2="30.2805" gradientUnits="userSpaceOnUse">
<stop stop-color="#923844"/>
<stop offset="0.51449" stop-color="#F85F73"/>
<stop offset="1" stop-color="#923844"/>
</linearGradient>
</defs>
</svg>
