<svg width="447" height="423" viewBox="0 0 447 423" fill="none" xmlns="http://www.w3.org/2000/svg">
<g opacity="0.5">
<path fill-rule="evenodd" clip-rule="evenodd" d="M351.069 358.288L367.139 367.889L363.971 381.076L345.442 381.998L357.833 395.894L350.625 407.356L332.522 402.619L339.958 419.433L329.397 428.082L313.541 418.152L315.373 436.246L302.44 441.189L290.344 427.062L286.376 444.64L272.409 445.452L265.222 428.508L255.877 443.811L242.203 440.366L240.68 422.29L226.807 433.877L214.78 426.551L219.109 409.016L202.037 415.787L192.842 405.182L202.533 390.098L184.016 391.269L178.511 378.57L192.654 367.228L174.489 362.767L173.273 349.162L190.441 342.739L174.371 333.138L177.509 319.876L196.068 319.029L183.699 305.083L190.908 293.621L208.988 298.408L201.551 281.594L212.06 272.921L227.991 282.825L226.137 264.781L239.017 259.814L251.113 273.94L255.133 256.387L269.101 255.575L276.235 272.495L285.633 257.216L299.254 260.637L300.777 278.712L314.703 267.15L326.73 274.476L322.371 291.936L339.421 285.216L348.638 295.771L338.977 310.929L357.441 309.734L362.946 322.433L348.856 333.799L366.991 338.186L368.259 351.815L351.069 358.288Z" fill="#FCEEA3"/>
<path d="M224.731 438.417C224.731 438.417 224.363 438.249 224.153 438.153L212.126 430.826C210.192 429.637 209.231 427.43 209.762 425.294L211.67 417.507L204.075 420.5C201.988 421.314 199.596 420.709 198.148 419.01L188.931 408.456C187.483 406.758 187.233 404.387 188.447 402.564L192.743 395.807L184.484 396.362C182.259 396.503 180.114 395.218 179.265 393.184L173.76 380.484C172.859 378.425 173.406 376.115 175.159 374.782L181.468 369.738L173.412 367.763C171.177 367.23 169.595 365.409 169.404 363.187L168.188 349.582C167.974 347.41 169.28 345.386 171.345 344.622L178.998 341.778L171.875 337.485C169.917 336.347 168.98 334.089 169.435 331.98L172.551 318.769C173.059 316.684 174.904 315.149 177.182 315.032L185.424 314.653L179.922 308.479C178.399 306.807 178.224 304.41 179.386 302.563L186.542 291.077C187.704 289.23 189.943 288.363 192.154 288.946L200.217 291.046L196.905 283.556C195.98 281.548 196.551 279.187 198.252 277.83L208.813 269.181C210.536 267.773 212.942 267.653 214.876 268.842L221.954 273.236L221.127 265.175C220.913 263.003 222.167 260.954 224.231 260.191L237.112 255.224C239.199 254.409 241.568 255.065 243.016 256.764L248.396 263.064L250.175 255.279C250.63 253.17 252.476 251.635 254.753 251.518L268.721 250.706C270.946 250.565 273.09 251.85 273.916 253.935L277.077 261.477L281.267 254.672C282.429 252.825 284.668 251.958 286.849 252.468L300.523 255.913C302.735 256.496 304.317 258.317 304.508 260.539L305.154 268.579L311.328 263.412C312.999 261.98 315.533 261.858 317.414 263.023L329.418 270.4C331.353 271.589 332.29 273.847 331.782 275.932L329.875 283.719L337.469 280.726C339.504 279.888 341.949 280.518 343.396 282.216L352.613 292.771C354.061 294.469 354.311 296.84 353.15 298.687L348.854 305.444L357.038 304.915C359.263 304.774 361.407 306.059 362.256 308.093L367.761 320.793C368.663 322.851 368.062 325.138 366.362 326.495L360.106 331.563L368.215 333.562C370.396 334.071 372.008 335.966 372.223 338.138L373.49 351.767C373.705 353.938 372.398 355.963 370.334 356.727L362.68 359.571L369.804 363.863C371.739 365.052 372.699 367.26 372.244 369.369L369.128 382.58C368.62 384.665 366.775 386.2 364.497 386.317L356.255 386.696L361.756 392.87C363.279 394.542 363.454 396.939 362.293 398.786L355.137 410.272C353.975 412.119 351.683 412.962 349.525 412.402L341.462 410.303L344.774 417.793C345.675 419.851 345.128 422.162 343.427 423.519L332.866 432.168C331.143 433.576 328.684 433.672 326.803 432.507L319.725 428.113L320.499 436.15C320.714 438.322 319.46 440.37 317.395 441.134L304.514 446.101C302.427 446.916 300.035 446.31 298.61 444.561L293.208 438.311L291.405 446.146C290.95 448.255 289.052 449.766 286.827 449.908L272.859 450.719C270.635 450.861 268.513 449.525 267.664 447.491L264.503 439.948L260.313 446.753C259.151 448.6 256.912 449.467 254.731 448.958L241.057 445.513C238.875 445.004 237.264 443.109 237.072 440.887L236.426 432.847L230.252 438.014C228.726 439.268 226.583 439.508 224.797 438.691L224.731 438.417ZM220.641 424.291L226.204 427.687L237.298 418.428C238.749 417.201 240.839 416.936 242.649 417.703C244.36 418.546 245.726 420.146 245.875 422.043L247.083 436.499L253.401 438.106L260.88 425.913C261.874 424.294 263.751 423.384 265.687 423.598C267.698 423.785 269.353 425.03 270.061 426.817L275.762 440.338L282.21 439.992L285.438 425.979C285.831 424.146 287.321 422.693 289.201 422.333C291.104 421.922 293.066 422.636 294.372 424.087L303.983 435.309L309.92 433.022L308.486 418.646C308.261 416.775 309.219 414.957 310.863 414.001C312.507 413.045 314.588 413.081 316.259 414.15L328.907 422.065L333.781 418.073L327.83 404.682C327.046 402.921 327.328 400.915 328.614 399.491C329.9 398.067 331.873 397.505 333.745 397.995L348.155 401.776L351.473 396.463L341.612 385.37C340.306 383.919 339.97 381.875 340.701 380.136C341.432 378.397 343.116 377.215 345.061 377.129L359.804 376.428L361.26 370.324L348.445 362.638C346.75 361.619 345.809 359.786 345.916 357.884C346.023 355.982 347.273 354.358 349.088 353.724L362.807 348.591L362.251 342.3L347.779 338.795C345.883 338.356 344.343 336.859 343.914 335.017C343.433 333.15 344.053 331.239 345.556 330.035L356.814 320.973L354.28 315.119L339.55 316.07C337.581 316.207 335.735 315.241 334.702 313.61C333.668 311.979 333.664 309.904 334.687 308.359L342.376 296.263L338.122 291.391L324.544 296.771C322.759 297.48 320.637 297.12 319.185 295.846C317.658 294.6 317.043 292.611 317.488 290.802L320.926 276.885L315.363 273.488L304.269 282.748C302.818 283.975 300.728 284.24 298.918 283.473C297.131 282.657 295.841 281.03 295.692 279.133L294.484 264.677L288.219 263.094L280.717 275.337C279.723 276.956 277.869 277.816 275.91 277.652C273.975 277.439 272.244 276.221 271.536 274.433L265.835 260.913L259.387 261.258L256.211 275.295C255.818 277.128 254.328 278.581 252.448 278.942C250.545 279.352 248.561 278.689 247.277 277.188L237.614 265.941L231.676 268.228L233.111 282.604C233.313 284.526 232.378 286.293 230.734 287.249C229.09 288.205 226.957 288.145 225.338 287.1L212.69 279.185L207.816 283.177L213.767 296.569C214.551 298.329 214.269 300.335 212.983 301.759C211.696 303.184 209.724 303.746 207.852 303.256L193.442 299.474L190.124 304.788L199.932 315.856C201.238 317.307 201.575 319.351 200.843 321.09C200.06 322.805 198.428 324.011 196.483 324.098L181.687 324.774L180.232 330.878L193.047 338.565C194.742 339.583 195.683 341.416 195.576 343.318C195.469 345.221 194.219 346.844 192.404 347.478L178.685 352.611L179.241 358.902L193.713 362.407C195.661 362.871 197.149 364.343 197.63 366.209C198.111 368.076 197.491 369.988 195.988 371.191L184.73 380.254L187.264 386.107L201.995 385.157C203.963 385.02 205.809 385.985 206.843 387.616C207.876 389.247 207.881 391.323 206.857 392.867L199.168 404.964L203.422 409.835L217 404.455C218.785 403.746 220.855 404.083 222.359 405.38C223.886 406.627 224.502 408.615 224.056 410.424L220.618 424.341L220.641 424.291Z" fill="#776503"/>
<path fill-rule="evenodd" clip-rule="evenodd" d="M361.257 342.945L361.712 347.787L344.068 354.419C343.997 356.52 343.873 358.598 343.598 360.729L360.095 370.647L358.976 375.319L339.882 376.226C339.111 378.191 338.363 380.105 337.435 381.998L350.132 396.339L347.571 400.412L328.972 395.509C327.646 397.159 326.238 398.711 324.8 400.188L332.443 417.524L328.677 420.62L312.318 410.399C310.529 411.532 308.711 412.592 306.84 413.627L308.698 432.221L304.145 433.981L291.668 419.437C289.591 419.951 287.536 420.414 285.347 420.755L281.224 438.811L276.262 439.104L268.921 421.663C266.736 421.579 264.544 421.37 262.451 421.084L252.77 436.843L247.934 435.608L246.409 416.983C244.342 416.221 242.322 415.359 240.377 414.47L226.034 426.391L221.768 423.77L226.199 405.734C224.515 404.415 222.801 403.022 221.185 401.552L203.607 408.457L200.36 404.717L210.357 389.102C209.136 387.324 207.991 385.52 206.892 383.615L187.84 384.847L185.889 380.358L200.449 368.658C199.781 366.645 199.316 364.603 198.875 362.511L180.167 357.985L179.712 353.143L197.409 346.535C197.48 344.434 197.627 342.305 197.856 340.276L181.359 330.357L182.477 325.685L201.572 324.778C202.29 322.789 203.114 320.848 203.967 318.982L191.247 304.692L193.808 300.618L212.482 305.495C213.808 303.845 215.216 302.293 216.677 300.766L209.011 283.481L212.777 280.385L229.136 290.606C230.924 289.472 232.743 288.413 234.591 287.428L232.733 268.834L237.339 267.097L249.838 281.592C251.863 281.054 253.97 280.614 256.107 280.249L260.23 262.193L265.192 261.9L272.532 279.342C274.718 279.426 276.91 279.635 279.055 279.945L288.736 264.185L293.625 265.444L295.174 284.019C297.24 284.781 299.26 285.643 301.182 286.582L315.525 274.661L319.791 277.282L315.36 295.319C317.097 296.661 318.735 298.081 320.321 299.477L337.9 292.571L341.199 296.335L331.203 311.951C332.423 313.728 333.568 315.532 334.69 317.386L353.742 316.155L355.67 320.695L341.133 332.344C341.726 334.383 342.243 336.449 342.707 338.491L361.392 343.067L361.257 342.945Z" fill="#FCEEA3"/>
<path d="M223.989 431.006C223.989 431.006 223.569 430.813 223.411 430.741L219.145 428.121C217.211 426.931 216.25 424.724 216.781 422.589L220.477 407.692C220.477 407.692 220.372 407.644 220.319 407.62L205.736 413.393C203.648 414.208 201.256 413.602 199.809 411.904L196.562 408.164C195.115 406.466 194.917 404.119 196.079 402.272L204.34 389.34C204.34 389.34 204.258 389.241 204.229 389.167L188.45 390.187C186.173 390.305 184.081 389.044 183.231 387.009L181.281 382.52C180.379 380.461 180.979 378.174 182.68 376.817L194.727 367.14C194.727 367.14 194.721 367.015 194.691 366.941L179.204 363.155C176.97 362.621 175.387 360.801 175.196 358.579L174.741 353.736C174.526 351.565 175.833 349.54 177.897 348.776L192.546 343.276C192.546 343.276 192.592 343.175 192.563 343.101L178.848 334.881C176.913 333.692 175.953 331.484 176.408 329.375L177.475 324.679C177.983 322.594 179.828 321.06 182.105 320.942L197.949 320.195C197.949 320.195 197.996 320.095 198.019 320.044L187.501 308.163C185.978 306.492 185.803 304.094 186.965 302.247L189.526 298.174C190.688 296.326 192.979 295.483 195.138 296.043L210.615 300.129C210.615 300.129 210.661 300.028 210.685 299.978L204.297 285.595C203.396 283.536 203.944 281.225 205.644 279.868L209.387 276.823C211.087 275.466 213.545 275.37 215.45 276.484L228.998 284.932C228.998 284.932 229.044 284.832 229.172 284.829L227.581 269.406C227.366 267.234 228.62 265.186 230.685 264.422L235.291 262.685C237.378 261.871 239.747 262.527 241.195 264.225L251.567 276.284C251.567 276.284 251.695 276.281 251.771 276.255L255.181 261.288C255.636 259.179 257.481 257.644 259.759 257.527L264.721 257.234C266.999 257.116 269.068 258.428 269.917 260.462L276.025 274.901C276.025 274.901 276.13 274.949 276.258 274.946L284.28 261.844C285.442 259.997 287.681 259.13 289.915 259.663L294.751 260.898C296.985 261.431 298.544 263.302 298.736 265.524L299.996 280.979C299.996 280.979 300.101 281.027 300.153 281.051L312.037 271.177C313.684 269.795 316.166 269.649 318.1 270.838L322.366 273.459C324.301 274.648 325.261 276.855 324.73 278.991L321.011 293.938C321.011 293.938 321.116 293.986 321.169 294.01L335.753 288.236C337.788 287.398 340.232 288.027 341.68 289.726L344.979 293.49C346.479 295.212 346.677 297.559 345.515 299.406L337.253 312.338C337.253 312.338 337.335 312.436 337.365 312.511L353.196 311.515C355.421 311.373 357.513 312.634 358.415 314.693L360.365 319.182C361.214 321.217 360.667 323.527 358.966 324.884L346.919 334.562C346.919 334.562 346.925 334.687 346.955 334.761L362.442 338.547C364.624 339.056 366.236 340.952 366.45 343.123L366.906 347.965C367.12 350.137 365.813 352.162 363.749 352.926L349.1 358.426C349.1 358.426 349.054 358.527 349.083 358.601L362.798 366.821C364.733 368.01 365.746 370.242 365.238 372.327L364.119 376.998C363.611 379.083 361.766 380.618 359.564 380.709L343.72 381.456C343.72 381.456 343.674 381.557 343.651 381.607L354.168 393.488C355.691 395.16 355.866 397.557 354.704 399.404L352.143 403.478C350.981 405.325 348.742 406.192 346.531 405.608L331.106 401.546C331.106 401.546 331.06 401.647 331.037 401.697L337.424 416.081C338.326 418.139 337.778 420.45 336.078 421.807L332.312 424.903C330.611 426.26 328.13 426.407 326.248 425.242L312.701 416.793C312.701 416.793 312.602 416.87 312.527 416.897L314.065 432.296C314.28 434.467 313.026 436.516 310.961 437.28L306.356 439.016C304.268 439.831 301.899 439.175 300.429 437.527L290.109 425.493C290.109 425.493 289.981 425.495 289.905 425.521L286.495 440.488C286.039 442.597 284.194 444.132 281.917 444.25L276.954 444.543C274.677 444.66 272.608 443.349 271.758 441.314L265.651 426.875C265.651 426.875 265.546 426.827 265.47 426.854L257.396 439.933C256.286 441.804 253.995 442.647 251.813 442.137L246.977 440.903C244.766 440.319 243.184 438.498 242.992 436.276L241.733 420.822C241.733 420.822 241.628 420.774 241.522 420.726L229.639 430.6C228.113 431.854 225.97 432.094 224.183 431.277L223.989 431.006ZM223.321 397.161C223.846 397.402 224.273 397.719 224.729 398.11C226.21 399.458 227.766 400.779 229.369 401.999C230.971 403.219 231.745 405.28 231.253 407.19L228.637 417.641L236.952 410.709C238.478 409.455 240.515 409.167 242.512 410.08C244.983 411.209 246.454 411.882 248.1 412.451C250.166 413.212 251.358 414.915 251.536 416.887L252.429 427.723L258.064 418.591C259.082 416.921 261.012 416.035 263.052 416.297C265.017 416.585 267.028 416.773 269.085 416.859C271.142 416.946 272.978 418.212 273.716 420.073L277.984 430.195L280.368 419.699C280.807 417.765 282.372 416.285 284.41 415.997C286.395 415.685 288.374 415.248 290.248 414.763C292.197 414.251 294.286 414.962 295.622 416.488L302.883 424.929L301.786 414.122C301.608 412.15 302.589 410.281 304.338 409.373C306.111 408.415 307.83 407.433 309.468 406.352C311.158 405.295 313.367 405.329 315.038 406.398L324.529 412.321L320.057 402.228C319.244 400.393 319.601 398.361 320.963 396.91C322.302 395.509 323.634 393.984 324.891 392.485C326.148 390.987 328.167 390.324 330.144 390.862L340.937 393.66L333.555 385.347C332.219 383.822 331.853 381.703 332.735 379.911C333.542 378.146 334.349 376.38 334.998 374.543C335.7 372.729 337.407 371.497 339.428 371.384L350.536 370.851L340.953 365.129C339.206 364.087 338.205 362.105 338.464 360.15C338.669 358.171 338.776 356.268 338.854 354.292C338.932 352.315 340.153 350.616 342.013 349.881L352.284 346.039L341.422 343.391C339.474 342.928 337.904 341.357 337.522 339.413C337.086 337.446 336.628 335.529 336.042 333.615C335.456 331.7 336.122 329.688 337.648 328.434L346.097 321.624L335.025 322.357C333.004 322.469 331.053 321.456 330.065 319.724C329.025 317.968 327.962 316.263 326.801 314.634C325.662 312.955 325.605 310.856 326.675 309.21L332.468 300.15L322.233 304.192C320.373 304.927 318.197 304.543 316.74 303.145C315.259 301.797 313.703 300.476 312.1 299.256C310.498 298.036 309.724 295.975 310.216 294.065L312.78 283.59L304.465 290.522C302.939 291.776 300.97 291.913 298.904 291.151C296.329 289.974 294.887 289.376 293.264 288.756C291.372 287.891 290.059 286.316 289.88 284.343L288.964 273.559L283.382 282.715C282.364 284.384 280.359 285.297 278.341 284.984C276.377 284.696 274.366 284.509 272.308 284.422C270.251 284.336 268.415 283.07 267.678 281.208L263.409 271.086L261.026 281.583C260.587 283.516 259.021 284.996 257.036 285.308C255.051 285.62 253.072 286.057 251.198 286.543C249.249 287.054 247.137 286.393 245.824 284.818L238.563 276.377L239.66 287.184C239.838 289.156 238.857 291.024 237.108 291.932C235.359 292.84 233.639 293.822 232.001 294.903C230.311 295.96 228.103 295.927 226.408 294.908L216.917 288.984L221.359 299.003C222.173 300.838 221.793 302.921 220.454 304.321C219.092 305.772 217.782 307.247 216.525 308.746C215.268 310.244 213.25 310.907 211.249 310.42L200.404 307.597L207.786 315.911C209.122 317.436 209.488 319.554 208.629 321.296C207.822 323.061 207.015 324.827 206.342 326.715C205.693 328.552 203.911 329.811 201.89 329.924L190.834 330.481L200.395 336.253C202.142 337.295 203.09 339.253 202.907 341.182C202.672 343.087 202.518 345.09 202.493 347.091C202.416 349.068 201.195 350.766 199.334 351.501L189.064 355.344L199.926 357.991C201.979 358.503 203.443 360.026 203.878 361.993C204.261 363.936 204.719 365.853 205.328 367.717C205.915 369.631 205.354 371.692 203.752 372.973L195.326 379.731L206.346 378.975C208.367 378.862 210.318 379.876 211.358 381.632C212.398 383.388 213.461 385.093 214.622 386.722C215.761 388.401 215.818 390.5 214.748 392.146L208.955 401.206L219.114 397.19C220.446 396.64 221.937 396.712 223.251 397.313L223.321 397.161Z" fill="#776503"/>
<path fill-rule="evenodd" clip-rule="evenodd" d="M214.732 315.73C233.503 286.198 273.867 277.816 304.801 297.017C335.736 316.217 345.551 355.766 326.779 385.298C308.008 414.83 267.719 423.186 236.71 404.012C205.776 384.812 195.884 345.289 214.679 315.706L214.732 315.73ZM290.728 315.158C288.362 315.053 286.424 316.789 286.389 319.09C286.354 321.392 288.199 323.332 290.565 323.438C292.931 323.544 294.868 321.807 294.903 319.506C294.991 317.229 293.094 315.264 290.728 315.158ZM250.999 377.614C248.633 377.508 246.695 379.245 246.66 381.546C246.625 383.847 248.47 385.788 250.836 385.894C253.202 386 255.139 384.263 255.175 381.962C255.21 379.661 253.365 377.72 250.999 377.614ZM307.802 371.075C307.838 368.774 305.993 366.833 303.627 366.728C301.284 366.571 299.323 368.358 299.288 370.659C299.2 372.937 301.098 374.901 303.464 375.007C305.83 375.113 307.767 373.376 307.802 371.075ZM242.328 330.417C242.363 328.116 240.518 326.175 238.152 326.069C235.786 325.963 233.849 327.7 233.814 330.001C233.778 332.302 235.623 334.243 237.989 334.349C240.355 334.454 242.293 332.718 242.328 330.417Z" fill="#FCEEA3"/>
<path d="M242.415 412.657C239.577 411.359 236.778 409.836 234.049 408.162C200.754 387.456 190.084 344.772 210.277 312.963C230.24 281.658 273.767 271.917 307.431 292.791C323.573 302.791 334.941 318.232 339.435 336.201C343.928 354.171 340.978 372.58 331.203 387.991C312.882 416.814 274.737 427.43 242.415 412.657ZM294.968 297.4C267.376 284.789 234.77 293.851 219.132 318.473C201.828 345.627 210.947 382.114 239.444 399.834C268.099 417.627 305.416 409.377 322.43 382.579C330.807 369.394 333.281 353.695 329.488 338.363C325.642 323.007 315.981 309.81 302.171 301.241C299.839 299.81 297.438 298.529 295.02 297.424L294.968 297.4ZM247.098 390.039C248.254 390.568 249.45 390.871 250.685 390.947C255.832 391.226 260.147 387.345 260.297 382.291C260.377 377.388 256.323 372.913 251.102 372.661C245.933 372.433 241.617 376.314 241.467 381.368C241.427 385.069 243.606 388.504 247.075 390.09L247.098 390.039ZM299.673 379.129C300.829 379.657 302.025 379.96 303.284 379.986C308.43 380.265 312.745 376.384 312.895 371.33C312.999 366.377 308.59 361.983 303.753 361.724C301.229 361.546 298.809 362.391 297.046 364.025C295.208 365.685 294.17 367.954 294.164 370.33C294.049 374.058 296.28 377.517 299.749 379.102L299.673 379.129ZM234.199 338.47C235.355 338.999 236.551 339.301 237.809 339.328C240.304 339.431 242.7 338.636 244.516 337.027C246.331 335.418 247.369 333.148 247.421 330.671C247.501 325.769 243.349 321.371 238.226 321.041C235.679 320.914 233.335 321.733 231.496 323.393C229.681 325.002 228.643 327.272 228.614 329.698C228.499 333.426 230.753 336.834 234.222 338.42L234.199 338.47ZM286.827 327.584C287.93 328.088 289.126 328.391 290.362 328.468C292.908 328.595 295.276 327.726 297.091 326.116C298.854 324.483 299.892 322.213 299.973 319.811C300.129 314.882 295.947 310.41 290.778 310.181C288.231 310.054 285.864 310.923 284.048 312.533C282.21 314.192 281.248 316.436 281.167 318.838C281.074 322.515 283.305 325.974 286.774 327.56L286.827 327.584Z" fill="#776503"/>
<path fill-rule="evenodd" clip-rule="evenodd" d="M217.646 317.551C199.898 345.538 209.197 383.022 238.512 401.177C267.804 419.383 306.038 411.491 323.809 383.453C341.609 355.49 332.235 318.032 302.966 299.776C273.674 281.571 235.417 289.513 217.669 317.5L217.646 317.551ZM291.97 306.458C298.299 306.79 303.342 312.022 303.197 318.176C303.053 324.33 297.833 329.078 291.428 328.773C285.099 328.441 280.08 323.159 280.201 317.055C280.316 310.827 285.589 306.103 291.918 306.434L291.97 306.458ZM250.056 372.305C256.438 372.661 261.427 377.869 261.283 384.023C261.116 390.227 255.896 394.976 249.514 394.62C243.185 394.289 238.166 389.006 238.31 382.852C238.454 376.698 243.674 371.95 250.003 372.282L250.056 372.305ZM316.705 372.584C316.561 378.738 311.341 383.486 304.959 383.131C298.63 382.799 293.587 377.567 293.732 371.413C293.876 365.259 299.096 360.511 305.478 360.866C311.807 361.198 316.849 366.43 316.682 372.634L316.705 372.584ZM247.73 329.715C247.585 335.869 242.365 340.618 236.036 340.286C229.655 339.931 224.665 334.723 224.756 328.545C224.901 322.391 230.121 317.643 236.502 317.998C242.831 318.33 247.874 323.562 247.707 329.766L247.73 329.715Z" fill="#FCEEA3"/>
<path d="M243.798 409.63C241.117 408.405 238.454 407.005 235.83 405.378C204.153 385.717 194.023 345.048 213.193 314.784C232.156 284.973 273.523 275.647 305.574 295.602C337.28 315.338 347.433 355.956 328.21 386.197C310.791 413.603 274.467 423.709 243.722 409.657L243.798 409.63ZM242.147 397.534C269.016 413.534 303.201 405.743 319.148 381.14C316.094 385.598 310.823 388.372 304.856 388.084C295.904 387.651 288.39 379.765 288.609 371.084C288.722 366.806 290.543 362.822 293.704 359.937C296.888 357.002 301.1 355.573 305.575 355.789C314.474 356.198 322.041 364.108 321.822 372.788C321.76 375.565 320.992 378.08 319.668 380.28C335.425 354.98 327.119 321.304 301.056 304.513C305.634 307.703 308.415 312.877 308.239 318.407C308.155 322.759 306.357 326.693 303.121 329.605C299.907 332.465 295.673 333.945 291.25 333.752C282.193 333.272 274.784 325.434 275.003 316.753C275.063 312.451 276.885 308.466 280.121 305.555C283.335 302.694 287.569 301.215 292.045 301.431C294.72 301.556 297.351 302.332 299.571 303.591C273.087 287.583 238.958 294.973 222.706 319.132C223.308 318.37 223.94 317.683 224.699 316.994C227.913 314.133 232.147 312.654 236.547 312.897C245.423 313.356 252.961 321.191 252.794 329.896C252.711 334.248 250.837 338.209 247.676 341.094C244.462 343.955 240.228 345.434 235.828 345.191C226.9 344.708 219.362 336.873 219.529 328.168C219.558 325.742 220.158 323.455 221.231 321.385C206.109 346.548 214.435 379.623 240.055 396.273C235.605 393.08 232.929 387.954 233.059 382.526C233.142 378.173 234.964 374.188 238.177 371.328C241.391 368.467 245.573 366.964 250.025 367.23C258.977 367.663 266.491 375.549 266.272 384.23C266.189 388.582 264.39 392.517 261.154 395.428C257.94 398.288 253.706 399.768 249.283 399.576C246.736 399.448 244.262 398.744 242.019 397.536L242.147 397.534ZM252.368 377.814C251.579 377.453 250.774 377.268 249.9 377.235C248.228 377.141 246.64 377.696 245.387 378.769C244.186 379.867 243.494 381.38 243.427 383.057C243.368 386.384 246.161 389.307 249.612 389.543C251.284 389.636 252.925 389.106 254.148 387.957C255.349 386.86 256.041 385.346 256.108 383.67C256.16 381.193 254.68 378.871 252.315 377.79L252.368 377.814ZM307.812 366.324C307.024 365.964 306.219 365.779 305.398 365.769C303.725 365.676 302.085 366.206 300.861 367.354C299.66 368.452 298.969 369.965 298.901 371.642C298.842 374.969 301.636 377.892 305.086 378.128C308.559 378.313 311.477 375.683 311.559 372.305C311.611 369.829 310.154 367.456 307.789 366.375L307.812 366.324ZM238.837 323.456C238.101 323.12 237.244 322.911 236.422 322.901C234.697 322.783 233.109 323.338 231.909 324.436C230.656 325.509 229.964 327.023 229.949 328.723C229.913 332 232.683 334.973 236.157 335.158C237.829 335.252 239.47 334.721 240.671 333.624C241.871 332.526 242.563 331.013 242.63 329.336C242.682 326.86 241.202 324.537 238.837 323.456ZM294.282 311.966C293.546 311.63 292.689 311.421 291.89 311.361C290.165 311.243 288.577 311.798 287.353 312.946C286.153 314.044 285.461 315.557 285.417 317.183C285.358 320.51 288.128 323.484 291.602 323.669C293.274 323.763 294.862 323.208 296.138 322.084C297.339 320.986 298.031 319.473 298.098 317.796C298.173 315.269 296.67 312.997 294.305 311.916L294.282 311.966Z" fill="#776503"/>
<path fill-rule="evenodd" clip-rule="evenodd" d="M49.4265 503.909C20.3361 491.101 -2.44117 468.373 -13.7954 439.279L-140.178 116.803C-168.994 43.2025 -63.9289 -7.62314 -20.3806 62.1013L147.243 276.834L236.993 245.474C369.011 199.345 449.638 402.853 317.62 448.982L149.076 507.746C115.505 519.477 79.6732 517.246 49.4035 503.96L49.4265 503.909ZM291.514 403.511C321.229 393.128 335.938 360.946 324.345 331.682C312.774 302.368 279.243 287.042 249.452 297.451C219.736 307.834 205.027 340.016 216.621 369.28C228.192 398.594 261.723 413.92 291.514 403.511ZM-66.3398 124.149C-48.5942 117.99 -39.8101 98.7721 -46.766 81.3237C-53.6693 63.8993 -73.6406 54.7711 -91.3862 60.9293C-109.079 67.1115 -117.863 86.3298 -110.96 103.754C-104.004 121.203 -84.0328 130.331 -66.3398 124.149Z" fill="url(#paint0_linear_1613_36811)"/>
<path d="M295.747 295.134C280.348 288.095 263.214 287.216 247.563 292.684C231.911 298.153 219.557 309.337 212.824 324.066C206.069 338.845 205.697 355.505 211.804 370.919C217.911 386.333 229.788 398.713 245.187 405.752C260.586 412.79 277.667 413.646 293.372 408.201C309.023 402.732 321.378 391.549 328.133 376.769C334.888 361.99 335.237 345.38 329.13 329.966C323.023 314.552 311.146 302.172 295.747 295.134ZM289.602 398.794C276.521 403.365 262.167 402.658 249.291 396.773C236.415 390.888 226.517 380.571 221.384 367.614C216.28 354.732 216.56 340.774 222.209 328.416C227.857 316.058 238.153 306.738 251.309 302.141C264.443 297.595 278.744 298.277 291.62 304.163C304.497 310.048 314.394 320.365 319.527 333.321C324.631 346.204 324.351 360.162 318.702 372.52C313.054 384.878 302.735 394.248 289.602 398.794Z" fill="#776503"/>
<path d="M390.117 359.731C391.133 310.802 361.821 262.891 318.778 243.217C293.025 231.447 264.064 230.588 235.029 240.733L148.832 270.852L-16.1228 59.5949C-24.568 46.1002 -35.4949 36.2275 -48.6339 30.2221C-74.4391 18.4274 -106.469 23.7277 -128.29 43.3898C-149.671 62.6436 -156.022 90.718 -145.094 118.519L-18.7106 440.995C-7.21527 470.336 15.6366 494.013 45.5936 507.706L47.3281 508.498C79.6475 522.722 117.415 524.19 150.859 512.463L319.403 453.698C363.333 438.348 389.096 404.084 390.041 359.758L390.117 359.731ZM315.732 444.215L147.188 502.979C116.187 513.811 81.2746 512.489 51.3958 499.32L49.8192 498.6C22.3848 486.06 1.45992 464.422 -9.03235 437.613L-135.415 115.137C-144.728 91.3069 -139.399 67.2773 -121.058 50.7809C-102.178 33.7994 -74.7063 29.1596 -52.6326 39.2487C-41.4381 44.3654 -32.0446 52.8663 -24.4393 65.0015L143.184 279.734C144.585 281.533 146.984 282.264 149.101 281.524L238.875 250.113C265.286 240.842 291.497 241.602 314.727 252.22C353.408 269.9 380.823 314.871 379.878 359.198C379.022 399.297 355.655 430.265 315.732 444.215Z" fill="#776503"/>
<path fill-rule="evenodd" clip-rule="evenodd" d="M-88.8097 157.602C-58.6206 162.863 -28.4992 147.421 -16.4275 120.315L136.085 315.702L198.238 293.985C157.371 344.334 186.561 421.704 251.978 436.908L136.944 477.018C92.1065 492.685 35.643 474.987 17.438 428.494L-88.734 157.575L-88.8097 157.602Z" fill="url(#paint1_linear_1613_36811)"/>
<path d="M58.9157 478.002C37.2625 468.105 20.7594 451.11 12.5452 430.16L-93.6268 159.241C-94.3054 157.528 -93.988 155.722 -92.8528 154.351C-91.7177 152.979 -89.903 152.345 -88.0893 152.686C-59.8947 157.585 -32.4003 143.443 -21.1817 118.203C-20.4439 116.589 -18.9345 115.51 -17.1235 115.301C-15.3356 115.143 -13.5257 115.909 -12.3999 117.338L137.75 309.693L196.296 289.194C198.436 288.404 200.917 289.233 202.318 291.032C203.696 292.881 203.697 295.382 202.272 297.109C186.133 316.99 180.698 342.922 187.291 368.253C195.511 399.756 220.751 424.464 253.008 432.012C255.294 432.569 256.877 434.39 257.068 436.612C257.26 438.834 255.953 440.859 253.836 441.599L138.802 481.708C112.942 490.744 83.8273 489.388 58.9681 478.026L58.9157 478.002ZM-81.015 163.481L22.1478 426.804C29.5 445.471 43.6197 460.034 63.0129 468.898C85.0866 478.988 112.017 480.259 135.002 472.228L235.973 437.032C206.964 425.297 185.168 400.7 177.268 370.441C171.252 347.324 174.194 323.789 185.246 303.779L137.913 320.317C135.796 321.057 133.375 320.377 131.997 318.528L-15.4619 129.598C-28.8039 151.977 -54.0953 165.053 -80.9919 163.431L-81.015 163.481Z" fill="#776503"/>
<path d="M-33.9468 205.91C-44.826 200.937 -49.8347 188.404 -45.0623 177.962C-40.2899 167.521 -27.5871 163.082 -16.6849 168.004C-5.80579 172.977 -0.79705 185.511 -5.56945 195.952C-10.3419 206.393 -23.0676 210.882 -33.9468 205.91ZM-20.7593 177.057C-26.4354 174.463 -33.0891 176.788 -35.5791 182.236C-38.069 187.683 -35.4729 194.236 -29.7443 196.855C-24.0157 199.473 -17.4144 197.124 -14.9245 191.676C-12.4345 186.228 -15.0306 179.676 -20.7067 177.081L-20.7593 177.057Z" fill="#776503"/>
<path fill-rule="evenodd" clip-rule="evenodd" d="M255.734 343.618C252.092 351.587 255.868 361.119 264.224 364.938C272.581 368.758 282.154 365.328 285.797 357.358C289.439 349.388 285.663 339.857 277.359 336.062C269.055 332.266 259.377 335.648 255.734 343.618Z" fill="url(#paint2_linear_1613_36811)"/>
<path d="M262.149 369.478C251.269 364.505 246.261 351.971 251.033 341.53C255.805 331.089 268.508 326.65 279.387 331.623C290.266 336.595 295.275 349.129 290.503 359.57C285.731 370.012 273.005 374.501 262.126 369.528L262.149 369.478ZM275.336 340.625C269.66 338.031 263.006 340.356 260.516 345.803C258.026 351.251 260.622 357.804 266.351 360.422C272.08 363.041 278.681 360.692 281.171 355.244C283.661 349.796 281.065 343.244 275.336 340.625Z" fill="#776503"/>
<path fill-rule="evenodd" clip-rule="evenodd" d="M133.316 380.414L125.546 397.413L117.754 414.462L98.5338 415.922L79.2385 417.408L67.7883 401.869L56.3151 386.381L64.1077 369.331L71.8773 352.333L91.12 350.822L110.363 349.312L121.865 364.875L133.316 380.414Z" fill="url(#paint3_linear_1613_36811)"/>
<path fill-rule="evenodd" clip-rule="evenodd" d="M132.472 380.455L117.255 413.747L98.4202 415.199L79.585 416.652L70.898 404.937L123.732 368.716L132.419 380.431L132.472 380.455ZM65.8705 398.005L118.757 361.808L110.093 350.043L91.2582 351.495L72.4229 352.948L57.2066 386.239L65.8705 398.005ZM143.077 379.632L114.306 340.687L66.0299 344.416L46.5253 387.089L75.2968 426.034L123.573 422.305L143.077 379.632Z" fill="#776503"/>
</g>
<defs>
<linearGradient id="paint0_linear_1613_36811" x1="164.051" y1="132.819" x2="3.91766" y2="483.17" gradientUnits="userSpaceOnUse">
<stop stop-color="#FCD1A3"/>
<stop offset="0.519298" stop-color="#DDBC06"/>
<stop offset="1" stop-color="#776503"/>
</linearGradient>
<linearGradient id="paint1_linear_1613_36811" x1="131.545" y1="187.948" x2="11.3986" y2="450.812" gradientUnits="userSpaceOnUse">
<stop offset="0.519298" stop-color="#FBD921"/>
<stop offset="1" stop-color="#958114"/>
</linearGradient>
<linearGradient id="paint2_linear_1613_36811" x1="277.359" y1="336.062" x2="264.172" y2="364.914" gradientUnits="userSpaceOnUse">
<stop stop-color="#FCD1A3"/>
<stop offset="0.519298" stop-color="#DDBC06"/>
<stop offset="1" stop-color="#776503"/>
</linearGradient>
<linearGradient id="paint3_linear_1613_36811" x1="110.389" y1="349.324" x2="79.2648" y2="417.42" gradientUnits="userSpaceOnUse">
<stop stop-color="#FCD1A3"/>
<stop offset="0.519298" stop-color="#DDBC06"/>
<stop offset="1" stop-color="#776503"/>
</linearGradient>
</defs>
</svg>
