<svg width="311" height="215" viewBox="0 0 311 215" fill="none" xmlns="http://www.w3.org/2000/svg">
<g opacity="0.5" filter="url(#filter0_f_1330_20411)">
<path fill-rule="evenodd" clip-rule="evenodd" d="M277.714 75.9171L286.349 76.9091L287.555 83.3436L279.913 87.4725L287.824 91.092L286.992 97.5802L278.438 99.1352L284.82 105.034L282.031 110.959L273.424 109.779L277.687 117.367L273.183 122.139L265.352 118.359L267.069 126.884L261.33 130.048L255.029 124.042L254.037 132.649L247.601 133.882L243.471 126.241L239.851 134.123L233.362 133.319L231.807 124.74L225.908 131.147L219.981 128.332L221.161 119.753L213.573 123.989L208.8 119.511L212.58 111.683L204.053 113.372L200.916 107.634L206.923 101.36L198.288 100.369L197.055 93.9071L204.724 89.805L196.813 86.1588L197.644 79.6706L206.198 78.1423L199.817 72.244L202.578 66.3189L211.213 67.4717L206.949 59.911L211.427 55.1387L219.257 58.9191L217.568 50.3932L223.307 47.2295L229.581 53.2352L230.6 44.6289L237.009 43.3956L241.139 51.0367L244.785 43.1543L251.275 43.9586L252.803 52.5112L258.702 46.1303L264.629 48.9186L263.475 57.5249L271.037 53.2888L275.81 57.7662L272.056 65.5949L280.557 63.8791L283.721 69.6165L277.714 75.9171Z" fill="#FCEEA3"/>
<path d="M239.851 136.536C239.851 136.536 239.663 136.536 239.556 136.536L233.067 135.732C232.021 135.598 231.19 134.82 231.002 133.775L230.305 129.968L227.677 132.81C226.953 133.587 225.827 133.802 224.888 133.346L218.962 130.558C218.024 130.102 217.461 129.11 217.621 128.064L218.131 124.23L214.752 126.134C213.841 126.643 212.688 126.509 211.937 125.785L207.164 121.308C206.386 120.584 206.171 119.458 206.654 118.52L208.344 115.034L204.563 115.785C203.517 115.999 202.498 115.517 201.988 114.578L198.851 108.841C198.341 107.929 198.502 106.776 199.226 106.026L201.908 103.237L198.073 102.782C197.028 102.674 196.196 101.87 195.982 100.851L194.748 94.4166C194.561 93.3978 195.043 92.3522 195.982 91.8428L199.387 90.0196L195.874 88.411C194.909 87.982 194.373 86.9632 194.507 85.9176L195.311 79.4293C195.445 78.3837 196.223 77.5526 197.269 77.3649L201.077 76.6678L198.234 74.0404C197.457 73.3433 197.242 72.1905 197.698 71.2521L200.487 65.3268C200.942 64.3617 201.935 63.8255 202.98 63.9596L206.815 64.469L204.911 61.0908C204.402 60.1792 204.536 59.0264 205.26 58.2757L209.738 53.5034C210.462 52.7258 211.588 52.5382 212.527 52.9939L216.013 54.683L215.262 50.9027C215.047 49.8839 215.53 48.8382 216.468 48.3288L222.207 45.1652C223.119 44.6558 224.272 44.7899 225.022 45.5406L227.811 48.2216L228.267 44.3876C228.401 43.342 229.179 42.5109 230.198 42.2964L236.633 41.0631C237.679 40.8754 238.698 41.358 239.208 42.2964L241.031 45.7014L242.64 42.1892C243.069 41.224 244.115 40.6609 245.134 40.795L251.623 41.6261C252.669 41.7602 253.5 42.5645 253.688 43.5833L254.385 47.3904L257.013 44.5485C257.71 43.771 258.863 43.5565 259.802 44.0123L265.728 46.8007C266.666 47.2564 267.229 48.2484 267.095 49.294L266.586 53.128L269.938 51.2512C270.849 50.7418 272.002 50.8758 272.753 51.5997L277.526 56.0772C278.304 56.8011 278.492 57.9271 278.036 58.8655L276.373 62.3509L280.181 61.6002C281.2 61.3857 282.246 61.8951 282.755 62.8066L285.919 68.5442C286.429 69.4557 286.268 70.6086 285.544 71.3593L282.862 74.1476L286.697 74.6034C287.743 74.7375 288.574 75.515 288.789 76.5338L290.022 82.9684C290.21 83.9872 289.727 85.0328 288.789 85.5422L285.383 87.3653L288.896 88.974C289.861 89.403 290.397 90.4217 290.263 91.4674L289.459 97.9556C289.325 99.0012 288.52 99.8323 287.501 100.02L283.694 100.717L286.536 103.345C287.314 104.068 287.528 105.194 287.072 106.133L284.284 112.058C283.828 113.023 282.809 113.559 281.79 113.425L277.955 112.916L279.832 116.294C280.342 117.206 280.208 118.359 279.484 119.109L275.006 123.882C274.282 124.659 273.155 124.874 272.217 124.391L268.731 122.729L269.482 126.536C269.696 127.555 269.187 128.6 268.275 129.11L262.537 132.273C261.625 132.783 260.472 132.622 259.721 131.898L256.932 129.217L256.476 133.051C256.342 134.097 255.565 134.928 254.546 135.142L248.11 136.375C247.091 136.59 246.045 136.081 245.536 135.142L243.713 131.737L242.104 135.249C241.701 136.107 240.843 136.644 239.932 136.644L239.851 136.536ZM235.4 131.147L238.403 131.523L241.299 125.222C241.675 124.391 242.506 123.855 243.418 123.828C244.302 123.855 245.187 124.284 245.616 125.088L248.915 131.201L251.891 130.638L252.696 123.774C252.803 122.863 253.42 122.085 254.278 121.79C255.162 121.469 256.101 121.683 256.745 122.327L261.759 127.126L264.414 125.678L263.073 118.868C262.885 117.983 263.234 117.045 263.958 116.509C264.682 115.946 265.647 115.865 266.478 116.241L272.7 119.243L274.764 117.045L271.386 111.012C270.93 110.235 270.983 109.243 271.493 108.492C272.002 107.742 272.887 107.339 273.799 107.473L280.664 108.412L281.951 105.677L276.856 100.985C276.186 100.369 275.917 99.4302 276.186 98.5454C276.454 97.6607 277.178 97.0172 278.063 96.8564L284.874 95.6231L285.249 92.6203L278.947 89.7247C278.116 89.3493 277.58 88.5182 277.553 87.6066C277.526 86.695 278.009 85.8372 278.813 85.4082L284.9 82.1373L284.337 79.1612L277.446 78.3569C276.534 78.2497 275.783 77.633 275.462 76.7751C275.14 75.9172 275.354 74.9519 275.998 74.3085L280.798 69.2949L279.35 66.6406L272.565 68.0079C271.681 68.1956 270.742 67.8471 270.206 67.1232C269.643 66.3993 269.535 65.4341 269.938 64.603L272.941 58.3561L270.742 56.2916L264.709 59.6698C263.904 60.1256 262.939 60.0719 262.188 59.5625C261.437 59.0531 261.035 58.1416 261.169 57.2569L262.081 50.3933L259.346 49.1064L254.653 54.2004C254.036 54.8707 253.071 55.1388 252.213 54.8707C251.328 54.6294 250.684 53.8787 250.524 52.9939L249.29 46.184L246.287 45.8086L243.391 52.1091C243.015 52.9403 242.184 53.4766 241.272 53.5034C240.361 53.5034 239.503 53.0476 239.074 52.2433L235.775 46.1304L232.826 46.6934L232.021 53.5838C231.914 54.4954 231.297 55.246 230.439 55.5678C229.581 55.8627 228.616 55.675 227.972 55.0315L222.958 50.2324L220.303 51.6802L221.671 58.4901C221.858 59.3749 221.51 60.3133 220.786 60.8495C220.062 61.4125 219.096 61.5198 218.265 61.1176L212.017 58.1147L209.952 60.3132L213.331 66.3457C213.787 67.15 213.733 68.1152 213.224 68.8659C212.714 69.6166 211.803 70.0188 210.918 69.8847L204.053 68.9463L202.766 71.6811L207.861 76.373C208.531 76.9896 208.799 77.9279 208.531 78.8127C208.263 79.6974 207.539 80.3409 206.654 80.5018L199.843 81.7351L199.468 84.7379L205.742 87.6334C206.574 88.0088 207.11 88.8399 207.137 89.7515C207.137 90.6631 206.681 91.521 205.876 91.95L199.763 95.2209L200.326 98.1969L207.217 99.0012C208.129 99.1084 208.88 99.7252 209.202 100.583C209.523 101.441 209.309 102.406 208.665 103.05L203.865 108.063L205.313 110.718L212.098 109.35C213.009 109.163 213.921 109.511 214.484 110.235C215.047 110.959 215.154 111.924 214.752 112.755L211.749 119.002L213.948 121.066L219.981 117.688C220.786 117.233 221.751 117.286 222.502 117.796C223.253 118.305 223.655 119.217 223.521 120.101L222.609 126.965L225.344 128.252L230.037 123.158C230.654 122.487 231.592 122.219 232.477 122.487C233.362 122.729 234.005 123.479 234.166 124.364L235.4 131.174V131.147Z" fill="#776503"/>
<path fill-rule="evenodd" clip-rule="evenodd" d="M279.054 67.1239L280.181 69.1616L274.013 75.623C274.388 76.5614 274.737 77.4997 275.032 78.4917L283.908 79.5373L284.337 81.8163L276.453 86.0523C276.507 87.0712 276.561 88.0632 276.534 89.082L284.659 92.8355L284.364 95.1412L275.568 96.7231C275.327 97.7151 275.032 98.6802 274.71 99.6186L281.28 105.705L280.288 107.823L271.412 106.616C270.876 107.474 270.313 108.305 269.723 109.136L274.094 116.938L272.511 118.627L264.44 114.74C263.662 115.383 262.885 116 262.027 116.59L263.77 125.357L261.732 126.483L255.269 120.29C254.331 120.692 253.366 121.04 252.427 121.335L251.381 130.21L249.102 130.639L244.865 122.756C243.846 122.837 242.827 122.864 241.835 122.864L238.081 130.987L235.775 130.692L234.166 121.872C233.201 121.63 232.208 121.362 231.243 121.04L225.156 127.609L223.064 126.617L224.271 117.743C223.413 117.206 222.582 116.643 221.751 116.027L213.947 120.397L212.258 118.815L216.146 110.745C215.476 109.994 214.886 109.19 214.296 108.359L205.527 110.128L204.401 108.091L210.596 101.629C210.22 100.691 209.871 99.7258 209.577 98.7875L200.701 97.7419L200.272 95.463L208.155 91.2268C208.075 90.208 208.048 89.1892 208.048 88.1972L199.923 84.4705L200.218 82.1648L209.04 80.5562C209.282 79.5642 209.577 78.599 209.898 77.6338L203.329 71.5745L204.321 69.4565L213.197 70.663C213.733 69.805 214.296 68.9738 214.886 68.1695L210.515 60.3677L212.124 58.6786L220.195 62.5393C220.946 61.8959 221.751 61.2792 222.582 60.6894L220.839 51.9222L222.877 50.7962L229.339 56.9895C230.278 56.5873 231.243 56.2387 232.208 55.9438L233.254 47.0694L235.56 46.6405L239.797 54.4961C240.816 54.4157 241.835 54.3888 242.827 54.4157L246.581 46.292L248.887 46.5869L250.496 55.4076C251.488 55.6489 252.454 55.9439 253.392 56.2388L259.479 49.6701L261.598 50.6621L260.391 59.5365C261.249 60.0727 262.08 60.6357 262.912 61.2255L270.715 56.8554L272.404 58.464L268.516 66.5073C269.16 67.2848 269.776 68.0891 270.366 68.8935L279.135 67.1508L279.054 67.1239Z" fill="#FCEEA3"/>
<path d="M238.108 133.427C238.108 133.427 237.894 133.427 237.813 133.427L235.507 133.132C234.461 132.998 233.63 132.221 233.442 131.175L232.129 123.883C232.129 123.883 232.075 123.883 232.048 123.883L227.007 129.352C226.283 130.13 225.157 130.344 224.218 129.888L222.127 128.896C221.188 128.441 220.652 127.449 220.786 126.403L221.778 119.057C221.778 119.057 221.724 119.03 221.697 119.003L215.235 122.623C214.297 123.132 213.17 122.998 212.419 122.274L210.73 120.692C209.953 119.968 209.765 118.842 210.221 117.904L213.438 111.228C213.438 111.228 213.412 111.174 213.385 111.148L206.118 112.595C205.072 112.81 204.053 112.327 203.544 111.389L202.417 109.351C201.908 108.44 202.069 107.287 202.793 106.536L207.915 101.174C207.915 101.174 207.915 101.12 207.888 101.094L200.514 100.236C199.468 100.102 198.637 99.3241 198.422 98.3053L197.966 96.0263C197.778 95.0075 198.261 93.9619 199.2 93.4525L205.743 89.9403C205.743 89.9403 205.743 89.8867 205.743 89.8599L199.012 86.7498C198.047 86.3208 197.51 85.302 197.644 84.2564L197.939 81.9507C198.073 80.905 198.878 80.0739 199.897 79.8863L207.217 78.5725C207.217 78.5725 207.217 78.5189 207.217 78.492L201.747 73.4516C200.969 72.7277 200.755 71.6017 201.211 70.6633L202.203 68.5721C202.659 67.6337 203.678 67.0975 204.697 67.2047L212.044 68.1967C212.044 68.1967 212.044 68.1431 212.098 68.1163L208.451 61.6549C207.941 60.7433 208.075 59.5905 208.799 58.8398L210.408 57.1507C211.132 56.3732 212.259 56.1855 213.197 56.6413L219.901 59.8586C219.901 59.8586 219.955 59.8317 219.981 59.8049L218.533 52.5392C218.319 51.5204 218.802 50.4748 219.74 49.9654L221.778 48.8393C222.716 48.3299 223.843 48.4908 224.594 49.2147L229.957 54.3356C229.957 54.3356 230.01 54.3356 230.064 54.3088L230.922 46.9358C231.056 45.8902 231.834 45.059 232.879 44.8445L235.159 44.4156C236.204 44.2011 237.223 44.7105 237.733 45.6488L241.246 52.1907C241.246 52.1907 241.299 52.1907 241.326 52.1907L244.437 45.4612C244.866 44.5228 245.885 43.9598 246.93 44.0938L249.237 44.3887C250.282 44.5228 251.114 45.3003 251.301 46.3459L252.615 53.6653C252.615 53.6653 252.669 53.6653 252.696 53.6653L257.737 48.1959C258.434 47.4184 259.587 47.2039 260.526 47.6596L262.644 48.6516C263.609 49.1074 264.146 50.0995 264.012 51.1451L263.019 58.4912C263.019 58.4912 263.073 58.518 263.1 58.5448L269.589 54.9254C270.501 54.416 271.627 54.55 272.405 55.2739L274.094 56.8558C274.845 57.5797 275.059 58.7057 274.604 59.6441L271.386 66.32C271.386 66.32 271.413 66.3736 271.439 66.4004L278.706 64.9526C279.725 64.7381 280.771 65.2475 281.281 66.1591L282.407 68.1967C282.916 69.1083 282.755 70.2612 282.031 71.0119L276.91 76.3741C276.91 76.3741 276.91 76.4277 276.937 76.4545L284.311 77.3124C285.356 77.4464 286.215 78.2239 286.402 79.2427L286.831 81.5217C287.019 82.5405 286.536 83.5861 285.625 84.0687L279.082 87.5809C279.082 87.5809 279.082 87.6346 279.082 87.6614L285.812 90.7714C286.778 91.2004 287.314 92.2192 287.18 93.2648L286.885 95.5705C286.751 96.6161 285.973 97.4473 284.927 97.635L277.634 98.9487C277.634 98.9487 277.634 99.0023 277.634 99.0291L283.104 104.07C283.882 104.793 284.096 105.92 283.64 106.858L282.648 108.976C282.192 109.914 281.173 110.477 280.154 110.343L272.807 109.351C272.807 109.351 272.78 109.405 272.753 109.432L276.373 115.893C276.883 116.805 276.749 117.958 276.025 118.708L274.416 120.397C273.692 121.175 272.566 121.363 271.627 120.934L264.95 117.716C264.95 117.716 264.897 117.743 264.87 117.77L266.318 125.036C266.532 126.054 266.05 127.1 265.111 127.609L263.073 128.736C262.135 129.245 261.008 129.084 260.258 128.36L254.895 123.239C254.895 123.239 254.841 123.239 254.814 123.266L253.929 130.639C253.822 131.685 253.018 132.516 251.999 132.73L249.719 133.159C248.673 133.347 247.655 132.864 247.145 131.926L243.632 125.384C243.632 125.384 243.579 125.384 243.525 125.384L240.414 132.114C240.012 132.972 239.154 133.508 238.242 133.508L238.108 133.427ZM231.297 118.681C231.565 118.681 231.807 118.735 232.075 118.815C232.96 119.11 233.872 119.379 234.783 119.593C235.695 119.808 236.419 120.558 236.58 121.497L237.492 126.617L239.664 121.899C240.066 121.041 240.87 120.505 241.889 120.505C243.15 120.505 243.9 120.505 244.705 120.424C245.724 120.344 246.555 120.853 247.011 121.684L249.478 126.269L250.095 121.121C250.202 120.183 250.846 119.405 251.757 119.11C252.642 118.842 253.527 118.521 254.412 118.145C255.297 117.77 256.316 117.958 256.986 118.628L260.74 122.22L259.721 117.126C259.534 116.188 259.909 115.223 260.713 114.687C261.491 114.15 262.242 113.561 262.939 112.971C263.663 112.354 264.682 112.247 265.54 112.649L270.233 114.901L267.685 110.37C267.229 109.539 267.283 108.52 267.846 107.769C268.409 106.992 268.946 106.214 269.428 105.41C269.938 104.606 270.876 104.177 271.788 104.311L276.937 105.008L273.102 101.469C272.405 100.825 272.163 99.8603 272.458 98.9487C272.753 98.0639 273.022 97.1256 273.263 96.214C273.504 95.3025 274.228 94.6054 275.167 94.4445L280.262 93.5061L275.542 91.3344C274.684 90.9323 274.121 90.0744 274.148 89.1092C274.148 88.1708 274.148 87.2324 274.067 86.294C274.014 85.3556 274.496 84.4708 275.328 84.0151L279.913 81.5485L274.764 80.9587C273.826 80.8514 273.022 80.1812 272.753 79.2696C272.458 78.358 272.137 77.5001 271.788 76.6153C271.439 75.7306 271.627 74.7385 272.271 74.0414L275.864 70.288L270.769 71.3068C269.857 71.4945 268.892 71.1191 268.356 70.3416C267.793 69.5641 267.229 68.8133 266.613 68.0895C265.996 67.3656 265.889 66.3467 266.291 65.4888L268.543 60.7969L264.012 63.344C263.18 63.7998 262.161 63.7461 261.411 63.1831C260.633 62.6201 259.855 62.0839 259.051 61.6013C258.246 61.0919 257.817 60.1803 257.951 59.2419L258.649 54.0942L255.109 57.9282C254.466 58.6253 253.473 58.8934 252.588 58.5717C251.704 58.2767 250.792 58.0086 249.88 57.7941C248.968 57.5796 248.244 56.829 248.083 55.8906L247.145 50.7697L244.973 55.4884C244.571 56.3464 243.766 56.8021 242.747 56.8826C241.433 56.8826 240.709 56.9094 239.905 56.963C238.94 56.963 238.081 56.534 237.626 55.7029L235.159 51.1451L234.569 56.2927C234.461 57.2311 233.791 58.0354 232.879 58.3035C231.994 58.5716 231.11 58.8934 230.225 59.2688C229.34 59.6441 228.321 59.4564 227.65 58.7861L223.896 55.1935L224.915 60.2876C225.103 61.226 224.728 62.1911 223.95 62.7273C223.172 63.2635 222.422 63.8534 221.724 64.4432C221 65.0599 219.981 65.1939 219.123 64.7649L214.431 62.5128L216.978 67.0439C217.434 67.875 217.38 68.8938 216.817 69.6445C216.254 70.3952 215.718 71.1727 215.235 71.977C214.726 72.7814 213.787 73.2104 212.875 73.1031L207.727 72.406L211.535 75.9182C212.232 76.5617 212.473 77.5537 212.178 78.4385C211.883 79.35 211.615 80.2616 211.374 81.1731C211.132 82.0847 210.408 82.7818 209.47 82.9695L204.348 83.9079L209.068 86.0795C209.926 86.4817 210.489 87.3396 210.462 88.278C210.462 89.2163 210.462 90.1548 210.542 91.12C210.623 92.0584 210.113 92.9699 209.282 93.4257L204.724 95.8923L209.872 96.5089C210.811 96.6161 211.588 97.2864 211.883 98.1712C212.151 99.0559 212.473 99.9675 212.849 100.852C213.197 101.737 213.009 102.729 212.366 103.426L208.773 107.18L213.868 106.161C214.833 105.973 215.745 106.349 216.308 107.126C216.844 107.904 217.407 108.654 218.024 109.351C218.641 110.075 218.801 111.094 218.372 111.979L216.12 116.644L220.625 114.097C221.456 113.641 222.475 113.695 223.253 114.258C224.03 114.821 224.808 115.357 225.613 115.84C226.417 116.349 226.846 117.26 226.712 118.199L226.015 123.347L229.528 119.539C229.983 119.03 230.627 118.762 231.297 118.762V118.681Z" fill="#776503"/>
<path fill-rule="evenodd" clip-rule="evenodd" d="M211.964 84.6036C214.19 67.8468 229.608 56.0501 246.368 58.2754C263.127 60.5007 274.899 75.9169 272.673 92.6736C270.448 109.43 255.056 121.2 238.269 119.002C221.51 116.777 209.711 101.387 211.937 84.6036H211.964ZM243.927 69.0802C242.908 69.5092 242.426 70.662 242.855 71.6808C243.284 72.6996 244.437 73.1822 245.456 72.7532C246.475 72.3243 246.958 71.1714 246.528 70.1526C246.126 69.1338 244.946 68.6512 243.927 69.0802ZM239.208 104.524C238.189 104.953 237.706 106.106 238.135 107.125C238.564 108.144 239.717 108.626 240.736 108.197C241.755 107.768 242.238 106.615 241.809 105.596C241.38 104.578 240.227 104.095 239.208 104.524ZM261.92 90.2338C261.491 89.215 260.338 88.7325 259.319 89.1614C258.3 89.5636 257.818 90.7433 258.247 91.7621C258.649 92.7809 259.829 93.2635 260.848 92.8345C261.867 92.4055 262.349 91.2527 261.92 90.2338ZM226.444 85.5151C226.015 84.4963 224.862 84.0137 223.843 84.4427C222.824 84.8717 222.341 86.0245 222.77 87.0434C223.199 88.0622 224.352 88.5447 225.371 88.1158C226.39 87.6868 226.873 86.5339 226.444 85.5151Z" fill="#FCEEA3"/>
<path d="M242.345 121.657C240.897 121.657 239.422 121.549 237.947 121.362C219.901 118.949 207.164 102.326 209.55 84.2823C211.937 66.5067 228.428 53.4767 246.662 55.8897C255.404 57.0425 263.18 61.5467 268.543 68.5443C273.906 75.542 276.212 84.2286 275.059 92.9689C272.887 109.324 258.836 121.657 242.345 121.657ZM242.291 60.4207C228.213 60.4207 216.2 70.9573 214.35 84.9257C212.285 100.342 223.172 114.552 238.618 116.616C254.144 118.68 268.302 107.554 270.313 92.3523C271.305 84.8721 269.321 77.4724 264.762 71.4935C260.177 65.5147 253.554 61.654 246.072 60.662C244.812 60.5011 243.552 60.4207 242.318 60.4207H242.291ZM239.958 110.771C240.548 110.771 241.111 110.664 241.648 110.45C243.873 109.538 244.946 106.964 244.034 104.712C243.123 102.54 240.548 101.388 238.296 102.326C236.07 103.264 234.998 105.838 235.909 108.09C236.607 109.726 238.189 110.798 239.958 110.798V110.771ZM260.043 95.4087C260.633 95.4087 261.196 95.3016 261.732 95.0603C263.958 94.1487 265.03 91.5748 264.119 89.3227C263.207 87.1242 260.499 86.0786 258.407 86.9365C257.308 87.3655 256.45 88.2234 256.021 89.2959C255.565 90.3951 255.565 91.6016 256.021 92.6472C256.691 94.3095 258.3 95.382 260.07 95.382L260.043 95.4087ZM224.567 90.6901C225.157 90.6901 225.72 90.5828 226.256 90.3415C227.329 89.8857 228.187 89.0546 228.642 87.9822C229.098 86.9097 229.098 85.7032 228.642 84.604C227.731 82.4323 225.13 81.3331 222.904 82.2179C221.805 82.6736 220.973 83.5047 220.518 84.604C220.062 85.6764 220.062 86.8829 220.518 87.9553C221.188 89.6176 222.797 90.6632 224.567 90.6632V90.6901ZM244.678 75.3275C245.241 75.3275 245.804 75.2202 246.34 75.0058C247.44 74.55 248.271 73.692 248.727 72.6196C249.156 71.5471 249.156 70.3406 248.727 69.2682C247.842 67.0697 245.214 65.9437 242.989 66.8821C241.889 67.3379 241.058 68.1958 240.602 69.2682C240.146 70.3675 240.173 71.5471 240.602 72.6196C241.272 74.255 242.881 75.3275 244.651 75.3275H244.678Z" fill="#776503"/>
<path fill-rule="evenodd" clip-rule="evenodd" d="M213.545 84.819C211.454 100.691 222.609 115.303 238.483 117.394C254.358 119.512 268.972 108.359 271.063 92.46C273.182 76.5881 262 62.003 246.126 59.8581C230.251 57.7401 215.637 68.9201 213.545 84.7921V84.819ZM242.774 65.0057C245.509 63.8797 248.646 65.1667 249.772 67.9014C250.899 70.6361 249.611 73.7729 246.849 74.9258C244.114 76.0518 240.977 74.738 239.851 72.0302C238.698 69.2687 240.012 66.1318 242.747 65.0057H242.774ZM237.786 102.38C240.548 101.254 243.659 102.541 244.785 105.276C245.911 108.037 244.624 111.174 241.862 112.3C239.127 113.426 235.989 112.112 234.863 109.378C233.737 106.643 235.024 103.506 237.759 102.38H237.786ZM265.969 89.1087C267.095 91.8434 265.808 94.9802 263.046 96.1063C260.311 97.2323 257.173 95.9454 256.047 93.2107C254.921 90.476 256.208 87.3391 258.97 86.2131C261.705 85.087 264.842 86.3739 265.969 89.1355V89.1087ZM228.588 84.1219C229.715 86.8566 228.428 89.9935 225.692 91.1195C222.931 92.2456 219.82 90.9586 218.667 88.2239C217.541 85.4892 218.828 82.3524 221.59 81.2263C224.325 80.1003 227.462 81.3872 228.588 84.1487V84.1219Z" fill="#FCEEA3"/>
<path d="M242.345 120.048C240.977 120.048 239.583 119.968 238.162 119.78C221 117.501 208.88 101.656 211.132 84.4973C213.384 67.5797 229.044 55.1663 246.421 57.4988C263.609 59.8045 275.729 75.6229 273.45 92.7818C271.385 108.332 258.005 120.075 242.318 120.075L242.345 120.048ZM239.315 115.062C253.741 116.697 266.666 106.402 268.65 92.3797C268.221 94.9535 266.532 97.2324 263.958 98.3048C260.096 99.9135 255.404 97.9563 253.822 94.0955C253.044 92.1919 253.044 90.0739 253.822 88.1703C254.599 86.24 256.101 84.7654 258.032 83.961C261.866 82.3524 266.586 84.3096 268.168 88.1703C268.677 89.4036 268.838 90.6637 268.704 91.897C270.474 77.6069 260.472 64.4696 246.233 62.3247C248.78 62.8073 250.952 64.5233 251.944 66.9898C252.749 68.9202 252.749 71.0115 251.944 72.9418C251.14 74.8454 249.638 76.3468 247.735 77.1511C243.82 78.7597 239.181 76.8026 237.598 72.9418C236.794 71.0383 236.794 68.9202 237.598 66.9898C238.403 65.0863 239.905 63.5849 241.835 62.7805C242.988 62.2979 244.249 62.1103 245.428 62.2175C231.163 60.5016 218.184 70.6093 215.985 84.4973C216.093 84.0415 216.227 83.6125 216.415 83.1567C217.219 81.2532 218.721 79.7518 220.625 78.9743C224.459 77.3924 229.152 79.3227 230.761 83.1835C231.565 85.1139 231.538 87.2319 230.761 89.1355C229.956 91.0391 228.454 92.5405 226.551 93.318C222.689 94.8998 217.997 92.9695 216.388 89.1087C215.932 88.0363 215.744 86.9102 215.798 85.7841C214.269 99.8866 224.164 112.756 238.188 114.927C235.695 114.418 233.576 112.702 232.584 110.289C231.78 108.359 231.78 106.241 232.584 104.337C233.388 102.434 234.863 100.932 236.794 100.155C240.655 98.5461 245.348 100.503 246.93 104.364C247.735 106.294 247.735 108.386 246.93 110.316C246.126 112.22 244.624 113.721 242.72 114.525C241.621 114.981 240.441 115.169 239.261 115.088L239.315 115.062ZM239.824 104.337C239.422 104.337 239.046 104.418 238.671 104.579C237.947 104.873 237.384 105.436 237.062 106.16C236.767 106.884 236.767 107.689 237.062 108.439C237.679 109.914 239.422 110.638 240.924 110.048C241.648 109.753 242.237 109.19 242.532 108.439C242.827 107.715 242.827 106.911 242.532 106.16C242.077 105.061 241.004 104.337 239.797 104.337H239.824ZM261.008 88.1435C260.606 88.1435 260.23 88.2239 259.882 88.3848C259.158 88.6797 258.568 89.2428 258.273 89.9935C257.978 90.7174 257.978 91.5217 258.273 92.2724C258.89 93.747 260.633 94.4709 262.134 93.8811C263.636 93.2644 264.36 91.5217 263.743 90.0203C263.287 88.9211 262.215 88.1703 261.008 88.1703V88.1435ZM223.628 83.1567C223.252 83.1567 222.85 83.2372 222.502 83.398C221.751 83.693 221.188 84.256 220.893 84.9799C220.571 85.7038 220.571 86.5081 220.893 87.2588C221.509 88.7066 223.252 89.4573 224.754 88.8406C225.478 88.5457 226.068 87.9827 226.363 87.2588C226.658 86.5349 226.658 85.7306 226.363 84.9799C225.907 83.8806 224.834 83.1567 223.628 83.1567ZM244.812 66.963C244.436 66.963 244.034 67.0434 243.685 67.1775C242.935 67.4724 242.372 68.0354 242.077 68.7861C241.782 69.51 241.782 70.3143 242.077 71.0382C242.693 72.5128 244.436 73.2635 245.938 72.6469C246.662 72.352 247.225 71.7889 247.547 71.0382C247.842 70.3143 247.842 69.51 247.547 68.7593C247.091 67.6332 246.018 66.9362 244.812 66.9362V66.963Z" fill="#776503"/>
<path fill-rule="evenodd" clip-rule="evenodd" d="M178.498 200.561C163.75 200.775 149.753 195.36 139.348 184.85L23.8023 68.4643C-2.5569 41.8948 31.9809 -1.56552 63.8103 20.3389L175.978 81.0654L207.807 49.2409C254.626 2.42928 327.912 75.7032 281.093 122.515L221.295 182.222C209.389 194.126 193.836 200.347 178.498 200.588V200.561ZM261.303 107.769C271.841 97.2323 271.841 80.127 261.303 69.5904C250.765 59.0269 233.657 59.0269 223.092 69.5904C212.553 80.127 212.553 97.2323 223.092 107.769C233.63 118.332 250.738 118.332 261.303 107.769ZM56.3825 56.8552C62.6841 50.5815 62.6841 40.3666 56.3825 34.0928C50.1078 27.8191 39.9181 27.8191 33.6166 34.0928C27.3419 40.3666 27.3419 50.5815 33.6166 56.8552C39.9181 63.129 50.1078 63.129 56.3825 56.8552Z" fill="url(#paint0_linear_1330_20411)"/>
<path d="M31.9002 32.3761C24.6869 39.5882 24.6869 51.3313 31.9002 58.5434C35.3861 62.0288 40.052 63.9592 44.9859 63.9592C49.9199 63.9592 54.5589 62.0288 58.0717 58.5434C61.5844 55.058 63.4883 50.393 63.4883 45.4598C63.4883 40.5266 61.5576 35.8615 58.0717 32.3761C51.073 25.3785 38.8989 25.3785 31.9002 32.3761ZM54.6662 55.1385C49.4909 60.3129 40.481 60.3129 35.3057 55.1385C29.9695 49.8031 29.9695 41.1164 35.3057 35.7811C37.9067 33.1804 41.3391 31.7595 44.9859 31.7595C48.6328 31.7595 52.0919 33.1804 54.6662 35.7811C57.2672 38.3549 58.6884 41.8135 58.6884 45.4598C58.6884 49.1061 57.2672 52.5378 54.6662 55.1385Z" fill="#776503"/>
<path d="M242.183 59.2676C234.326 59.2676 226.925 62.324 221.375 67.8738C215.824 73.4236 212.767 80.8234 212.767 88.6522C212.767 96.5077 215.824 103.908 221.375 109.457C226.925 115.007 234.326 118.064 242.183 118.064C250.04 118.064 257.414 115.007 262.992 109.457C268.542 103.908 271.599 96.5077 271.599 88.6522C271.599 80.7966 268.542 73.4236 262.992 67.8738C257.441 62.324 250.04 59.2676 242.183 59.2676ZM259.586 106.079C254.947 110.717 248.753 113.291 242.183 113.291C235.614 113.291 229.446 110.744 224.78 106.079C220.141 101.441 217.567 95.2477 217.567 88.679C217.567 82.1104 220.114 75.9438 224.78 71.2788C229.446 66.6405 235.614 64.0666 242.183 64.0666C248.753 64.0666 254.92 66.6137 259.586 71.2788C264.225 75.917 266.799 82.1104 266.799 88.679C266.799 95.2477 264.252 101.441 259.586 106.079Z" fill="#776503"/>
<path d="M294.473 68.7048C285.463 46.9881 263.85 31.8131 241.888 31.8131C228.749 31.8131 216.361 37.2558 206.064 47.5511L175.494 78.1154L65.1237 18.381C58.9563 14.1449 52.4402 12 45.7364 12C32.5702 12 20.0744 20.7671 14.6578 33.7972C9.34842 46.5591 12.0835 60.179 22.0587 70.2062L137.605 186.592C148.116 197.182 162.328 203 177.613 203H178.498C194.882 202.759 211.105 195.815 222.957 183.938L282.755 124.23C298.334 108.653 302.598 88.4107 294.446 68.7316L294.473 68.7048ZM279.376 120.798L219.578 180.506C208.584 191.498 193.595 197.933 178.444 198.147H177.64C163.642 198.147 150.637 192.839 141.037 183.16L25.4911 66.7744C16.9639 58.1682 14.5773 46.5323 19.1359 35.5935C23.8285 24.3329 34.5277 16.7723 45.7901 16.7723C51.5017 16.7723 57.106 18.6222 62.6567 22.4294L174.824 83.1558C175.763 83.6653 176.916 83.5043 177.666 82.7536L209.496 50.9025C218.854 41.5187 230.063 36.5854 241.915 36.5854C261.651 36.5854 281.897 50.8488 290.048 70.5279C297.422 88.3303 293.534 106.642 279.376 120.798Z" fill="#776503"/>
<path fill-rule="evenodd" clip-rule="evenodd" d="M53.3523 76.0783C67.1084 72.3248 76.8423 59.4824 76.7082 45.1387L178.766 100.396L200.808 78.3573C193.273 108.707 220.517 136.858 251.06 130.397L210.247 171.149C194.346 187.048 167.102 190.614 150.45 173.83L53.3791 76.0515L53.3523 76.0783Z" fill="url(#paint1_linear_1330_20411)"/>
<path d="M177.505 187.263C166.458 187.263 156.214 183.107 148.706 175.547L51.6356 77.7677C51.0188 77.1511 50.8043 76.2931 51.0189 75.4619C51.2334 74.6308 51.877 73.9874 52.7082 73.7729C65.5526 70.2607 74.4284 58.5176 74.2943 45.1658C74.2943 44.3078 74.7234 43.5303 75.4474 43.0746C76.1714 42.6456 77.0831 42.6188 77.8339 43.021L178.31 97.42L199.065 76.6416C199.816 75.8641 201.022 75.7301 201.961 76.2395C202.899 76.7757 203.382 77.8749 203.114 78.9206C200.137 90.905 202.846 103.399 210.515 113.212C220.061 125.41 235.48 131.202 250.55 128.038C251.622 127.823 252.641 128.306 253.151 129.244C253.66 130.183 253.499 131.336 252.748 132.086L211.936 172.839C202.765 182.008 190.216 187.263 177.532 187.263H177.505ZM57.7763 77.0974L152.112 172.142C158.815 178.871 167.584 182.437 177.479 182.437C188.741 182.437 200.352 177.584 208.504 169.434L244.328 133.668C229.822 134.338 215.878 127.904 206.707 116.188C199.708 107.233 196.41 96.2939 197.214 85.2747L180.428 102.058C179.677 102.809 178.524 102.997 177.586 102.46L78.9065 49.0265C77.5926 61.5472 69.4408 72.3787 57.7763 77.0706V77.0974Z" fill="#776503"/>
<path fill-rule="evenodd" clip-rule="evenodd" d="M78.157 76.2391C78.157 80.4752 81.5893 83.9071 85.8529 83.9071C90.1165 83.9071 93.4952 80.4752 93.4952 76.2391C93.4952 72.003 90.0629 68.5713 85.8261 68.5713C81.5893 68.5713 78.157 72.003 78.157 76.2391Z" fill="#FCEEA3"/>
<path d="M85.8258 86.2931C80.2751 86.2931 75.7434 81.7889 75.7434 76.2391C75.7434 70.6893 80.2483 66.185 85.799 66.1582C91.3498 66.1582 95.8815 70.6624 95.8815 76.2122C95.8815 81.7621 91.3766 86.2931 85.8258 86.2931ZM85.8258 70.9574C82.9298 70.9574 80.5701 73.3167 80.5701 76.2122C80.5701 79.1078 82.9299 81.4672 85.8527 81.4672C88.7755 81.4672 91.1084 79.1078 91.1084 76.2122C91.1084 73.3167 88.7487 70.9574 85.8527 70.9574H85.8258Z" fill="#776503"/>
<path fill-rule="evenodd" clip-rule="evenodd" d="M234.649 88.6259C234.649 92.862 238.081 96.2938 242.345 96.2938C246.608 96.2938 249.987 92.862 249.987 88.6259C249.987 84.3898 246.555 80.958 242.318 80.958C238.081 80.958 234.649 84.3898 234.649 88.6259Z" fill="url(#paint2_linear_1330_20411)"/>
<path d="M242.344 98.7067C236.794 98.7067 232.262 94.2025 232.262 88.6527C232.262 83.1028 236.767 78.5986 242.318 78.5986C247.868 78.5986 252.4 83.1028 252.4 88.6527C252.4 94.2025 247.895 98.7336 242.344 98.7336V98.7067ZM242.344 83.3709C239.448 83.3709 237.089 85.7303 237.089 88.6258C237.089 91.5214 239.448 93.8808 242.371 93.8808C245.294 93.8808 247.627 91.5214 247.627 88.6258C247.627 85.7303 245.267 83.3709 242.344 83.3709Z" fill="#776503"/>
<path fill-rule="evenodd" clip-rule="evenodd" d="M190.081 129.405V138.44V147.502L182.251 152.006L174.394 156.537L166.564 152.006L158.734 147.502V138.44V129.405L166.564 124.874L174.394 120.343L182.251 124.874L190.081 129.405Z" fill="url(#paint3_linear_1330_20411)"/>
<path fill-rule="evenodd" clip-rule="evenodd" d="M189.733 129.592V147.287L182.063 151.711L174.394 156.135L168.468 152.73L183.78 126.187L189.706 129.592H189.733ZM165.009 150.692L180.347 124.15L174.421 120.718L166.752 125.142L159.083 129.565V147.26L165.009 150.692ZM194.05 127.099L174.394 115.758L154.739 127.099V149.781L174.394 161.122L194.05 149.781V127.099Z" fill="#776503"/>
</g>
<defs>
<filter id="filter0_f_1330_20411" x="0" y="0" width="310.5" height="215" filterUnits="userSpaceOnUse" color-interpolation-filters="sRGB">
<feFlood flood-opacity="0" result="BackgroundImageFix"/>
<feBlend mode="normal" in="SourceGraphic" in2="BackgroundImageFix" result="shape"/>
<feGaussianBlur stdDeviation="2" result="effect1_foregroundBlur_1330_20411"/>
</filter>
<linearGradient id="paint0_linear_1330_20411" x1="155.291" y1="14.3682" x2="155.291" y2="200.588" gradientUnits="userSpaceOnUse">
<stop stop-color="#FCD1A3"/>
<stop offset="0.519298" stop-color="#DDBC06"/>
<stop offset="1" stop-color="#776503"/>
</linearGradient>
<linearGradient id="paint1_linear_1330_20411" x1="152.206" y1="45.1387" x2="152.206" y2="184.857" gradientUnits="userSpaceOnUse">
<stop offset="0.519298" stop-color="#FBD921"/>
<stop offset="1" stop-color="#958114"/>
</linearGradient>
<linearGradient id="paint2_linear_1330_20411" x1="242.318" y1="80.958" x2="242.318" y2="96.2938" gradientUnits="userSpaceOnUse">
<stop stop-color="#FCD1A3"/>
<stop offset="0.519298" stop-color="#DDBC06"/>
<stop offset="1" stop-color="#776503"/>
</linearGradient>
<linearGradient id="paint3_linear_1330_20411" x1="174.407" y1="120.343" x2="174.407" y2="156.537" gradientUnits="userSpaceOnUse">
<stop stop-color="#FCD1A3"/>
<stop offset="0.519298" stop-color="#DDBC06"/>
<stop offset="1" stop-color="#776503"/>
</linearGradient>
</defs>
</svg>
